<svg xmlns="http://www.w3.org/2000/svg" xmlns:xlink="http://www.w3.org/1999/xlink" viewBox="0 0 234 176.06"><defs><style>.cls-1,.cls-16{opacity:0.3;}.cls-1{fill:url(#linear-gradient);}.cls-2{fill:url(#linear-gradient-2);}.cls-3{fill:url(#linear-gradient-3);}.cls-4{fill:url(#linear-gradient-4);}.cls-5{fill:#f39600;}.cls-6{fill:url(#linear-gradient-5);}.cls-7{fill:url(#linear-gradient-6);}.cls-8{fill:#feed00;}.cls-9{fill:url(#linear-gradient-7);}.cls-10{fill:url(#linear-gradient-8);}.cls-11{fill:url(#linear-gradient-9);}.cls-12{fill:url(#linear-gradient-10);}.cls-13{fill:url(#linear-gradient-11);}.cls-14{fill:url(#linear-gradient-12);}.cls-15{fill:url(#linear-gradient-13);}.cls-16{fill:url(#linear-gradient-14);}.cls-17{fill:url(#linear-gradient-15);}.cls-18{fill:url(#linear-gradient-16);}.cls-19{fill:url(#linear-gradient-17);}.cls-20{fill:url(#linear-gradient-18);}.cls-21{fill:url(#linear-gradient-19);}.cls-22{fill:url(#linear-gradient-20);}.cls-23{fill:url(#linear-gradient-21);}.cls-24{fill:url(#linear-gradient-22);}.cls-25{fill:url(#linear-gradient-23);}.cls-26{fill:url(#linear-gradient-24);}.cls-27{fill:url(#linear-gradient-25);}.cls-28{fill:url(#linear-gradient-26);}</style><linearGradient id="linear-gradient" x1="8596.83" y1="94.73" x2="8648.51" y2="94.73" gradientTransform="matrix(-1, 0, 0, 1, 8828.85, 0)" gradientUnits="userSpaceOnUse"><stop offset="0" stop-color="#00366a"/><stop offset="0.33" stop-color="#003368"/><stop offset="0.57" stop-color="#012a62"/><stop offset="0.78" stop-color="#031a57"/><stop offset="0.97" stop-color="#050448"/><stop offset="1" stop-color="#050046"/></linearGradient><linearGradient id="linear-gradient-2" x1="8596.83" y1="162.84" x2="8648.51" y2="162.84" gradientTransform="matrix(-1, 0, 0, 1, 8828.85, 0)" gradientUnits="userSpaceOnUse"><stop offset="0" stop-color="#ceddfe"/><stop offset="1" stop-color="#aebde6"/></linearGradient><linearGradient id="linear-gradient-3" x1="8596.83" y1="149.63" x2="8648.51" y2="149.63" gradientTransform="matrix(-1, 0, 0, 1, 8828.85, 0)" gradientUnits="userSpaceOnUse"><stop offset="0" stop-color="#f4f9ff"/><stop offset="1" stop-color="#cad8f3"/></linearGradient><linearGradient id="linear-gradient-4" x1="8602.53" y1="149.63" x2="8642.81" y2="149.63" xlink:href="#linear-gradient-3"/><linearGradient id="linear-gradient-5" x1="8608.2" y1="149.63" x2="8637.14" y2="149.63" xlink:href="#linear-gradient"/><linearGradient id="linear-gradient-6" x1="8596.83" y1="142.17" x2="8648.51" y2="142.17" xlink:href="#linear-gradient-2"/><linearGradient id="linear-gradient-7" x1="8596.83" y1="126.19" x2="8648.51" y2="126.19" gradientTransform="matrix(-1, 0, 0, 1, 8828.85, 0)" gradientUnits="userSpaceOnUse"><stop offset="0" stop-color="#766be5"/><stop offset="0.11" stop-color="#877ced"/><stop offset="0.25" stop-color="#9287f2"/><stop offset="0.44" stop-color="#998ef5"/><stop offset="0.98" stop-color="#9b90f6"/></linearGradient><linearGradient id="linear-gradient-8" x1="8596.83" y1="107.66" x2="8648.51" y2="107.66" gradientTransform="matrix(-1, 0, 0, 1, 8828.85, 0)" gradientUnits="userSpaceOnUse"><stop offset="0" stop-color="#8773f8"/><stop offset="0.45" stop-color="#8773f8" stop-opacity="0.99"/><stop offset="0.61" stop-color="#8773f8" stop-opacity="0.97"/><stop offset="0.73" stop-color="#8774f8" stop-opacity="0.92"/><stop offset="0.82" stop-color="#8874f8" stop-opacity="0.85"/><stop offset="0.9" stop-color="#8875f7" stop-opacity="0.76"/><stop offset="0.97" stop-color="#8976f7" stop-opacity="0.66"/><stop offset="0.98" stop-color="#8976f7" stop-opacity="0.64"/></linearGradient><linearGradient id="linear-gradient-9" x1="8594.85" y1="74.09" x2="8650.49" y2="74.09" xlink:href="#linear-gradient-2"/><linearGradient id="linear-gradient-10" x1="8594.85" y1="61.8" x2="8650.49" y2="61.8" xlink:href="#linear-gradient-3"/><linearGradient id="linear-gradient-11" x1="8611.17" y1="60.04" x2="8634.17" y2="60.04" xlink:href="#linear-gradient-2"/><linearGradient id="linear-gradient-12" x1="8611.17" y1="54.15" x2="8634.17" y2="54.15" xlink:href="#linear-gradient-3"/><linearGradient id="linear-gradient-13" x1="156.83" y1="-8.74" x2="78.13" y2="44.58" gradientTransform="translate(90)" xlink:href="#linear-gradient"/><linearGradient id="linear-gradient-14" x1="8775.2" y1="94.73" x2="8826.87" y2="94.73" xlink:href="#linear-gradient"/><linearGradient id="linear-gradient-15" x1="8775.2" y1="162.84" x2="8826.87" y2="162.84" xlink:href="#linear-gradient-2"/><linearGradient id="linear-gradient-16" x1="8775.2" y1="149.63" x2="8826.87" y2="149.63" xlink:href="#linear-gradient-3"/><linearGradient id="linear-gradient-17" x1="8780.89" y1="149.63" x2="8821.18" y2="149.63" xlink:href="#linear-gradient-3"/><linearGradient id="linear-gradient-18" x1="8786.57" y1="149.63" x2="8815.5" y2="149.63" xlink:href="#linear-gradient"/><linearGradient id="linear-gradient-19" x1="8775.2" y1="142.17" x2="8826.87" y2="142.17" xlink:href="#linear-gradient-2"/><linearGradient id="linear-gradient-20" x1="8775.2" y1="126.19" x2="8826.87" y2="126.19" xlink:href="#linear-gradient-7"/><linearGradient id="linear-gradient-21" x1="8775.2" y1="107.66" x2="8826.87" y2="107.66" xlink:href="#linear-gradient-8"/><linearGradient id="linear-gradient-22" x1="8773.22" y1="74.09" x2="8828.85" y2="74.09" xlink:href="#linear-gradient-2"/><linearGradient id="linear-gradient-23" x1="8773.22" y1="61.8" x2="8828.85" y2="61.8" xlink:href="#linear-gradient-3"/><linearGradient id="linear-gradient-24" x1="8789.54" y1="60.04" x2="8812.54" y2="60.04" xlink:href="#linear-gradient-2"/><linearGradient id="linear-gradient-25" x1="8789.54" y1="54.15" x2="8812.54" y2="54.15" xlink:href="#linear-gradient-3"/><linearGradient id="linear-gradient-26" x1="8606.49" y1="-8.74" x2="8527.79" y2="44.58" gradientTransform="matrix(-1, 0, 0, 1, 8593.66, 0)" xlink:href="#linear-gradient"/></defs><g id="Layer_2" data-name="Layer 2"><g id="Layer_2-2" data-name="Layer 2"><rect class="cls-1" x="180.35" y="60.53" width="51.67" height="68.4"/><path class="cls-2" d="M232,149.63v10.91c0,8.57-11.57,15.52-25.84,15.52s-25.83-6.95-25.83-15.52V149.63Z"/><ellipse class="cls-3" cx="206.18" cy="149.63" rx="25.84" ry="15.52"/><ellipse class="cls-4" cx="206.18" cy="149.63" rx="20.14" ry="12.1"/><path class="cls-5" d="M186,100.35l-1.57,1c.27-.21.55-.41.83-.61v-.06Z"/><ellipse class="cls-6" cx="206.18" cy="149.63" rx="14.47" ry="8.69"/><path class="cls-7" d="M232,128.93v11c0,8.57-11.57,15.52-25.84,15.52s-25.83-6.95-25.83-15.52v-11Z"/><ellipse class="cls-8" cx="206.18" cy="128.93" rx="25.84" ry="15.52"/><path class="cls-9" d="M232,107.66v21.55c0,8.57-11.57,15.52-25.84,15.52s-25.83-6.95-25.83-15.52V107.66Z"/><ellipse class="cls-10" cx="206.18" cy="107.66" rx="25.84" ry="15.52"/><path class="cls-11" d="M234,61.8v7.88c0,9.23-12.45,16.71-27.82,16.71s-27.81-7.48-27.81-16.71V61.8Z"/><ellipse class="cls-12" cx="206.18" cy="61.8" rx="27.82" ry="16.71"/><path class="cls-13" d="M217.68,54.15V59c0,3.82-5.15,6.91-11.5,6.91s-11.5-3.09-11.5-6.91V54.15Z"/><ellipse class="cls-14" cx="206.18" cy="54.15" rx="11.5" ry="6.91"/><ellipse class="cls-5" cx="206.18" cy="54.15" rx="5.79" ry="3.48"/><path class="cls-15" d="M212.37,54.15l0-19.77A22.75,22.75,0,0,0,201,13.74L178.93.89a6.62,6.62,0,0,0-6.65,0h0a6.11,6.11,0,0,0-.09,10.5l21.9,13.27a12.16,12.16,0,0,1,5.84,10.38v19.1s.83,3.47,6.51,3.47S212.37,54.15,212.37,54.15Z"/><rect class="cls-16" x="1.98" y="60.53" width="51.67" height="68.4"/><path class="cls-17" d="M2,149.63v10.91c0,8.57,11.57,15.52,25.84,15.52s25.83-6.95,25.83-15.52V149.63Z"/><ellipse class="cls-18" cx="27.82" cy="149.63" rx="25.84" ry="15.52"/><ellipse class="cls-19" cx="27.82" cy="149.63" rx="20.14" ry="12.1"/><path class="cls-5" d="M48.05,100.35l1.57,1c-.27-.21-.55-.41-.83-.61v-.06Z"/><ellipse class="cls-20" cx="27.82" cy="149.63" rx="14.47" ry="8.69"/><path class="cls-21" d="M2,128.93v11c0,8.57,11.57,15.52,25.84,15.52s25.83-6.95,25.83-15.52v-11Z"/><ellipse class="cls-8" cx="27.82" cy="128.93" rx="25.84" ry="15.52"/><path class="cls-22" d="M2,107.66v21.55c0,8.57,11.57,15.52,25.84,15.52s25.83-6.95,25.83-15.52V107.66Z"/><ellipse class="cls-23" cx="27.82" cy="107.66" rx="25.84" ry="15.52"/><path class="cls-24" d="M0,61.8v7.88c0,9.23,12.45,16.71,27.82,16.71s27.81-7.48,27.81-16.71V61.8Z"/><ellipse class="cls-25" cx="27.82" cy="61.8" rx="27.82" ry="16.71"/><path class="cls-26" d="M16.32,54.15V59c0,3.82,5.15,6.91,11.5,6.91s11.5-3.09,11.5-6.91V54.15Z"/><ellipse class="cls-27" cx="27.82" cy="54.15" rx="11.5" ry="6.91"/><ellipse class="cls-5" cx="27.82" cy="54.15" rx="5.79" ry="3.48"/><path class="cls-28" d="M21.63,54.15l0-19.77A22.75,22.75,0,0,1,33,13.74L55.07.89a6.62,6.62,0,0,1,6.65,0h0a6.11,6.11,0,0,1,.09,10.5L39.91,24.67a12.16,12.16,0,0,0-5.84,10.38v19.1s-.83,3.47-6.51,3.47S21.63,54.15,21.63,54.15Z"/></g></g></svg>