<svg xmlns="http://www.w3.org/2000/svg" viewBox="0 0 62.05 62.06"><defs><style>.cls-1{fill:#4d72f7;}.cls-2{fill:#3d62c9;}.cls-3{fill:#fff;}</style></defs><g id="Layer_2" data-name="Layer 2"><g id="Layer_2-2" data-name="Layer 2"><g id="Group_2880" data-name="Group 2880"><path id="Path_7076" data-name="Path 7076" class="cls-1" d="M62.05,31a30.91,30.91,0,1,1,0-.24Z"/><path id="Path_7077" data-name="Path 7077" class="cls-2" d="M59.3,43.82A31.08,31.08,0,0,1,21.21,60.47l-5.93-20,28.78-14.4Z"/><g id="Group_2877" data-name="Group 2877"><path id="Path_7078" data-name="Path 7078" class="cls-3" d="M47.61,36A16.59,16.59,0,1,1,24.24,20.88a3.23,3.23,0,0,0,1.89-3L26,13.73a.26.26,0,0,0-.26-.26h0a2.08,2.08,0,0,1-2.08-1.81,2,2,0,0,1,1.8-2.25l.22,0H36.18a2.08,2.08,0,0,1,2.08,1.81,2,2,0,0,1-1.79,2.25l-.23,0h0a.39.39,0,0,0-.4.4L36,17.93a3.27,3.27,0,0,0,1.92,3A16.59,16.59,0,0,1,47.61,36Z"/><path id="Path_7079" data-name="Path 7079" class="cls-1" d="M44.68,35.87a13.52,13.52,0,0,1-26.81,2.52c3.2-4.09,7.81-3.53,13.55-.2a10.05,10.05,0,0,0,13.26-2.62Z"/></g></g></g></g></svg>