<svg xmlns="https://www.w3.org/2000/svg" xmlns:xlink="https://www.w3.org/1999/xlink" viewBox="0 0 200.93 282.43"><defs><style>.cls-1{fill:url(#linear-gradient);}.cls-2{fill:#fff;}.cls-3{fill:url(#linear-gradient-2);}.cls-4{fill:url(#linear-gradient-3);}.cls-5{fill:url(#linear-gradient-4);}</style><linearGradient id="linear-gradient" x1="-6992.96" y1="1682.97" x2="-6990.32" y2="1682.97" gradientTransform="matrix(66.77, 0, 0, -112.31, 469797.21, 189158.6)" gradientUnits="userSpaceOnUse"><stop offset="0" stop-color="#7352fa"/><stop offset="1" stop-color="#a44bfe"/></linearGradient><linearGradient id="linear-gradient-2" x1="-7041.97" y1="1661.52" x2="-7041.97" y2="1659.91" gradientTransform="matrix(72.14, 0, 0, -147.78, 508146.03, 248617.24)" xlink:href="#linear-gradient"/><linearGradient id="linear-gradient-3" x1="-7027.1" y1="1681.42" x2="-7024.46" y2="1681.42" gradientTransform="matrix(86.41, 0, 0, -145.3, 610055.72, 244458.09)" xlink:href="#linear-gradient"/><linearGradient id="linear-gradient-4" x1="171.22" y1="301.26" x2="104.84" y2="-10.23" gradientUnits="userSpaceOnUse"><stop offset="0.06" stop-color="#666" stop-opacity="0.23"/><stop offset="0.88" stop-color="#fff" stop-opacity="0"/></linearGradient></defs><g id="Layer_2" data-name="Layer 2"><g id="Layer_2-2" data-name="Layer 2"><path id="Path_6901" data-name="Path 6901" class="cls-1" d="M27.66,75.64c18-45.2,57.06-51.11,87.1-13.19s39.94,105.27,22,150.46S79.65,264,49.61,226.13,9.67,120.85,27.66,75.64Z"/><path id="Path_6902" data-name="Path 6902" class="cls-2" d="M24.07,71.11C43.24,22.93,84.82,16.61,116.91,57s42.57,112.23,23.39,160.41S79.57,272,47.46,231.5,4.89,119.27,24.07,71.11Zm112.56,141.8c18-45.19,8.16-112.57-21.95-150.46s-69.1-32-87.1,13.19-8.16,112.56,22,150.49,69.18,32,87.09-13.22"/><path id="Path_6904" data-name="Path 6904" class="cls-3" d="M133.74,9a65.27,65.27,0,0,0-9-4.36,56.86,56.86,0,0,0-8.35-2.51,48.74,48.74,0,0,0-16.11-.86L63.71,6.46a45.74,45.74,0,0,1,8-.25,50.09,50.09,0,0,1,8.09,1.08,56.94,56.94,0,0,1,8.35,2.53,64,64,0,0,1,9,4.34,79.32,79.32,0,0,1,10.43,7.21A107.35,107.35,0,0,1,122,35.65l2.38,2.82A156.72,156.72,0,0,1,142,66.71a198.42,198.42,0,0,1,10.29,25.11c1.6,4.76,3.8,11.61,5.23,17.12h-.21q1.86,7.49,3.23,15.12,1.28,7,2.13,14.1c.54,4.54,1,9.11,1.24,13.66s.44,9.09.46,13.6-.1,9.37-.38,14q-.45,7.61-1.43,14.87c-.8,6-1.9,11.83-3.2,17.54h0a153.05,153.05,0,0,1-6.63,21.26c-11.72,29.43-30.31,46-50.87,48.93l36.56-5.22c20.54-2.94,39.13-19.49,50.85-48.94a153.05,153.05,0,0,0,6.63-21.26q2-8.57,3.22-17.54,1-7.32,1.42-14.88c.27-4.62.4-9.3.39-14s-.18-9.06-.46-13.61-.7-9.11-1.26-13.65-1.27-9.42-2.13-14.1q-1.37-7.6-3.23-15.1c-1.47-5.84-3.12-11.58-5-17.21a204.52,204.52,0,0,0-10.29-25.11h0a158.85,158.85,0,0,0-17.67-28.25l-1.24-1.54h0a109.32,109.32,0,0,0-15.46-15.56A79.78,79.78,0,0,0,133.74,9Z"/><path id="Path_6905" data-name="Path 6905" class="cls-4" d="M11.64,55.45C34.93-3,85.37-10.68,124.33,38.33S176,174.55,152.73,233,79,299.17,40,250.14-11.64,114,11.64,55.45Zm128.66,162C159.48,169.28,149,97.45,116.91,57S43.24,22.93,24.07,71.11s-8.72,120,23.39,160.42,73.67,34.11,92.84-14.09"/><path class="cls-2" d="M103.53,106.39c2,1.35,3.71,2.7,5.73,4.27,2.47,1.92,5.26,4.09,9,6.67l.25-12.57c-3.4-2.32-5.89-4.27-8.3-6.14-2.11-1.65-4.12-3.2-6.44-4.79-11-7.54-18-2.7-18.31,12.63l-.12,6.05-7-4.8-.25,12.56,7,4.8-.77,39.58c-3.89-6.33-8.71-11.79-14-15.39C57.1,140.16,46,146.37,45.71,163.1s10.2,37.74,23.47,46.84,24.33,2.88,24.66-13.84q0-.69,0-1.38l1.23-62.82,17.3,11.86.24-12.56L95.32,119.34l.12-6C95.68,101,101.39,104.92,103.53,106.39Zm-34.11,91c-7.77-5.32-13.94-17.63-13.75-27.43s6.68-13.45,14.45-8.12c7.5,5.14,13.5,16.77,13.75,26.39,0,.36,0,.71,0,1.06C83.68,199.07,77.2,202.7,69.42,197.37Z"/><path id="Path_6904-2" data-name="Path 6904" class="cls-5" d="M133.74,8a64.15,64.15,0,0,0-9-4.36,56.86,56.86,0,0,0-8.35-2.51A48.74,48.74,0,0,0,100.25.31L63.71,5.54a46.73,46.73,0,0,1,8-.24,50.09,50.09,0,0,1,8.09,1.08,56.94,56.94,0,0,1,8.35,2.53,64,64,0,0,1,9,4.34,79.32,79.32,0,0,1,10.43,7.21A106.76,106.76,0,0,1,122,34.74l2.38,2.82A156,156,0,0,1,142,65.8a198.42,198.42,0,0,1,10.29,25.11c1.6,4.76,3.8,11.6,5.23,17.12h-.21c1.24,5,2.32,10,3.23,15.12q1.28,7,2.13,14.1c.54,4.54,1,9.11,1.24,13.65s.44,9.1.46,13.6-.1,9.38-.38,14c-.3,5.08-.77,10-1.43,14.88-.8,6-1.9,11.83-3.2,17.54h0a153.48,153.48,0,0,1-6.63,21.26c-11.72,29.43-30.31,46-50.87,48.92l36.56-5.21C159,272.94,177.55,256.4,189.27,227a153.48,153.48,0,0,0,6.63-21.26q2-8.56,3.22-17.54,1-7.32,1.42-14.88c.27-4.62.4-9.3.39-14s-.18-9.05-.46-13.6-.7-9.11-1.26-13.65-1.27-9.42-2.13-14.1q-1.37-7.61-3.23-15.1c-1.47-5.84-3.12-11.59-5-17.22a204.38,204.38,0,0,0-10.29-25.1h0a158.5,158.5,0,0,0-17.67-28.25l-1.24-1.54h0a108.8,108.8,0,0,0-15.46-15.56A79.78,79.78,0,0,0,133.74,8Z"/></g></g></svg>