<svg xmlns="http://www.w3.org/2000/svg" xmlns:xlink="http://www.w3.org/1999/xlink" viewBox="0 0 375.83 333.4"><defs><style>.cls-1{fill:#1a49a8;}.cls-2{fill:#fff;}.cls-3{opacity:0.12;fill:url(#linear-gradient);}.cls-4{fill:#ffbf00;}.cls-5{fill:url(#linear-gradient-2);}</style><linearGradient id="linear-gradient" x1="136.79" y1="325.79" x2="127.6" y2="-15.06" gradientUnits="userSpaceOnUse"><stop offset="0"/><stop offset="0.76" stop-opacity="0"/></linearGradient><linearGradient id="linear-gradient-2" x1="346.12" y1="6499.39" x2="279.74" y2="6187.9" gradientTransform="translate(0 -6197.7)" gradientUnits="userSpaceOnUse"><stop offset="0.06" stop-color="#666" stop-opacity="0.23"/><stop offset="0.88" stop-color="#fff" stop-opacity="0"/></linearGradient></defs><g id="Layer_2" data-name="Layer 2"><g id="Layer_1-2" data-name="Layer 1"><g id="Group_2908" data-name="Group 2908"><path id="Path_6901" data-name="Path 6901" class="cls-1" d="M27.66,126.61c18-45.2,57.06-51.11,87.1-13.18s39.94,105.26,22,150.45S79.65,315,49.61,277.1,9.67,171.82,27.66,126.61Z"/><path id="Path_6902" data-name="Path 6902" class="cls-2" d="M24.07,122.08C43.24,73.9,84.82,67.59,116.91,108s42.57,112.22,23.39,160.4-60.73,54.52-92.84,14.06S4.89,170.24,24.07,122.08Zm112.56,141.8c18-45.19,8.16-112.56-21.95-150.45s-69.1-32-87.1,13.18-8.16,112.57,22,150.49,69.18,32,87.09-13.22"/><path id="Path_6904" data-name="Path 6904" class="cls-1" d="M133.74,59.92a65.27,65.27,0,0,0-9-4.36,56.86,56.86,0,0,0-8.35-2.51,48.47,48.47,0,0,0-16.11-.85L63.71,57.43a46.73,46.73,0,0,1,8-.25,50.09,50.09,0,0,1,8.09,1.08,58.18,58.18,0,0,1,8.35,2.53,64,64,0,0,1,9,4.34,79.32,79.32,0,0,1,10.43,7.21A106.83,106.83,0,0,1,122,86.63l2.38,2.81A156.45,156.45,0,0,1,142,117.69a197.22,197.22,0,0,1,10.29,25.11c1.6,4.75,3.8,11.6,5.23,17.11h-.21c1.24,5,2.32,10.05,3.23,15.13q1.28,7,2.13,14.09.81,6.83,1.24,13.66c.29,4.54.44,9.09.46,13.6s-.1,9.38-.38,14q-.45,7.61-1.43,14.87c-.8,6-1.9,11.83-3.2,17.54h0a153.61,153.61,0,0,1-6.63,21.27c-11.72,29.42-30.31,46-50.87,48.92l36.56-5.21c20.54-2.95,39.13-19.5,50.85-48.94a153.61,153.61,0,0,0,6.63-21.27q2-8.56,3.22-17.54,1-7.32,1.42-14.87c.27-4.62.4-9.3.39-14s-.18-9.06-.46-13.6-.7-9.11-1.26-13.66-1.27-9.42-2.13-14.09q-1.37-7.62-3.23-15.11c-1.47-5.84-3.12-11.58-5-17.21a204.52,204.52,0,0,0-10.29-25.11h0a158.85,158.85,0,0,0-17.67-28.25l-1.24-1.54h0A109.84,109.84,0,0,0,144.19,67a79.78,79.78,0,0,0-10.45-7.11Z"/><path id="Path_6905" data-name="Path 6905" class="cls-1" d="M11.64,106.43C34.93,47.94,85.37,40.29,124.33,89.31S176,225.52,152.73,284,79,350.15,40,301.11-11.64,164.94,11.64,106.43Zm128.66,162c19.18-48.16,8.72-120-23.39-160.4S43.24,73.9,24.07,122.08s-8.72,120,23.39,160.43,73.67,34.1,92.84-14.1"/></g><path id="Path_6904-2" data-name="Path 6904" class="cls-3" d="M133,60.33A64.75,64.75,0,0,0,124,56a55,55,0,0,0-8.35-2.52,49,49,0,0,0-16.11-.85L63,57.84a47.85,47.85,0,0,1,8-.25,48.89,48.89,0,0,1,8.08,1.09,55,55,0,0,1,8.35,2.53,63.53,63.53,0,0,1,9,4.33,80.18,80.18,0,0,1,10.42,7.21A106.25,106.25,0,0,1,121.24,87l2.38,2.81a155.9,155.9,0,0,1,17.67,28.25,197.22,197.22,0,0,1,10.29,25.11c1.6,4.75,3.81,11.6,5.23,17.12h-.21c1.24,5,2.32,10,3.24,15.12q1.28,7,2.13,14.09c.53,4.55.95,9.11,1.23,13.66s.44,9.09.46,13.6-.09,9.38-.38,14q-.43,7.6-1.43,14.87c-.8,6-1.9,11.84-3.19,17.54h0A153.65,153.65,0,0,1,152,284.48c-11.72,29.42-30.3,46-50.86,48.92l36.56-5.21c20.54-2.95,39.12-19.5,50.84-48.94A152.3,152.3,0,0,0,195.2,258c1.33-5.71,2.41-11.54,3.21-17.54q1-7.32,1.43-14.87c.27-4.62.4-9.3.38-14s-.17-9-.46-13.6-.7-9.11-1.25-13.66-1.28-9.41-2.13-14.09q-1.38-7.62-3.24-15.11-2.19-8.76-5-17.21a201.42,201.42,0,0,0-10.29-25.11h0a157.85,157.85,0,0,0-17.67-28.24L158.94,83h0a108.72,108.72,0,0,0-15.46-15.55A79.44,79.44,0,0,0,133,60.33Z"/><g id="Layer_2-2" data-name="Layer 2"><g id="Layer_1-2-2" data-name="Layer 1-2"><path class="cls-2" d="M58.87,176.77c-.68,5.54,1.56,12.89,5,16.41l.37.35c3.45,3.21,6.63,1.16,7.08-4.62s-1.92-13-5.38-16.18C62.6,169.65,59.5,171.42,58.87,176.77Z"/><path class="cls-2" d="M35.86,152.45c-1.1-1.16-2.19-.61-2.39,1.19A7.32,7.32,0,0,0,35.08,159c1.09,1.16,2.15.59,2.38-1.19a7.33,7.33,0,0,0-1.6-5.31Z"/><path class="cls-2" d="M63.5,116.11c1.06.1,1.62-1.59,1.27-3.7s-1.54-3.91-2.59-4-1.62,1.56-1.26,3.66,1.5,4,2.58,4Z"/><path class="cls-2" d="M68.28,140.38c1.64.15,2.52-2.4,2-5.67s-2.34-6-4-6.18-2.52,2.4-2,5.66S66.65,140.23,68.28,140.38Z"/><path class="cls-2" d="M46,133.19c1.08,2.38,2.7,3.32,3.65,2.08s.83-4.19-.24-6.61-2.7-3.32-3.66-2.08h0C44.77,127.82,44.89,130.82,46,133.19Z"/><path class="cls-2" d="M47.68,161.47c-1.72-1.77-3.35-.95-3.69,1.84a11.26,11.26,0,0,0,2.48,8.2c1.71,1.78,3.35,1,3.69-1.84h0A11.36,11.36,0,0,0,47.68,161.47Z"/><path class="cls-2" d="M41.34,193.11c-1.34-.1-2.07,2-1.61,4.7s1.92,5,3.3,5.11,2.07-2,1.61-4.7h0c-.47-2.69-2-5-3.3-5.11Z"/><path class="cls-2" d="M57.23,158.8c1.55,3.44,3.88,4.77,5.2,2.94s1.2-6-.35-9.42-3.89-4.76-5.21-2.94-1.19,6,.36,9.42Z"/><path class="cls-2" d="M97.84,167.48c1.3,2.89,3.31,4.05,4.44,2.54s1-5.13-.29-8-3.3-4.05-4.44-2.54h0c-1.16,1.53-1,5.11.29,8Z"/><path class="cls-2" d="M105.73,155.1c.85,1.9,2.13,2.6,2.87,1.61s.65-3.3-.2-5.2-2.13-2.59-2.87-1.65-.62,3.36.2,5.24Z"/><path class="cls-2" d="M95.61,200.32c-3.4-3.52-6.73-1.88-7.38,3.68s1.56,12.92,5,16.41l.35.32c3.42,3.19,6.6,1.14,7.08-4.62.48-5.44-1.73-12.42-5-15.79Z"/><path class="cls-2" d="M68.17,168.2c.77,4.48,2.73,8.7,5.1,10.91,3.43,3.19,6.6,1.14,7.08-4.62a21.74,21.74,0,0,0-.27-5.31c-1.13-6.59-4.71-12.13-8-12.39S67,161.65,68.17,168.2Z"/><path class="cls-2" d="M118.09,200.39c1.35.11,2.06-2,1.59-4.72s-2-5-3.3-5.07-2,2-1.61,4.66,2,5,3.32,5.13Z"/><path class="cls-2" d="M102,189c-1.93-.15-3,2.82-2.31,6.67s2.76,7.13,4.68,7.29,3-2.81,2.31-6.67S104,189.17,102,189Z"/><path class="cls-2" d="M84.7,133.82c1.39,1.43,2.75.75,3-1.5a9.47,9.47,0,0,0-2-6.78c-1.4-1.43-2.75-.79-3,1.46a9.54,9.54,0,0,0,2,6.82Z"/><path class="cls-2" d="M82.44,160.66c2,2.09,3.94,1.1,4.32-2.18s-.91-7.58-2.91-9.63-3.95-1.11-4.33,2.17.91,7.59,2.92,9.64Z"/><path class="cls-2" d="M57.41,204.53c1.92.16,3-2.82,2.31-6.67S57,190.73,55,190.57s-3,2.82-2.31,6.67S55.48,204.37,57.41,204.53Z"/><path class="cls-2" d="M84.06,171.79c-2.28,3.06-2,10.21.6,16s6.59,8.08,8.86,5,2-10.22-.6-16A15.05,15.05,0,0,0,89.65,172C87.56,170,85.46,170,84.06,171.79Z"/><path class="cls-2" d="M91.27,225.31c-1.13-6.59-4.71-12.14-8-12.4s-5.06,4.82-3.93,11.37,4.71,12.14,8,12.4h0c3.27.3,5-4.7,3.94-11.27C91.29,225.37,91.29,225.37,91.27,225.31Z"/><path class="cls-2" d="M102.21,234.7c-1.55-3.43-3.89-4.77-5.21-2.94s-1.19,6,.36,9.42,3.88,4.77,5.2,2.94,1.19-6-.35-9.42Z"/><path class="cls-2" d="M115.44,230.24A11.24,11.24,0,0,0,113,222c-1.71-1.77-3.35-.95-3.68,1.84a11.24,11.24,0,0,0,2.48,8.21h0C113.44,233.83,115.11,233,115.44,230.24Z"/><path class="cls-2" d="M124.36,234.56c-1.1-1.16-2.18-.62-2.38,1.19a7.29,7.29,0,0,0,1.6,5.3c1.1,1.16,2.16.59,2.39-1.19A7.4,7.4,0,0,0,124.36,234.56Z"/><path class="cls-2" d="M113.47,260.31c-1.08-2.38-2.7-3.31-3.66-2.08s-.82,4.2.25,6.62,2.7,3.31,3.65,2.07.84-4.23-.24-6.61Z"/><path class="cls-2" d="M53.68,238.38c-.85-1.9-2.12-2.6-2.87-1.65s-.64,3.29.18,5.17,2.13,2.6,2.87,1.65h0C54.63,242.63,54.53,240.28,53.68,238.38Z"/><path class="cls-2" d="M95.93,277.39c-1.05-.09-1.62,1.6-1.26,3.7s1.53,3.91,2.59,4,1.62-1.55,1.26-3.66-1.5-4-2.59-4.05Z"/><path class="cls-2" d="M75.38,221.72c2.27-3.07,2-10.22-.6-16.08s-6.59-8.08-8.89-5-2,10.22.6,16.08a15.05,15.05,0,0,0,3.27,4.85C71.87,223.55,74,223.6,75.38,221.72Z"/><path class="cls-2" d="M61.59,226c-1.3-2.9-3.3-4.06-4.44-2.54s-1,5.13.29,8,3.31,4.06,4.44,2.54h0C63,232.56,62.92,229,61.59,226Z"/><path class="cls-2" d="M74.47,259.43c-1.4-1.43-2.76-.75-3,1.5a9.37,9.37,0,0,0,2,6.78c1.39,1.43,2.75.79,3-1.46a9.54,9.54,0,0,0-2-6.82Z"/><path class="cls-2" d="M76.73,232.6c-2-2.09-4-1.11-4.33,2.17s.91,7.58,2.92,9.63,4,1.11,4.33-2.17-.91-7.59-2.92-9.63Z"/><path class="cls-2" d="M91.15,253.13c-1.64-.11-2.51,2.44-1.94,5.72s2.37,6.06,4,6.17,2.51-2.4,2-5.66-2.36-6.1-4-6.23Z"/></g></g><g id="Layer_2-3" data-name="Layer 2-3"><g id="Layer_2-2-3" data-name="Layer 2-2-3"><path id="Path_6901-2" data-name="Path 6901-2" class="cls-4" d="M202.56,74.74c18-45.19,57.06-51.11,87.1-13.18s39.94,105.27,22,150.46-57.06,51.11-87.1,13.22S184.57,120,202.56,74.74Z"/><path id="Path_6902-2" data-name="Path 6902-2" class="cls-2" d="M199,70.22c19.17-48.2,60.75-54.5,92.84-14.08s42.57,112.23,23.39,160.41-60.73,54.47-92.84,14S179.79,118.38,199,70.22ZM311.53,212c18-45.19,8.16-112.57-21.95-150.46s-69.1-32-87.1,13.18-8.16,112.57,22,150.5,69.18,32,87.09-13.22"/><path id="Path_6904-2-2" data-name="Path 6904-2-2" class="cls-4" d="M308.64,8a63.81,63.81,0,0,0-9-4.36,56.49,56.49,0,0,0-8.35-2.51,48.9,48.9,0,0,0-16.14-.8L238.61,5.56a46.47,46.47,0,0,1,8-.24A51.23,51.23,0,0,1,254.7,6.4a56.21,56.21,0,0,1,8.35,2.53,63.7,63.7,0,0,1,9,4.34,79.32,79.32,0,0,1,10.43,7.21A106.92,106.92,0,0,1,296.9,34.76l2.38,2.82A155.37,155.37,0,0,1,316.9,65.82a198.42,198.42,0,0,1,10.29,25.11c1.6,4.76,3.8,11.6,5.23,17.12h-.21c1.24,5,2.32,10,3.23,15.12q1.29,7,2.13,14.1c.54,4.54,1,9.11,1.24,13.65s.44,9.1.46,13.6-.1,9.38-.38,14c-.3,5.08-.77,10-1.43,14.88-.8,6-1.9,11.83-3.2,17.54h0a153.05,153.05,0,0,1-6.63,21.26c-11.72,29.43-30.31,46-50.87,48.92l36.56-5.21c20.58-3,39.13-19.49,50.85-48.89a153.05,153.05,0,0,0,6.63-21.26q2-8.55,3.22-17.54,1-7.32,1.42-14.88c.27-4.62.4-9.3.39-14s-.18-9.05-.46-13.6-.7-9.11-1.26-13.65-1.27-9.42-2.13-14.1q-1.37-7.62-3.23-15.1c-1.47-5.84-3.12-11.59-5-17.22a205,205,0,0,0-10.29-25.1h0a158.28,158.28,0,0,0-17.67-28.25l-1.24-1.54h0a108.28,108.28,0,0,0-15.46-15.56A79.89,79.89,0,0,0,308.64,8Z"/><path id="Path_6905-2" data-name="Path 6905-2" class="cls-4" d="M186.54,54.56c23.29-58.49,73.73-66.13,112.69-17.12s51.67,136.21,28.4,194.69S253.9,298.28,214.9,249.24,163.26,113.07,186.54,54.56Zm128.66,162c19.18-48.16,8.72-120-23.39-160.41S218.14,22,199,70.22s-8.72,120,23.39,160.42S296,264.75,315.2,216.55"/><g id="Layer_2-3-2" data-name="Layer 2-3-2"><g id="Layer_1-2-2-2" data-name="Layer 1-2-2"><path id="Path_6968" data-name="Path 6968" class="cls-2" d="M235.24,125.83l18.38-15.62,18.47,39.28,10.7-9.1L253.64,78.25l-29,24.67,10.64,22.91m-28.93-7.4,10.71-9.11,11,23-10.7,9.11Zm29,29.93,18.37,39.29L272.06,172l10.74,22.9h0l-29.09,24.63-29.15-62.14h0l10.75-9m44.06,17.13,10.71-9.11,10.74,22.9-10.66,9Z"/><path id="Path_6969" data-name="Path 6969" class="cls-2" d="M264.56,155.84h0l-10.87-23.21-8,6.81-2.38,2.75,10.87,23.21,10.9-9.23h0"/></g></g><path id="Path_6904-2-3" data-name="Path 6904-2-3" class="cls-5" d="M308.64,8.47a64.92,64.92,0,0,0-9-4.36,56.49,56.49,0,0,0-8.35-2.51A48.64,48.64,0,0,0,275.15.74L238.61,6a46.47,46.47,0,0,1,8-.25,51.23,51.23,0,0,1,8.09,1.08,56.21,56.21,0,0,1,8.35,2.53,63.7,63.7,0,0,1,9,4.34,79.32,79.32,0,0,1,10.43,7.21A106.77,106.77,0,0,1,296.9,35.17L299.23,38A156.09,156.09,0,0,1,316.9,66.23a198.42,198.42,0,0,1,10.29,25.11c1.6,4.76,3.8,11.61,5.23,17.12h-.21q1.86,7.5,3.23,15.12,1.29,7,2.13,14.1c.54,4.54,1,9.11,1.24,13.66s.44,9.09.46,13.6-.1,9.37-.38,14q-.45,7.6-1.43,14.87c-.8,6-1.9,11.83-3.2,17.54h0a151.72,151.72,0,0,1-6.63,21.26c-11.72,29.43-30.31,46-50.87,48.93l36.56-5.22c20.54-2.94,39.13-19.49,50.85-48.94a151.72,151.72,0,0,0,6.63-21.26q2-8.58,3.22-17.54,1-7.32,1.42-14.88c.27-4.62.4-9.3.39-14s-.18-9.06-.46-13.61-.7-9.11-1.26-13.65-1.27-9.42-2.13-14.1q-1.37-7.61-3.23-15.1c-1.47-5.84-3.12-11.58-5-17.21a205.82,205.82,0,0,0-10.29-25.11h0a158.28,158.28,0,0,0-17.67-28.25l-1.24-1.54h0a109.84,109.84,0,0,0-15.46-15.56,79.78,79.78,0,0,0-10.45-7.11Z"/></g></g></g></g></svg>