<svg xmlns="http://www.w3.org/2000/svg" xmlns:xlink="http://www.w3.org/1999/xlink" viewBox="0 0 200.95 282.05">
    <defs>
        <style>
            .cls-1 {
                fill: #4c68ef;
            }
            .cls-2 {
                fill: #fff;
            }
            .cls-3 {
                fill: url(#linear-gradient);
            }
        </style>
        <linearGradient id="linear-gradient" x1="171.23" y1="-20.12" x2="104.85" y2="291.37" gradientTransform="matrix(1, 0, 0, -1, 0, 281.16)" gradientUnits="userSpaceOnUse">
            <stop offset="0.06" stop-color="#666" stop-opacity="0.23" />
            <stop offset="0.88" stop-color="#fff" stop-opacity="0" />
        </linearGradient>
    </defs>
    <g id="Layer_2" data-name="Layer 2">
        <g id="Layer_1-2" data-name="Layer 1">
            <g id="Layer_2-2" data-name="Layer 2">
                <g id="Layer_2-2-2" data-name="Layer 2-2">
                    <path id="Path_6901" data-name="Path 6901" class="cls-1" d="M27.68,75.28c18-45.2,57.06-51.11,87.1-13.19s39.94,105.27,22,150.46-57.11,51.09-87.15,13.22S9.69,120.49,27.68,75.28Z" />
                    <path
                        id="Path_6902"
                        data-name="Path 6902"
                        class="cls-2"
                        d="M24.09,70.75c19.17-48.18,60.75-54.5,92.84-14.11s42.57,112.23,23.39,160.41-60.73,54.59-92.84,14.09S4.91,118.91,24.09,70.75Zm112.56,141.8c18-45.19,8.16-112.57-22-150.46s-69.1-32-87.1,13.19-8.16,112.56,22,150.49,69.18,32,87.09-13.22"
                    />
                    <path
                        id="Path_6904"
                        data-name="Path 6904"
                        class="cls-1"
                        d="M133.76,8.64a63.81,63.81,0,0,0-9-4.36,56.14,56.14,0,0,0-8.35-2.51A48.73,48.73,0,0,0,100.3.91L63.73,6.1a45.54,45.54,0,0,1,8-.25,49.94,49.94,0,0,1,8.09,1.08,55,55,0,0,1,8.35,2.53,63.7,63.7,0,0,1,9,4.34A78,78,0,0,1,107.6,21,106.33,106.33,0,0,1,122,35.29l2.38,2.82A156.13,156.13,0,0,1,142,66.35a197.22,197.22,0,0,1,10.29,25.11c1.6,4.76,3.8,11.61,5.23,17.12h-.21q1.86,7.49,3.23,15.12,1.29,7,2.13,14.1c.54,4.54,1,9.11,1.24,13.66s.44,9.09.46,13.6-.1,9.37-.38,14q-.45,7.6-1.43,14.87c-.8,6-1.9,11.83-3.2,17.54h0a152.55,152.55,0,0,1-6.63,21.26c-11.72,29.43-30.31,46-50.87,48.93l36.56-5.22C159,273.5,177.57,257,189.29,227.5a152.55,152.55,0,0,0,6.63-21.26q2-8.58,3.22-17.54,1-7.32,1.42-14.88c.27-4.62.4-9.3.39-14s-.18-9.06-.46-13.61-.7-9.11-1.26-13.65-1.27-9.42-2.13-14.1q-1.36-7.6-3.23-15.1c-1.47-5.84-3.12-11.58-5-17.21A203,203,0,0,0,178.58,61h0a158.28,158.28,0,0,0-17.67-28.25l-1.24-1.54h0a107.77,107.77,0,0,0-15.46-15.56A78.4,78.4,0,0,0,133.76,8.64Z"
                    />
                    <path
                        id="Path_6905"
                        data-name="Path 6905"
                        class="cls-1"
                        d="M11.66,55.09C35-3.36,85.39-11,124.35,38S176,174.19,152.75,232.64,79,298.81,40,249.78-11.62,113.64,11.66,55.09Zm128.66,162c19.18-48.17,8.7-120-23.39-160.45S43.26,22.57,24.09,70.75s-8.72,120,23.39,160.42,73.67,34.11,92.84-14.09"
                    />
                    <path
                        class="cls-2"
                        d="M103.55,106c2,1.35,3.71,2.7,5.73,4.27,2.47,1.92,5.26,4.09,9,6.67l.25-12.57c-3.4-2.32-5.89-4.27-8.3-6.14-2.11-1.65-4.12-3.2-6.44-4.79-11-7.54-18-2.7-18.31,12.63l-.12,6.05-7-4.8-.25,12.56,7,4.8-.77,39.58c-3.89-6.33-8.71-11.79-14-15.39C57.12,139.8,46,146,45.73,162.74s10.2,37.74,23.47,46.84,24.33,2.88,24.66-13.84v-1.38l1.23-62.82,17.3,11.86.24-12.56L95.34,119l.12-6C95.7,100.64,101.41,104.56,103.55,106ZM69.44,197c-7.77-5.32-13.94-17.63-13.75-27.43s6.68-13.45,14.45-8.12c7.5,5.14,13.5,16.77,13.75,26.39v1.06c-.19,9.78-6.67,13.41-14.45,8.08Z"
                    />
                    <path
                        id="Path_6904-2"
                        data-name="Path 6904-2"
                        class="cls-3"
                        d="M133.76,8a62.73,62.73,0,0,0-9-4.36,56.14,56.14,0,0,0-8.35-2.51A48.63,48.63,0,0,0,100.27.33L63.73,5.56a46.53,46.53,0,0,1,8-.24A49.94,49.94,0,0,1,79.82,6.4a55,55,0,0,1,8.35,2.53,63.7,63.7,0,0,1,9,4.34,78,78,0,0,1,10.43,7.21A106.33,106.33,0,0,1,122,34.76l2.38,2.82A155.23,155.23,0,0,1,142,65.82a197.22,197.22,0,0,1,10.29,25.11c1.6,4.76,3.8,11.6,5.23,17.12h-.21c1.24,5,2.32,10,3.23,15.12q1.29,7,2.13,14.1c.54,4.54,1,9.11,1.24,13.65s.44,9.1.46,13.6-.1,9.38-.38,14c-.3,5.08-.77,10-1.43,14.88-.8,6-1.9,11.83-3.2,17.54h0a152.55,152.55,0,0,1-6.63,21.26c-11.72,29.43-30.31,46-50.87,48.92l36.56-5.21c20.58-3,39.13-19.49,50.85-48.89a152.55,152.55,0,0,0,6.63-21.26q2-8.56,3.22-17.54,1-7.32,1.42-14.88c.27-4.62.4-9.3.39-14s-.18-9.05-.46-13.6-.7-9.11-1.26-13.65S198,122.67,197.1,118q-1.36-7.62-3.23-15.1c-1.47-5.84-3.12-11.59-5-17.22a202.82,202.82,0,0,0-10.29-25.1h0a158.28,158.28,0,0,0-17.67-28.25l-1.24-1.54h0a107.77,107.77,0,0,0-15.46-15.56A78.79,78.79,0,0,0,133.76,8Z"
                    />
                </g>
            </g>
        </g>
    </g>
</svg>
