<svg xmlns="http://www.w3.org/2000/svg" xmlns:xlink="http://www.w3.org/1999/xlink" viewBox="0 0 200.93 281.52">
    <defs>
        <style>
            .cls-1 {
                fill: #ffbf00;
            }
            .cls-2 {
                fill: #fff;
            }
            .cls-3 {
                fill: url(#linear-gradient);
            }
        </style>
        <linearGradient id="linear-gradient" x1="171.22" y1="301.26" x2="104.84" y2="-10.23" gradientUnits="userSpaceOnUse">
            <stop offset="0.06" stop-color="#666" stop-opacity="0.23" />
            <stop offset="0.88" stop-color="#fff" stop-opacity="0" />
        </linearGradient>
    </defs>
    <g id="Layer_2" data-name="Layer 2">
        <g id="Layer_2-2" data-name="Layer 2">
            <path id="Path_6901" data-name="Path 6901" class="cls-1" d="M27.66,74.72c18-45.19,57.06-51.11,87.1-13.18s39.94,105.27,22,150.46-57.06,51.11-87.1,13.22S9.67,119.94,27.66,74.72Z" />
            <path
                id="Path_6902"
                data-name="Path 6902"
                class="cls-2"
                d="M24.07,70.2C43.24,22,84.82,15.7,116.91,56.12s42.57,112.23,23.39,160.41S79.57,271,47.46,230.58,4.89,118.36,24.07,70.2ZM136.63,212c18-45.19,8.16-112.57-21.95-150.46s-69.1-32-87.1,13.18-8.16,112.57,22,150.5,69.18,32,87.09-13.22"
            />
            <path
                id="Path_6904"
                data-name="Path 6904"
                class="cls-1"
                d="M133.74,8a64.15,64.15,0,0,0-9-4.36,56.86,56.86,0,0,0-8.35-2.51A48.74,48.74,0,0,0,100.25.31L63.71,5.54a46.73,46.73,0,0,1,8-.24,50.09,50.09,0,0,1,8.09,1.08,56.94,56.94,0,0,1,8.35,2.53,64,64,0,0,1,9,4.34,79.32,79.32,0,0,1,10.43,7.21A106.76,106.76,0,0,1,122,34.74l2.38,2.82A156,156,0,0,1,142,65.8a198.42,198.42,0,0,1,10.29,25.11c1.6,4.76,3.8,11.6,5.23,17.12h-.21c1.24,5,2.32,10,3.23,15.12q1.28,7,2.13,14.1c.54,4.54,1,9.11,1.24,13.65s.44,9.1.46,13.6-.1,9.38-.38,14c-.3,5.08-.77,10-1.43,14.88-.8,6-1.9,11.83-3.2,17.54h0a153.48,153.48,0,0,1-6.63,21.26c-11.72,29.43-30.31,46-50.87,48.92l36.56-5.21C159,272.94,177.55,256.4,189.27,227a153.48,153.48,0,0,0,6.63-21.26q2-8.56,3.22-17.54,1-7.32,1.42-14.88c.27-4.62.4-9.3.39-14s-.18-9.05-.46-13.6-.7-9.11-1.26-13.65-1.27-9.42-2.13-14.1q-1.37-7.61-3.23-15.1c-1.47-5.84-3.12-11.59-5-17.22a204.38,204.38,0,0,0-10.29-25.1h0a158.5,158.5,0,0,0-17.67-28.25l-1.24-1.54h0a108.8,108.8,0,0,0-15.46-15.56A79.78,79.78,0,0,0,133.74,8Z"
            />
            <path
                id="Path_6905"
                data-name="Path 6905"
                class="cls-1"
                d="M11.64,54.54C34.93-3.95,85.37-11.59,124.33,37.42S176,173.63,152.73,232.11,79,298.26,40,249.22-11.64,113.05,11.64,54.54Zm128.66,162c19.18-48.16,8.72-120-23.39-160.41S43.24,22,24.07,70.2s-8.72,120,23.39,160.42,73.67,34.11,92.84-14.09"
            />
            <path
                class="cls-2"
                d="M120.79,180.23c.66,6.09.22,11.31-1.55,15.51-2.52,5.29-7.2,6.52-13.14,4.85-4.53-1.39-9.28-3.63-14-5.47-.25-.05-.5-.19-.83-.29-.08,5.53-.12,12.64-.2,18.67l-9.8-5.65c0-5.88.12-12.86.15-18.61l-7.86-4.85c-.09,5.65-.12,12.77-.21,18.8l-9.77-5.64c0-6.08.1-13.35.13-19.13-6.68-3.94-13.19-7.78-19.82-11.72.69-4.12,1.37-8.06,2.06-12.21l6.51,3.78c3,1.71,4.34,1.15,4.36-2.41.13-16,.33-32.1.55-48.08a10.71,10.71,0,0,0-5.16-9.33c-1.16-.77-2.43-1.51-3.67-2.23s-2.43-1.5-3.86-2.34c0-4,.12-7.82.11-12,6.71,4,13.14,7.69,19.82,11.63.11-5.25.12-12.67.2-18.57l9.71,5.6c0,5.84-.12,13-.14,18.32,2.59,1.51,5.1,2.93,7.86,4.53.08-5.23.12-12.44.2-18.28l9.77,5.63c0,6-.09,13.35-.12,18.72,2.68,2,5.27,4,7.86,6.18a58.06,58.06,0,0,1,10.07,11c7.61,10.75,8.46,29.84-2,30l-.59.14c2.18,2.31,4.27,4.39,6.2,6.75A32.08,32.08,0,0,1,120.79,180.23Zm-25.11.56c3.6.24,5.79-1.48,5.87-6.18s-2.06-9.09-5.63-13A61.58,61.58,0,0,0,80.5,149.79c-2.09-1.21-4.2-2.38-6.32-3.61-.09,8.35-.22,16.47-.31,24.82l.74.42c1.47.86,2.82,1.71,4.19,2.51,5.77,3.22,11.46,6.51,16.88,6.86M74.52,112.28c-.09,7.74-.18,15-.3,22.27,1.67,1,3.32,2.07,5,3a39.84,39.84,0,0,0,11.74,5c4,.83,6.12-1.09,6.39-5.36.27-4-1.56-8.52-5.25-12.48a46.87,46.87,0,0,0-12-9.28c-1.83-1.07-3.69-2.08-5.56-3.15"
            />
            <path
                id="Path_6904-2"
                data-name="Path 6904"
                class="cls-3"
                d="M133.74,8a64.15,64.15,0,0,0-9-4.36,56.86,56.86,0,0,0-8.35-2.51A48.74,48.74,0,0,0,100.25.31L63.71,5.54a46.73,46.73,0,0,1,8-.24,50.09,50.09,0,0,1,8.09,1.08,56.94,56.94,0,0,1,8.35,2.53,64,64,0,0,1,9,4.34,79.32,79.32,0,0,1,10.43,7.21A106.76,106.76,0,0,1,122,34.74l2.38,2.82A156,156,0,0,1,142,65.8a198.42,198.42,0,0,1,10.29,25.11c1.6,4.76,3.8,11.6,5.23,17.12h-.21c1.24,5,2.32,10,3.23,15.12q1.28,7,2.13,14.1c.54,4.54,1,9.11,1.24,13.65s.44,9.1.46,13.6-.1,9.38-.38,14c-.3,5.08-.77,10-1.43,14.88-.8,6-1.9,11.83-3.2,17.54h0a153.48,153.48,0,0,1-6.63,21.26c-11.72,29.43-30.31,46-50.87,48.92l36.56-5.21C159,272.94,177.55,256.4,189.27,227a153.48,153.48,0,0,0,6.63-21.26q2-8.56,3.22-17.54,1-7.32,1.42-14.88c.27-4.62.4-9.3.39-14s-.18-9.05-.46-13.6-.7-9.11-1.26-13.65-1.27-9.42-2.13-14.1q-1.37-7.61-3.23-15.1c-1.47-5.84-3.12-11.59-5-17.22a204.38,204.38,0,0,0-10.29-25.1h0a158.5,158.5,0,0,0-17.67-28.25l-1.24-1.54h0a108.8,108.8,0,0,0-15.46-15.56A79.78,79.78,0,0,0,133.74,8Z"
            />
        </g>
    </g>
</svg>
