<svg xmlns="http://www.w3.org/2000/svg" xmlns:xlink="http://www.w3.org/1999/xlink" viewBox="0 0 375.83 333.62"><defs><style>.cls-1{fill:#fff;}.cls-2{fill:url(#linear-gradient);}.cls-3{fill:url(#linear-gradient-2);}.cls-4{fill:#606063;}.cls-10,.cls-4,.cls-7{fill-rule:evenodd;}.cls-5{fill:#bebebe;}.cls-6{fill:#faf9fa;}.cls-7{fill:#633001;}.cls-8{fill:#fedc90;}.cls-9{fill:#d1884f;}.cls-10{fill:url(#linear-gradient-3);}.cls-11{fill:#9e7200;}.cls-12{fill:#f0b90b;}.cls-13{fill:#ffbf00;}.cls-14{fill:url(#linear-gradient-4);}</style><linearGradient id="linear-gradient" x1="14.5" y1="1310.85" x2="149.92" y2="1310.85" gradientTransform="matrix(1, 0, 0, -1, 0, 1506.31)" gradientUnits="userSpaceOnUse"><stop offset="0" stop-color="#9f4a08"/><stop offset="0.37" stop-color="#7d3900"/><stop offset="1" stop-color="#8d4104"/></linearGradient><linearGradient id="linear-gradient-2" x1="171.23" y1="1152.94" x2="104.85" y2="1464.43" gradientTransform="matrix(1, 0, 0, -1, 0, 1506.31)" gradientUnits="userSpaceOnUse"><stop offset="0.06" stop-color="#666" stop-opacity="0.23"/><stop offset="0.88" stop-color="#fff" stop-opacity="0"/></linearGradient><linearGradient id="linear-gradient-3" x1="126.57" y1="333.96" x2="126.57" y2="378.14" gradientTransform="matrix(0.87, 0.33, -0.05, 1.13, -17.86, -267.91)" xlink:href="#linear-gradient"/><linearGradient id="linear-gradient-4" x1="346.12" y1="1204.62" x2="279.74" y2="1516.11" xlink:href="#linear-gradient-2"/></defs><g id="Layer_2" data-name="Layer 2"><g id="Layer_1-2" data-name="Layer 1"><g id="Layer_2-2" data-name="Layer 2"><g id="Layer_2-2-2" data-name="Layer 2-2"><path id="Path_6901" data-name="Path 6901" class="cls-1" d="M27.68,126.82c18-45.19,57.06-51.11,87.1-13.18s39.94,105.27,22,150.46-57.06,51.11-87.1,13.22S9.69,172,27.68,126.82Z"/><path id="Path_6902" data-name="Path 6902" class="cls-2" d="M24.09,122.3c19.17-48.2,60.75-54.5,92.84-14.08s42.57,112.23,23.39,160.41S79.59,323.1,47.48,282.68,4.91,170.46,24.09,122.3ZM136.65,264.1c18-45.19,8.16-112.57-22-150.46s-69.1-32-87.1,13.18-8.16,112.57,22,150.5,69.18,32,87.09-13.22"/><path id="Path_6904" data-name="Path 6904" class="cls-1" d="M133.76,60.1a64.92,64.92,0,0,0-9-4.36,56.14,56.14,0,0,0-8.35-2.51,48.9,48.9,0,0,0-16.14-.82L63.73,57.64a46.53,46.53,0,0,1,8-.24,49.94,49.94,0,0,1,8.09,1.08A57.42,57.42,0,0,1,88.17,61a63.7,63.7,0,0,1,9,4.34,78,78,0,0,1,10.43,7.21A106.33,106.33,0,0,1,122,86.84l2.38,2.82A155.92,155.92,0,0,1,142,117.9,198.42,198.42,0,0,1,152.31,143c1.6,4.76,3.8,11.6,5.23,17.12h-.21c1.24,5,2.32,10,3.23,15.12q1.29,7,2.13,14.1c.54,4.54,1,9.11,1.24,13.65s.44,9.1.46,13.6-.1,9.38-.38,14c-.3,5.08-.77,10-1.43,14.88-.8,6-1.9,11.83-3.2,17.54h0a151.72,151.72,0,0,1-6.63,21.26c-11.72,29.43-30.31,46-50.87,48.92L138.44,328C159,325,177.57,308.5,189.29,279.1a151.72,151.72,0,0,0,6.63-21.26q2-8.55,3.22-17.54,1-7.32,1.42-14.88c.27-4.62.4-9.3.39-14s-.18-9-.46-13.6-.7-9.11-1.26-13.65-1.27-9.42-2.13-14.1q-1.36-7.6-3.23-15.1c-1.47-5.84-3.12-11.59-5-17.22a203.46,203.46,0,0,0-10.29-25.1h0A158.28,158.28,0,0,0,160.91,84.4l-1.24-1.54h0A108.28,108.28,0,0,0,144.21,67.3,79.75,79.75,0,0,0,133.76,60.1Z"/><path id="Path_6905" data-name="Path 6905" class="cls-1" d="M11.66,106.64C35,48.15,85.39,40.51,124.35,89.52S176,225.73,152.75,284.21,79,350.36,40,301.32-11.62,165.15,11.66,106.64Zm128.66,162c19.18-48.16,8.72-120-23.39-160.41S43.26,74.1,24.09,122.3s-8.72,120,23.39,160.42,73.67,34.11,92.84-14.09"/><path id="Path_6904-2" data-name="Path 6904-2" class="cls-3" d="M133.76,60.1a64.92,64.92,0,0,0-9-4.36,56.14,56.14,0,0,0-8.35-2.51,48.9,48.9,0,0,0-16.14-.82L63.73,57.64a46.53,46.53,0,0,1,8-.24,49.94,49.94,0,0,1,8.09,1.08A57.42,57.42,0,0,1,88.17,61a63.7,63.7,0,0,1,9,4.34,78,78,0,0,1,10.43,7.21A106.33,106.33,0,0,1,122,86.84l2.38,2.82A155.92,155.92,0,0,1,142,117.9,198.42,198.42,0,0,1,152.31,143c1.6,4.76,3.8,11.6,5.23,17.12h-.21c1.24,5,2.32,10,3.23,15.12q1.29,7,2.13,14.1c.54,4.54,1,9.11,1.24,13.65s.44,9.1.46,13.6-.1,9.38-.38,14c-.3,5.08-.77,10-1.43,14.88-.8,6-1.9,11.83-3.2,17.54h0a151.72,151.72,0,0,1-6.63,21.26c-11.72,29.43-30.31,46-50.87,48.92L138.44,328C159,325,177.57,308.5,189.29,279.1a151.72,151.72,0,0,0,6.63-21.26q2-8.55,3.22-17.54,1-7.32,1.42-14.88c.27-4.62.4-9.3.39-14s-.18-9-.46-13.6-.7-9.11-1.26-13.65-1.27-9.42-2.13-14.1q-1.36-7.6-3.23-15.1c-1.47-5.84-3.12-11.59-5-17.22a203.46,203.46,0,0,0-10.29-25.1h0A158.28,158.28,0,0,0,160.91,84.4l-1.24-1.54h0A108.28,108.28,0,0,0,144.21,67.3,79.75,79.75,0,0,0,133.76,60.1Z"/><path class="cls-4" d="M46.69,198.1l0,.9a33.25,33.25,0,0,0,0,3.46l-.19-.07-.08,1.75v2.57c.67,16.87,14.67,35.19,32.41,41.85s32.84-.73,34.92-16.55c.11-.82.18-1.65.21-2.5l.08-1.75-.19-.07a28.51,28.51,0,0,0,.34-3.32v-.91c.23-17.3-14.1-36.63-32.43-43.51S47.94,181.22,46.69,198.1Zm-2.77-1c.7-10.35,5.66-17.4,12.3-21,6.88-3.73,16-4.07,25.74-.41a56,56,0,0,1,24.89,19.41C113,203.5,117.18,214,117,224.52h0l-.26,6c-.47,10.84-5.52,18.19-12.35,21.89s-16,4.08-25.74.41a56,56,0,0,1-24.9-19.43c-6.29-8.63-10.56-19.49-10.1-30.32l.26-6Z"/><path class="cls-5" d="M114,229.55c-.76,17.53-16.49,26.06-35.14,19.06s-33.16-26.9-32.41-44.43l.22-5,67.54,25.37Z"/><path class="cls-6" d="M114.19,224.41c-.76,17.53-16.49,26.07-35.14,19.06S45.89,216.57,46.64,199,63.13,173,81.78,180s33.16,26.89,32.41,44.43Z"/><path class="cls-7" d="M52.22,192v.07a26.61,26.61,0,0,0,.21,4.37l-.39-.14L52,198.19c0,.82,0,1.65,0,2.47.77,12.56,11.14,26,24.24,30.94s24.27-.45,26.08-12a19,19,0,0,0,.23-2.38l.08-1.86-.39-.15a20,20,0,0,0,.57-4V211c.53-13.19-10.32-28.12-24.26-33.36S52.8,178.87,52.2,192Zm-2.77-1h0l-.26,6.07c-.37,8.67,3,17.21,7.85,23.86a42.71,42.71,0,0,0,19,14.9c7.41,2.78,14.37,2.52,19.65-.38s9.25-8.63,9.62-17.3l.26-6.09c.37-8.66-3-17.2-7.85-23.85a42.67,42.67,0,0,0-19-14.9c-7.41-2.78-14.37-2.52-19.65.38s-9.23,8.6-9.62,17.24Z"/><path class="cls-8" d="M102.53,217.17c-.57,13.21-12.35,19.67-26.31,14.42S51.39,211.39,52,198.17l.24-5.61,50.57,19Z"/><path class="cls-9" d="M102.79,211.1c-.57,13.21-12.35,19.67-26.31,14.42S51.65,205.3,52.22,192.1s12.36-19.66,26.31-14.42S103.36,197.87,102.79,211.1Z"/><path class="cls-7" d="M60.4,182v.08a24.64,24.64,0,0,0,.21,4.38l-.4-.15-.08,1.86v2.48c.77,12.55,11.13,26,24.23,30.94s24.28-.46,26.08-12a19,19,0,0,0,.24-2.38l.08-1.86-.4-.15a19.29,19.29,0,0,0,.57-4v-.17c.53-13.2-10.32-28.13-24.26-33.36S61,168.85,60.4,182Zm-2.77-1h0l-.27,6.08c-.37,8.66,3,17.2,7.85,23.85a42.46,42.46,0,0,0,19,14.9c7.4,2.78,14.36,2.52,19.65-.38s9.24-8.63,9.62-17.29l.26-6.09c.37-8.67-3-17.21-7.85-23.86a42.58,42.58,0,0,0-19-14.89c-7.4-2.79-14.37-2.52-19.65.37S58,172.35,57.63,181Z"/><path class="cls-8" d="M110.7,207.16c-.57,13.21-12.35,19.67-26.31,14.43s-24.82-20.21-24.26-33.42l.24-5.61,50.57,19-.24,5.61Z"/><path class="cls-9" d="M111,201.1c-.56,13.21-12.34,19.66-26.31,14.42S59.83,195.29,60.4,182.1s12.34-19.67,26.31-14.42S111.53,187.87,111,201.1Z"/><path class="cls-7" d="M53.33,166.29v.06a26.68,26.68,0,0,0,.21,4.38l-.39-.15-.08,1.86c0,.83,0,1.66,0,2.48.77,12.55,11.14,26,24.23,30.93s24.28-.45,26.09-12a21.06,21.06,0,0,0,.23-2.38l.08-1.86-.4-.15a19.31,19.31,0,0,0,.58-4v-.18c.53-13.2-10.31-28.12-24.26-33.36S53.93,153.1,53.33,166.29Zm-2.77-1h0l-.27,6.15c-.37,8.66,3,17.2,7.85,23.85a42.46,42.46,0,0,0,19,14.9c7.4,2.78,14.37,2.52,19.65-.38s9.24-8.63,9.62-17.3l.26-6.08c.37-8.67-3-17.21-7.85-23.86a42.58,42.58,0,0,0-19-14.89c-7.41-2.78-14.37-2.52-19.66.37s-9.21,8.57-9.6,17.2Z"/><path class="cls-8" d="M103.64,191.43c-.57,13.21-12.35,19.67-26.32,14.43S52.5,185.65,53.07,172.44l.24-5.61,50.57,19Z"/><path class="cls-9" d="M103.9,185.34c-.57,13.21-12.35,19.67-26.32,14.43s-24.82-20.21-24.25-33.42,12.36-19.66,26.31-14.42S104.46,172.1,103.9,185.34Z"/><path class="cls-10" d="M59.24,170.1c-.19,4.41,1.72,9.14,4.87,13l-2.53,5.21-.66,15.36c-.08,2,.91,4.08,2.22,4.57s2.45-.75,2.53-2.78l.53-12.22,2.71-5.61a21.82,21.82,0,0,0,4.94,2.66c8.41,3.15,15.5-.77,15.85-8.78s-6.21-17-14.61-20.21S59.59,162.1,59.24,170.1Z"/><path class="cls-7" d="M64.11,183.1l-1-1.32a19.42,19.42,0,0,1-3.86-11.68c.34-8,7.44-11.93,15.84-8.77s15,12.21,14.61,20.21-7.44,11.93-15.85,8.77a21.4,21.4,0,0,1-4.94-2.65l-2.71,5.61-.53,12.21c-.08,2-1.22,3.28-2.53,2.79s-2.3-2.54-2.22-4.57l.66-15.36Zm-5,4.38-.66,15.29c-.18,4.1,1.83,8.24,4.48,9.23s4.94-1.52,5.12-5.62l.48-11.21L70,192.26a24.26,24.26,0,0,0,3.7,1.79c4.56,1.71,8.91,1.56,12.24-.28s5.94-5.54,6.19-11.34a25.3,25.3,0,0,0-5-15.55,26.39,26.39,0,0,0-11.83-9.32c-4.58-1.72-8.91-1.56-12.24.28s-5.94,5.54-6.19,11.33a24.73,24.73,0,0,0,4,14l-1.21,2.49a4.45,4.45,0,0,0-.28.77,5.71,5.71,0,0,0-.14,1.09Z"/><path class="cls-11" d="M64.26,165.77c-.17,4.14,3.09,8.79,7.3,10.37s7.77-.5,7.94-4.65-3.08-8.79-7.29-10.39S64.44,161.62,64.26,165.77Z"/><path class="cls-11" d="M64.4,162.55l15.24,5.72-.14,3.22-15.24-5.72Z"/><path class="cls-12" d="M64.4,162.55c-.18,4.14,3.09,8.78,7.3,10.37s7.76-.5,7.94-4.65-3.09-8.79-7.29-10.37S64.58,158.4,64.4,162.55Z"/><path class="cls-11" d="M69.17,163.42l2.24-1.32c.46-.28,1.06-.06,1.48.56L75,165.58c.41.58.37,1.55-.08,1.81l-2.23,1.31c-.47.28-1.07.06-1.49-.56l-2.06-2.92C68.68,164.64,68.72,163.68,69.17,163.42Z"/><path class="cls-7" d="M65.7,154.42a7.86,7.86,0,0,1,6.81-.27,14.47,14.47,0,0,1,6.57,5.3,16.09,16.09,0,0,1,3,9.73l-.14,3.22c-.17,3.8-1.85,6.12-3.72,7.21a7.83,7.83,0,0,1-6.81.28,14.58,14.58,0,0,1-6.57-5.3,16.14,16.14,0,0,1-3-9.74l.14-3.21C62.14,157.83,63.83,155.52,65.7,154.42Zm6.64,3.48c-4.2-1.58-7.76.5-7.94,4.65l-.14,3.22c-.18,4.14,3.09,8.79,7.3,10.37s7.77-.5,7.94-4.65l.14-3.22C79.82,164.1,76.55,159.48,72.34,157.9Z"/></g></g><g id="Layer_2-3" data-name="Layer 2"><g id="Layer_2-2-3" data-name="Layer 2-2"><path id="Path_6901-2" data-name="Path 6901" class="cls-13" d="M202.56,74.74c18-45.19,57.06-51.11,87.1-13.18s39.94,105.27,22,150.46-57.06,51.11-87.1,13.22S184.57,120,202.56,74.74Z"/><path id="Path_6902-2" data-name="Path 6902" class="cls-1" d="M199,70.22c19.17-48.2,60.75-54.5,92.84-14.08s42.57,112.23,23.39,160.41-60.73,54.47-92.84,14S179.79,118.38,199,70.22ZM311.53,212c18-45.19,8.16-112.57-21.95-150.46s-69.1-32-87.1,13.18-8.16,112.57,22,150.5,69.18,32,87.09-13.22"/><path id="Path_6904-2-2" data-name="Path 6904" class="cls-13" d="M308.64,8a62.73,62.73,0,0,0-9-4.36,56.14,56.14,0,0,0-8.35-2.51A48.63,48.63,0,0,0,275.15.33L238.61,5.56a46.5,46.5,0,0,1,8-.24A50.09,50.09,0,0,1,254.7,6.4a55,55,0,0,1,8.35,2.53,63.7,63.7,0,0,1,9,4.34,78.66,78.66,0,0,1,10.43,7.21A106.33,106.33,0,0,1,296.9,34.76l2.38,2.82A155.23,155.23,0,0,1,316.9,65.82a197.22,197.22,0,0,1,10.29,25.11c1.6,4.76,3.8,11.6,5.23,17.12h-.21c1.24,5,2.32,10,3.23,15.12q1.29,7,2.13,14.1c.54,4.54,1,9.11,1.24,13.65s.44,9.1.46,13.6-.1,9.38-.38,14c-.3,5.08-.77,10-1.43,14.88-.8,6-1.9,11.83-3.2,17.54h0a153.9,153.9,0,0,1-6.63,21.26c-11.72,29.43-30.31,46-50.87,48.92l36.56-5.21c20.58-3,39.13-19.49,50.85-48.89a153.9,153.9,0,0,0,6.63-21.26q2-8.56,3.22-17.54,1-7.32,1.42-14.88c.27-4.62.4-9.3.39-14s-.18-9.05-.46-13.6-.7-9.11-1.26-13.65-1.27-9.42-2.13-14.1q-1.37-7.62-3.23-15.1c-1.47-5.84-3.12-11.59-5-17.22a204.38,204.38,0,0,0-10.29-25.1h0a158.28,158.28,0,0,0-17.67-28.25l-1.24-1.54h0a107.77,107.77,0,0,0-15.46-15.56A78.79,78.79,0,0,0,308.64,8Z"/><path id="Path_6905-2" data-name="Path 6905" class="cls-13" d="M186.54,54.56c23.29-58.49,73.73-66.13,112.69-17.12s51.67,136.21,28.4,194.69S253.9,298.28,214.9,249.24,163.26,113.07,186.54,54.56Zm128.66,162c19.18-48.16,8.72-120-23.39-160.41S218.14,22,199,70.22s-8.72,120,23.39,160.42S296,264.75,315.2,216.55"/><g id="Layer_2-3-2" data-name="Layer 2-3"><g id="Layer_1-2-2" data-name="Layer 1-2"><path id="Path_6968" data-name="Path 6968" class="cls-1" d="M235.24,125.83l18.38-15.62,18.47,39.28,10.7-9.1L253.64,78.25l-29,24.67,10.64,22.91m-28.93-7.4,10.71-9.11,11,23-10.7,9.11Zm29,29.93,18.37,39.29L272.06,172l10.74,22.9h0l-29.09,24.63-29.15-62.14h0l10.75-9m44.06,17.13,10.71-9.11,10.74,22.9-10.66,9Z"/><path id="Path_6969" data-name="Path 6969" class="cls-1" d="M264.56,155.84h0l-10.87-23.21-8,6.81-2.38,2.75,10.87,23.21,10.9-9.23h0"/></g></g><path id="Path_6904-2-3" data-name="Path 6904-2" class="cls-14" d="M308.64,8.47a64.92,64.92,0,0,0-9-4.36,56.14,56.14,0,0,0-8.35-2.51A48.38,48.38,0,0,0,275.15.74L238.61,6a45.51,45.51,0,0,1,8-.25,50.09,50.09,0,0,1,8.09,1.08,55,55,0,0,1,8.35,2.53,63.7,63.7,0,0,1,9,4.34,78.66,78.66,0,0,1,10.43,7.21A106.62,106.62,0,0,1,296.9,35.17L299.23,38A155.79,155.79,0,0,1,316.9,66.23a197.22,197.22,0,0,1,10.29,25.11c1.6,4.76,3.8,11.61,5.23,17.12h-.21q1.86,7.49,3.23,15.12,1.29,7,2.13,14.1c.54,4.54,1,9.11,1.24,13.66s.44,9.09.46,13.6-.1,9.37-.38,14q-.45,7.6-1.43,14.87c-.8,6-1.9,11.83-3.2,17.54h0a152.55,152.55,0,0,1-6.63,21.26c-11.72,29.43-30.31,46-50.87,48.93l36.56-5.22c20.54-2.94,39.13-19.49,50.85-48.94a152.55,152.55,0,0,0,6.63-21.26q2-8.58,3.22-17.54,1-7.32,1.42-14.88c.27-4.62.4-9.3.39-14s-.18-9.06-.46-13.61-.7-9.11-1.26-13.65-1.27-9.42-2.13-14.1q-1.37-7.61-3.23-15.1c-1.47-5.84-3.12-11.58-5-17.21a204.52,204.52,0,0,0-10.29-25.11h0a158.28,158.28,0,0,0-17.67-28.25l-1.24-1.54h0a108.8,108.8,0,0,0-15.46-15.56,78.81,78.81,0,0,0-10.45-7.11Z"/></g></g></g></g></svg>