<svg xmlns="http://www.w3.org/2000/svg" xmlns:xlink="http://www.w3.org/1999/xlink" viewBox="0 0 200.93 281.52">
    <defs>
        <style>
            .cls-1-a {
                fill: #fff;
            }
            .cls-2-a {
                fill: url(#linear-gradient);
            }
            .cls-3-a {
                fill: url(#linear-gradient-2);
            }
            .cls-4-a {
                fill: #606063;
            }
            .cls-10-a,
            .cls-4-a,
            .cls-7-a {
                fill-rule: evenodd;
            }
            .cls-5-a {
                fill: #bebebe;
            }
            .cls-6-a {
                fill: #faf9fa;
            }
            .cls-7-a {
                fill: #633001;
            }
            .cls-8-a {
                fill: #fedc90;
            }
            .cls-9-a {
                fill: #d1884f;
            }
            .cls-10-a {
                fill: url(#linear-gradient-3);
            }
            .cls-11-a {
                fill: #9e7200;
            }
            .cls-12-a {
                fill: #f0b90b;
            }
        </style>
        <linearGradient id="linear-gradient" x1="14.47" y1="143.36" x2="149.89" y2="143.36" gradientUnits="userSpaceOnUse">
            <stop offset="0" stop-color="#9f4a08" />
            <stop offset="0.37" stop-color="#7d3900" />
            <stop offset="1" stop-color="#8d4104" />
        </linearGradient>
        <linearGradient id="linear-gradient-2" x1="171.22" y1="301.26" x2="104.84" y2="-10.23" gradientUnits="userSpaceOnUse">
            <stop offset="0.06" stop-color="#666" stop-opacity="0.23" />
            <stop offset="0.88" stop-color="#fff" stop-opacity="0" />
        </linearGradient>
        <linearGradient id="linear-gradient-3" x1="72.43" y1="2404.63" x2="72.43" y2="2360.45" gradientTransform="matrix(0.87, 0.33, 0.05, -1.13, -104.61, 2793.63)" xlink:href="#linear-gradient" />
    </defs>
    <g id="Layer_2" data-name="Layer 2">
        <g id="Layer_2-2" data-name="Layer 2">
            <path id="Path_6901" data-name="Path 6901" class="cls-1-a" d="M27.66,74.72c18-45.19,57.06-51.11,87.1-13.18s39.94,105.27,22,150.46-57.06,51.11-87.1,13.22S9.67,119.94,27.66,74.72Z" />
            <path
                id="Path_6902"
                data-name="Path 6902"
                class="cls-2-a"
                d="M24.07,70.2C43.24,22,84.82,15.7,116.91,56.12s42.57,112.23,23.39,160.41S79.57,271,47.46,230.58,4.89,118.36,24.07,70.2ZM136.63,212c18-45.19,8.16-112.57-21.95-150.46s-69.1-32-87.1,13.18-8.16,112.57,22,150.5,69.18,32,87.09-13.22"
            />
            <path
                id="Path_6904"
                data-name="Path 6904"
                class="cls-1-a"
                d="M133.74,8a64.15,64.15,0,0,0-9-4.36,56.86,56.86,0,0,0-8.35-2.51A48.74,48.74,0,0,0,100.25.31L63.71,5.54a46.73,46.73,0,0,1,8-.24,50.09,50.09,0,0,1,8.09,1.08,56.94,56.94,0,0,1,8.35,2.53,64,64,0,0,1,9,4.34,79.32,79.32,0,0,1,10.43,7.21A106.76,106.76,0,0,1,122,34.74l2.38,2.82A156,156,0,0,1,142,65.8a198.42,198.42,0,0,1,10.29,25.11c1.6,4.76,3.8,11.6,5.23,17.12h-.21c1.24,5,2.32,10,3.23,15.12q1.28,7,2.13,14.1c.54,4.54,1,9.11,1.24,13.65s.44,9.1.46,13.6-.1,9.38-.38,14c-.3,5.08-.77,10-1.43,14.88-.8,6-1.9,11.83-3.2,17.54h0a153.48,153.48,0,0,1-6.63,21.26c-11.72,29.43-30.31,46-50.87,48.92l36.56-5.21C159,272.94,177.55,256.4,189.27,227a153.48,153.48,0,0,0,6.63-21.26q2-8.56,3.22-17.54,1-7.32,1.42-14.88c.27-4.62.4-9.3.39-14s-.18-9.05-.46-13.6-.7-9.11-1.26-13.65-1.27-9.42-2.13-14.1q-1.37-7.61-3.23-15.1c-1.47-5.84-3.12-11.59-5-17.22a204.38,204.38,0,0,0-10.29-25.1h0a158.5,158.5,0,0,0-17.67-28.25l-1.24-1.54h0a108.8,108.8,0,0,0-15.46-15.56A79.78,79.78,0,0,0,133.74,8Z"
            />
            <path
                id="Path_6905"
                data-name="Path 6905"
                class="cls-1-a"
                d="M11.64,54.54C34.93-3.95,85.37-11.59,124.33,37.42S176,173.63,152.73,232.11,79,298.26,40,249.22-11.64,113.05,11.64,54.54Zm128.66,162c19.18-48.16,8.72-120-23.39-160.41S43.24,22,24.07,70.2s-8.72,120,23.39,160.42,73.67,34.11,92.84-14.09"
            />
            <path
                id="Path_6904-2"
                data-name="Path 6904"
                class="cls-3-a"
                d="M133.74,8a64.15,64.15,0,0,0-9-4.36,56.86,56.86,0,0,0-8.35-2.51A48.74,48.74,0,0,0,100.25.31L63.71,5.54a46.73,46.73,0,0,1,8-.24,50.09,50.09,0,0,1,8.09,1.08,56.94,56.94,0,0,1,8.35,2.53,64,64,0,0,1,9,4.34,79.32,79.32,0,0,1,10.43,7.21A106.76,106.76,0,0,1,122,34.74l2.38,2.82A156,156,0,0,1,142,65.8a198.42,198.42,0,0,1,10.29,25.11c1.6,4.76,3.8,11.6,5.23,17.12h-.21c1.24,5,2.32,10,3.23,15.12q1.28,7,2.13,14.1c.54,4.54,1,9.11,1.24,13.65s.44,9.1.46,13.6-.1,9.38-.38,14c-.3,5.08-.77,10-1.43,14.88-.8,6-1.9,11.83-3.2,17.54h0a153.48,153.48,0,0,1-6.63,21.26c-11.72,29.43-30.31,46-50.87,48.92l36.56-5.21C159,272.94,177.55,256.4,189.27,227a153.48,153.48,0,0,0,6.63-21.26q2-8.56,3.22-17.54,1-7.32,1.42-14.88c.27-4.62.4-9.3.39-14s-.18-9.05-.46-13.6-.7-9.11-1.26-13.65-1.27-9.42-2.13-14.1q-1.37-7.61-3.23-15.1c-1.47-5.84-3.12-11.59-5-17.22a204.38,204.38,0,0,0-10.29-25.1h0a158.5,158.5,0,0,0-17.67-28.25l-1.24-1.54h0a108.8,108.8,0,0,0-15.46-15.56A79.78,79.78,0,0,0,133.74,8Z"
            />
            <path
                class="cls-4-a"
                d="M46.67,146l-.05.9a30.8,30.8,0,0,0,.05,3.46l-.19-.07-.08,1.75c0,.84,0,1.71,0,2.57.67,16.87,14.67,35.19,32.41,41.85s32.84-.73,34.92-16.55c.11-.82.18-1.65.21-2.5l.08-1.75-.19-.07a29.61,29.61,0,0,0,.34-3.32c0-.3,0-.6,0-.91.23-17.3-14.1-36.63-32.43-43.51S47.92,129.12,46.67,146Zm-2.77-1c.7-10.35,5.66-17.4,12.3-21,6.88-3.73,16-4.07,25.74-.41A55.94,55.94,0,0,1,106.83,143c6.12,8.4,10.33,18.89,10.13,29.42h0l-.26,6c-.47,10.84-5.52,18.19-12.35,21.89s-16,4.08-25.74.41a56,56,0,0,1-24.9-19.43c-6.29-8.63-10.56-19.49-10.1-30.32l.26-6Z"
            />
            <path class="cls-5-a" d="M114,177.45c-.76,17.53-16.49,26.06-35.14,19.06s-33.16-26.9-32.41-44.43l.22-5,67.54,25.37Z" />
            <path class="cls-6-a" d="M114.17,172.31c-.76,17.53-16.49,26.07-35.14,19.06s-33.16-26.9-32.41-44.43,16.49-26.06,35.14-19,33.16,26.89,32.41,44.43Z" />
            <path
                class="cls-7-a"
                d="M52.2,139.93V140a24.84,24.84,0,0,0,.21,4.37l-.39-.14-.08,1.86a22.64,22.64,0,0,0,0,2.47c.77,12.56,11.14,26,24.24,30.94s24.27-.45,26.08-12a20.2,20.2,0,0,0,.23-2.38l.08-1.86-.39-.15a20.65,20.65,0,0,0,.57-4v-.18c.53-13.19-10.32-28.12-24.26-33.36s-25.71,1.2-26.31,14.37Zm-2.77-1h0L49.17,145c-.37,8.67,3,17.21,7.85,23.86a42.67,42.67,0,0,0,19,14.9c7.41,2.78,14.37,2.52,19.65-.38s9.25-8.63,9.62-17.3l.26-6.09c.37-8.66-3-17.2-7.85-23.85a42.67,42.67,0,0,0-19-14.9c-7.41-2.78-14.37-2.52-19.65.38s-9.23,8.6-9.62,17.24Z"
            />
            <path class="cls-8-a" d="M102.51,165.07c-.57,13.21-12.35,19.67-26.31,14.42s-24.83-20.2-24.26-33.42l.24-5.61,50.57,19Z" />
            <path class="cls-9-a" d="M102.77,159c-.57,13.21-12.35,19.67-26.31,14.42S51.63,153.2,52.2,140s12.36-19.66,26.31-14.42S103.34,145.77,102.77,159Z" />
            <path
                class="cls-7-a"
                d="M60.38,129.92V130a24,24,0,0,0,.21,4.38l-.4-.15-.08,1.86c0,.82,0,1.65,0,2.48.77,12.55,11.13,26,24.23,30.94s24.28-.46,26.08-12a23.1,23.1,0,0,0,.24-2.38l.08-1.86-.4-.15a19.88,19.88,0,0,0,.57-4v-.17c.53-13.2-10.32-28.13-24.26-33.36S61,116.75,60.38,129.92Zm-2.77-1h0L57.34,135c-.37,8.66,3,17.2,7.85,23.85a42.5,42.5,0,0,0,19,14.9c7.4,2.78,14.36,2.52,19.65-.38s9.24-8.63,9.62-17.29l.26-6.09c.37-8.67-3-17.21-7.85-23.86a42.55,42.55,0,0,0-19-14.89c-7.4-2.79-14.37-2.52-19.65.37S58,120.25,57.61,128.88Z"
            />
            <path class="cls-8-a" d="M110.68,155.06c-.57,13.21-12.35,19.67-26.31,14.43s-24.82-20.21-24.26-33.42l.24-5.61,50.57,19-.24,5.61Z" />
            <path class="cls-9-a" d="M110.94,149c-.56,13.21-12.34,19.66-26.31,14.42S59.81,143.19,60.38,130s12.34-19.67,26.31-14.42S111.51,135.77,111,149Z" />
            <path
                class="cls-7-a"
                d="M53.31,114.19v.06a25,25,0,0,0,.21,4.38l-.39-.15-.08,1.86a22.82,22.82,0,0,0,0,2.48c.77,12.55,11.14,26,24.23,30.93s24.28-.45,26.09-12a23.11,23.11,0,0,0,.23-2.38l.08-1.86-.4-.15a20.1,20.1,0,0,0,.58-4v-.18c.53-13.2-10.31-28.12-24.26-33.36S53.91,101,53.31,114.19Zm-2.77-1h0l-.27,6.15c-.37,8.66,3,17.2,7.85,23.85a42.5,42.5,0,0,0,19,14.9c7.4,2.78,14.37,2.52,19.65-.38s9.24-8.63,9.62-17.3l.26-6.08c.37-8.67-3-17.21-7.85-23.86a42.58,42.58,0,0,0-19-14.89c-7.41-2.78-14.37-2.52-19.66.37S50.93,104.52,50.54,113.15Z"
            />
            <path class="cls-8-a" d="M103.62,139.33c-.57,13.21-12.35,19.67-26.32,14.43s-24.82-20.21-24.25-33.42l.24-5.61,50.57,19Z" />
            <path class="cls-9-a" d="M103.88,133.24c-.57,13.21-12.35,19.67-26.32,14.43s-24.82-20.21-24.25-33.42S65.67,94.59,79.62,99.83,104.44,120,103.88,133.24Z" />
            <path
                class="cls-10-a"
                d="M59.22,118c-.19,4.41,1.72,9.14,4.87,13l-2.53,5.21-.66,15.36c-.08,2,.91,4.08,2.22,4.57s2.45-.75,2.53-2.78l.53-12.22,2.71-5.61a21.85,21.85,0,0,0,4.94,2.66c8.41,3.15,15.5-.77,15.85-8.78s-6.21-17-14.61-20.21S59.57,110,59.22,118Z"
            />
            <path
                class="cls-7-a"
                d="M64.09,131l-1-1.32A19.34,19.34,0,0,1,59.23,118c.34-8,7.44-11.93,15.84-8.77s15,12.21,14.61,20.21-7.44,11.93-15.85,8.77a21.6,21.6,0,0,1-4.94-2.65l-2.71,5.61-.53,12.21c-.08,2-1.22,3.28-2.53,2.79s-2.3-2.54-2.22-4.57l.66-15.36L64.09,131Zm-5,4.38-.66,15.29c-.18,4.1,1.83,8.24,4.48,9.23s4.94-1.52,5.12-5.62l.48-11.21L70,140.16a23.69,23.69,0,0,0,3.7,1.79c4.56,1.71,8.91,1.56,12.24-.28s5.94-5.54,6.19-11.34a25.31,25.31,0,0,0-5-15.55,26.43,26.43,0,0,0-11.83-9.32c-4.58-1.72-8.91-1.56-12.24.28s-5.94,5.54-6.19,11.33a24.69,24.69,0,0,0,4,14l-1.21,2.49a3.64,3.64,0,0,0-.28.77,4.71,4.71,0,0,0-.14,1.09Z"
            />
            <path class="cls-11-a" d="M64.24,113.67c-.17,4.14,3.09,8.79,7.3,10.37s7.77-.5,7.94-4.65S76.4,110.6,72.19,109,64.42,109.52,64.24,113.67Z" />
            <path class="cls-11-a" d="M64.38,110.45l15.24,5.72-.14,3.22-15.24-5.72Z" />
            <path class="cls-12-a" d="M64.38,110.45c-.18,4.14,3.09,8.78,7.3,10.37s7.76-.5,7.94-4.65-3.09-8.79-7.29-10.37S64.56,106.3,64.38,110.45Z" />
            <path class="cls-11-a" d="M69.15,111.32,71.39,110c.46-.28,1.06-.06,1.48.56l2.06,2.92c.41.58.37,1.55-.08,1.81l-2.23,1.31c-.47.28-1.07.06-1.49-.56l-2.06-2.92C68.66,112.54,68.7,111.58,69.15,111.32Z" />
            <path
                class="cls-7-a"
                d="M65.68,102.32a7.84,7.84,0,0,1,6.81-.27,14.51,14.51,0,0,1,6.57,5.3,16.16,16.16,0,0,1,3,9.73l-.14,3.22c-.17,3.8-1.85,6.12-3.72,7.21a7.84,7.84,0,0,1-6.81.28,14.58,14.58,0,0,1-6.57-5.3,16.1,16.1,0,0,1-3-9.74l.14-3.21C62.12,105.73,63.81,103.42,65.68,102.32Zm6.64,3.48c-4.2-1.58-7.76.5-7.94,4.65l-.14,3.22c-.18,4.14,3.09,8.79,7.3,10.37s7.77-.5,7.94-4.65l.14-3.22C79.8,112,76.53,107.38,72.32,105.8Z"
            />
        </g>
    </g>
</svg>
