<svg xmlns="http://www.w3.org/2000/svg" xmlns:xlink="http://www.w3.org/1999/xlink" viewBox="0 0 200.93 281.52">
    <defs>
        <style>
            .cls-1 {
                fill: #ffbf00;
            }
            .cls-2 {
                fill: #fff;
            }
            .cls-3 {
                fill: #fefefd;
            }
            .cls-4 {
                fill: url(#linear-gradient);
            }
        </style>
        <linearGradient id="linear-gradient" x1="171.22" y1="301.26" x2="104.84" y2="-10.23" gradientUnits="userSpaceOnUse">
            <stop offset="0.06" stop-color="#666" stop-opacity="0.23" />
            <stop offset="0.88" stop-color="#fff" stop-opacity="0" />
        </linearGradient>
    </defs>
    <g id="Layer_2" data-name="Layer 2">
        <g id="Layer_2-2" data-name="Layer 2">
            <path id="Path_6901" data-name="Path 6901" class="cls-1" d="M27.66,74.72c18-45.19,57.06-51.11,87.1-13.18s39.94,105.27,22,150.46-57.06,51.11-87.1,13.22S9.67,119.94,27.66,74.72Z" />
            <path
                id="Path_6902"
                data-name="Path 6902"
                class="cls-2"
                d="M24.07,70.2C43.24,22,84.82,15.7,116.91,56.12s42.57,112.23,23.39,160.41S79.57,271,47.46,230.58,4.89,118.36,24.07,70.2ZM136.63,212c18-45.19,8.16-112.57-21.95-150.46s-69.1-32-87.1,13.18-8.16,112.57,22,150.5,69.18,32,87.09-13.22"
            />
            <path
                id="Path_6904"
                data-name="Path 6904"
                class="cls-1"
                d="M133.74,8a64.15,64.15,0,0,0-9-4.36,56.86,56.86,0,0,0-8.35-2.51A48.74,48.74,0,0,0,100.25.31L63.71,5.54a46.73,46.73,0,0,1,8-.24,50.09,50.09,0,0,1,8.09,1.08,56.94,56.94,0,0,1,8.35,2.53,64,64,0,0,1,9,4.34,79.32,79.32,0,0,1,10.43,7.21A106.76,106.76,0,0,1,122,34.74l2.38,2.82A156,156,0,0,1,142,65.8a198.42,198.42,0,0,1,10.29,25.11c1.6,4.76,3.8,11.6,5.23,17.12h-.21c1.24,5,2.32,10,3.23,15.12q1.28,7,2.13,14.1c.54,4.54,1,9.11,1.24,13.65s.44,9.1.46,13.6-.1,9.38-.38,14c-.3,5.08-.77,10-1.43,14.88-.8,6-1.9,11.83-3.2,17.54h0a153.48,153.48,0,0,1-6.63,21.26c-11.72,29.43-30.31,46-50.87,48.92l36.56-5.21C159,272.94,177.55,256.4,189.27,227a153.48,153.48,0,0,0,6.63-21.26q2-8.56,3.22-17.54,1-7.32,1.42-14.88c.27-4.62.4-9.3.39-14s-.18-9.05-.46-13.6-.7-9.11-1.26-13.65-1.27-9.42-2.13-14.1q-1.37-7.61-3.23-15.1c-1.47-5.84-3.12-11.59-5-17.22a204.38,204.38,0,0,0-10.29-25.1h0a158.5,158.5,0,0,0-17.67-28.25l-1.24-1.54h0a108.8,108.8,0,0,0-15.46-15.56A79.78,79.78,0,0,0,133.74,8Z"
            />
            <path
                id="Path_6905"
                data-name="Path 6905"
                class="cls-1"
                d="M11.64,54.54C34.93-3.95,85.37-11.59,124.33,37.42S176,173.63,152.73,232.11,79,298.26,40,249.22-11.64,113.05,11.64,54.54Zm128.66,162c19.18-48.16,8.72-120-23.39-160.41S43.24,22,24.07,70.2s-8.72,120,23.39,160.42,73.67,34.11,92.84-14.09"
            />
            <path
                class="cls-3"
                d="M83.24,157.31l25.61,19c.54.4.8.59.84-.38a95.54,95.54,0,0,0,0-11,1.79,1.79,0,0,0-.8-1.59l-51-37.82c-.63-.47-.8-.3-.8.53v10.5c0,1.35,0,1.35,1,2.1l25.11,18.63Zm23.59-7.74a1.61,1.61,0,0,0,0-.82q-.64-2.44-1.52-4.85a72.87,72.87,0,0,0-3.12-7.8,34.06,34.06,0,0,0-1.94-4.09,82.82,82.82,0,0,0-12.64-18.34,52.46,52.46,0,0,0-7.16-6.38L57.84,90.51c-.64-.47-.72-.18-.72.59V112c0,.88,0,1.12.8,1.71l48.61,36.07s.42.19.5-.1l-.2-.15Zm0,37.51a14.05,14.05,0,0,0-2.15-1.6L58,150.83c-.63-.47-.85-.63-.85.55v20.47c0,.94,0,1.18.85,1.81l21.56,16a13,13,0,0,0,3.07,2,27.51,27.51,0,0,0,9.15,4,8.85,8.85,0,0,0,3.07.28l.29.22c5.06.07,9.17-2.67,11.76-7.85a1.34,1.34,0,0,0,0-1.15Zm-58.17-9.72V144.75c0-.77,0-.89-.67-1.38l-9.15-6.79a1.38,1.38,0,0,1-.71-1.47V123.9l9.77,7.25c.55.41.76.57.76-.44V119.62a1.26,1.26,0,0,0-.67-1.38l-9.15-6.78a1.39,1.39,0,0,1-.71-1.47V99.61c0-.65,0-.83.67-.33L47.86,106c.63.47.8.6.8-.52V73.69c0-1,0-1.19.84-.56L81.09,96.57a82.52,82.52,0,0,1,6.82,6.12,100.4,100.4,0,0,1,13.19,16.62,119.22,119.22,0,0,1,7.41,13.53c1.67,3.66,3.17,7.4,4.51,11.18a110.5,110.5,0,0,1,3.29,11.47,3,3,0,0,0,1.25,2.17l7.54,5.6c1,.71,1,.71,1,2V175c0,.94-.25,1-.92.49l-5.82-4.31c-.59-.44-.76-.57-.71.53a84.4,84.4,0,0,1,0,10.79c0,1,0,1.12.8,1.72l6.65,4.93c.29.75,0,1.06,0,1.6a17.69,17.69,0,0,1,0,2.06v7.14c0,1-.21,1.14-.84.67l-8-5.91c-.56-.56-1.1-.46-1.23.22-1.89,5.49-4.92,9.43-8.84,11.48a21.23,21.23,0,0,1-4.51,1.73,31.44,31.44,0,0,1-5,.14,32.19,32.19,0,0,1-10-2.95,60.54,60.54,0,0,1-9.85-6.2L48.65,177.42v0Z"
            />
            <path
                id="Path_6904-2"
                data-name="Path 6904"
                class="cls-4"
                d="M133.74,8a64.15,64.15,0,0,0-9-4.36,56.86,56.86,0,0,0-8.35-2.51A48.74,48.74,0,0,0,100.25.31L63.71,5.54a46.73,46.73,0,0,1,8-.24,50.09,50.09,0,0,1,8.09,1.08,56.94,56.94,0,0,1,8.35,2.53,64,64,0,0,1,9,4.34,79.32,79.32,0,0,1,10.43,7.21A106.76,106.76,0,0,1,122,34.74l2.38,2.82A156,156,0,0,1,142,65.8a198.42,198.42,0,0,1,10.29,25.11c1.6,4.76,3.8,11.6,5.23,17.12h-.21c1.24,5,2.32,10,3.23,15.12q1.28,7,2.13,14.1c.54,4.54,1,9.11,1.24,13.65s.44,9.1.46,13.6-.1,9.38-.38,14c-.3,5.08-.77,10-1.43,14.88-.8,6-1.9,11.83-3.2,17.54h0a153.48,153.48,0,0,1-6.63,21.26c-11.72,29.43-30.31,46-50.87,48.92l36.56-5.21C159,272.94,177.55,256.4,189.27,227a153.48,153.48,0,0,0,6.63-21.26q2-8.56,3.22-17.54,1-7.32,1.42-14.88c.27-4.62.4-9.3.39-14s-.18-9.05-.46-13.6-.7-9.11-1.26-13.65-1.27-9.42-2.13-14.1q-1.37-7.61-3.23-15.1c-1.47-5.84-3.12-11.59-5-17.22a204.38,204.38,0,0,0-10.29-25.1h0a158.5,158.5,0,0,0-17.67-28.25l-1.24-1.54h0a108.8,108.8,0,0,0-15.46-15.56A79.78,79.78,0,0,0,133.74,8Z"
            />
        </g>
    </g>
</svg>
