<svg xmlns="http://www.w3.org/2000/svg" xmlns:xlink="http://www.w3.org/1999/xlink" viewBox="0 0 375.83 333.62"><defs><style>.cls-1{fill:#fff;}.cls-2{fill:#1e1e1e;}.cls-3{fill:#e6007a;}.cls-4{fill:url(#linear-gradient);}.cls-5{fill:#ffbf00;}.cls-6{fill:url(#linear-gradient-2);}</style><linearGradient id="linear-gradient" x1="171.12" y1="-2499.07" x2="104.74" y2="-2187.58" gradientTransform="matrix(1, 0, 0, -1, 0, -2145.71)" gradientUnits="userSpaceOnUse"><stop offset="0.06" stop-color="#666" stop-opacity="0.23"/><stop offset="0.88" stop-color="#fff" stop-opacity="0"/></linearGradient><linearGradient id="linear-gradient-2" x1="346.12" y1="-2447.4" x2="279.74" y2="-2135.91" xlink:href="#linear-gradient"/></defs><g id="Layer_2" data-name="Layer 2"><g id="Layer_1-2" data-name="Layer 1"><g id="Layer_2-2" data-name="Layer 2"><g id="Layer_2-2-2" data-name="Layer 2-2"><path id="Path_6901" data-name="Path 6901" class="cls-1" d="M27.68,126.82c18-45.19,57.06-51.11,87.1-13.18s39.94,105.27,22,150.46-57.06,51.11-87.1,13.22S9.69,172,27.68,126.82Z"/><path id="Path_6902" data-name="Path 6902" class="cls-2" d="M24.09,122.3c19.17-48.2,60.75-54.5,92.84-14.08s42.57,112.23,23.39,160.41S79.59,323.1,47.48,282.68,4.91,170.46,24.09,122.3ZM136.65,264.1c18-45.19,8.16-112.57-22-150.46s-69.1-32-87.1,13.18-8.16,112.57,22,150.5,69.18,32,87.09-13.22"/><path id="Path_6904" data-name="Path 6904" class="cls-1" d="M133.76,60.1a64.92,64.92,0,0,0-9-4.36,56.14,56.14,0,0,0-8.35-2.51,48.9,48.9,0,0,0-16.14-.82L63.73,57.64a46.53,46.53,0,0,1,8-.24,49.94,49.94,0,0,1,8.09,1.08A57.42,57.42,0,0,1,88.17,61a63.7,63.7,0,0,1,9,4.34,78,78,0,0,1,10.43,7.21A106.33,106.33,0,0,1,122,86.84l2.38,2.82A155.92,155.92,0,0,1,142,117.9,198.42,198.42,0,0,1,152.31,143c1.6,4.76,3.8,11.6,5.23,17.12h-.21c1.24,5,2.32,10,3.23,15.12q1.29,7,2.13,14.1c.54,4.54,1,9.11,1.24,13.65s.44,9.1.46,13.6-.1,9.38-.38,14c-.3,5.08-.77,10-1.43,14.88-.8,6-1.9,11.83-3.2,17.54h0a151.72,151.72,0,0,1-6.63,21.26c-11.72,29.43-30.31,46-50.87,48.92L138.44,328C159,325,177.57,308.5,189.29,279.1a151.72,151.72,0,0,0,6.63-21.26q2-8.55,3.22-17.54,1-7.32,1.42-14.88c.27-4.62.4-9.3.39-14s-.18-9-.46-13.6-.7-9.11-1.26-13.65-1.27-9.42-2.13-14.1q-1.36-7.6-3.23-15.1c-1.47-5.84-3.12-11.59-5-17.22a203.46,203.46,0,0,0-10.29-25.1h0A158.28,158.28,0,0,0,160.91,84.4l-1.24-1.54h0A108.28,108.28,0,0,0,144.21,67.3,79.75,79.75,0,0,0,133.76,60.1Z"/><path id="Path_6905" data-name="Path 6905" class="cls-1" d="M11.66,106.64C35,48.15,85.39,40.51,124.35,89.52S176,225.73,152.75,284.21,79,350.36,40,301.32-11.62,165.15,11.66,106.64Zm128.66,162c19.18-48.16,8.72-120-23.39-160.41S43.26,74.1,24.09,122.3s-8.72,120,23.39,160.42,73.67,34.11,92.84-14.09"/><path class="cls-2" d="M84.65,135.37c-24-6.77-43.54,9.09-43.86,35.53a60.65,60.65,0,0,0,2.15,16.25c1.1,3.75,4.45,6.55,7.61,6.4,3.06-.42,4.71-3.63,3.76-7.35a38.79,38.79,0,0,1-1.58-12.72c.69-19,15.26-29.85,32.56-24.31s30.76,25.42,30.07,44.38c-.65,17.76-13.53,28.63-29.71,25.07,0,0-6.1-1.34-9.14-1.8a28.36,28.36,0,0,0-3.33-.23c-.16.14-.41.06-.57-.15h0a.48.48,0,0,1,0-.54l1-5.42,6-26.81a8.89,8.89,0,0,0-4.51-9.13c-3.21-1.68-6.4-.33-7.11,3,0,0-14.23,65.75-14.23,66.38-.81,3.17,1,7.14,4.07,8.88l.1.06.31.09c3.06,1.75,6.2.61,7-2.54v-.48c.17-.77,2-9.54,2-9.54,1.36-6.63,6.51-10.52,12.91-9.77C81.47,230.77,87,232,87,232c23.88,4.23,41.5-14.28,39.34-41.33C124.38,166,106.51,142.28,84.65,135.37Z"/><path class="cls-3" d="M86.32,246.81c-3.91-2-7.76-.35-8.62,3.74v.12c-.88,4.05,1.54,9,5.43,11.06h0l.2.06c3.81,2.11,7.67.62,8.62-3.33v-.53A11.28,11.28,0,0,0,86.32,246.81Z"/><path id="Path_6904-2" data-name="Path 6904-2" class="cls-4" d="M133.63,60.1a64.92,64.92,0,0,0-9-4.36,56.14,56.14,0,0,0-8.35-2.51,48.9,48.9,0,0,0-16.14-.82L63.6,57.64a46.53,46.53,0,0,1,8-.24,50,50,0,0,1,8.08,1.08A57.29,57.29,0,0,1,88,61a63.7,63.7,0,0,1,9,4.34,78,78,0,0,1,10.43,7.21,106.76,106.76,0,0,1,14.32,14.28l2.38,2.82a155.27,155.27,0,0,1,17.74,28.24A198.42,198.42,0,0,1,152.18,143c1.6,4.76,3.8,11.6,5.23,17.12h-.21c1.24,5,2.32,10,3.24,15.12q1.29,7,2.13,14.1c.53,4.54,1,9.11,1.23,13.65s.44,9.1.46,13.6-.1,9.38-.38,14c-.29,5.08-.77,10-1.43,14.88-.8,6-1.9,11.83-3.19,17.54h0a154.88,154.88,0,0,1-6.64,21.26c-11.72,29.43-30.3,46-50.86,48.92L138.31,328c20.55-2.95,39.13-19.49,50.85-48.94a151.76,151.76,0,0,0,6.64-21.26q2-8.55,3.21-17.54,1-7.32,1.43-14.88c.26-4.62.4-9.3.38-14s-.17-9.05-.46-13.6-.7-9.11-1.25-13.65S197.83,174.7,197,170q-1.38-7.61-3.24-15.1-2.19-8.76-5-17.22a201.29,201.29,0,0,0-10.29-25.1h0a157.72,157.72,0,0,0-17.67-28.25l-1.24-1.54h0a108.28,108.28,0,0,0-15.46-15.56A79.4,79.4,0,0,0,133.63,60.1Z"/></g></g><g id="Layer_2-3" data-name="Layer 2"><g id="Layer_2-2-3" data-name="Layer 2-2"><path id="Path_6901-2" data-name="Path 6901" class="cls-5" d="M202.56,74.74c18-45.19,57.06-51.11,87.1-13.18s39.94,105.27,22,150.46-57.06,51.11-87.1,13.22S184.57,120,202.56,74.74Z"/><path id="Path_6902-2" data-name="Path 6902" class="cls-1" d="M199,70.22c19.17-48.2,60.75-54.5,92.84-14.08s42.57,112.23,23.39,160.41-60.73,54.47-92.84,14S179.79,118.38,199,70.22ZM311.53,212c18-45.19,8.16-112.57-21.95-150.46s-69.1-32-87.1,13.18-8.16,112.57,22,150.5,69.18,32,87.09-13.22"/><path id="Path_6904-2-2" data-name="Path 6904" class="cls-5" d="M308.64,8a62.73,62.73,0,0,0-9-4.36,56.14,56.14,0,0,0-8.35-2.51A48.63,48.63,0,0,0,275.15.33L238.61,5.56a46.5,46.5,0,0,1,8-.24A50.09,50.09,0,0,1,254.7,6.4a55,55,0,0,1,8.35,2.53,63.7,63.7,0,0,1,9,4.34,78.66,78.66,0,0,1,10.43,7.21A106.33,106.33,0,0,1,296.9,34.76l2.38,2.82A155.23,155.23,0,0,1,316.9,65.82a197.22,197.22,0,0,1,10.29,25.11c1.6,4.76,3.8,11.6,5.23,17.12h-.21c1.24,5,2.32,10,3.23,15.12q1.29,7,2.13,14.1c.54,4.54,1,9.11,1.24,13.65s.44,9.1.46,13.6-.1,9.38-.38,14c-.3,5.08-.77,10-1.43,14.88-.8,6-1.9,11.83-3.2,17.54h0a153.9,153.9,0,0,1-6.63,21.26c-11.72,29.43-30.31,46-50.87,48.92l36.56-5.21c20.58-3,39.13-19.49,50.85-48.89a153.9,153.9,0,0,0,6.63-21.26q2-8.56,3.22-17.54,1-7.32,1.42-14.88c.27-4.62.4-9.3.39-14s-.18-9.05-.46-13.6-.7-9.11-1.26-13.65-1.27-9.42-2.13-14.1q-1.37-7.62-3.23-15.1c-1.47-5.84-3.12-11.59-5-17.22a204.38,204.38,0,0,0-10.29-25.1h0a158.28,158.28,0,0,0-17.67-28.25l-1.24-1.54h0a107.77,107.77,0,0,0-15.46-15.56A78.79,78.79,0,0,0,308.64,8Z"/><path id="Path_6905-2" data-name="Path 6905" class="cls-5" d="M186.54,54.56c23.29-58.49,73.73-66.13,112.69-17.12s51.67,136.21,28.4,194.69S253.9,298.28,214.9,249.24,163.26,113.07,186.54,54.56Zm128.66,162c19.18-48.16,8.72-120-23.39-160.41S218.14,22,199,70.22s-8.72,120,23.39,160.42S296,264.75,315.2,216.55"/><g id="Layer_2-3-2" data-name="Layer 2-3"><g id="Layer_1-2-2" data-name="Layer 1-2"><path id="Path_6968" data-name="Path 6968" class="cls-1" d="M235.24,125.83l18.38-15.62,18.47,39.28,10.7-9.1L253.64,78.25l-29,24.67,10.64,22.91m-28.93-7.4,10.71-9.11,11,23-10.7,9.11Zm29,29.93,18.37,39.29L272.06,172l10.74,22.9h0l-29.09,24.63-29.15-62.14h0l10.75-9m44.06,17.13,10.71-9.11,10.74,22.9-10.66,9Z"/><path id="Path_6969" data-name="Path 6969" class="cls-1" d="M264.56,155.84h0l-10.87-23.21-8,6.81-2.38,2.75,10.87,23.21,10.9-9.23h0"/></g></g><path id="Path_6904-2-3" data-name="Path 6904-2" class="cls-6" d="M308.64,8.47a64.92,64.92,0,0,0-9-4.36,56.14,56.14,0,0,0-8.35-2.51A48.38,48.38,0,0,0,275.15.74L238.61,6a45.51,45.51,0,0,1,8-.25,50.09,50.09,0,0,1,8.09,1.08,55,55,0,0,1,8.35,2.53,63.7,63.7,0,0,1,9,4.34,78.66,78.66,0,0,1,10.43,7.21A106.62,106.62,0,0,1,296.9,35.17L299.23,38A155.79,155.79,0,0,1,316.9,66.23a197.22,197.22,0,0,1,10.29,25.11c1.6,4.76,3.8,11.61,5.23,17.12h-.21q1.86,7.49,3.23,15.12,1.29,7,2.13,14.1c.54,4.54,1,9.11,1.24,13.66s.44,9.09.46,13.6-.1,9.37-.38,14q-.45,7.6-1.43,14.87c-.8,6-1.9,11.83-3.2,17.54h0a152.55,152.55,0,0,1-6.63,21.26c-11.72,29.43-30.31,46-50.87,48.93l36.56-5.22c20.54-2.94,39.13-19.49,50.85-48.94a152.55,152.55,0,0,0,6.63-21.26q2-8.58,3.22-17.54,1-7.32,1.42-14.88c.27-4.62.4-9.3.39-14s-.18-9.06-.46-13.61-.7-9.11-1.26-13.65-1.27-9.42-2.13-14.1q-1.37-7.61-3.23-15.1c-1.47-5.84-3.12-11.58-5-17.21a204.52,204.52,0,0,0-10.29-25.11h0a158.28,158.28,0,0,0-17.67-28.25l-1.24-1.54h0a108.8,108.8,0,0,0-15.46-15.56,78.81,78.81,0,0,0-10.45-7.11Z"/></g></g></g></g></svg>