<svg xmlns="http://www.w3.org/2000/svg" xmlns:xlink="http://www.w3.org/1999/xlink" viewBox="0 0 200.93 281.52">
    <defs>
        <style>
            .cls-1 {
                fill: #fff;
            }
            .cls-2 {
                fill: #1e1e1e;
            }
            .cls-3 {
                fill: #e6007a;
            }
            .cls-4 {
                fill: url(#linear-gradient);
            }
        </style>
        <linearGradient id="linear-gradient" x1="171.09" y1="301.26" x2="104.71" y2="-10.23" gradientUnits="userSpaceOnUse">
            <stop offset="0.06" stop-color="#666" stop-opacity="0.23" />
            <stop offset="0.88" stop-color="#fff" stop-opacity="0" />
        </linearGradient>
    </defs>
    <g id="Layer_2" data-name="Layer 2">
        <g id="Layer_2-2" data-name="Layer 2">
            <path id="Path_6901" data-name="Path 6901" class="cls-1" d="M27.66,74.72c18-45.19,57.06-51.11,87.1-13.18s39.94,105.27,22,150.46-57.06,51.11-87.1,13.22S9.67,119.94,27.66,74.72Z" />
            <path
                id="Path_6902"
                data-name="Path 6902"
                class="cls-2"
                d="M24.07,70.2C43.24,22,84.82,15.7,116.91,56.12s42.57,112.23,23.39,160.41S79.57,271,47.46,230.58,4.89,118.36,24.07,70.2ZM136.63,212c18-45.19,8.16-112.57-21.95-150.46s-69.1-32-87.1,13.18-8.16,112.57,22,150.5,69.18,32,87.09-13.22"
            />
            <path
                id="Path_6904"
                data-name="Path 6904"
                class="cls-1"
                d="M133.74,8a64.15,64.15,0,0,0-9-4.36,56.86,56.86,0,0,0-8.35-2.51A48.74,48.74,0,0,0,100.25.31L63.71,5.54a46.73,46.73,0,0,1,8-.24,50.09,50.09,0,0,1,8.09,1.08,56.94,56.94,0,0,1,8.35,2.53,64,64,0,0,1,9,4.34,79.32,79.32,0,0,1,10.43,7.21A106.76,106.76,0,0,1,122,34.74l2.38,2.82A156,156,0,0,1,142,65.8a198.42,198.42,0,0,1,10.29,25.11c1.6,4.76,3.8,11.6,5.23,17.12h-.21c1.24,5,2.32,10,3.23,15.12q1.28,7,2.13,14.1c.54,4.54,1,9.11,1.24,13.65s.44,9.1.46,13.6-.1,9.38-.38,14c-.3,5.08-.77,10-1.43,14.88-.8,6-1.9,11.83-3.2,17.54h0a153.48,153.48,0,0,1-6.63,21.26c-11.72,29.43-30.31,46-50.87,48.92l36.56-5.21C159,272.94,177.55,256.4,189.27,227a153.48,153.48,0,0,0,6.63-21.26q2-8.56,3.22-17.54,1-7.32,1.42-14.88c.27-4.62.4-9.3.39-14s-.18-9.05-.46-13.6-.7-9.11-1.26-13.65-1.27-9.42-2.13-14.1q-1.37-7.61-3.23-15.1c-1.47-5.84-3.12-11.59-5-17.22a204.38,204.38,0,0,0-10.29-25.1h0a158.5,158.5,0,0,0-17.67-28.25l-1.24-1.54h0a108.8,108.8,0,0,0-15.46-15.56A79.78,79.78,0,0,0,133.74,8Z"
            />
            <path
                id="Path_6905"
                data-name="Path 6905"
                class="cls-1"
                d="M11.64,54.54C34.93-3.95,85.37-11.59,124.33,37.42S176,173.63,152.73,232.11,79,298.26,40,249.22-11.64,113.05,11.64,54.54Zm128.66,162c19.18-48.16,8.72-120-23.39-160.41S43.24,22,24.07,70.2s-8.72,120,23.39,160.42,73.67,34.11,92.84-14.09"
            />
            <path
                class="cls-2"
                d="M84.63,83.27c-24-6.77-43.54,9.09-43.86,35.53a60.54,60.54,0,0,0,2.15,16.25c1.1,3.75,4.45,6.55,7.61,6.4,3.06-.42,4.71-3.63,3.76-7.35a38.64,38.64,0,0,1-1.58-12.72c.69-19,15.26-29.85,32.56-24.31s30.76,25.42,30.07,44.38c-.65,17.76-13.53,28.63-29.71,25.07,0,0-6.1-1.34-9.14-1.8a26.88,26.88,0,0,0-3.33-.23c-.16.14-.41.06-.57-.15h0a.48.48,0,0,1,0-.54l1-5.42,6-26.81a8.91,8.91,0,0,0-4.51-9.13c-3.21-1.68-6.4-.33-7.11,3,0,0-14.23,65.75-14.23,66.38-.81,3.17,1,7.14,4.07,8.88l.1.06.31.09c3.06,1.75,6.2.61,7-2.54l0-.16c0-.11,0-.22,0-.32.17-.77,2-9.54,2-9.54,1.36-6.63,6.51-10.52,12.91-9.77,1.32.15,6.85,1.33,6.85,1.33,23.88,4.23,41.5-14.28,39.34-41.33C124.36,113.87,106.49,90.18,84.63,83.27Z"
            />
            <path class="cls-3" d="M86.3,194.71c-3.91-2-7.76-.35-8.62,3.74,0,0,0,.08,0,.12-.88,4.05,1.54,9,5.43,11.06h0l.2.06c3.81,2.11,7.67.62,8.62-3.33,0,0,0-.06,0-.09v-.44A11.28,11.28,0,0,0,86.3,194.71Z" />
            <path
                id="Path_6904-2"
                data-name="Path 6904"
                class="cls-4"
                d="M133.61,8a64.15,64.15,0,0,0-9-4.36,56.49,56.49,0,0,0-8.35-2.51A48.74,48.74,0,0,0,100.12.31L63.58,5.54a46.81,46.81,0,0,1,8-.24,50,50,0,0,1,8.08,1.08A56.57,56.57,0,0,1,88,8.91a64,64,0,0,1,9,4.34,78.66,78.66,0,0,1,10.43,7.21,106.76,106.76,0,0,1,14.32,14.28l2.38,2.82A155.48,155.48,0,0,1,141.87,65.8a198.42,198.42,0,0,1,10.29,25.11c1.6,4.76,3.8,11.6,5.23,17.12h-.21c1.24,5,2.32,10,3.24,15.12q1.28,7,2.13,14.1c.53,4.54.95,9.11,1.23,13.65s.44,9.1.46,13.6-.1,9.38-.38,14c-.29,5.08-.77,10-1.43,14.88-.8,6-1.9,11.83-3.19,17.54h0a154.88,154.88,0,0,1-6.64,21.26c-11.72,29.43-30.3,46-50.86,48.92l36.55-5.21c20.55-2.95,39.13-19.49,50.85-48.94a152.17,152.17,0,0,0,6.64-21.26q2-8.56,3.21-17.54,1-7.32,1.43-14.88c.26-4.62.4-9.3.38-14s-.17-9.05-.46-13.6-.7-9.11-1.25-13.65-1.28-9.42-2.13-14.1q-1.38-7.61-3.24-15.1-2.19-8.76-5-17.22a202.82,202.82,0,0,0-10.29-25.1h0a157.93,157.93,0,0,0-17.67-28.25l-1.24-1.54h0a108.8,108.8,0,0,0-15.46-15.56A79.78,79.78,0,0,0,133.61,8Z"
            />
        </g>
    </g>
</svg>
