<svg xmlns="http://www.w3.org/2000/svg" xmlns:xlink="http://www.w3.org/1999/xlink" viewBox="0 0 375.83 333.63"><defs><style>.cls-1{fill:#4c68ef;}.cls-2{fill:#fff;}.cls-3{fill:url(#linear-gradient);}.cls-4{fill:#ffbf00;}.cls-5{fill:url(#linear-gradient-2);}</style><linearGradient id="linear-gradient" x1="171.23" y1="2906.09" x2="104.85" y2="2594.6" gradientTransform="translate(0 -2552.73)" gradientUnits="userSpaceOnUse"><stop offset="0.06" stop-color="#666" stop-opacity="0.23"/><stop offset="0.88" stop-color="#fff" stop-opacity="0"/></linearGradient><linearGradient id="linear-gradient-2" x1="346.11" y1="-621.39" x2="279.73" y2="-309.9" gradientTransform="matrix(1, 0, 0, -1, 0, -319.7)" xlink:href="#linear-gradient"/></defs><g id="Layer_2" data-name="Layer 2"><g id="Layer_1-2" data-name="Layer 1"><g id="Layer_2-2" data-name="Layer 2"><g id="Layer_1-2-2" data-name="Layer 1-2"><g id="Layer_2-2-2" data-name="Layer 2-2"><g id="Layer_2-2-2-2" data-name="Layer 2-2-2"><path id="Path_6901" data-name="Path 6901" class="cls-1" d="M27.69,126.83c18-45.19,57.06-51.11,87.1-13.18s39.94,105.27,22,150.46-57.06,51.11-87.1,13.22S9.7,172.09,27.69,126.83Z"/><path id="Path_6902" data-name="Path 6902" class="cls-2" d="M24.1,122.31c19.17-48.22,60.75-54.5,92.84-14.08s42.57,112.23,23.39,160.41S79.6,323.09,47.49,282.69,4.92,170.47,24.1,122.31ZM136.66,264.09c18-45.19,8.16-112.57-22-150.46s-69.1-32-87.1,13.18-8.16,112.57,22,150.5,69.18,32,87.09-13.22"/><path id="Path_6904" data-name="Path 6904" class="cls-1" d="M133.77,60.09a62.73,62.73,0,0,0-9-4.36,54.19,54.19,0,0,0-8.35-2.51,48.37,48.37,0,0,0-16.14-.8L63.74,57.65a46.47,46.47,0,0,1,8-.24,49,49,0,0,1,8.09,1.08A53.93,53.93,0,0,1,88.18,61a62.62,62.62,0,0,1,9,4.34,76.81,76.81,0,0,1,10.43,7.21A106.19,106.19,0,0,1,122,86.85l2.38,2.82A154.68,154.68,0,0,1,142,117.91,197.22,197.22,0,0,1,152.3,143c1.6,4.76,3.8,11.6,5.23,17.12h-.21c1.24,5,2.32,10,3.23,15.12q1.29,7,2.13,14.1c.54,4.54,1,9.11,1.24,13.65s.44,9.1.46,13.6-.1,9.38-.38,14c-.3,5.08-.77,10-1.43,14.88-.8,6-1.9,11.83-3.2,17.54h0a153.9,153.9,0,0,1-6.63,21.26c-11.72,29.43-30.31,46-50.87,48.92L138.43,328c20.58-3,39.13-19.49,50.85-48.89a153.9,153.9,0,0,0,6.63-21.26q2-8.57,3.22-17.54,1-7.32,1.42-14.88c.27-4.62.4-9.3.39-14s-.18-9.05-.46-13.6-.7-9.11-1.26-13.65-1.21-9.42-2.11-14.09q-1.37-7.62-3.23-15.1c-1.47-5.84-3.12-11.59-5-17.22a202.19,202.19,0,0,0-10.29-25.1h0a157.57,157.57,0,0,0-17.67-28.25l-1.24-1.54h0a107.26,107.26,0,0,0-15.46-15.56A78.06,78.06,0,0,0,133.77,60.09Z"/><path id="Path_6905" data-name="Path 6905" class="cls-1" d="M11.67,106.65C35,48.16,85.4,40.52,124.36,89.53S176,225.74,152.76,284.22,79,350.37,40,301.33-11.61,165.16,11.67,106.65Zm128.66,162c19.18-48.16,8.72-120-23.39-160.41S43.27,74.09,24.1,122.31s-8.72,120,23.39,160.42,73.67,34.11,92.84-14.09"/><polygon class="cls-2" points="106.47 219.25 75.59 251.69 44.8 183.64 75.67 222.39 95.47 220.37 106.28 219.22 106.47 219.25"/><polygon class="cls-2" points="44.82 176.61 75.92 135.43 106.4 211.99 75.69 215.58 44.82 176.61"/><path id="Path_6904-2" data-name="Path 6904-2" class="cls-3" d="M133.77,60.09a62.73,62.73,0,0,0-9-4.36,54.19,54.19,0,0,0-8.35-2.51,48.37,48.37,0,0,0-16.14-.8L63.74,57.65a46.47,46.47,0,0,1,8-.24,49,49,0,0,1,8.09,1.08A53.93,53.93,0,0,1,88.18,61a62.62,62.62,0,0,1,9,4.34,76.81,76.81,0,0,1,10.43,7.21A106.19,106.19,0,0,1,122,86.85l2.38,2.82A154.68,154.68,0,0,1,142,117.91,197.22,197.22,0,0,1,152.3,143c1.6,4.76,3.8,11.6,5.23,17.12h-.21c1.24,5,2.32,10,3.23,15.12q1.29,7,2.13,14.1c.54,4.54,1,9.11,1.24,13.65s.44,9.1.46,13.6-.1,9.38-.38,14c-.3,5.08-.77,10-1.43,14.88-.8,6-1.9,11.83-3.2,17.54h0a153.9,153.9,0,0,1-6.63,21.26c-11.72,29.43-30.31,46-50.87,48.92L138.43,328c20.58-3,39.13-19.49,50.85-48.89a153.9,153.9,0,0,0,6.63-21.26q2-8.57,3.22-17.54,1-7.32,1.42-14.88c.27-4.62.4-9.3.39-14s-.18-9.05-.46-13.6-.7-9.11-1.26-13.65-1.21-9.42-2.11-14.09q-1.37-7.62-3.23-15.1c-1.47-5.84-3.12-11.59-5-17.22a202.19,202.19,0,0,0-10.29-25.1h0a157.57,157.57,0,0,0-17.67-28.25l-1.24-1.54h0a107.26,107.26,0,0,0-15.46-15.56A78.06,78.06,0,0,0,133.77,60.09Z"/></g></g></g></g><g id="Layer_2-3" data-name="Layer 2"><g id="Layer_2-2-3" data-name="Layer 2-2"><path id="Path_6901-2" data-name="Path 6901" class="cls-4" d="M202.56,74.74c18-45.19,57.06-51.11,87.1-13.18s39.94,105.27,22,150.46-57.06,51.11-87.1,13.22S184.57,120,202.56,74.74Z"/><path id="Path_6902-2" data-name="Path 6902" class="cls-2" d="M199,70.22c19.17-48.2,60.75-54.5,92.84-14.08s42.57,112.23,23.39,160.41-60.73,54.47-92.84,14S179.79,118.38,199,70.22ZM311.53,212c18-45.19,8.16-112.57-21.95-150.46s-69.1-32-87.1,13.18-8.16,112.57,22,150.5,69.18,32,87.09-13.22"/><path id="Path_6904-2-2" data-name="Path 6904" class="cls-4" d="M308.64,8a63.77,63.77,0,0,0-9-4.36,56.86,56.86,0,0,0-8.35-2.51A48.66,48.66,0,0,0,275.15.33L238.61,5.56a46.47,46.47,0,0,1,8-.24A50.24,50.24,0,0,1,254.7,6.4a55.74,55.74,0,0,1,8.35,2.53,64.77,64.77,0,0,1,9,4.34,79.32,79.32,0,0,1,10.43,7.21A107.5,107.5,0,0,1,296.9,34.76l2.38,2.82A155.78,155.78,0,0,1,316.9,65.82a200.18,200.18,0,0,1,10.29,25.11c1.6,4.76,3.8,11.6,5.23,17.12h-.21c1.24,5,2.32,10,3.23,15.12q1.28,7,2.13,14.1c.54,4.54,1,9.11,1.24,13.65s.44,9.1.46,13.6-.1,9.38-.38,14c-.3,5.08-.77,10-1.43,14.88-.8,6-1.9,11.83-3.2,17.54h0a155.27,155.27,0,0,1-6.63,21.26c-11.72,29.43-30.31,46-50.87,48.92l36.56-5.21c20.58-3,39.13-19.49,50.85-48.89a155.27,155.27,0,0,0,6.63-21.26q2-8.56,3.22-17.54,1-7.32,1.42-14.88c.27-4.62.4-9.3.39-14s-.18-9.05-.46-13.6-.7-9.11-1.26-13.65-1.27-9.42-2.13-14.1q-1.38-7.62-3.23-15.1c-1.47-5.84-3.12-11.59-5-17.22a204.38,204.38,0,0,0-10.29-25.1h0a159.43,159.43,0,0,0-17.67-28.25l-1.24-1.54h0a108.8,108.8,0,0,0-15.46-15.56A80.12,80.12,0,0,0,308.64,8Z"/><path id="Path_6905-2" data-name="Path 6905" class="cls-4" d="M186.54,54.56c23.29-58.49,73.73-66.13,112.69-17.12s51.67,136.21,28.4,194.69S253.9,298.28,214.9,249.24,163.26,113.07,186.54,54.56Zm128.66,162c19.18-48.16,8.72-120-23.39-160.41S218.14,22,199,70.22s-8.72,120,23.39,160.42S296,264.75,315.2,216.55"/><g id="Layer_2-3-2" data-name="Layer 2-3"><g id="Layer_1-2-3" data-name="Layer 1-2"><path id="Path_6968" data-name="Path 6968" class="cls-2" d="M235.24,125.83l18.38-15.62,18.47,39.28,10.7-9.1L253.64,78.25l-29,24.67,10.64,22.91m-28.93-7.4,10.71-9.11,11,23-10.7,9.11Zm29,29.93,18.37,39.29L272.06,172l10.74,22.9h0l-29.09,24.63-29.15-62.14h0l10.75-9m44.06,17.13,10.71-9.11,10.74,22.9-10.66,9Z"/><path id="Path_6969" data-name="Path 6969" class="cls-2" d="M264.56,155.84h0l-10.87-23.21-8,6.81-2.38,2.75,10.87,23.21,10.9-9.23h0"/></g></g><path id="Path_6904-2-3" data-name="Path 6904-2" class="cls-5" d="M308.64,8.47a66,66,0,0,0-9-4.36,56.86,56.86,0,0,0-8.35-2.51A48.39,48.39,0,0,0,275.15.74L238.61,6a45.48,45.48,0,0,1,8-.25,50.24,50.24,0,0,1,8.09,1.08,55.74,55.74,0,0,1,8.35,2.53,64.77,64.77,0,0,1,9,4.34,79.32,79.32,0,0,1,10.43,7.21A107.8,107.8,0,0,1,296.9,35.17L299.23,38A156.34,156.34,0,0,1,316.9,66.23a200.18,200.18,0,0,1,10.29,25.11c1.6,4.76,3.8,11.61,5.23,17.12h-.21q1.86,7.49,3.23,15.12,1.28,7,2.13,14.1c.54,4.54,1,9.11,1.24,13.66s.44,9.09.46,13.6-.1,9.37-.38,14q-.45,7.6-1.43,14.87c-.8,6-1.9,11.83-3.2,17.54h0a155.27,155.27,0,0,1-6.63,21.26c-11.72,29.43-30.31,46-50.87,48.93l36.56-5.22c20.54-2.94,39.13-19.49,50.85-48.94a155.27,155.27,0,0,0,6.63-21.26q2-8.58,3.22-17.54,1-7.32,1.42-14.88c.27-4.62.4-9.3.39-14s-.18-9.06-.46-13.61-.7-9.11-1.26-13.65-1.27-9.42-2.13-14.1q-1.38-7.61-3.23-15.1c-1.47-5.84-3.12-11.58-5-17.21a204.52,204.52,0,0,0-10.29-25.11h0a159.43,159.43,0,0,0-17.67-28.25l-1.24-1.54h0a108.8,108.8,0,0,0-15.46-15.56,79.47,79.47,0,0,0-10.45-7.11Z"/></g></g></g></g></svg>