<svg xmlns="http://www.w3.org/2000/svg" xmlns:xlink="http://www.w3.org/1999/xlink" viewBox="0 0 200.95 281.54">
    <defs>
        <style>
            .cls-1 {
                fill: #4c68ef;
            }
            .cls-2 {
                fill: #fff;
            }
            .cls-3 {
                fill: url(#linear-gradient);
            }
        </style>
        <linearGradient id="linear-gradient" x1="171.23" y1="-19.36" x2="104.85" y2="292.13" gradientTransform="matrix(1, 0, 0, -1, 0, 281.92)" gradientUnits="userSpaceOnUse">
            <stop offset="0.06" stop-color="#666" stop-opacity="0.23" />
            <stop offset="0.88" stop-color="#fff" stop-opacity="0" />
        </linearGradient>
    </defs>
    <g id="Layer_2" data-name="Layer 2">
        <g id="Layer_1-2" data-name="Layer 1">
            <g id="Layer_2-2" data-name="Layer 2">
                <g id="Layer_2-2-2" data-name="Layer 2-2">
                    <g id="Group_2908" data-name="Group 2908">
                        <path id="Path_6901" data-name="Path 6901" class="cls-1" d="M27.68,74.74c18-45.19,57.06-51.11,87.1-13.18s39.94,105.27,22,150.46-57.06,51.11-87.1,13.22S9.69,120,27.68,74.74Z" />
                        <path
                            id="Path_6902"
                            data-name="Path 6902"
                            class="cls-2"
                            d="M24.09,70.22C43.26,22,84.84,15.72,116.93,56.14s42.57,112.23,23.39,160.41S79.59,271,47.48,230.6,4.91,118.38,24.09,70.22ZM136.65,212c18-45.19,8.16-112.57-22-150.46s-69.1-32-87.1,13.18-8.16,112.57,22,150.5,69.18,32,87.09-13.22"
                        />
                        <path
                            id="Path_6904"
                            data-name="Path 6904"
                            class="cls-1"
                            d="M133.76,8a62.73,62.73,0,0,0-9-4.36,56.14,56.14,0,0,0-8.35-2.51A48.63,48.63,0,0,0,100.27.33L63.73,5.56a46.53,46.53,0,0,1,8-.24A49.94,49.94,0,0,1,79.82,6.4a55,55,0,0,1,8.35,2.53,63.7,63.7,0,0,1,9,4.34,78,78,0,0,1,10.43,7.21A106.33,106.33,0,0,1,122,34.76l2.38,2.82A155.23,155.23,0,0,1,142,65.82a197.22,197.22,0,0,1,10.29,25.11c1.6,4.76,3.8,11.6,5.23,17.12h-.21c1.24,5,2.32,10,3.23,15.12q1.29,7,2.13,14.1c.54,4.54,1,9.11,1.24,13.65s.44,9.1.46,13.6-.1,9.38-.38,14c-.3,5.08-.77,10-1.43,14.88-.8,6-1.9,11.83-3.2,17.54h0a152.55,152.55,0,0,1-6.63,21.26c-11.72,29.43-30.31,46-50.87,48.92l36.56-5.21c20.58-3,39.13-19.49,50.85-48.89a152.55,152.55,0,0,0,6.63-21.26q2-8.56,3.22-17.54,1-7.32,1.42-14.88c.27-4.62.4-9.3.39-14s-.18-9.05-.46-13.6-.7-9.11-1.26-13.65S198,122.67,197.1,118q-1.36-7.62-3.23-15.1c-1.47-5.84-3.12-11.59-5-17.22a202.82,202.82,0,0,0-10.29-25.1h0a158.28,158.28,0,0,0-17.67-28.25l-1.24-1.54h0a107.77,107.77,0,0,0-15.46-15.56A78.79,78.79,0,0,0,133.76,8Z"
                        />
                        <path
                            id="Path_6905"
                            data-name="Path 6905"
                            class="cls-1"
                            d="M11.66,54.56C35-3.93,85.39-11.57,124.35,37.44S176,173.65,152.75,232.13,79,298.28,40,249.24-11.62,113.07,11.66,54.56Zm128.66,162c19.18-48.16,8.72-120-23.39-160.41S43.26,22,24.09,70.22s-8.72,120,23.39,160.42,73.67,34.11,92.84-14.09"
                        />
                        <g id="Group_2906" data-name="Group 2906">
                            <path
                                id="Path_6906"
                                data-name="Path 6906"
                                class="cls-2"
                                d="M92.2,106.3,73.66,94.89a10.25,10.25,0,0,1-4.21-8.2c0-3.06,2.07-4.36,4.47-2.89L92.47,95.21a10.16,10.16,0,0,1,4.2,8.22C96.59,106.47,94.6,107.76,92.2,106.3Z"
                            />
                            <path
                                id="Path_6907"
                                data-name="Path 6907"
                                class="cls-2"
                                d="M113.18,178.54A77.07,77.07,0,0,0,100.82,140a66.81,66.81,0,0,0-5.27-7.12A14.16,14.16,0,0,1,92.12,124l.61-25.14L73.46,87l-.62,25.17c0,2.87-1.43,4.72-3.52,4.56-11.6-.87-19.29,9.1-19.73,26-.55,22.52,13.22,49.45,30.8,60.16s32.33,1.26,32.81-21.21C113.22,180.62,113.2,179.59,113.18,178.54Z"
                            />
                            <path
                                id="Path_6909"
                                data-name="Path 6909"
                                class="cls-1"
                                d="M105.55,179.61v.13c-.43,17-11.6,24.12-25,15.94a49.61,49.61,0,0,1-17-19.7,58.26,58.26,0,0,1-6.41-22.64,18.34,18.34,0,0,1,12.46,3.1c7.36,4.6,14,16.36,24.9,21.11a24.08,24.08,0,0,0,11,2.06Z"
                            />
                        </g>
                    </g>
                </g>
            </g>
            <path
                id="Path_6904-2"
                data-name="Path 6904-2"
                class="cls-3"
                d="M133.76,8a62.73,62.73,0,0,0-9-4.36,56.14,56.14,0,0,0-8.35-2.51A48.63,48.63,0,0,0,100.27.33L63.73,5.56a46.53,46.53,0,0,1,8-.24A49.94,49.94,0,0,1,79.82,6.4a55,55,0,0,1,8.35,2.53,63.7,63.7,0,0,1,9,4.34,78,78,0,0,1,10.43,7.21A106.33,106.33,0,0,1,122,34.76l2.38,2.82A155.23,155.23,0,0,1,142,65.82a197.22,197.22,0,0,1,10.29,25.11c1.6,4.76,3.8,11.6,5.23,17.12h-.21c1.24,5,2.32,10,3.23,15.12q1.29,7,2.13,14.1c.54,4.54,1,9.11,1.24,13.65s.44,9.1.46,13.6-.1,9.38-.38,14c-.3,5.08-.77,10-1.43,14.88-.8,6-1.9,11.83-3.2,17.54h0a152.55,152.55,0,0,1-6.63,21.26c-11.72,29.43-30.31,46-50.87,48.92l36.56-5.21c20.58-3,39.13-19.49,50.85-48.89a152.55,152.55,0,0,0,6.63-21.26q2-8.56,3.22-17.54,1-7.32,1.42-14.88c.27-4.62.4-9.3.39-14s-.18-9.05-.46-13.6-.7-9.11-1.26-13.65S198,122.67,197.1,118q-1.36-7.62-3.23-15.1c-1.47-5.84-3.12-11.59-5-17.22a202.82,202.82,0,0,0-10.29-25.1h0a158.28,158.28,0,0,0-17.67-28.25l-1.24-1.54h0a107.77,107.77,0,0,0-15.46-15.56A78.79,78.79,0,0,0,133.76,8Z"
            />
        </g>
    </g>
</svg>
