<svg xmlns="http://www.w3.org/2000/svg" xmlns:xlink="http://www.w3.org/1999/xlink" viewBox="0 0 375.84 333.16"><defs><style>.cls-1{fill:#4c68ef;}.cls-2,.cls-8{fill:#fff;}.cls-3{fill:url(#linear-gradient);}.cls-4{fill:#ccc;}.cls-5{fill:#1e1e1e;}.cls-6{fill:#d3d3d3;}.cls-7{fill:url(#linear-gradient-2);}.cls-8{opacity:1;isolation:isolate;}.cls-9{fill:#cfcfcf;}.cls-10{fill:#b0b0b0;}.cls-11{fill:#8c8c8c;}.cls-12{fill:#707070;}.cls-13{fill:#4f4f4f;}.cls-14{fill:#2f2f2f;}.cls-15{fill:#0b0b0b;}</style><linearGradient id="linear-gradient" x1="171.23" y1="-2571.91" x2="104.85" y2="-2260.42" gradientTransform="matrix(1, 0, 0, -1, 0, -2219.02)" gradientUnits="userSpaceOnUse"><stop offset="0.06" stop-color="#666" stop-opacity="0.23"/><stop offset="0.88" stop-color="#fff" stop-opacity="0"/></linearGradient><linearGradient id="linear-gradient-2" x1="346.12" y1="2854.77" x2="279.74" y2="2543.28" gradientTransform="translate(0 -2553.49)" xlink:href="#linear-gradient"/></defs><g id="Layer_2" data-name="Layer 2"><g id="Layer_1-2" data-name="Layer 1"><g id="Layer_2-2" data-name="Layer 2-2"><g id="Layer_1-2-2" data-name="Layer 1-2-2"><g id="Layer_2-2-2" data-name="Layer 2-2-2"><g id="Layer_2-2-2-2" data-name="Layer 2-2-2-2"><g id="Group_2908" data-name="Group 2908"><path id="Path_6901" data-name="Path 6901" class="cls-1" d="M27.69,126.36c18-45.19,57.06-51.11,87.1-13.18s39.94,105.27,22,150.46-57.06,51.11-87.1,13.22S9.7,171.62,27.69,126.36Z"/><path id="Path_6902" data-name="Path 6902" class="cls-2" d="M24.1,121.84c19.17-48.22,60.75-54.5,92.84-14.08S159.51,220,140.33,268.17,79.6,322.62,47.49,282.22,4.92,170,24.1,121.84ZM136.66,263.62c18-45.19,8.16-112.57-22-150.46s-69.1-32-87.1,13.18-8.16,112.57,22,150.5,69.18,32,87.09-13.22"/><path id="Path_6904" data-name="Path 6904" class="cls-1" d="M133.77,59.62a63.81,63.81,0,0,0-9-4.36,53.86,53.86,0,0,0-8.35-2.51,48.36,48.36,0,0,0-16.14-.8L63.74,57.18a46.5,46.5,0,0,1,8-.24A50.09,50.09,0,0,1,79.83,58a53.86,53.86,0,0,1,8.35,2.51,63.7,63.7,0,0,1,9,4.34,78,78,0,0,1,10.43,7.21A106.84,106.84,0,0,1,122,86.38l2.38,2.82A155,155,0,0,1,142,117.44a196.15,196.15,0,0,1,10.3,25.09c1.6,4.76,3.8,11.6,5.23,17.12h-.21c1.24,5,2.32,10,3.23,15.12q1.29,7,2.13,14.1c.54,4.54,1,9.11,1.24,13.65s.44,9.1.46,13.6-.1,9.38-.38,14c-.3,5.08-.77,10-1.43,14.88-.8,6-1.9,11.83-3.2,17.54h0a153.05,153.05,0,0,1-6.63,21.26c-11.72,29.43-30.31,46-50.87,48.92l36.56-5.19c20.58-3,39.13-19.49,50.85-48.89a153.05,153.05,0,0,0,6.63-21.26q2-8.56,3.22-17.54,1-7.32,1.42-14.88c.27-4.62.4-9.3.39-14s-.18-9.05-.46-13.6-.7-9.11-1.26-13.65-1.21-9.42-2.11-14.09q-1.37-7.62-3.23-15.1c-1.47-5.84-3.12-11.59-5-17.22a201.91,201.91,0,0,0-10.29-25.1h0A157.72,157.72,0,0,0,160.92,84l-1.24-1.54h0a107.77,107.77,0,0,0-15.46-15.56A78.35,78.35,0,0,0,133.77,59.62Z"/><path id="Path_6905" data-name="Path 6905" class="cls-1" d="M11.67,106.18C35,47.69,85.4,40.05,124.36,89.06S176,225.27,152.76,283.75,79,349.9,40,300.86-11.61,164.69,11.67,106.18Zm128.66,162c19.18-48.16,8.72-120-23.39-160.41S43.27,73.62,24.1,121.84s-8.72,120,23.39,160.42,73.67,34.11,92.84-14.09"/><g id="Group_2906" data-name="Group 2906"><path id="Path_6906" data-name="Path 6906" class="cls-2" d="M92.21,157.92,73.67,146.53a10.26,10.26,0,0,1-4.21-8.2c0-3.06,2.07-4.36,4.47-2.89l18.55,11.39a10.12,10.12,0,0,1,4.2,8.22C96.6,158.09,94.61,159.38,92.21,157.92Z"/><path id="Path_6907" data-name="Path 6907" class="cls-2" d="M113.19,230.16a77,77,0,0,0-12.36-38.54,68.52,68.52,0,0,0-5.27-7.09,14.2,14.2,0,0,1-3.43-8.88l.61-25.12L73.47,138.62l-.62,25.17c0,2.87-1.43,4.72-3.52,4.56-11.6-.87-19.29,9.1-19.73,26-.55,22.52,13.22,49.45,30.8,60.16s32.33,1.26,32.81-21.21C113.23,232.24,113.21,231.21,113.19,230.16Z"/><path id="Path_6909" data-name="Path 6909" class="cls-1" d="M105.56,231.23v.13c-.43,17-11.6,24.12-25,15.94a49.55,49.55,0,0,1-17-19.7A58.39,58.39,0,0,1,57.15,205a18.24,18.24,0,0,1,12.46,3.1c7.36,4.6,14,16.36,24.9,21.11a24.08,24.08,0,0,0,11,2.06Z"/></g></g></g></g><path id="Path_6904-2" data-name="Path 6904-2" class="cls-3" d="M133.77,59.62a63.81,63.81,0,0,0-9-4.36,53.86,53.86,0,0,0-8.35-2.51,48.36,48.36,0,0,0-16.14-.8L63.74,57.18a46.5,46.5,0,0,1,8-.24A50.09,50.09,0,0,1,79.83,58a53.86,53.86,0,0,1,8.35,2.51,63.7,63.7,0,0,1,9,4.34,78,78,0,0,1,10.43,7.21A106.84,106.84,0,0,1,122,86.38l2.38,2.82A155,155,0,0,1,142,117.44a196.15,196.15,0,0,1,10.3,25.09c1.6,4.76,3.8,11.6,5.23,17.12h-.21c1.24,5,2.32,10,3.23,15.12q1.29,7,2.13,14.1c.54,4.54,1,9.11,1.24,13.65s.44,9.1.46,13.6-.1,9.38-.38,14c-.3,5.08-.77,10-1.43,14.88-.8,6-1.9,11.83-3.2,17.54h0a153.05,153.05,0,0,1-6.63,21.26c-11.72,29.43-30.31,46-50.87,48.92l36.56-5.19c20.58-3,39.13-19.49,50.85-48.89a153.05,153.05,0,0,0,6.63-21.26q2-8.56,3.22-17.54,1-7.32,1.42-14.88c.27-4.62.4-9.3.39-14s-.18-9.05-.46-13.6-.7-9.11-1.26-13.65-1.21-9.42-2.11-14.09q-1.37-7.62-3.23-15.1c-1.47-5.84-3.12-11.59-5-17.22a201.91,201.91,0,0,0-10.29-25.1h0A157.72,157.72,0,0,0,160.92,84l-1.24-1.54h0a107.77,107.77,0,0,0-15.46-15.56A78.35,78.35,0,0,0,133.77,59.62Z"/></g></g><g id="Layer_2-2-2" data-name="Layer 2"><g id="Layer_1-2-2-2" data-name="Layer 1-2"><g id="Layer_2-2-3" data-name="Layer 2-2"><g id="Layer_2-2-2-2-2" data-name="Layer 2-2-2"><path id="Path_6901-2" data-name="Path 6901" class="cls-4" d="M202.57,74.74c18-45.2,57.06-51.11,87.1-13.19s39.94,105.27,22,150.46-57.11,51.09-87.15,13.22S184.58,120,202.57,74.74Z"/><path id="Path_6902-2" data-name="Path 6902" class="cls-5" d="M199,70.21C218.15,22,259.73,15.71,291.82,56.1s42.57,112.23,23.39,160.41-60.73,54.59-92.84,14.09S179.8,118.37,199,70.21ZM311.54,212c18-45.19,8.16-112.57-22-150.46s-69.1-32-87.1,13.19-8.16,112.56,22,150.49,69.18,32,87.09-13.22"/><path id="Path_6904-2-2" data-name="Path 6904" class="cls-6" d="M308.65,8.1a64.92,64.92,0,0,0-9-4.36,56.86,56.86,0,0,0-8.35-2.51A48.74,48.74,0,0,0,275.19.37L238.62,5.56a45.48,45.48,0,0,1,8-.25,50.09,50.09,0,0,1,8.09,1.08,55.39,55.39,0,0,1,8.35,2.53,63.7,63.7,0,0,1,9,4.34,79.24,79.24,0,0,1,10.43,7.2,107.43,107.43,0,0,1,14.4,14.29l2.38,2.82a156.47,156.47,0,0,1,17.62,28.24,198.42,198.42,0,0,1,10.29,25.11c1.6,4.76,3.8,11.61,5.23,17.12h-.21q1.86,7.5,3.23,15.12,1.29,7,2.13,14.1c.54,4.54,1,9.11,1.24,13.66s.44,9.09.46,13.6-.1,9.37-.38,14q-.45,7.6-1.43,14.87c-.8,6-1.9,11.83-3.2,17.54h0a153.05,153.05,0,0,1-6.63,21.26c-11.72,29.43-30.31,46-50.87,48.93l36.56-5.22c20.58-2.94,39.15-19.44,50.87-48.94a153.05,153.05,0,0,0,6.63-21.26q2-8.58,3.22-17.54,1-7.32,1.42-14.88c.27-4.62.4-9.3.39-14s-.18-9.06-.46-13.61-.7-9.11-1.26-13.65-1.27-9.42-2.13-14.1q-1.37-7.59-3.23-15.1c-1.47-5.84-3.12-11.58-5-17.21a204.15,204.15,0,0,0-10.29-25.15h0A158.28,158.28,0,0,0,335.8,32.21l-1.24-1.54h0A107.77,107.77,0,0,0,319.1,15.11,78.77,78.77,0,0,0,308.65,8.1Z"/><path id="Path_6905-2" data-name="Path 6905" class="cls-4" d="M186.55,54.55C209.89-3.9,260.28-11.54,299.24,37.46s51.65,136.19,28.4,194.64-73.75,66.17-112.75,17.14S163.27,113.1,186.55,54.55Zm128.66,162c19.18-48.17,8.7-120-23.39-160.45S218.15,22,199,70.21s-8.72,120,23.39,160.42,73.67,34.11,92.84-14.09"/><path id="Path_6904-2-3" data-name="Path 6904-2" class="cls-7" d="M308.66,8a63.81,63.81,0,0,0-9-4.36,56.86,56.86,0,0,0-8.35-2.51,48.92,48.92,0,0,0-16.14-.8L238.63,5.56a47.49,47.49,0,0,1,8-.24,50.09,50.09,0,0,1,8.09,1.08,56.57,56.57,0,0,1,8.35,2.53,63.7,63.7,0,0,1,9,4.34,79.32,79.32,0,0,1,10.43,7.21,108,108,0,0,1,14.4,14.28l2.38,2.82A155.92,155.92,0,0,1,316.9,65.82a198.42,198.42,0,0,1,10.29,25.11c1.6,4.76,3.8,11.6,5.23,17.12h-.21c1.24,5,2.32,10,3.23,15.12q1.29,7,2.13,14.1c.54,4.54,1,9.11,1.24,13.65s.44,9.1.46,13.6-.1,9.38-.38,14c-.3,5.08-.77,10-1.43,14.88-.8,6-1.9,11.83-3.2,17.54h0a153.05,153.05,0,0,1-6.63,21.26c-11.72,29.43-30.31,46-50.87,48.92l36.56-5.21c20.58-3,39.13-19.49,50.85-48.89a153.05,153.05,0,0,0,6.63-21.26q2-8.55,3.22-17.54,1-7.32,1.42-14.88c.27-4.62.4-9.3.39-14s-.18-9.05-.46-13.6-.7-9.11-1.26-13.65S372.9,122.67,372,118q-1.37-7.62-3.23-15.1c-1.47-5.84-3.12-11.59-5-17.22a205,205,0,0,0-10.29-25.1h0a158.28,158.28,0,0,0-17.67-28.25l-1.24-1.54h0a108.28,108.28,0,0,0-15.46-15.56A80.64,80.64,0,0,0,308.66,8Z"/></g></g></g></g><g id="layer1"><polygon id="rect820" class="cls-8" points="223.68 94.19 267.43 120.8 263.54 178.61 219.79 152 223.68 94.19"/><polygon id="rect820-3" class="cls-8" points="217.16 124.5 259.01 141 266.25 183.19 224.4 166.69 217.16 124.5"/><ellipse id="path839" class="cls-8" cx="226.16" cy="149.81" rx="5.67" ry="8.41" transform="translate(45.36 352.05) rotate(-81.72)"/><polygon id="rect841" class="cls-8" points="221.46 153.96 237.01 157.22 239.99 178.9 224.44 175.64 221.46 153.96"/><ellipse id="path839-6" class="cls-8" cx="228.29" cy="167.52" rx="8.84" ry="7.52" transform="matrix(0.84, -0.54, 0.54, 0.84, -54.28, 149.38)"/><ellipse id="path839-6-7" class="cls-8" cx="229.64" cy="174.63" rx="5.64" ry="11.78" transform="translate(-51.99 237.2) rotate(-49.78)"/><ellipse id="path839-6-7-5" class="cls-8" cx="235.87" cy="171.86" rx="8.99" ry="15.29" transform="translate(-49.42 110.38) rotate(-23.92)"/><ellipse id="path839-6-7-5-3" class="cls-8" cx="243.14" cy="178.7" rx="8.99" ry="15.29" transform="translate(-51.57 113.92) rotate(-23.92)"/><ellipse id="path839-6-7-5-3-5" class="cls-8" cx="256.02" cy="184.29" rx="8.99" ry="15.29" transform="translate(-52.73 119.62) rotate(-23.92)"/><g id="g864"><path id="path878" class="cls-9" d="M246.75,209.06a17.59,17.59,0,0,1-2.21-4.81c-.57-2.48-.67-2.55-10.23-6.85-2.88-1.29-3.19-1.6-5.33-5.31-1.51-2.63-2.29-4.63-2.31-6A5.1,5.1,0,0,0,225.6,183a3.76,3.76,0,0,1-.91-2.85,2.41,2.41,0,0,0-.75-2.29c-4.14-2.52-6-11.77-3-14.46,1.34-1.17,1.44-1.58,1-4a8,8,0,0,0-.92-2.93c-.24-.14-.39-.77-.35-1.39s-.18-1.08-.5-1c-.74.15-3.09-4.83-3-6.33a3.54,3.54,0,0,1,1.57-2.14,2,2,0,0,0,1-2.68,12.36,12.36,0,0,1-.35-3.41,6.64,6.64,0,0,0-.35-2.72c-.46-1-2-11.45-2.25-15.44a11,11,0,0,1,.6-4c.87-2.23.6-4.16-.68-4.94-1.69-1-3.15-5.21-3-8.7.07-2,.34-3.1.74-2.86a1.13,1.13,0,0,0,1.14,0c.29-.22.2-.34-.22-.28-.69.1-1-1-.33-1.38.32-.21,2-14.54,2.22-19.27s.72-5.88,2-4.69a3.14,3.14,0,0,1,1,1.69c0,.35.56,1,1.3,1.45a4.73,4.73,0,0,1,1.78,2.41c.4,1.41.53,1.4,1.16-.06,1.19-2.78,4.56.83,3.51,3.76-.26.74,0,2.78.57,5.09l1,3.87L230.82,90c1.64-4.55,2.48-15,1.16-14.35-1.52.69-3.5-2.58-3.31-5.46s1.39-3.55,3.56-1.56l1.7,1.56-.13-3.36c-.24-6.43,3.58-6.8,5.63-.55.59,1.78.63,2.58.16,2.89-1,.69-.94,3,.16,3.64a1.7,1.7,0,0,0,1.62.17c.94-.62,3.31,5,3,6.94-.41,2.27-2.23,2.64-4.3.87l-1.74-1.49L238,83a38.78,38.78,0,0,0,.38,7.5c.34,2.09.42,4.07.18,4.4s-.18.54.19.46.74.69.9,1.72c.27,1.81.29,1.82,1.71.48a5.45,5.45,0,0,0,1.47-1.89A2.78,2.78,0,0,1,244,94.32a9.62,9.62,0,0,0,4-6.33c.4-2.36.67-2.64,2-2.06s1.54,1.06,1.74,2.87a5.42,5.42,0,0,1-.39,3c-.46.61-.31,2.42.58,6.83a52.42,52.42,0,0,1,1.11,7.64c-.22,3.81,3,.84,3.33-3,.17-2.24.37-2.46,1.71-1.86a2.91,2.91,0,0,1,1.87,2.59c.33,1.84.4,1.84,2,0,.89-1.06,1.5-2.3,1.36-2.75-.59-1.88.65-4,1.89-3.21,2.33,1.42,3.12,4.78,1.45,6.1-.71.56-.79,1.39-.45,5l.4,4.28,2.22-2c1.9-1.74,2.2-2.42,2.07-4.78s.07-2.77,1.12-2.87c2.4-.24,4.46,6.08,2.37,7.3-1,.57-1.09,1.34-1.14,8.85,0,4.53.13,9.91.37,12,.35,3.15.26,4-.59,5.33-1.75,2.75-2.49,4.43-2.49,5.6,0,1.49-.5,7.72-1.17,14.38-.58,5.78-3.72,14-4.75,12.45-.32-.48-.4-.38-.21.25a7,7,0,0,0,2.62,2.47c2.39,1.46,8.09,8.21,7.55,8.93a6.1,6.1,0,0,0,.69,2.88l1,2.47-.76-2.54c-.42-1.39-.52-2.39-.23-2.21a3.31,3.31,0,0,1,.9,1.58,15.89,15.89,0,0,0,2,3.45c2.61,3.51,4.36,8.32,3.83,10.51-.24,1-.22,2,0,2.15.82.5,2.55,6.8,2.13,7.77-.22.5-.16.86.13.8.75-.15,1.16,3.11.87,6.91-.25,3.34-1.76,7.29-3.11,8.19-1.05.69-5.75.17-7-.78-1.64-1.24-2.27-1.42-3.11-.86-2.52,1.66-12.69-2.07-14.16-5.19-.41-.88-1-1.25-2.38-1.44-2.84-.4-6.62-3-8.52-5.85Zm1.53-18.25c2.56.13,4.79-1.43,4.88-3.4,0-.65-.35-.35-.85.67a3.8,3.8,0,0,1-2.7,2c-2.58.19-11-3.8-17.91-8.51-9.55-6.48-11.06-8.51-10.71-14.3.14-2.36.07-2.63-.52-1.78-.91,1.33-.16,6.86,1.19,8.72,3.41,4.72,22.11,16.39,26.62,16.62Zm-18.22-16.55a5.36,5.36,0,0,0-1.91-1.16c-.54-.14-.12.27.93.91s1.49.75,1,.25Zm15.43,8.85c4.06.51,6.17-4.9,3.83-9.86-1.31-2.8-1.45-2.91-6.1-5.26-2.62-1.33-8.38-4.39-12.79-6.82l-8-4.4.4,2.59a21.51,21.51,0,0,1,.22,4.56c-.16,1.74,0,2,1.19,2.34s1.45.78,1.77,2.39c.26,1.33.44,1.62.51.85.17-1.7,1.95-1.31,2.63.58.41,1.11.7,1.38,1,.95s1.07,0,1.94.73,1.76,1.1,2.28.63c.7-.62.88-.46,1.66,1.5.67,1.72.88,1.94.94,1,.13-1.79,2.15-.17,2.47,2l.28,1.86.58-1.39c.79-1.89,2.45-.36,2.5,2.3,0,1.8-.18,1.94-1.79,1.23s-1.65-.69.36.59a12.14,12.14,0,0,0,4.12,1.63Zm-21.38-22.23c-.78-1.66-.15-2.63,1.18-1.81,1,.63,1.34,1.15,1.14,2C226.15,162.27,224.71,162.16,224.11,160.88Zm4.37,2.66c-.79-1.66-.18-2.75,1-1.79a3,3,0,0,1,1.14,2.05c-.08,1.15-1.56,1-2.14-.26Zm4.35,2.62c-.84-1.78-.1-2.57,1.49-1.6,1.33.8,1.61,1.23,1.29,2a6.54,6.54,0,0,0-.43,1.25c0,.49-2-.86-2.35-1.62Zm4.63,1.49c.1-1.4.41-1.69,1.26-1.18s1.06,1.06.85,2.21C239.14,170.93,237.3,170,237.46,167.65Zm4,1.85c.41-2.17,1.71-1.64,1.56.63-.08,1.22-.42,1.69-1,1.35s-.77-1-.58-2Zm2.41,1.82c-.59-1.26-.19-2.61.63-2.11a1.83,1.83,0,0,1,.75,1.54C245.13,172,244.3,172.31,243.83,171.32Zm14.24,6.92a.59.59,0,0,0-.2-.87c-.31-.2-.6,0-.62.37a1.16,1.16,0,0,0,.19.87c.13.08.41-.09.63-.37Zm-35.56-24.83c0-.3-.77-.95-1.75-1.44-1.67-.84-1.78-1.05-1.63-3.18.08-1.26,0-2.25-.28-2.2-.54.1-.83,3.84-.38,4.8s4,2.71,4,2Zm10.07,5.68c.59-.78-2.31-7.11-3.3-7.2-1.58-.15-2.37,1.85-1.48,3.74S232,159.84,232.58,159.09Zm30.16,14.67a8.54,8.54,0,0,0,1.1-3c-.1-.23-.92,1-1.81,2.68s-1.39,3-1.1,3A7.75,7.75,0,0,0,262.74,173.76Zm-9.13-3.66c8.18-1.23,12.22-7.09,9.59-13.9-1.21-3.15-2.38-4.13-1.33-1.13.92,2.66.7,6.49-.49,8.44-.91,1.48-4.93,4.18-8.58,5.74-2.36,1-2.1,1.29.81.85Zm-11.51-8.66c1.35.07,2.13-.52,2.69-2,2.47-6.62-4.13-14.25-10.44-12.07l-2.48.85,1.89,4.15C236.77,158.93,238.92,161.27,242.1,161.44ZM227.24,150c2.23-1.06,2.37-2.53.58-6.21s-4.38-6-6.2-5.57c-1.23.3-1.36.69-1.18,3.55.41,6.28,3.37,9.85,6.8,8.23Zm40.37,23.71a5.36,5.36,0,0,0-1.91-1.16c-.54-.13-.12.28.93.91s1.49.76,1,.25Zm-39.93-33.53c-1.28-2.94-4.12-5.84-5.58-5.7-1.66.16-1.53.34,1.52,2.13a8.16,8.16,0,0,1,3.58,3.44C228.39,142.57,228.76,142.68,227.68,140.18Zm13.09,5.71c3.35,1.67,3.71,1.73,2.23.38-2.62-2.4-6.9-3.51-8.57-2.23l-1.42,1.1,1.89-.62C236.3,144.06,237.81,144.41,240.77,145.89ZM219.4,132.78c-.23-1.13-.45-1.69-.5-1.23-.13,1.1.37,3.63.66,3.43A5,5,0,0,0,219.4,132.78ZM267.93,160c-.14-.69-.28-.59-.36.23s0,1.26.22,1.13.26-.74.14-1.36Zm-48.74-31.34a3.11,3.11,0,0,0-.24-2.33c-.4-.47-.58,0-.52,1.53.11,2.74.27,2.91.76.8Zm5.48,3.17a2.45,2.45,0,0,0-1.36-.83c-.39,0-.1.33.65.78S225,132.22,224.67,131.79Zm13.38,8.12a5.1,5.1,0,0,0-1.91-1.17c-.54-.13-.12.28.93.92S238.56,140.41,238.05,139.91Zm14.78,8.2a23.23,23.23,0,0,0-3.82-2.32c-1-.43-.06.26,2,1.54s2.91,1.62,1.78.78Zm15.93,7.78c-.12-.59-.27-.26-.34.74s0,1.48.21,1.07A3.56,3.56,0,0,0,268.76,155.89Zm-10.4-5.14a7,7,0,0,0-2.18-1.35c-.7-.24-.28.17.92.91s1.77.94,1.26.44Zm3.59,1.44a2.44,2.44,0,0,0-1.37-.83c-.39,0-.09.33.66.78S262.31,152.62,262,152.19Zm-23.5-18.08a7.21,7.21,0,0,0-2.19-1.34c-.69-.24-.27.17.93.91s1.77.93,1.26.43Zm3.8,2.38a1.4,1.4,0,0,0-1.05-.7c-.45,0-.33.22.3.64s.91.41.75.06ZM230.3,128.4a5.36,5.36,0,0,0-1.91-1.16c-.54-.14-.12.28.93.91s1.49.76,1,.25Zm23.76,14.48a3.67,3.67,0,0,0-1.64-1c-.54-.13-.25.21.65.77s1.35.68,1,.26ZM226,125.08a1.39,1.39,0,0,0-1-.7c-.45,0-.33.22.3.64s.91.41.74.06Zm17.33,9a3.8,3.8,0,0,0-1.64-1c-.54-.14-.25.21.65.77s1.34.68,1,.25Zm26.12,12.43c-.07-1-.22-.48-.33,1.11s-.06,2.39.13,1.78a10.11,10.11,0,0,0,.2-2.89ZM219.15,118.8a2.86,2.86,0,0,0-.49-1.1c-.29-.43-.54-.44-.57,0a1.27,1.27,0,0,0,.49,1.1C218.88,119,219.14,119,219.15,118.8ZM252.62,139a3.8,3.8,0,0,0-1.64-1c-.54-.14-.25.21.65.77s1.34.68,1,.25Zm-34.31-26.85a1.43,1.43,0,0,0-1.05-.7c-.45,0-.33.22.31.64s.9.41.74.06Zm-3.93-9.62c-.13-.68-.28-.59-.36.24s0,1.26.22,1.13.26-.75.14-1.37Zm5.31,1a8.51,8.51,0,0,0-2.37-2.81c-.83-.46-.66-.12.58,1.14a8.12,8.12,0,0,1,2,3.06c.14.7.41,1.17.62,1S220.34,104.75,219.69,103.55Zm-2.77-13.11c0-1.37-.2-.37-.38,2.22s-.14,3.71.06,2.49A30,30,0,0,0,216.92,90.44Zm55.72,40.1a2.91,2.91,0,0,0-1.21-1.44c-.76-.42-.74-.28.12.77C273,131.59,273,131.61,272.64,130.54ZM234.26,99.17a3.64,3.64,0,0,0-1.63-1c-.55-.14-.25.21.65.77s1.34.68,1,.26Zm-1.12-11.7c.09-2.23.06-2.28-.43-.82a5.37,5.37,0,0,0-.34,2.24c.38,1.42.67.89.77-1.42Zm-14.5-9.38c.21-.7.15-1.22-.14-1.17s-.55.58-.59,1.15c-.1,1.5.28,1.51.73,0Zm18.68,10.23a3.62,3.62,0,0,0-.46-1.41c-.11-.07-.24.36-.28,1a1.7,1.7,0,0,0,.45,1.41C237.32,89.45,237.45,89,237.32,88.32Zm-3.54-12.15c-.1-.78-.25-.28-.34,1.12s0,2,.16,1.42a7.46,7.46,0,0,0,.18-2.54Z"/><path id="path876" class="cls-10" d="M246.79,209.13a18.68,18.68,0,0,1-2.13-4.26c-.63-2.33-.57-2.92.17-1.8.33.49.48.51.33,0-.26-.82-1.62-1.53-10.78-5.66-2.4-1.08-3.41-1.76-3.13-2.12s0-.75-.54-1a1.57,1.57,0,0,1-.9-1.32,4.31,4.31,0,0,0-.42-1.76c-.26-.52-.31-.42-.12.24.55,1.92-.57.71-1.71-1.84a10.54,10.54,0,0,1-1-3.93,3.82,3.82,0,0,0-1-2.66,3.78,3.78,0,0,1-.94-2.89,2.41,2.41,0,0,0-.75-2.29c-4.14-2.52-6-11.78-3-14.46,1.34-1.17,1.44-1.58,1-4a8,8,0,0,0-.92-2.93c-.24-.14-.39-.77-.35-1.39s-.18-1.08-.5-1c-.74.15-3.09-4.83-3-6.33a3.54,3.54,0,0,1,1.57-2.14,2,2,0,0,0,1-2.68,12.36,12.36,0,0,1-.35-3.41,6.64,6.64,0,0,0-.35-2.72c-.46-1-2-11.45-2.25-15.44a11,11,0,0,1,.6-4c.87-2.23.6-4.16-.68-4.94s-3-4.86-3.21-8.18c-.16-2.46.07-3.21,1.4-4.56s1.62-2.22,1.85-7l.26-5.36-.74,5.2c-.53,3.68-.52,3,0-2.23.43-4.09.85-8.76.92-10.37.21-4.71.7-5.91,1.93-4.71a3.14,3.14,0,0,1,1,1.69c0,.35.56,1,1.3,1.45a4.73,4.73,0,0,1,1.78,2.41c.4,1.41.53,1.4,1.16-.06,1.19-2.78,4.56.83,3.51,3.76-.26.74,0,2.78.57,5.09l1,3.87L230.82,90c1.64-4.55,2.48-15,1.16-14.35-1.52.69-3.5-2.58-3.31-5.46s1.39-3.55,3.56-1.56l1.7,1.56-.13-3.36c-.24-6.43,3.58-6.8,5.63-.55.59,1.78.63,2.58.16,2.89-1,.69-.94,3,.16,3.64a1.7,1.7,0,0,0,1.62.17c.94-.62,3.31,5,3,6.94-.41,2.27-2.23,2.64-4.3.87l-1.74-1.49L238,83a41.47,41.47,0,0,0,.52,8.13c1.35,7.68,1.38,7.93.61,5.44-.39-1.27-.74-2.11-.76-1.85-.09.8,2.52,12,2.84,12.17.17.1,0-1.1-.43-2.67-.62-2.38-.61-3,.05-3.93s.71-1-.17-.62c-.57.26-.95.13-.92-.33a1.31,1.31,0,0,1,1.86-.88.87.87,0,0,0,.86-.17c.3-.23.18-.33-.29-.26s-.69-.15-.47-.73.59-.69.93-.49a1.33,1.33,0,0,0,1.39-.25c.67-.53.64-.56-.24-.24s-1,.21-.94-.8c0-.64.33-1.06.63-.93l1.06.46a1.17,1.17,0,0,0,1-.17c.29-.23.19-.34-.22-.28a.54.54,0,0,1-.68-.56c.07-1,2.53-3.19,2.94-2.58.2.3,1,.25,1.81-.11l1.45-.66-1.62.28-1.62.29.38-3c.34-2.7.54-3,1.88-2.35s1.54,1.07,1.73,2.74a7.33,7.33,0,0,1-.27,3.1c-.65,1.37-1,4.09-.45,4,.71-.14,2.21,9.59,1.76,11.48-.56,2.34.15,3.32,1.57,2.15.62-.51.81-.88.41-.81-1.07.17-.78-1.18.36-1.68.86-.37.92-.32.46.37-.32.48-.32.69,0,.51s.63-1.83.76-3.69c.21-3.15.33-3.33,1.75-2.69a2.88,2.88,0,0,1,1.86,2.58c.23,1.27.5,1.69.81,1.28a.5.5,0,0,1,.88,0c.23.35.42,0,.43-.67s.28-1.07.61-.78.58-.41.55-1.89a12.94,12.94,0,0,1,.35-3.53c.48-1.35,2.68-.17,3.51,1.88.68,1.67.26,4-.58,3.3-.61-.54-.65.14-.34,5.83.2,3.47.29,3.7,1.22,3.19.56-.31,1.13-.31,1.27,0s.65.18,1.11-.27c.77-.75.76-.78-.17-.41-1.48.6-1.17-.86.35-1.65.81-.41,1.08-.36.74.15s-.2.64.65.2c1.17-.6,2.79-.15,2.22.62s-.45,16.4,0,20.55c.35,3.16.26,4-.59,5.34-1.73,2.72-2.49,4.43-2.51,5.59-.16,11.82-2.42,25-3.89,22.81-.36-.54-.44-.44-.22.26.52,1.69-1.18,5-1.75,3.4-.34-1-.41-1-.29,0,.1.81,1.14,2,3.08,3.45a33.61,33.61,0,0,1,8.42,10.28c.66,1.26,2,3.53,3,5.05,2.59,4.09,3.74,7.59,3.15,9.62-.31,1.08-.71,1.35-1.12.77s-.1.3.55,1.78,1.4,2.66,1.68,2.61c.87-.18,2.33,8.11,2.09,11.9-.23,3.64-1.69,7.64-3.11,8.54-1.22.77-4.31.34-5-.7-.4-.6-.5-.55-.29.13s-.18.76-1.2.13c-1.19-.73-1.34-1-.67-1.15.52-.12.61-.36.22-.61a.8.8,0,0,0-1.06.15c-.23.3-.76.16-1.18-.33s-.65-.5-.43.19.06.76-.44.18a2.77,2.77,0,0,0-2.18-.72c-.77.09-1.2.3-1,.47a3.21,3.21,0,0,0,1.55.19c.61-.06,1.09.17,1.07.5-.15,2.3-12.35-2.36-13.7-5.24-.41-.88-1-1.25-2.38-1.44-2.81-.4-6.62-3-8.48-5.78Zm6,3.81a11.49,11.49,0,0,0-2.73-1.67c-.84-.34-.3.14,1.2,1.06s2.19,1.19,1.53.61Zm11.71,7.2a1.36,1.36,0,0,0-1-.69c-.45,0-.33.21.3.63s.91.41.74.06ZM248.28,209.7a3.53,3.53,0,0,0-.8-1.23c-.47-.55-.7-.56-.53,0C247.22,209.32,248.24,210.28,248.28,209.7Zm7.67,4.21c.48-.12.62-.36.32-.54a2.23,2.23,0,0,0-1.41-.13c-.48.11-.62.36-.32.54A2.24,2.24,0,0,0,256,213.91Zm-20.08-16.44a1.36,1.36,0,0,0-1-.69c-.45,0-.33.21.3.64s.91.4.74.05Zm3.13-.86c-.49-1-.56-1-.34.22.16.84.44,1.43.62,1.3S239.34,197.33,239,196.61Zm2.43,2.73a1.36,1.36,0,0,0-1-.69c-.45,0-.33.22.3.64s.91.4.74.05ZM284,217.22c-.14-.68-.28-.59-.36.24s0,1.26.22,1.13.26-.75.14-1.37Zm-39.75-27.45c4.87,2,8.8.94,8.89-2.42,0-1.71,0-1.76-.29-.45-.46,2-3.36,3.24-6,2.6-3.28-.81-19-10.3-22.34-13.51-3-2.9-3.76-4.76-3.48-8.92.2-3,1.8-3.53,1.85-.66.06,3.24,2.7,5.77,12.19,11.63,11.11,6.86,14.12,7,15.16.5.42-2.65.32-3.32-.83-5.35a6.41,6.41,0,0,1-1.06-2.49c.13-.09-4-2.3-9.21-4.91a139.9,139.9,0,0,1-13.66-7.74l-4.2-3,.93,3c1.23,4,1.09,5.16-.76,6.09-1.34.68-1.53,1.21-1.44,4,.19,6,2.85,9,13.48,15.48,6.88,4.19,7.26,4.5,6.48,5.27s-.76.78.34.27c.64-.3,2.41,0,3.93.59Zm-9.28-12.6c-1.28-1-1.47-1.48-1.21-3,.42-2.6,2.12-1.83,2.46,1.11l.25,2.29.46-1.61c.56-2,1.9-1.31,2.45,1.24l.42,1.88.67-1.16c1-1.74,2-1.21,2.27,1.17a5.92,5.92,0,0,1,0,2.22c-.4.2-6.25-2.89-7.79-4.11Zm-10-7.13c-1.23-1.25-1.68-2.13-1.5-2.91.39-1.66,2-.79,2.36,1.24l.26,1.72,1.07-1c1.14-1.07,2.31,0,2.2,2.05-.06,1.14,0,1.16.57.31,1.19-1.72,3.32.77,3.12,3.66C232.93,176,227.2,172.38,224.9,170Zm-.56-10c.07-1.09.38-1.31,1-.73a2.68,2.68,0,0,1,.87,1.89.76.76,0,0,1-1.05.73C224.52,161.65,224.26,161.08,224.34,160Zm4.12,3.51c-.69-1.45-.16-2.61.89-2a2.09,2.09,0,0,1,1,2.11C230.25,165,229.14,165,228.46,163.5Zm4.69,2.46c-.94-2-.65-2.51.88-1.58,1,.62,1.34,1.16,1.15,2-.34,1.43-1.26,1.26-2-.37Zm4.6,3.21c-.76-1.63-.14-3.37,1-2.7a1.72,1.72,0,0,1,.85,2.16c-.29,1.52-1.22,1.8-1.82.54Zm3.56.45c.06-.89.45-1.29,1-1a1.5,1.5,0,0,1,.6,1.63C242.48,171.91,241.19,171.39,241.31,169.62Zm2.47,1.45c-.35-1.11.25-2.12,1-1.67s.54,2.37-.16,2.51c-.3.06-.67-.32-.83-.84Zm41,42.86c-.14-.68-.28-.59-.36.24s0,1.26.22,1.13.26-.75.14-1.37Zm-.61-5.29c-.51-1.58-.52-1.59-.31-.15a21.58,21.58,0,0,1,.21,2.76c0,1.13,0,1.14.31.16A5.69,5.69,0,0,0,284.15,208.64Zm-.8-3.92c-.49-1-.56-1-.33.22.16.84.44,1.43.62,1.31S283.69,205.44,283.35,204.72Zm-29.48-21.64c-.14-.68-.28-.59-.36.24s0,1.26.22,1.13.26-.75.14-1.37Zm6.72-6.2c1.82-1.83,3.28-4.4,3.33-5.86,0-.49-.81.52-1.84,2.25-1.68,2.81-2.76,3.8-3.63,3.3-.63-.36-3.48,1.19-3.53,1.91-.09,1.33,3.87.21,5.67-1.6Zm20.12,16a13.12,13.12,0,0,0-1.66-3.46c-1-1.35-.93-1,.31,1.94,1.59,3.84,2.14,4.46,1.35,1.52Zm-57.62-39.78c0-.27-.83-.83-1.89-1.24-2.21-.86-3-3-1.77-4.71.47-.62.53-1.09.17-1.31-1-.6-1.93,2.53-1.39,4.56a3.18,3.18,0,0,0,2.11,2.49c.93.38,1.59,1,1.57,1.45,0,.82,1.13-.39,1.2-1.24ZM259,168.49a9,9,0,0,0,5.07-7.83c.15-2.52-.93-6-2.33-7.52-.46-.49.15-.64,1.45-.34a8.33,8.33,0,0,0,3.11.21c.7-.24.65-.32-.26-.43-2.69-.3-8.29-2.45-14.41-5.54L245,143.71l4.91,3a71.19,71.19,0,0,0,7.88,4.26c2.9,1.21,3,1.29,3.84,4.09,1.12,3.64,1,5.65-.59,8.31-1.3,2.2-5.93,5.12-9.67,6.08a5.25,5.25,0,0,0-2.19.87c-.06.87,7.34-.55,9.78-1.87ZM232.63,159c.2-.28-.29-2-1.1-3.88-1.19-2.74-1.65-3.34-2.46-3.18-3,.59-2.37,4.17,1.1,6.28,1.15.7,2.25,1.05,2.46.78Zm42.92,25.26c-.52-1.9-3.36-6.54-4.34-7.09-.3-.16.36.94,1.46,2.46a12.76,12.76,0,0,1,2.19,4.32,3.17,3.17,0,0,0,.69,1.86c.27.17.27-.53,0-1.55Zm-33.21-22.73c4.93-.37,3.59-10.32-1.84-13.62-2.44-1.49-3.69-1.58-6.7-.5l-1.94.7,1.65,3.65c3.29,7.27,5.75,10,8.83,9.77Zm-14.46-11.88c1.81-1.26,1.88-1.45,1.17-3.47-1.61-4.62-6.33-9.84-7.49-8.28-.77,1-1.26-.08-1.9-4.26-.92-6-.81-6.54,1-5,.81.71,1.12.85.68.32s-1.41-1.79-2.17-2.81c-1.58-2.11-1.58-2.43.13,7.71.47,2.77.9,6,1,7.18.31,7.37,3.81,11.29,7.67,8.6Zm39.39,23.74c-1-.76-2-1.23-2.33-1s.54.8,1.83,1.37C269,174.78,269.05,174.77,267.27,173.43Zm-33.14-28.56c2.37-1,5.9.07,9.07,2.72,1.29,1.08,1.78,1.27,1.44.56-1.57-3.34-7.88-6-10.26-4.37a6.85,6.85,0,0,1-2.49,1.08c-.63.07-.87.31-.54.52S232.93,145.36,234.13,144.87Zm-6.26-4.3c-1.53-3.44-3.33-5.53-5.32-6.15-2.43-.75-1.94.58.77,2.08a9.15,9.15,0,0,1,3.86,3.88c1.92,3.38,2.14,3.44.69.19Zm39.27,22.68c-.14-.69-.28-.59-.36.24s0,1.25.22,1.12.26-.74.14-1.36ZM269,151c.33-5.47.27-7.69-.22-8.13s-.45-.29-.15.1c1.23,1.63.21,2.55-2.86,2.54-1.8,0-2.95.19-2.56.44a7,7,0,0,0,2.94.29,8.58,8.58,0,0,1,2.6.08c.31.18-.12,3.59-.74,6-.1.35-.26,2.8-.37,5.43-.32,7.8.83,2.15,1.36-6.71Zm-32-11.13c2.63,1.19,1.11.12-5.7-4C226,132.55,223,131,224.23,132a63.21,63.21,0,0,0,12.83,7.83Zm7,3.71a5.22,5.22,0,0,0-1.91-1.16c-.54-.14-.12.27.93.91s1.49.75,1,.25Zm-.43-6.33c-2.17-1.47-5.73-3.63-7.92-4.82s-.41,0,3.94,2.66S245.8,138.69,243.63,137.23Zm-16.16-11.12c-2.37-2-5.15-4.34-6.18-5.28s-1.74-1.41-1.57-1c.47,1,7.42,7.06,9.87,8.55,1.4.85.64,0-2.12-2.24Zm26.31,16.55a13.67,13.67,0,0,0-3-1.82c-.84-.34-.17.21,1.48,1.21S254.59,143.33,253.78,142.66Zm3.6,1.48a2.5,2.5,0,0,0-1.37-.84c-.39,0-.09.33.66.79S257.74,144.56,257.38,144.14Zm4,1.43c1.44.06,0-.82-1.91-1.16-1.13-.2-1.19-.11-.32.44A5.46,5.46,0,0,0,261.4,145.57Zm-42.55-27.78c-.13-.69,0-1.08.38-.87s.41-.44,0-2.14c-.6-2.3-.56-2.54.46-2.75a1.65,1.65,0,0,0,1.16-1.51c0-1-.09-1-.55,0-1,2.15-3.41,1-4.77-2.24-.62-1.51-1.16-2.39-1.19-2-.08,1.26,1.87,4.94,3,5.62,1.3.79,1.65,2.62,1,5.27-.35,1.44-.3,2,.14,1.94s.54-.69.41-1.38Zm16,11.17A11.73,11.73,0,0,0,232,126.8a7.67,7.67,0,0,0-2.9-1.32c-.19.12,1.09,1.1,2.84,2.16S235,129.3,234.81,129Zm3.1,1.75a15.05,15.05,0,0,1-1.14-2.75c-.48-1.56-.54-1.61-.35-.34a15.41,15.41,0,0,1,.18,2.18,1.7,1.7,0,0,0,.91,1.24c.58.34.74.22.4-.33Zm6.73,4.13a26.19,26.19,0,0,0-4.09-2.49c-1.14-.53-.23.16,2,1.52S245.76,135.68,244.64,134.84Zm-18-11.6a1.37,1.37,0,0,0-1-.7c-.45,0-.33.22.3.64s.91.41.74.06Zm26,15.71a11.49,11.49,0,0,0-2.73-1.67c-.84-.34-.3.13,1.2,1.05s2.19,1.2,1.53.62Zm-28.1-17.76a1.38,1.38,0,0,0-1-.7c-.45,0-.34.22.3.64s.9.41.74.06Zm34,20.35c.95.14.51-.19-1.35-1a13.23,13.23,0,0,0-3-1.11c-.47.25,2.95,1.92,4.35,2.14Zm3.21.77a1.39,1.39,0,0,0-1-.69c-.45,0-.34.22.3.64s.9.4.74.05Zm4.09.68c.47-.11.62-.35.32-.54a2.2,2.2,0,0,0-1.42-.12c-.47.11-.62.35-.32.53A2.2,2.2,0,0,0,265.84,143Zm-19.49-13.4,1.39-.71-1.59.31a3.9,3.9,0,0,1-3.32-1.23c-1.24-1.08-1.52-1.17-1-.31C243.1,129.59,244.86,130.35,246.35,129.59ZM231,117.1c-.12-.59-.27-.26-.34.74s0,1.48.22,1.07a3.56,3.56,0,0,0,.12-1.81Zm28.36,18.33c.41-.09-.19-.69-1.41-1.41s-2-.94-1.91-.56a4.13,4.13,0,0,0,3.32,2Zm-23.9-17.12c-.11-.59-.27-.26-.33.74s0,1.48.21,1.07A3.46,3.46,0,0,0,235.47,118.31ZM248,126.72c-.13-.68-.27-.59-.36.24s0,1.25.23,1.12.26-.74.13-1.36Zm13.46,5.43c.32-4.83-3.59-9.58-6.09-7.41-1.15,1-1.15,1,.07.42,2.94-1.39,6.12,3,5.31,7.24-.2,1-.15,1.87.11,1.82s.53-1,.6-2.07Zm-44.92-31.07c1.31.46,3.48,3.9,3.95,6.27.31,1.53.4,1.65.5.6.18-1.84-2.09-6.32-3.68-7.29s-3.24.54-3.34,2.85c-.05,1,.22.73.75-.64C215.17,101.68,216,100.89,216.53,101.08Zm30.81,22.17c-.49-1-.56-1-.33.22.15.84.43,1.43.62,1.3S247.68,124,247.34,123.25Zm24.26,14.2c.66-.64.82-1,.35-.73-2.32,1.2-3.88-2.8-2.43-6.22.49-1.15.54-1.63.14-1.38-1.41.91-1.62,4.31-.44,7.06a25.33,25.33,0,0,0,1.17,2.55,10.26,10.26,0,0,1,1.21-1.28ZM244.26,120c.89.47,1,.41.29-.25-1.06-1-3.23-1-3.3.1,0,.41.37.47.88.13A2.32,2.32,0,0,1,244.26,120Zm28.62,11.49a4.39,4.39,0,0,0-1.44-2.36c-.76-.41-.79-.34-.15.4a6.54,6.54,0,0,1,1.45,4.86c0,1.7,0,1.73.3.41A8.4,8.4,0,0,0,272.88,131.47Zm-26.81-14.64c.76-.73.74-.77-.19-.4-.56.23-1,.54-1,.69C244.8,117.72,245.27,117.6,246.07,116.83Zm3.24-2.74c.59-.47,1-.93.81-1s-.76.22-1.36.69-1,.92-.81,1,.76-.22,1.36-.68ZM237.64,91.78c.19,1.08.48,1.88.64,1.77a4.73,4.73,0,0,0-.3-2.31,33.14,33.14,0,0,1-.69-6.33l-.1-4.21-.41,5c-.23,2.77-.46,5.54-.52,6.16s-.63.81-1.71.15C233,91.1,233,91,233.14,87.35c.16-3.11.11-3.4-.34-1.77a56.36,56.36,0,0,0-.61,8.67c-.05,3.71,0,6.19.09,5.52s.67-.94,1.68-.41l1.5.81L234,99c-1.32-1.09-1.46-1.51-1.29-4.06s.29-2.8,1.83-1.86l1.64,1-.22,5c-.19,4.29-.12,4,.57-2.1.56-5,.89-6.49,1.13-5.1Zm14.09,20c.6-.46,1-.92.82-1s-.76.21-1.36.68-1,.92-.81,1,.76-.21,1.35-.68Zm12.79,4.59c2-1.38,3-2.25,2.29-1.93-1.24.56-1.28.53-1.4-1.26-.11-1.54-.17-1.5-.35.26a5.13,5.13,0,0,1-2.43,3.62c-1.21.83-2.09,1.59-1.94,1.68A19.43,19.43,0,0,0,264.52,116.38ZM230.19,94.31c-.15-.3-.29-.15-.32.34s-.27.57-.53.18-.38.08-.26,1.06l.2,1.76.58-1.39a3.41,3.41,0,0,0,.33-2Zm-12.31-10c-.14-.68-.28-.59-.36.24s0,1.25.22,1.12.26-.74.14-1.36Zm13.11,8c-.14-.69-.28-.59-.36.24s0,1.25.22,1.12.26-.74.14-1.36Zm41.54,24.45c-.12-.59-.27-.25-.34.74s0,1.48.22,1.08a3.61,3.61,0,0,0,.12-1.82Zm-14.48-10.12a1.26,1.26,0,0,0-.53-1.07c-.31-.2-.44.06-.29.58a2.75,2.75,0,0,0,.53,1.07c.14.08.27-.18.29-.58Zm-39-29a2.24,2.24,0,0,1,.69,1.2c.13.5.19.45.15-.1-.11-1.42-1.58-2.17-1.75-.89-.07.6,0,.72.16.28s.5-.64.75-.49Zm28,15.71c.76-.73.74-.77-.19-.39-.56.22-1,.53-1,.68,0,.6.44.49,1.23-.29Zm17.35,6.18c.23-.53.16-.88-.17-.81a.87.87,0,0,0-.61.79c-.07,1,.33,1,.78,0ZM233.76,76.55c-.07-1-.22-.48-.33,1.11s-.06,2.39.12,1.78a9.76,9.76,0,0,0,.21-2.89Zm3.63-1.34c0-.65-.26-.52-.65.32-.66,1.39-.71,1.38-1-.26-.42-2-.67-.74-.27,1.39.26,1.37.33,1.41,1.1.58a3.65,3.65,0,0,0,.86-2ZM236.64,73c.18.38.35.33.38-.11.11-1.61-1-2.25-1.7-1s-.66,1.2.11.85a.9.9,0,0,1,1.21.3Zm3,.86a1.37,1.37,0,0,0-1-.7c-.45,0-.34.22.3.64s.91.41.74.06Zm-4.76-5.6c-.14-.69-.28-.59-.36.23s0,1.26.22,1.13S235,68.84,234.88,68.22Zm47,132.42c-.38-.95-.39-1.39,0-1.17.66.4,1.34,2.25.92,2.52-.15.1-.55-.51-.89-1.35Zm-29.06-92c0-.4.31-.57.62-.38a.61.61,0,0,1,.2.88c-.22.28-.5.45-.63.37a1.16,1.16,0,0,1-.19-.87Zm18-1.59c-.16-2.36,0-3,.88-3.3a1.41,1.41,0,0,1,2,1.66c-.11.43.06.73.39.66.7-.14,1.46,3.45,1,4.57-.19.45-.75.32-1.35-.32a2,2,0,0,0-1.84-.71C271.11,110,270.93,109.48,270.76,107.08Zm1.22-1.5c.23-.53.16-.87-.17-.81a.91.91,0,0,0-.62.8C271.12,106.61,271.53,106.62,272,105.58Z"/><path id="path874" class="cls-11" d="M246.79,209.13c-1.61-2.41-3-6.14-2.4-6.52.16-.11.41.59.56,1.55.27,1.83,2.55,5.86,3.11,5.49.18-.11-.18-.74-.79-1.38a10.94,10.94,0,0,1-1.8-3.83c-.38-1.46-.93-2.61-1.22-2.55a33.74,33.74,0,0,1-5.88-3c-3.36-2-4.76-2.58-3.75-1.64,1.4,1.31,1.28,1.31-1,0-3.17-1.81-6.94-7.81-7-11.14A5.1,5.1,0,0,0,225.6,183a3.77,3.77,0,0,1-.92-2.76,3.23,3.23,0,0,0-1.36-3c-1.58-1.41-3.76-5.36-3.67-6.66,0-.43.48.33,1,1.71,1.33,3.42,4.93,6.69,12.87,11.65,4.12,2.58,6.45,4.32,6.28,4.69-1.06,2.27-1.06,2.79,0,1.43s1.7-1.39,4.2-.31c3.38,1.46,7.55,1.57,8.37.23a20.91,20.91,0,0,0,1.13-4.7l.58-3.8-.91,3.34c-1.91,7-4.84,6.64-19.17-2.51-10.5-6.69-12.51-8.53-12.9-11.73-.34-2.84,0-5.41.74-5.91.52-.34.54-.57.09-.85-.84-.51-1.45.43-2.11,3.22l-.55,2.33.09-2.34a5.06,5.06,0,0,1,1.58-3.64c1.34-1.17,1.44-1.58,1-4a8,8,0,0,0-.92-2.93c-.24-.14-.39-.77-.35-1.39s-.18-1.08-.5-1c-.74.14-3.09-4.84-3-6.34a3.59,3.59,0,0,1,1.6-2.16l1.51-1,1.23,2.78c1.55,3.49,3.39,4.18,6.25,2.34,2.32-1.5,2.14-3.4-.72-7.69-3.51-5.27-7.22-5.61-7-.65.1,2,0,2.5-.3,1.54a10.75,10.75,0,0,1-.34-3.26,7.15,7.15,0,0,0-.35-2.85c-.46-1-2-11.45-2.25-15.44a11,11,0,0,1,.6-4c.87-2.23.6-4.16-.68-4.94-1.12-.68-3.12-4.94-3-6.41,0-.57.33,0,.63,1.2a10.35,10.35,0,0,0,2.28,4c2,2.09,2.36,3.6,1.4,6.55-.9,2.76-1,5-.11,2.83l.65-1.6,2.78,2.7c12.24,11.92,36,24.91,44.92,24.63a13.26,13.26,0,0,1,2.57.06c.49.29-1,5.83-1.62,6-4.8,1.29-42.06-18.49-47.32-25.12l-2.14-2.7.6,5c.56,4.61,1.6,9.46,1.73,8,0-.33-.21-2.62-.54-5.1-.68-5.09-.57-5.43,1.2-3.4,3.4,3.91,12.85,9.57,35.55,21.3l4.77,2.47.71,2.71c1.49,5.71-.46,9.39-6.53,12.31-6.65,3.2-5.54,3.51-25.33-7.11a52.41,52.41,0,0,1-5.57-3.55c-2.25-1.71-2.47-2-1.93-2.92.92-1.47.83-1.65-1.27-2.46s-2.89-2.64-1.72-4.52c.49-.78.53-1.25.14-1.49-1.1-.67-2,2.19-1.45,4.38a3.24,3.24,0,0,0,2.17,2.67c1.16.48,1.54.89,1.31,1.43a12.09,12.09,0,0,0,.47,4.12,27.09,27.09,0,0,1,.68,6.15,16.29,16.29,0,0,0,.14,3.65c1,3.32,19.4,15.58,22.84,15.24,4.06-.4,5.9-5.3,3.78-10-1.34-3-1.57-2.78,3-3,3.91-.21,8.95-2.7,10.41-5.14s1.5-7,.08-10l-1.21-2.59,1.5.43a5.18,5.18,0,0,0,2.09.25c2.43-.75,2.69-.1,2.1,5.22-.47,4.11-1.13,6.21-3.37,10.63-3,6-6,9.65-5.32,6.53.21-.91.18-1.26,0-.78-.68,1.41-2.81,2.81-3.58,2.34-.39-.23-.6.12-.47.81.65,3.48,8.88-2.12,9.16-6.23.21-3.15,8.3,4.38,11.76,11,.7,1.31,2,3.63,3,5.15,2.59,4.09,3.74,7.59,3.15,9.62-.3,1.05-.71,1.34-1.08.78s.08.84.9,3c2,5.06,3,11.36,2.33,14.89-.36,2.1-.33,2.4.12,1.24s.58-1.13.56-.2c0,1.66-1.72,5.28-2.74,5.89a7.23,7.23,0,0,1-4.28.19c-.2-.12.15-.43.78-.7,1.1-.46,1.09-.48-.11-.44a8.52,8.52,0,0,1-3.43-1.29c-1.2-.73-2.36-1.1-2.57-.82s0,.59.63.7c.95.18.95.21,0,.43a1.44,1.44,0,0,1-1.41-.35,2.14,2.14,0,0,0-1.81-.42c-.79.09-1.23.3-1,.47a3.12,3.12,0,0,0,1.56.19c.6-.06,1.08.17,1.06.5s-1.65.4-3.61.14c-3.88-.53-10.05-4.06-9.94-5.7a4.11,4.11,0,0,0-.4-1.75c-.26-.51-.33-.47-.17.1.85,3-7.9-1.45-10.44-5.25Zm8.32,4.6c.94,0,1.21-.17.59-.28a29.66,29.66,0,0,1-4.16-1.49l-3-1.28,2.45,1.56a9.31,9.31,0,0,0,4.16,1.49Zm5.28,3.88a2.48,2.48,0,0,0-1.36-.83c-.39,0-.1.33.66.79S260.75,218,260.39,217.61Zm3.83,2.34a3.71,3.71,0,0,0-1.63-1c-.55-.14-.25.2.65.77s1.34.67,1,.25Zm3.2.93c1.06-.25.19-.77-1.37-.83-.74,0-.85.14-.31.49a2.48,2.48,0,0,0,1.68.34Zm-35.78-25.82a13.5,13.5,0,0,0-1.4-2.4l-1.42-2.13,1.19,2.28C231.17,195,231.6,195.63,231.64,195.06Zm9,3.43a6.7,6.7,0,0,1-2.07-4.39c-.19-1.46-.41-2.11-.48-1.45-.3,2.74.82,5.63,2.58,6.63l1.69,1Zm-14.1-15.78c-.72-1.44-1.32-2.28-1.35-1.88a4.88,4.88,0,0,0,1,2.17,6,6,0,0,1,1,3.08c0,1.4,0,1.46.31.44.22-.76-.13-2.17-.95-3.81Zm54.28,10.82a22.53,22.53,0,0,0-2.95-5.77,24.09,24.09,0,0,1-2.72-4.56c-1.4-3.89-9.32-12.28-10.32-10.92-.18.25.81,1.15,2.21,2,2.9,1.78,7.55,7.51,7.79,9.61a8.38,8.38,0,0,0,1.95,3.37c2.19,2.46,4.48,7.84,3.91,9.18-.32.74-.25.86.3.5s.51-1.13-.17-3.42ZM232.93,159c.13-1.86-2.87-7.2-3.92-7-3.08.67-2.28,4.2,1.47,6.48,1.61,1,2.41,1.14,2.45.5Zm10.64,2.54c1.51-.82,2.35-4.59,1.63-7.27-1.55-5.72-7.24-8.83-12.35-6.75-1.13.46-1.09.63,1.73,6.44s3,6,5.37,7.08c1.36.62,3,.85,3.62.5Zm-15-19.6c-1.62-4.41-4.36-7.61-6.71-7.83-1.77-.17-.92,1.24,1.72,2.85a9.44,9.44,0,0,1,4.12,4.36c1.78,3.43,2,3.55.87.62Zm5.32,3.15c2.6-.91,5.9,0,8.91,2.33,2.23,1.75,2.35,1.77,1.45.2-2.17-3.77-7.43-5.46-11-3.55-2.61,1.38-2.2,2,.66,1Zm41,76.84a3.67,3.67,0,0,1,1.64,1c.36.42-.09.31-1-.26s-1.19-.91-.65-.77Zm10.05-7.38c.09-.83.23-.92.36-.23s.07,1.23-.13,1.36-.3-.38-.23-1.13Zm-.35-2.91a21.49,21.49,0,0,0-.2-2.77c-.22-1.44-.2-1.43.31.15a5.81,5.81,0,0,1,.21,2.77C284.61,212.72,284.58,212.71,284.59,211.59Zm-58-41.36c.4-2.1,2.14-1.34,2.63,1.16.3,1.53.43,1.7.52.72.25-2.63,3.45,0,3.27,2.67,0,.74-.93.48-3.39-1C226.5,171.87,226.33,171.66,226.59,170.23Zm7,4.05c.14-2.09,1.72-2.33,2.34-.36.82,2.56.33,3.89-1.1,3C233.75,176.28,233.51,175.75,233.61,174.28Zm3.27,2.06c.15-2.18,1.07-2.47,2.06-.66,1.23,2.28.75,4.2-.81,3.25A2.24,2.24,0,0,1,236.88,176.34Zm3.24,2.45c.14-1.95,1.34-2.51,2.16-1,1.18,2.17.65,4-.88,3.13A2.19,2.19,0,0,1,240.12,178.79Zm43.64,27.32a16.64,16.64,0,0,0-1.21-3.88c-.7-1.7-1-2.94-.72-2.75.72.43,2.72,6.86,2.24,7.18C283.87,206.79,283.73,206.54,283.76,206.11ZM223.87,169c-.8-.94-.75-2.7.08-2.86s2.1,2.25,2,3.59C225.89,170.74,225.1,170.47,223.87,169Zm.47-9c.1-1.59.18-1.6,1.35-.24.95,1.1.4,2.82-.69,2.15A2.23,2.23,0,0,1,224.34,160Zm4.12,3.51c-.69-1.45-.16-2.61.89-2a2.09,2.09,0,0,1,1,2.11C230.25,165,229.14,165,228.46,163.5Zm4.92,3c-.7-1.49-.17-2.63.92-2a1.55,1.55,0,0,1,.88,1.79c-.29,1.22-1.26,1.32-1.8.18Zm4.23,1.92c-.15-.83.07-1.51.54-1.61,1.3-.29,1.72.24,1.42,1.81C239.22,170.47,238,170.34,237.61,168.43Zm4,2.29c-.59-1.26-.19-2.61.63-2.11a1.82,1.82,0,0,1,.75,1.54c-.08,1.21-.92,1.55-1.38.57Zm2.29.1c-.24-1.25.17-1.85.94-1.39.61.37.45,2.34-.2,2.47-.29.06-.62-.43-.74-1.08Zm20.75-1a6.11,6.11,0,0,1,.95-2.06c.5-.73.88-1,.86-.61a6.11,6.11,0,0,1-.95,2.06C265,169.92,264.62,170.19,264.64,169.79Zm2.27-4.59c1.28-3.92,1.84-7.36,2.33-14.26.5-7.06.23-10-.79-8.64a.59.59,0,0,0,.18.88c1.54.94.14,2.34-2.25,2.25-10.59-.4-33.89-13.34-45.75-25.41-2-2-2.66-3.87-1-2.89.78.48.78.37.07-1.14-1-2.1-.92-3.06.3-4,2-1.58.82-8.52-1.86-10.7a4.12,4.12,0,0,1-1.35-2c-.26-1.59.77-23.42,1.15-24.29s2.43.79,2.36,1.87c0,.35.56,1,1.3,1.45a4.73,4.73,0,0,1,1.78,2.41c.4,1.41.53,1.4,1.16-.06,1.2-2.81,4.56.84,3.5,3.81-.3.83-.05,2.76.72,5.47,1.17,4.16,1.44,6.08.7,5-.21-.32-.47.34-.58,1.46a15.23,15.23,0,0,1-1.79,4.83c-1.62,2.85-1.38,3.84.27,1.1,2.67-4.47,4.39-11.32,4.84-19.4l.45-8-1.5-1.08c-.87-.62-1.38-.69-1.22-.16a2.11,2.11,0,0,0,1.5,1.16c1,.2,1.07.34.48.77-1.3.93-3.39-2.61-3.2-5.42q.3-4.54,3.56-1.56l1.7,1.56-.13-3.36c-.24-6.43,3.58-6.8,5.63-.55.59,1.78.63,2.58.16,2.89-1,.69-.94,3,.16,3.64a1.7,1.7,0,0,0,1.62.17c.94-.62,3.31,5,3,6.94-.41,2.27-2.23,2.64-4.3.87l-1.74-1.49-.24,3.89a37.44,37.44,0,0,0,.36,7.28c.76,4.36.69,4.75-.24,1.37a38.76,38.76,0,0,1-.8-7.66l-.05-4.93-.48,5.93-.48,5.93-1.64-1-1.64-1,.38-7.12.38-7.13-.78,6.7c-.43,3.68-.88,9.52-1,13l-.23,6.3,1.83.82c1.57.7,1.86,1.09,2,2.67.07,1,.42-1.7.78-6l.66-7.9,1.75,7.48c1.7,7.24,5.38,19.1,6.05,19.51.18.11,2.19-1.47,4.47-3.5,6-5.37,6.1-5.47,5.31-5.34-1.07.17-.78-1.18.36-1.68.86-.37.92-.32.46.37-.32.48-.32.69,0,.51s.63-1.83.76-3.69c.21-3.15.33-3.33,1.75-2.69a2.91,2.91,0,0,1,1.87,2.59c.33,1.84.4,1.84,2,0,.89-1.06,1.5-2.3,1.36-2.75-.59-1.88.65-4,1.89-3.21,2.33,1.42,3.12,4.78,1.45,6.1-.71.56-.79,1.39-.45,5l.4,4.28,2.22-2c1.9-1.74,2.2-2.42,2.07-4.78s.07-2.77,1.12-2.87c2.4-.24,4.46,6.08,2.37,7.3-1,.58-1.09,1.33-1.15,9.45a103.61,103.61,0,0,0,.35,11,15.82,15.82,0,0,1,.25,3.74c-.17,1.69-.68-1.63-1.12-7.33-.24-3.08-.25-3.1-.47-.85-.14,1.45-.51,2.14-1,1.86-2.13-1.3-3.57,3.7-2,7a5.8,5.8,0,0,1,.63,4c-.4,1.72-.38,1.72.35,0,.86-2,2.48-3.6,2.86-2.79.14.29-.16.87-.67,1.29-1.34,1.13-2.42,4.37-1.94,5.88a9.61,9.61,0,0,1,0,3.66c-.24,1.31-.7,5.1-1,8.43-.36,3.82-1,6.79-1.66,8-.6,1.09-.91,1.43-.7.77Zm-9.21-23.76c4.19,1.36,10.09,2.12,9.68,1.25a4.53,4.53,0,0,0-2.34-.51c-4.07-.21-11.74-3.11-19.72-7.44l-8-4.33-.82-4.19a62.69,62.69,0,0,1-.75-10.18l.08-6-.45,5.19a33.64,33.64,0,0,0,.39,9.66c.46,2.47.83,4.56.82,4.65a27.38,27.38,0,0,1-3.58-2.07c-2-1.24-3.76-2.11-4-1.94-.82.6,24,14.39,28.66,15.9Zm-30.2-17.73a3.74,3.74,0,0,0-1.64-1c-.54-.14-.25.21.65.77s1.34.67,1,.25ZM224.26,121a2.45,2.45,0,0,0-1.36-.83c-.39,0-.1.33.65.78S224.62,121.41,224.26,121Zm22.34,8.46c2.43-1.6,1.72-6.31-1.37-9.15s-5.22-.82-4.29,4.18C241.76,128.89,244.2,131,246.6,129.44Zm-4.39-2.59c-1.11-1.87-1-5.74.13-6.78s2.71.21,4.1,3.18c1.48,3.14,1.45,4.58-.12,5.61-1.38.92-2.78.24-4.11-2ZM231,117.49c-.09-.79-.24-.46-.33.72s0,1.84.16,1.44a5,5,0,0,0,.17-2.16ZM260.12,135c2.46-1.62,1.37-8.22-1.66-10.06-1.86-1.13-3.84-1.15-3.91,0,0,.4.53.56,1.24.35,3.58-1.09,7,6.58,4,8.93-1.79,1.41-4.36-1.36-5.1-5.49-.18-1-.26-1-.36,0-.18,1.78,1.63,5.33,3.23,6.3a2.63,2.63,0,0,0,2.55,0ZM223.54,98.76c-.14-.72-.38-1.23-.54-1.13s-.14.64,0,1.18c.46,1.49.79,1.45.51,0Zm41.58,17.29a51.14,51.14,0,0,0,5.33-4.38c.95-1,2.05-1.58,2.45-1.34s.85.26,1,0-.28-.74-1-1.16-1.24-.55-1.2-.28-1.31,1.8-3,3.38l-3,2.89-.17-2.66c-.17-2.63-.17-2.63-.45.33-.24,2.67-.63,3.17-3.67,4.86-1.86,1-2.61,1.66-1.65,1.39a25.37,25.37,0,0,0,5.35-3.08ZM222.55,93.51c-.51-1.59-.53-1.6-.31-.16a19.47,19.47,0,0,1,.21,2.4c0,.63.08.67.31.15a4.39,4.39,0,0,0-.21-2.39Zm1.22-3.79c-.09-.79-.24-.47-.33.72s0,1.84.17,1.44A5.24,5.24,0,0,0,223.77,89.72Zm48.81,26.65c-.05-1.18-.21-.51-.34,1.48s-.1,3,.09,2.14a16.53,16.53,0,0,0,.25-3.62ZM217.91,83.89c-.09-.79-.24-.46-.33.73s0,1.83.17,1.43A5.22,5.22,0,0,0,217.91,83.89Zm10.15,6.36a8.61,8.61,0,0,0-1-2.93c-.27.18,1.09,5.62,1.46,5.85A9.28,9.28,0,0,0,228.06,90.25Zm-7.25-4.66a9.62,9.62,0,0,0-.69-2.49c-.68-1.77-.7-1.74-.22.47C220.4,86,220.74,86.7,220.81,85.59Zm3.72,1.22c-.13-.68-.28-.59-.36.24s0,1.26.22,1.13S224.65,87.43,224.53,86.81Zm33.14,18.62c-.36-.76-.61-1-.64-.5-.07,1,.52,2.22.92,1.95.17-.11,0-.76-.28-1.45Zm-37.6-25.92c.1-1.28-1.22-3.37-1.87-2.94a7.91,7.91,0,0,0-.15,3.1c.19,2.66.26,2.81,1.06,2A4.07,4.07,0,0,0,220.07,79.51Zm-1.61-1.15c0-.6.32-.94.62-.75a1.69,1.69,0,0,1,.47,1.42c0,.59-.32.93-.62.75A1.69,1.69,0,0,1,218.46,78.36Zm44,26.92c1-1.18,1.37-2,.91-1.77-.88.4-3.27,3.54-2.87,3.78.12.08,1-.83,2-2Zm-3.79-1.8c.75.87.84.84.39-.13-.7-1.49-2.34-1.83-2.41-.5,0,.7.08.76.49.22s.92-.29,1.53.41Zm6.6,3.56c-.13-.69-.27-.59-.36.23s0,1.26.23,1.13.25-.74.13-1.36ZM227.69,83.2c-.16-.33-.49-.11-.74.48-.37.85-.31,1,.28.59a1,1,0,0,0,.46-1.07Zm39.11,19.06c0-1.11,0-1.12-.33-.1-.23.79-.68.85-1.36.18-1-1-1.4-.58-.78.74.54,1.16,2.45.52,2.47-.82Zm5.8,2.61c.59-.62.54-.66-.34-.3a1.9,1.9,0,0,0-1.06,1.61c0,1,0,1.06.34.31A6,6,0,0,1,272.6,104.87Zm1.46,1.44c-.49-1-.56-1-.34.22.16.84.44,1.43.62,1.31S274.4,107,274.06,106.31Zm-8.43-6.67c.88.2.83.12-.22-.41-.73-.37-1.46-.24-1.62.28s-.12.77.21.41a1.89,1.89,0,0,1,1.63-.28Zm-28.2-24.45a9.39,9.39,0,0,0-.58-3c-1-2.9-2.24-.54-1.61,3.2.43,2.55.51,2.67,1.28,1.84A3.88,3.88,0,0,0,237.43,75.19ZM235.61,75c-.21-1.86.3-3.14.89-2.24s.45,3.41-.22,3.54c-.28.06-.58-.53-.67-1.3Zm6.26,5.9c.22-.3,0-.55-.49-.6-1-.09-1.19.32-.4.8A.7.7,0,0,0,241.87,80.92ZM230.4,68.25c-.16-.32-.49-.1-.74.49-.37.85-.31,1,.28.59a1,1,0,0,0,.46-1.08Zm2.78,2.56a4.21,4.21,0,0,0-1.05-1.32c-.59-.58-.95-.67-.81-.21C231.57,70.09,233.14,71.38,233.18,70.81ZM242.93,76a4.11,4.11,0,0,0-2.88-2.18l-2.2-.72,2,1.11a7.18,7.18,0,0,1,2.38,1.88,2.85,2.85,0,0,0,.86,1.06c.27.17.18-.35-.19-1.15Zm-8.19-9.34c-.28-.58-.41,0-.32,1.6.11,2.16.18,2.31.45,1a5,5,0,0,0-.13-2.56Zm3.51,2.11c-.14-.68-.28-.59-.36.24s0,1.25.22,1.12S238.37,69.38,238.25,68.76Zm.24-3.62c-.13-.69-.27-.59-.36.23s0,1.26.23,1.13.26-.74.13-1.36Zm-23.14,42.44c-1.15-3.74-1.07-5.16.31-5.92s2.19-.24,3.63,2.81c1.51,3.22,1.42,6.91-.18,7.07C217.25,111.72,216.32,110.73,215.35,107.58ZM213.47,103c0-1.91,1.73-4.39,2.62-3.85.32.19,0,.77-.67,1.29a5.06,5.06,0,0,0-1.62,2.6c-.35,1.56-.37,1.56-.33,0Zm55.61,31.34c-.26-2.27,1-5.36,2-4.78,1.28.78,1.91,4.6,1,6.29S269.35,136.69,269.08,134.36ZM243,111.09c-1-3.08-2.39-7.85-3-10.59-1.18-5.34-1.39-7.25-.4-3.72l.6,2.15,1.32-1.48a6.91,6.91,0,0,0,1.35-1.9,2.8,2.8,0,0,1,1-1.19c3-2.47,3.94-3.87,4.09-6.17.21-3.07.62-3.4,2-1.56.74,1,.94,1.15.71.41-.17-.56-.06-.87.25-.68.84.51,1.14,4.5.41,5.47-.46.61-.31,2.42.58,6.83a48.67,48.67,0,0,1,1.08,7.44l-.12,1.43-.38-1.74c-.27-1.19-.35-.72-.28,1.48.1,3-.08,3.39-3.41,6.41a36.89,36.89,0,0,1-3.67,3.1c-.07,0-1-2.61-2-5.69Zm1.86-15.18c2.28-2.56,4.26-4.42,4.4-4.12.37.78,1.85-.92,1.91-2.2,0-.61-.22-.47-.57.3-.55,1.22-.74,1.2-1.49-.15-.61-1.12-.75-1.22-.49-.37s-.77,2.4-2.65,4.43c-4.29,4.63-5.8,6.44-5.51,6.62a35.64,35.64,0,0,0,4.4-4.51Zm5.75-.38c-.38-1.41-.73-2.34-.76-2.07-.09.84.95,5,1.22,4.8a7.57,7.57,0,0,0-.46-2.73ZM216,92.7c.22-3.19.4-4.35.4-2.57a48,48,0,0,1-.39,5.79c-.22,1.41-.22,0,0-3.22Zm16.42,6.58c0-.4.78-.27,1.69.27s1.61,1.32,1.58,1.72-.78.28-1.68-.27S232.37,99.68,232.4,99.28Zm.29-4.35c.18-2.73.29-2.84,1.83-1.9s1.63,1.16,1.45,3.9-.29,2.84-1.84,1.9S232.51,97.67,232.69,94.93Zm20.11,13.74c0-.4.31-.57.62-.38a.61.61,0,0,1,.2.88c-.22.28-.5.45-.63.37A1.16,1.16,0,0,1,252.8,108.67ZM230.09,92.6a7.1,7.1,0,0,1,.64-2.25c.35-.74.54-.77.49-.08a7.37,7.37,0,0,1-.64,2.25C230.22,93.25,230,93.28,230.09,92.6Zm3.61-2.1a5.2,5.2,0,0,1,1.91,1.16c.51.51.07.39-1-.25s-1.47-1-.93-.91Z"/><path id="path872" class="cls-12" d="M246.79,209.13c-1.61-2.41-3-6.14-2.4-6.52.16-.11.42.61.56,1.59.63,4.18,6.44,9.79,10.16,9.8a2.54,2.54,0,0,1,2.47,1.51c1.66,2.52,6.95,5.27,10.54,5.49,1.79.1,3.24.42,3.22.7s-1.62.29-3.55,0c-3.78-.53-9.21-3.4-10.14-5.38-.41-.88-1-1.25-2.38-1.44-2.81-.4-6.62-3-8.48-5.78Zm1.5.34c-1.19-1.35-3.06-5.24-3-6.24s-1.14-2.53-3.43-3.92a6,6,0,0,1-3-6.63c.77-3.21,2.17-4.44,3.88-3.4,2.25,1.37,7,2.2,8.64,1.51,1.1-.44,1.62-1.5,2.09-4.2.78-4.48,1.92-7.72,2.58-7.32,1.79,1.09,7.66-4.61,7.86-7.63.1-1.48,4.64,1.29,6.82,4.16.87,1.14,1.09,1.56.51.93-2.08-2.22-6.74-5.35-6.8-4.56,0,.46.68,1.05,1.75,1.48a14.65,14.65,0,0,1,4.11,3.3c2.79,3.12,2.89,3.19,2.43,1.72s2.46,2.93,3.18,4.73a22.09,22.09,0,0,0,2.11,3.44c3.29,4.45,4.87,9.91,3.36,11.6-.51.58-.57.38-.23-.92.59-2.34-1-7.1-3.37-10.14a23.42,23.42,0,0,1-2.86-4.74,6.93,6.93,0,0,0-1.53-2.6c-.35-.2-.13.58.5,1.74A8.72,8.72,0,0,1,275,184.6a3.83,3.83,0,0,0,1.25,2c2.75,2.65,5.65,9.88,4.09,10.2-.32.06,0,1.31.68,2.86,2.81,6.2,3.76,16.78,1.81,20.3-.66,1.19-.65,1.2.26.34,1.11-1.05,1.18-.29.13,1.39s-1.71,2-3.62,1.92c-2.34,0-2.6-.45-.54-.84a4.72,4.72,0,0,0,2.23-.92c.23-.31-.54-.3-1.72,0a5.45,5.45,0,0,1-4.18-.64,10.48,10.48,0,0,0-5.59-1c-4,.3-9.77-2.18-11.91-5.14a3.9,3.9,0,0,0-3-1.93,14,14,0,0,1-6.54-3.66Zm24.1,11.32c.4-.27.86-.22,1,.1s-.18.55-.73.49c-.81-.08-.86-.2-.28-.59ZM228.91,192c-1.45-2.52-2.22-4.51-2.24-5.85A5.1,5.1,0,0,0,225.6,183a3.77,3.77,0,0,1-.92-2.76,3.23,3.23,0,0,0-1.36-3c-1.58-1.41-3.76-5.36-3.67-6.66,0-.43.48.32,1,1.67,1.41,3.65,5.08,7,12.74,11.7,5.73,3.5,6.63,4.22,6.28,5-1.58,3.44-1.77,4.4-1.3,6.44s.33,2.13-1,2a9.35,9.35,0,0,1-2.91-.95l-1.47-.81,1.6,1.55c1.44,1.39,1.34,1.4-1,.08-2.1-1.2-2.95-2.14-4.76-5.29Zm2,1.75c-2.55-4.41-3.28-6.21-3.16-7.9.06-1-.11-2-.39-2.13a6.25,6.25,0,0,1-1.29-2c-.43-.92-.8-1.33-.83-.91a4.89,4.89,0,0,0,1,2.19,5.41,5.41,0,0,1,.92,3.22c-.08,1.25.51,2.83,2,5.33,2.12,3.56,3.68,5.47,1.76,2.16Zm44,28.17a3.67,3.67,0,0,1,1.64,1c.36.42-.09.31-1-.26s-1.19-.91-.65-.77Zm-35.4-23A5.36,5.36,0,0,1,241.4,200c.51.5.07.39-1-.25s-1.47-1-.93-.91Zm44.67,18.94c.08-.82.22-.92.35-.23s.07,1.23-.13,1.36-.3-.38-.22-1.13Zm.78-3.29c.09-.83.23-.92.36-.23s.07,1.23-.13,1.36-.3-.38-.23-1.13Zm-60.5-38.86c-3.23-3.15-4.73-9.55-2.58-11,.52-.34.54-.57.09-.85-.84-.51-1.45.43-2.11,3.22l-.55,2.33.09-2.34a5.06,5.06,0,0,1,1.58-3.64c1.34-1.17,1.44-1.58,1-4a8,8,0,0,0-.92-2.93c-.24-.14-.39-.77-.35-1.39s-.16-1.08-.44-1-.94-.74-1.46-1.78-.71-1.5-.44-1a5.37,5.37,0,0,0,1.62,1.55c1.4.85,2.79,6.6,2.77,11.49a15.49,15.49,0,0,0,.6,4.7c1.8,3.83,18.79,14.6,22.89,14.51,3.65-.08,5.52-5.85,3.37-10.42-1.29-2.74-1.4-2.58,1.89-2.55,9.58.07,15.26-7.46,11.56-15.32l-1.21-2.59,1.5.43a11,11,0,0,0,3.15.33l1.65-.09-.62,5.2c-.5,4.21-1.16,6.25-3.44,10.62-2.92,5.61-4.89,8.37-5.53,7.74s-4.16.33-3.9.88c.5,1.07-2.65,10.69-3.73,11.41C249,190.43,244,188.5,235,183a87.33,87.33,0,0,1-10.57-7.36Zm34.89-3.3c-.34-1.16-.49-.83-.62,1.39-.16,2.54-.1,2.73.45,1.52a4.27,4.27,0,0,0,.17-2.91Zm25.27,38.87a19.34,19.34,0,0,0-.21-2.39c-.22-1.44-.2-1.44.31.16a4.39,4.39,0,0,1,.21,2.39C284.68,211.88,284.59,211.84,284.6,211.21Zm-57.94-40.34a2.78,2.78,0,0,1,.18-1.78c.69-.94,2,.35,2.35,2.33l.34,1.89.5-1.38c.61-1.71,1.86-1.06,2.49,1.29.72,2.66.63,2.69-2.6.72-2.14-1.3-3.09-2.19-3.26-3.07Zm6.94,3.47c.15-2.17,1.08-2.46,2.06-.65,1.23,2.28.75,4.2-.81,3.25A2.27,2.27,0,0,1,233.6,174.34Zm3.28,2c.16-2.35,1.28-2.48,2.09-.26,1,2.72.67,3.78-.84,2.85a2.24,2.24,0,0,1-1.25-2.59Zm3.24,2.45c.14-1.95,1.34-2.51,2.16-1,1.18,2.17.65,4-.88,3.13A2.19,2.19,0,0,1,240.12,178.79Zm43.64,27.32a16.64,16.64,0,0,0-1.21-3.88c-.7-1.7-1-2.94-.72-2.75.72.43,2.72,6.86,2.24,7.18C283.87,206.79,283.73,206.54,283.76,206.11Zm-60-37.83c-.46-1.13-.45-1.66,0-2,.79-.52,2.26,1.84,2.16,3.44-.09,1.34-1.43.46-2.2-1.46Zm.57-8.2c.07-1.05.35-1.21.92-.55.9,1,.69,2.31-.35,2.14-.37-.06-.62-.77-.57-1.59Zm4.14,3.45c-.65-1.38-.26-1.94.88-1.25.63.39,1,1,.86,1.42C229.87,164.6,228.93,164.5,228.47,163.53Zm4.91,3c-.7-1.49-.17-2.63.92-2a1.55,1.55,0,0,1,.88,1.79c-.29,1.22-1.26,1.32-1.8.18Zm4.36,2.63c-.68-1.45-.16-2.6.89-2,.6.36,1.08.95,1.05,1.3-.06,1-1.57,1.46-1.94.66Zm3.88,1.62c-.61-1.3-.23-2.66.61-2.15s1,1.25.23,2.22C242.18,171.19,241.81,171.16,241.62,170.76Zm2.47-.26c0-.4.3-.58.6-.4a1.28,1.28,0,0,1,.5,1.06c0,.4-.3.58-.6.39A1.26,1.26,0,0,1,244.09,170.5Zm-21.42-16.34c.49-1.69.45-1.76-1.39-2.41-2.35-.83-2.79-2.05-1.71-4.71l.81-2,1.15,2.45c1.61,3.4,3,4,5.75,2.51,2.92-1.59,3-2.28.6-6.71-1.73-3.22-2.15-3.65-4.79-4.91L220.21,137l-.61-4.52a26.57,26.57,0,0,1-.4-4.65,19.42,19.42,0,0,1,3.14,2.77c2.92,2.9,4.18,3.66,27,16.29,2.42,1.34,6,3.2,8,4.14l3.63,1.72.77,3.2c1.36,5.7-.28,8.54-6.81,11.85-4.18,2.12-7.34,2.6-9.21,1.39-.69-.45-6.28-3.62-12.43-7.06l-11.17-6.24ZM232.91,159c.06-1.25-2.17-6.41-3-6.91s-2.81.55-2.88,1.61c-.11,1.62,1.17,3.39,3.48,4.79C232,159.4,232.88,159.58,232.91,159Zm10.71,2.24c2.28-1.5,2.64-5.24.87-9-2.39-5.08-7.34-6.85-12.44-4.44-.37.17,3.33,8.69,4.52,10.37,2.13,3,5.14,4.32,7.05,3.06Zm-15-19.4c-1.51-4.64-5.18-8.34-7.41-7.52-1,.39-.88.58,2,2.32,2.56,1.58,3.28,2.34,4.25,4.48,1.51,3.36,2.22,3.78,1.21.72Zm6.11,3.21c2.36-.73,3-.57,6.45,1.51,3.81,2.31,4.93,2.38,2.68.15-3.72-3.67-7.21-4.57-10.58-2.73C230.44,145.51,231.23,146.1,234.72,145Zm-17.5,3a3.09,3.09,0,0,1,1.09-2c.58-.44.85-.55.61-.24a13.28,13.28,0,0,0-1.09,2C217.42,148.7,217.19,148.78,217.22,148Zm47.42,21.77a6.11,6.11,0,0,1,.95-2.06c.5-.73.88-1,.86-.61a6.11,6.11,0,0,1-.95,2.06C265,169.92,264.62,170.19,264.64,169.79ZM219.5,140.05a9.33,9.33,0,0,0-.39-3.26c-.46-1-2-11.45-2.25-15.44a11,11,0,0,1,.6-4c.87-2.23.6-4.16-.68-4.94s-3.3-5.39-2.84-6.39c.25-.56.34-.44.31.4a8.29,8.29,0,0,0,2.93,5.48c1.42.86,1.72,3.27.76,6-.77,2.22.06,12.17,1.54,18.5a12.18,12.18,0,0,1,.3,4.33c-.28,1.24-.34,1.11-.28-.72ZM266.61,166a9.2,9.2,0,0,1,.72-2.2,37.18,37.18,0,0,0,1.52-6.11l.78-4.42-.49,4.6c-.39,3.64-2.48,10.36-2.53,8.13Zm-45.55-37.48c-2.46-2.8-2.87-3.85-2.67-6.8l.18-2.74,2.32,2.4c10.76,11.13,37.43,25.78,45.93,25.22l2.36-.16-.46,1.49a16.52,16.52,0,0,0-.57,3.06c-.27,3.77-11.19-.68-33.48-13.65-8.08-4.71-12.55-7.6-13.61-8.82Zm11.56,1.39c-7.54-5.51-14-11.39-13.93-12.64,0-.46.53-.29,1.25.44,4.85,4.94,10,8.9,18.1,13.8,14.16,8.6,21.55,11.5,30.19,11.88a.83.83,0,0,1,.91,1c-.1,1.36-5.35,1-10.84-.67-4.58-1.42-20.28-9.87-25.68-13.83Zm37,18.67a23.56,23.56,0,0,0,.06-5.11c-.51-1.07,1-5,2.24-5.83s1.52-.15.27.91a7.54,7.54,0,0,0-1.88,5.78,15.63,15.63,0,0,1-.34,5l-.71,3.7Zm-43.34-25.88c-7.18-6.28-8.41-8.55-6-11.1,1.95-2.06.56-8.06-2.48-10.72-1-.88-1-1.49-.45-9.59.34-4.75.4-7.77.13-6.69-.34,1.31-.4.27-.2-3.13.39-6.6.66-7.46,2-6.18a3.08,3.08,0,0,1,1,1.67c0,.35.56,1,1.3,1.45a4.73,4.73,0,0,1,1.78,2.41c.4,1.41.53,1.4,1.16-.06,1.19-2.78,4.56.83,3.51,3.76-.26.73,0,2.79.55,5.08.87,3.39,1.06,3.71,1.52,2.66.31-.72.49-.76.45-.1-.27,3.9-1.12,3.3-2.34-1.64-.68-2.77-1.06-5.45-.85-5.94a3.47,3.47,0,0,0-1.26-4.13c-1.16-.66-1.16-.65,0,.74a4.44,4.44,0,0,1,1.13,2.11c-.07,1.17-1.3,1-1.68-.19-.22-.71-.56-.16-.88,1.44-.67,3.31-1.58,9.35-1.08,7.16.84-3.7,2-7.07,2.4-6.84a31.87,31.87,0,0,1,1.8,5.88c1.37,5.54,1.38,5.69.34,8.32-2.27,5.8-3.85,5.09-4.88-2.19-.55-3.93-3.15-14.84-3.6-15.11a28.46,28.46,0,0,0,.9,4.88c.63,2.77,1.52,7,2,9.31.83,4.29,2,7.62,2.82,8.13s2.69-2.54,4.87-8.31l2.22-5.86-1,14.45c-.8,11.28-.9,15.32-.42,18.41l.62,4-1.44-1a47.2,47.2,0,0,1-3.86-3.08Zm-6.21-43.14c.1-1.28-1.22-3.37-1.87-2.94a7.91,7.91,0,0,0-.15,3.1c.19,2.66.26,2.81,1.06,2A4.07,4.07,0,0,0,220.07,79.51Zm-1.61-1.19c0-.62.31-.78.59-.35a2.78,2.78,0,0,1,.47,1.46c0,.38-.29.53-.59.35a1.76,1.76,0,0,1-.47-1.46Zm13.32,46.45c-.74-4-.75-12.87,0-18.52.69-5.32.73-5.4,2.18-4.52s1.48,1,1.46,6.65c0,3.17-.12,7.19-.24,8.93a41.31,41.31,0,0,0,.58,7.78l.78,4.6-2.16-1.31c-1.84-1.12-2.22-1.65-2.58-3.61Zm4.81,1.49c-.91-4.57-.91-6.26-.05-23.71l.59-12.08,1.73,7.46c1.8,7.82,5.24,19,6,19.47.45.27,4.74-3.27,8.67-7.17a22.28,22.28,0,0,1,3.54-3c.9-.48,1-.92.61-1.85-.95-2-.56-3.41.63-2.24.59.58,1,.67.81.2a3.59,3.59,0,0,0-1.39-1.53c-1-.59-1.1-.34-.94,1.78.15,1.92-.14,2.74-1.32,3.78-.83.72-1.49,1.07-1.47.78a2.86,2.86,0,0,1,1.06-1.35,5.77,5.77,0,0,0,1.23-3.46c.18-2.36.37-2.58,1.72-2a2.91,2.91,0,0,1,1.87,2.59c.33,1.84.4,1.84,2,0,.89-1.06,1.5-2.3,1.36-2.75-.59-1.88.65-4,1.89-3.21,2.33,1.42,3.12,4.78,1.45,6.1-.71.56-.79,1.39-.45,5l.4,4.28,2.22-2c1.9-1.74,2.2-2.42,2.07-4.78s.07-2.77,1.12-2.87c2.05-.2,4.28,5.31,2.89,7.12-.3.39-.52.37-.5,0s-.54-1.13-1.26-1.62c-1.16-.8-1.29-.64-1.19,1.54.15,3.14.49,3.85.65,1.38.07-1.07.39-1.78.71-1.58s.44.53.28.75c-.36.48-.5,16.93-.17,19.28.14.92.06,1.3-.16.85a17.79,17.79,0,0,1-.58-4.12l-.17-3.3-.25,2.68c-.17,1.81-.5,2.52-1,2.2-2.22-1.35-3.74,4.39-1.94,7.33a4.17,4.17,0,0,1,.51,3.84c-.44,1.81-1,2.14-3.45,2.09-4.58-.09-12.73-3-21.11-7.55l-7.68-4.15Zm10.07,3.43c1.77-1,1.91-3.58.38-6.84-2.59-5.5-6.66-5.44-6.38.1.25,4.9,3.3,8.33,6,6.74Zm-4.9-3.35c-.56-1.19,0-5.94.73-6.44a1.52,1.52,0,0,1,1.49,0c.64.39.6.68-.22,1.7A8.09,8.09,0,0,0,242.5,125c-.31,2.38-.28,2.34-.74,1.36Zm18.44,9c1.52-.84,1.65-4.75.27-8.07-2.19-5.25-6.78-4.53-6.36,1C254.45,132.6,257.87,136.58,260.2,135.3Zm-2.07-2.23c.22-.71.12-1.35-.2-1.46s-.74-1.13-.91-2.28c-.27-1.72-.33-1.59-.36.73,0,1.54-.2,2.71-.4,2.58-.63-.38-1.37-2.64-1.39-4.23,0-2.67.2-3.21,1.42-3.32,2.86-.28,5.42,5,3.87,8-.94,1.8-2.57,1.78-2,0Zm3.76-14.87c3.49-1.86,9.51-6.86,9.54-7.92,0-.46-.48-.08-4,3.17l-1.95,1.79.09-2.58a30,30,0,0,0-.21-4.66c-.18-1.23-.32-.08-.35,2.84l0,4.91-3.46,1.72a15.65,15.65,0,0,1-4.3,1.63c-.71-.07-.7,0,0,.51.48.33,2.57-.31,4.64-1.41Zm10.69-1.84c-.05-1.17-.21-.34-.36,1.85s-.11,3.15.09,2.13a20.42,20.42,0,0,0,.27-4Zm-8.09-11.83c.34,1.09.43,1.11.5.13.05-.65.49-1.14,1-1.1,1.49.15,1-3.24-.61-4.22-1.11-.68-1.37-.49-1.42,1-.06,2.26-4.23,8.15-5,7-.3-.46-.38-.34-.19.27a2.14,2.14,0,0,1-.1,1.65c-.29.4-.54.19-.83-.69s-.42-1-.48-.13c-.21,2.71.79,2.35,3.65-1.34,2.28-3,3.15-3.61,3.47-2.62Zm-.18-3.6c-.13-.72-.09-1.42.1-1.54.6-.4,2,1.61,1.9,2.76-.1,1.45-1.68.48-2-1.22Zm10.28,7.44c-.42-3.59-3.26-5.75-3.35-2.55,0,1.26,0,1.36.3.48.46-1.53,2.27-.29,2.5,1.71a4.27,4.27,0,0,0,.46,1.79c.15.09.19-.56.09-1.43Zm-58.38,1.24c-1.51-2.61-1.86-6.18-.74-7.57s2.21-.61,2.31,1.76c0,1.13.36,1.69,1,1.82s.72.23-.13.42-.94.45-.37,1.33.52,1,0,.68-.71-.06-.74.36.19.72.48.67.35.46.13,1.17c-.44,1.48-.82,1.36-2-.64Zm-2.78-7.11c.06-1,.33-1.81.59-1.87s.3.8.09,1.9c-.46,2.42-.85,2.4-.68,0Zm56,32.56c-.49-2.58.37-5.11,1.57-4.61,1.55.64,1.94,3.76.68,5.34C270.63,137.1,269.77,136.82,269.44,135.06Zm3.91-.7c.09-1.19.24-1.52.33-.73a5.08,5.08,0,0,1-.17,2.17c-.18.39-.25-.25-.16-1.44ZM215.06,99.3c.21-.29.5-.45.63-.37a1.16,1.16,0,0,1,.19.87c0,.4-.31.56-.63.37A.6.6,0,0,1,215.06,99.3Zm28.51,13.44c-.78-2.27-1.84-5.8-2.36-7.83l-1-3.71,4.41-5,4.4-5,.64,2.45c.9,3.4,2.59,13.94,2.49,15.49-.07,1-3.16,4.38-6.78,7.36-.24.2-1.07-1.5-1.85-3.77ZM216,92.7c.22-3.19.4-4.35.4-2.57a48,48,0,0,1-.39,5.79c-.22,1.41-.22,0,0-3.22Zm16.86,6.35a2.47,2.47,0,0,1,1.37.83c.36.43,0,.41-.71,0S232.45,99,232.84,99.05Zm-.15-4.12c.18-2.73.29-2.84,1.83-1.9s1.63,1.16,1.45,3.9-.29,2.84-1.84,1.9S232.51,97.67,232.69,94.93Zm20.11,13.74c0-.4.31-.57.62-.38a.61.61,0,0,1,.2.88c-.22.28-.5.45-.63.37A1.16,1.16,0,0,1,252.8,108.67Zm-13.2-10c-.15-.79-.13-1.53,0-1.64s.29.26.26.83c-.05,1,2.89-1.16,3-2.21a2.7,2.7,0,0,1,1-1.3c3-2.5,3.94-3.86,4.1-6.25.09-1.42.43-2.62.74-2.69s.4.27.19.76,0,1,.63,1.36.95,1,.84,2.12,0,1.5.45,1.23.43-1.12.09-2.61c-.3-1.29-.29-2.08,0-1.89.8.49,1.07,4.5.36,5.44-.46.61-.31,2.42.58,6.83a53.06,53.06,0,0,1,1.11,7.46c-.05.79-.52-1-1.05-4-1.07-6.2-2.82-13.79-3.23-14-.15-.09-.16.41,0,1.11.18,1-6.53,9.43-8.59,10.84-.09.07-.29-.53-.44-1.32Zm-1.29-6c-.4-2.15-.21-2.52.33-.66.27.92.37,1.76.21,1.86S238.46,93.43,238.31,92.67Zm-6.8-4.92c.09-.83.23-.93.36-.24s.06,1.23-.13,1.36S231.44,88.49,231.51,87.75Zm1.9.84a42.14,42.14,0,0,1,.23-7c.59-6.93.55-7.13-1.37-7.32s-2.77-1.68-2.39-3.72c.25-1.35.57-1.41,1.92-.4s1.45.92.86,0c-1.37-2.21-2.64-2.5-3.15-.71-.64,2.21.14,4.55,1.77,5.28,1,.44,1.13.67.57,1-1.29.86-3.37-2.71-3.18-5.47q.3-4.54,3.56-1.56l1.7,1.56-.13-3.36c-.24-6.43,3.58-6.8,5.63-.55.59,1.78.63,2.58.16,2.89-1,.69-.94,3,.16,3.64a1.7,1.7,0,0,0,1.62.17c.94-.62,3.31,5,3,6.94-.42,2.31-2.23,2.65-4.37.81l-1.83-1.57-.07,5.37c0,3-.2,5.07-.37,4.71a32.23,32.23,0,0,1-.31-5.68v-5l-.51,6.29c-.5,6.16-.54,6.27-1.85,5.48A4,4,0,0,1,233.41,88.59Zm3.84-15.07c-.24-2.68-.9-3.37-1.81-1.91-.43.68-.5,2.06-.24,4.17l.39,3.15.94-1.53a6.78,6.78,0,0,0,.72-3.88Zm-1.39.28c.08-.83.23-.92.36-.24s.06,1.23-.14,1.36S235.79,74.55,235.86,73.8Zm6.28,7.46c0-.3-1-1.23-2.28-2.07-2.08-1.36-2.15-1.36-.71,0,2.2,2.16,2.94,2.66,3,2Zm.72-5.4c-.58-1.26-1.19-1.71-2.88-2.16l-2.13-.56,2.06,1c1.13.58,2,1.31,2,1.63a1.57,1.57,0,0,0,.82,1.1c.77.46.78.34.11-1.06Zm-8.11-9.18c-.25-.53-.39.31-.34,2,.1,2.66.13,2.74.44.93a6.3,6.3,0,0,0-.1-2.89Zm3.48,2.41c-.09-.78-.24-.46-.33.73s0,1.84.17,1.44A5.27,5.27,0,0,0,238.23,69.09Zm.71-2.9c-.42-1.21-.79-1.78-.82-1.27-.07,1,1,3.8,1.38,3.58A6.5,6.5,0,0,0,238.94,66.19Zm-3.61-2.08c.38-.6.56-1.17.41-1.26s-.58.33-1,.93-.56,1.17-.41,1.26.58-.33,1-.93ZM232.69,81c.21-3.19.39-4.34.39-2.57a46.18,46.18,0,0,1-.39,5.8c-.22,1.41-.22,0,0-3.23Z"/><path id="path870" class="cls-13" d="M246.79,209.13a18.68,18.68,0,0,1-2.13-4.26c-.82-3.05-.45-3.14.48-.12a16.72,16.72,0,0,0,2.51,4.83,19.2,19.2,0,0,0,8.55,4.94c.61.11.35.23-.59.26C253.12,214.88,248.77,212.1,246.79,209.13ZM258,217c0-.22-.07-.67-.09-1-.14-2.17-.82-2.81-3.31-3.19a10.89,10.89,0,0,1-4.74-2.12c-2.16-1.72-4.62-5.79-4.51-7.47.08-1.13-1.14-2.52-3.39-3.89a6.17,6.17,0,0,1-2.74-7.62c1.05-3.1,1.66-3.3,5.14-1.72,2.88,1.31,6.73,1.51,7.95.41a8.43,8.43,0,0,0,1.21-3.28c1.35-6.68,2-7.78,4.58-8.29a6.8,6.8,0,0,0,4.3-3.22c1.82-2.83,2.39-2.85,6-.29a24.44,24.44,0,0,1,6.19,8.33,17,17,0,0,0,2.56,4.14c2.38,2.88,3.68,6.6,3.06,8.76a3,3,0,0,0,.54,3,26.14,26.14,0,0,1,2.21,6.28c2.87,11.67-1.14,19.29-8,15.14a6.59,6.59,0,0,0-3.8-.94c-2.8.53-5.43,0-9.53-1.91l-3.86-1.8,3.54,2.25a13.21,13.21,0,0,0,6.8,2.45c1.79.1,3.24.42,3.22.7-.12,1.82-13.18-2.76-13.39-4.7Zm14.44,3.79c.4-.27.86-.22,1,.1s-.18.55-.73.49c-.81-.08-.86-.2-.28-.59ZM233.94,197a3.73,3.73,0,0,1,1.64,1c.35.42-.09.31-1-.26s-1.19-.91-.65-.77Zm40.95,24.9a3.67,3.67,0,0,1,1.64,1c.36.42-.09.31-1-.26s-1.19-.91-.65-.77ZM228.35,191c-1.21-2.21-1.85-4.08-1.77-5.17a3.78,3.78,0,0,0-1-2.83,3.57,3.57,0,0,1-.92-2.69l.14-1.56.36,1.81a7.22,7.22,0,0,0,1.2,2.78,4.26,4.26,0,0,1,.72,2.69c-.11,1.66,1.59,5.89,2.2,5.49.16-.11-.16-1.09-.71-2.18a8.52,8.52,0,0,1-.89-3.75,3.47,3.47,0,0,0-.95-2.81,3.49,3.49,0,0,1-1-2.43c.08-1.26.34-1.18,2.92.92a74.68,74.68,0,0,0,6.79,4.73c3.31,2,3.9,2.55,3.57,3.3-.94,2.08-1.27,5.3-.71,6.71.51,1.24.36,1.47-.9,1.34-1.94-.19-6.2-2.78-6.58-4a2.63,2.63,0,0,0-.87-1.29c-.36-.22-.35.2,0,1.15.94,2.33.35,1.56-1.71-2.23Zm51,31.78a5.32,5.32,0,0,0,3.39-1.86c1.32-1.8,1.63-1.26.41.69-1,1.57-1.71,2-3.62,1.92-2.47,0-2.59-.54-.18-.75Zm-39.89-24a3.64,3.64,0,0,1,1.63,1c.36.42-.08.31-1-.26s-1.2-.91-.65-.77Zm44.66,18.94c.08-.82.22-.92.35-.23s.07,1.23-.13,1.36-.3-.38-.22-1.13Zm.78-3.29c.09-.83.23-.92.36-.23s.07,1.23-.13,1.36-.3-.38-.23-1.13ZM221.6,175.15c-1.38-2.23-2-3.71-1.93-4.71,0-.36.48.51,1,1.94a15.16,15.16,0,0,0,2.69,4.31c1.13,1.14,1.32,1.52.59,1.12A9,9,0,0,1,221.6,175.15Zm3,.73c-2.62-2.43-3.14-3.53-3.38-7.23-.13-2,.1-3,.81-3.65s.91-.69.61.15c-1.14,3.23,3.32,7.89,13.52,14.09,7.4,4.5,11.14,5.4,12.85,3.07s2-7.19.57-9.48c-1-1.66-.86-1.76,3.31-2.26,5.19-.61,9.91-3.46,10.72-6.46,1.08-4,1-6.31-.23-8.58-1.37-2.49-.65-3.09,1.89-1.56.85.51,1.42.55,1.28.09a.53.53,0,0,1,.58-.75c1.15.11.77,5.88-.68,10.16-1.08,3.21-6.64,13.57-7.12,13.27a4,4,0,0,1,.18-2.06,4.21,4.21,0,0,0-.11-2.75c-.37-.55-.62-.06-.72,1.39-.14,2.12-2.38,4.6-3.52,3.9-.25-.15-.52.28-.59,1-.38,3.55-2.62,10.28-3.65,11-2,1.29-6.95-.65-15.91-6.17a102.38,102.38,0,0,1-10.41-7.1Zm60,34.67c.09-.83.23-.92.36-.24s.06,1.23-.13,1.36-.3-.37-.23-1.12Zm-65.18-43.72c.1-1.39.25-1.89.34-1.11a7.67,7.67,0,0,1-.17,2.53C219.44,168.87,219.37,168.23,219.46,166.83Zm7.88,5a1.69,1.69,0,0,1-.59-1.84,5.73,5.73,0,0,0,.4-1.19c.08-1.08,1.77,1.07,2.09,2.65l.39,1.93.47-1.41c.59-1.72,1.79-1.11,2.42,1.24a13.29,13.29,0,0,1,.45,2.15C232.93,175.85,228.77,173.24,227.34,171.84Zm6.26,2.5c.16-2.34,1.29-2.48,2.1-.25,1,2.72.67,3.77-.85,2.85a2.27,2.27,0,0,1-1.25-2.6Zm3.28,2c.16-2.35,1.28-2.48,2.09-.26,1,2.72.67,3.78-.84,2.85a2.24,2.24,0,0,1-1.25-2.59Zm3.2,3.09c.1-1.44.9-2.53,1.57-2.13s1.38,2.91.86,3.61-2.49-.62-2.43-1.48Zm43,24.23a14.5,14.5,0,0,0-1.55-3.9,3,3,0,0,1-.27-2.7c.56-2.33-1.29-7.24-3.81-10.1A20.27,20.27,0,0,1,274.6,182l-1.19-3,1.39,2.18a9.12,9.12,0,0,1,1.35,2.74,7.2,7.2,0,0,0,1.55,2.45c2.56,3.09,4.7,8.7,4.16,10.94-.25,1-.23,2,0,2.17.56.34,2.66,6.82,2.29,7.07a8.76,8.76,0,0,1-1.07-2.92Zm-59-35c-.81-1.37-.81-1.58,0-1.95s1-.1,1.38,1.4C226.3,171.23,225.74,171.45,224.1,168.67Zm-3-5.45c1.2-.93,1.29-1.34.84-3.76a8.27,8.27,0,0,0-.93-3c-.24-.14-.39-.77-.35-1.39s-.2-1.09-.64-1-.57,0,0-.46c.88-.66.82-.79,2,4.46s1.18,5.13-.74,5.72l-1.57.49Zm3.49-2.07c-.56-1.19-.26-1.9.59-1.38A1.53,1.53,0,0,1,226,161C225.92,161.86,225,162,224.62,161.15Zm4.16,2.51c-1-1.17-.68-2.14.52-1.4.6.36,1.07,1,1,1.34C230.28,164.53,229.58,164.55,228.78,163.66Zm4.6,2.85c-.7-1.49-.17-2.63.92-2a1.55,1.55,0,0,1,.88,1.79c-.29,1.22-1.26,1.32-1.8.18Zm4.36,2.63c-.68-1.45-.16-2.6.89-2,.6.36,1.08.95,1.05,1.29-.06,1-1.57,1.47-1.94.67Zm3.8,1.09c-.33-1.66.06-2.32.85-1.41a2,2,0,0,1,0,1.76c-.48,1.11-.54,1.09-.83-.35Zm2.55.27c0-.4.31-.57.63-.38a.59.59,0,0,1,.19.87c-.21.29-.49.46-.62.38s-.22-.48-.2-.87Zm-21.33-16.24c.47-1.62.4-1.73-1.61-2.79-2.36-1.24-2.88-2.87-1.41-4.46.84-.9.93-.85,1.85,1,1.65,3.26,4.17,3.9,6.69,1.7,1.81-1.58,1.78-2.24-.35-6.35-1.68-3.22-2.1-3.67-4.73-5l-2.88-1.43-.44-3.34c-.24-1.83-.52-4-.63-4.77-.16-1.23,0-1.22,1.12.07a43,43,0,0,0,4.74,4.11,23.46,23.46,0,0,1,4.33,4.09c.95,1.53,3.82,2.95,3.42,1.69-.24-.79,4.65,1.47,11.58,5.37l4.37,2.45.15,2.35c.12,1.94.24,2.16.64,1.26a3.18,3.18,0,0,0,.27-1.78c-.12-.38.08-.56.45-.41,10.28,4.27,11.51,5.31,11.94,10.17.56,6.32-10.88,13.74-16.53,10.72-1.26-.68-7.06-3.87-12.88-7.09L222.27,156Zm10.18,4.62a18.23,18.23,0,0,0-1.31-4.21c-1.19-2.93-1.52-3.34-2.59-3.24-1.51.15-2.31,2.21-1.56,4,1,2.44,5.34,5.15,5.46,3.4Zm10.68,2.34c1.29-.85,1.79-1.84,1.92-3.77.42-6.33-5.41-12.08-10.84-10.69-3.25.83-3.32,1.29-.93,6.23q5.41,11.19,9.85,8.23Zm6.81-2.38a11.63,11.63,0,0,1-1.77-4.62c-.28-2.12-.38-2.32-.51-1-.17,1.75,1.82,6.56,3,7.22.39.22.07-.49-.71-1.58ZM228.64,141.9c-1.54-4.71-5.19-8.43-7.44-7.6-1,.39-.91.56,1.73,2.18a10,10,0,0,1,4.49,5C229.35,145.2,229.78,145.36,228.64,141.9Zm6.07,3.21c2.22-.72,2.93-.55,6.38,1.51,3.9,2.34,5.14,2.24,2.6-.2-2.1-2-6.6-3.93-8.09-3.43l-3.32,1.12c-1.36.45-1.68.84-1,1.23s2.07.21,3.45-.23Zm-16.67,6c-.6-1.56-.58-1.57.23-.14s1.09,2.27.64,2A8.93,8.93,0,0,1,218,151.07Zm-.79-3.37c.08-.83.23-.92.36-.24s.06,1.24-.14,1.37-.29-.38-.22-1.13Zm.64-1.72c0-.15.48-.46,1-.68.93-.38.95-.34.19.4s-1.27.88-1.23.28Zm52,29.55a13.37,13.37,0,0,0-3.6-2.71c-1.26-.63-2.15-1.32-2-1.54.47-.64,4.74,2.32,6.43,4.45,1.81,2.3,1.13,2.13-.84-.2Zm-5.26-5.74a6.11,6.11,0,0,1,.95-2.06c.5-.73.88-1,.86-.61a6.11,6.11,0,0,1-.95,2.06C265,169.92,264.62,170.19,264.64,169.79ZM219.53,140.1c.09-1.19.24-1.51.34-.72a5.19,5.19,0,0,1-.17,2.16C219.52,141.94,219.44,141.29,219.53,140.1Zm-.93-5.19a6.14,6.14,0,0,1-.17-2.41c.14-.09.44,1,.68,2.4C219.64,138,219.19,138,218.6,134.91Zm50,23.73a37.5,37.5,0,0,1,.85-5.08c.42-.35-.38,6.89-.93,8.42-.32.9-.29-.5.08-3.34Zm-50.77-28.33a50.8,50.8,0,0,0-.63-5.55c-.53-3.49-.51-4.83.13-6.92.92-3,.75-4.63-.57-5.43-.94-.57-3.13-4.85-3.05-6,0-.33.49.57,1,2a7.8,7.8,0,0,0,2.27,3.36c1.59,1,1.87,3.07.85,6.4-.62,2-.64,3.43-.08,7.17a21.14,21.14,0,0,1,.35,5.39c-.22.48-.33.32-.31-.46Zm2.56-2.85c-2.06-2.6-2.21-3-2-5.61l.19-2.81,3.86,3.84c3.23,3.22,6,5.2,17.09,12.15,14.23,8.94,19.71,11.37,25.87,11.49,3.28.07,3.06-.15,2.86,2.88-.16,2.34-.4,2.57-2.59,2.53-3-.07-8.84-2.6-21.24-9.15C229.54,134.94,223.06,130.8,220.41,127.46Zm11.27,1.44c-5.87-4.14-13.38-10.9-12.65-11.37.28-.17,1.83,1,3.44,2.55,6,5.85,12.3,10.23,22.4,15.52,10.78,5.64,15.88,7.52,20.67,7.62,3.73.07,3.69.06,3.62,1.08-.09,1.27-5.87.86-11.1-.8-5.47-1.73-17.93-8.63-26.38-14.6Zm38,20.13a19.32,19.32,0,0,0,.1-5.11c-.48-1.54.92-5.52,2.26-6.4s1.35,0,.16,1a7.54,7.54,0,0,0-1.88,5.78,15.45,15.45,0,0,1-.37,5l-.75,3.68Zm-43.12-26.2c-5.09-4.28-7.11-6.61-7.32-8.43-.12-1,.12-1.76.58-1.82,2.42-.31,1.54-7.69-1.35-11.28-1.59-2-1.68-2.34-1.57-6.47.16-5.63,1.6-12.88,2.74-13.77s.5-3.57-.87-4.4c-.7-.43-.85.1-.77,2.74.09,3.09.07,3.12-.33.6-.58-3.74.2-6.13,1.58-4.78a3.14,3.14,0,0,1,1,1.69c0,.35.56,1,1.3,1.45a4.73,4.73,0,0,1,1.78,2.41c.4,1.41.53,1.4,1.16-.06,1.19-2.78,4.56.83,3.51,3.76-.26.73,0,2.79.55,5.08.87,3.39,1.06,3.71,1.52,2.66.33-.76.5-.79.48-.08A3.89,3.89,0,0,1,230,94c-.77,1-2.94-7.58-2.6-10.28.2-1.61,0-2.21-1-3-.67-.54-1.23-.64-1.26-.23a.8.8,0,0,0,.74.83c1,.09,1.65,2.09.86,2.61-.4.27-.72,0-1-.8-.43-1.38-2.16,4.39-2.51,8.36-.22,2.44-.26,2.35-1.81-3.63-.87-3.37-1.72-6-1.88-5.93s.22,2.24.86,4.73,1.53,6.59,2,9.11a32.13,32.13,0,0,0,1.83,6.52c1,1.88,1,1.93,2.18,1.31.64-.36,2.26-3.59,3.58-7.18l2.41-6.52-1.08,14.8c-.88,12.16-1,15.45-.39,18.43.79,4.16.88,4.16-4.4-.27Zm5.25,1.92c-.41-1.62-.44-6.14-.1-13.32l.51-10.87,1.53,1.18,1.54,1.18-.2,9c-.14,6.26.06,10.36.65,13.41l.86,4.38-2.09-1.27A4.76,4.76,0,0,1,231.8,124.75Zm4.92,1.55c-.86-3.81-.88-5.71-.2-18.85.47-8.82.95-14.22,1.22-13.6s1,3.51,1.61,6.55c1.18,5.62,4.73,16.54,5.52,17,.25.15,2.36-1.41,4.7-3.45,4-3.49,5.12-4.88,3.75-4.61-.32.06-.55-.26-.52-.73s.39-.46.8,0a1.25,1.25,0,0,0,1.7.12c1.43-1.12,1.23-2-.29-1.32l-1.32.64,1.19-1a6,6,0,0,0,1.38-3.62c.12-1.68.49-2.52,1-2.39s.62.27.17.41c-.75.24-1.2,5.68-.46,5.53.54-.11.52,3.27-.06,8.54-.3,2.8-.22,3.83.36,4.18,1,.63,7.94-2.59,10-4.68s2.22-3,.44-2.11c-.72.36-.31-.31.93-1.48,1.9-1.8,2.21-2.52,2.1-4.85-.09-1.61.11-2.78.49-2.85s.48.21.24.77a24.56,24.56,0,0,0,.12,6c.29,2.78.49,8,.44,11.61-.07,6.44-.1,6.55-1.48,6.55-2.22,0-3.12,4.53-1.54,7.8a4.41,4.41,0,0,1,.31,3.9c-.52,1.67-1.11,1.92-3.86,1.61-5.27-.59-12.77-3.33-20.52-7.49l-7.27-3.9Zm10.1,3.62c2.63-1.73.93-8.48-2.68-10.68-3-1.83-4.71,3-2.77,7.81C242.22,129.15,245.43,130.84,246.82,129.92Zm-5.08-9a.92.92,0,0,1,.63-.84c.32-.06.55.21.53.61a.93.93,0,0,1-.63.84C242,121.56,241.72,121.29,241.74,120.89Zm19.14,13.67c1.31-1.36,1.2-4.15-.29-7.51-2.13-4.78-6.95-4.32-6.57.62.46,6.07,4.12,9.75,6.86,6.89Zm-5.78-4.83c-.15-.48,0-.91.22-1s.46.38.42,1c-.08,1.22-.26,1.22-.64,0Zm-.08-3.45c.09-1.22.4-1.31,2.45-.72L259,126l-1.49,1C255.81,128.08,254.92,127.83,255,126.28Zm16.4-15.58c0-.39-.49-.43-1.13-.07s-1.21,1-1.23,1.37.48.43,1.13.08A2.37,2.37,0,0,0,271.42,110.7Zm-55.76-2.91c-1-2.75-.73-6.22.4-6.11s1.17.18,1.25,4.83c.07,4.29-.46,4.7-1.65,1.28Zm-2.23-5.29c.06-1,.33-1.82.59-1.87s.3.8.09,1.9c-.46,2.41-.85,2.4-.68,0Zm59.92,31.86c.09-1.19.24-1.52.33-.73a5,5,0,0,1-.17,2.16c-.18.4-.25-.24-.16-1.43Zm-3.91-2.53c.1-1.26,1.16-1.92,1.93-1.2s.51.88-.58,1.27C270,132.17,269.41,132.14,269.44,131.83ZM216,92.7c.22-3.19.4-4.35.4-2.57a48,48,0,0,1-.39,5.79c-.22,1.41-.22,0,0-3.22Zm27.19,18.6c-.8-2.46-1.78-5.74-2.18-7.28l-.73-2.82,4.43-4.88c3.29-3.63,4.53-4.54,4.81-3.54.57,2,2.76,15.43,2.69,16.48s-6.57,7.11-7.18,6.74a24.82,24.82,0,0,1-1.84-4.7ZM223.71,99.08c-.7-2.92-.22-7.52,1.32-12.76.74-2.5,1.05-2,2.63,4.34l1.4,5.64-1.43,3.18C225.91,103.3,224.68,103.18,223.71,99.08Zm49,31.11a15.39,15.39,0,0,1,0-3.64c.18-1.88.25-1.66.41,1.25.2,3.73.05,4.66-.37,2.39ZM257.83,115c.59-3.77,2.59-7.81,4.74-9.61.5-.43.79-1,.63-1.38s-1,.49-2,1.83-1.9,2.11-2.15,1.73-.36-.15-.23.53,0,1.3-.38,1.36c-1,.21-.52-2.64.55-3.12,1.65-.75,4.44-4.14,4.16-5-.59-1.91.63-4,1.88-3.25,2.33,1.42,3.12,4.78,1.44,6.1-.73.58-.79,1.34-.39,5.42.25,2.61.28,5,.06,5.29s-.54-2.06-.72-5.24c-.28-5-.21-5.81.58-6.08,1.38-.46.94-3.2-.68-4.18-1.19-.72-1.38-.5-1.59,1.84-.13,1.46-.05,2.62.19,2.57.53-.1.81,2.27.92,7.78l.08,4.16L262.16,117c-5.24,2.46-5.05,2.55-4.33-2Zm-25-15.93a2.47,2.47,0,0,1,1.37.83c.36.43,0,.41-.71,0S232.45,99,232.84,99.05Zm-.15-4.12c.18-2.73.29-2.84,1.83-1.9s1.63,1.16,1.45,3.9-.29,2.84-1.84,1.9S232.51,97.67,232.69,94.93Zm6.91,3.77c-.15-.8-.13-1.55,0-1.66s.29.26.26.83c-.05,1,2.89-1.16,3-2.21A2.78,2.78,0,0,1,244,94.32a13.57,13.57,0,0,0,4-4.82c.4-1.1.45-1.09.42.11,0,.75-1.75,3.27-3.84,5.59-4.87,5.41-4.58,5.2-4.9,3.5Zm33,19.2c.07-1.1.06-3.31,0-4.92s.07-2.79.33-2.63.41,2.46.33,5.11-.29,4.72-.45,4.62a4.48,4.48,0,0,1-.18-2.18ZM217,83.91c.07-1,.22-1.33.33-.74a3.45,3.45,0,0,1-.12,1.81c-.18.41-.28-.07-.21-1.07Zm35.44,21.67c0-.54-.55-3.86-1.24-7.38-1.06-5.35-1.15-6.56-.51-7.41s.65-1.4.18-2.87c-.33-1.07-.35-1.73,0-1.54.82.5,1.1,4.5.38,5.44-.46.62-.3,2.5.61,7.1.68,3.45,1.1,6.58.92,7s-.31.38-.3-.3Zm4.91-.67c-.59-1.27-.19-2.61.63-2.11a1.8,1.8,0,0,1,.75,1.54C258.69,105.55,257.86,105.89,257.39,104.91ZM231.51,87.75c.09-.83.23-.93.36-.24s.06,1.23-.13,1.36S231.44,88.49,231.51,87.75Zm2.79,1.59c-1.22-1.06-1.23-1.28-.65-7.59.63-6.78.39-7.9-1.65-7.75-1.49.11-2.37-1.14-2.24-3.16.1-1.45.39-1.58,1.71-.78,2.66,1.62,3.37,1.35,3.55-1.32.1-1.47-.11-2.63-.52-2.88s-.47-.49-.06-.6A2.25,2.25,0,0,0,235.5,64c.57-1.36,1.93-.53,2.51,1.51.24.87.61,1.48.81,1.34.58-.38-1.11-3.59-2.25-4.28a1,1,0,0,0-1.46.62c-.25.68-.68,1.1-1,.92s-.06-.89.5-1.58c1.31-1.64,2.81-.68,4.33,2.74,1.32,3,1.44,3.83.56,4-.32.07-.62.75-.67,1.52-.11,1.55,1.44,2.89,2.51,2.18s3.31,5,3,6.94c-.42,2.31-2.23,2.65-4.37.81l-1.83-1.57-.07,5.53c-.06,3.81-.2,4.87-.46,3.43a24.61,24.61,0,0,1,0-5.64L238,79l2,1.22c1.11.68,2.37,1,2.8.65.65-.48.64-.55-.07-.45a7.31,7.31,0,0,1-3.05-1.18l-2.19-1.3-.61,6.61c-.33,3.63-.78,6.45-1,6.27l-1.63-1.43Zm2.61-12c1-1.69.64-5.88-.62-6.64-1.11-.68-1.68,1.72-1.17,5C235.68,79.18,235.76,79.26,236.91,77.37Zm6.27-.92a5,5,0,0,0-3-2.87c-1.86-.71-2-.9-1.87-2.63.07-1,.39-1.92.7-2a1,1,0,0,0,.63-.89c0-.48-.27-.62-.83-.36s-.95,1.54-1.05,2.93c-.16,2.48-.14,2.53,1.94,3.52a6,6,0,0,1,3,2.89c.51,1,1.06,1.8,1.22,1.69s-.17-1.14-.74-2.3Zm-24.72,1.87c0-.62.31-.78.59-.35a2.78,2.78,0,0,1,.47,1.46c0,.38-.29.53-.59.35a1.76,1.76,0,0,1-.47-1.46ZM259,102.93c-.35-.8-.4-1.3-.1-1.12.56.35,1.29,2.22.94,2.44-.11.06-.49-.53-.84-1.32Zm-26.3-22c.21-3.19.39-4.34.39-2.57a46.18,46.18,0,0,1-.39,5.8c-.22,1.41-.22,0,0-3.23Zm41.8,28.37a8.13,8.13,0,0,0-1-4.08c-.63-1.13-.9-1.91-.62-1.73,1.32.8,2.77,6.1,2,7.18C274.54,111.13,274.41,110.63,274.49,109.35Zm-2.23-1.06c-.89-1.9-.6-3.38.48-2.44a4.07,4.07,0,0,1,1,2.55C273.81,110.3,273.19,110.25,272.26,108.29Zm-7.8-6.6c-.69-1.45-.19-2.75.73-1.93a2.59,2.59,0,0,1,.87,1.84c-.08,1.14-1.08,1.2-1.6.09Zm-15.41-13.4c.06-.93.38-1.28.77-.85a2.64,2.64,0,0,1,.6,1.68c0,.53-.38.92-.77.85S249,89.22,249.05,88.29Zm-1-2.07a.92.92,0,0,1,.62-.8c.33-.06.4.28.17.82C248.39,87.27,248,87.26,248.05,86.22ZM229.89,74.56c-.12-.38.35-.35,1,.07s1.13.94,1,1.16-.63.18-1-.07a2.38,2.38,0,0,1-1-1.16Zm-1-4.14c.35-3.35,1.62-3.94,3.42-1.57,1.13,1.47,1.09,1.48-.5.13s-1.77-1.26-2.11.07c-1,3.79-1.08,4-.81,1.37Zm5.19-2.2c.09-1.19.24-1.51.33-.73a5.08,5.08,0,0,1-.17,2.17C234,70.06,233.94,69.41,234,68.22Z"/><path id="path868" class="cls-14" d="M249.71,211.83a16.45,16.45,0,0,1,3.27,2c.81.66,0,.3-1.8-.8s-2.46-1.64-1.47-1.2Zm8.1,4.82c-.14-.44.35-.27,1.08.37a5.1,5.1,0,0,1,1.3,1.44C260.16,219,258.05,217.42,257.81,216.65Zm5.54,3.52a2.37,2.37,0,0,1,1.36.83c.36.42.05.4-.71-.05S263,220.14,263.35,220.17Zm-8-5.87a2.17,2.17,0,0,1,1.41.13c.3.18.16.42-.32.53a2.17,2.17,0,0,1-1.41-.12C254.74,214.65,254.88,214.41,255.36,214.3Zm-10.05-7.8-.93-2.27,1.14,2.13c1.07,2,1.35,2.78.91,2.51a15,15,0,0,1-1.12-2.37Zm2.65,2.19a15.06,15.06,0,0,1-2.39-4.81c-.62-2.38-1-2.94-2.89-4.08-3.89-2.36-4.9-6.92-2.27-10.24.69-.87,1.42-.83,3.07.17,2.72,1.66,9.19,2.24,11.3,1a16.58,16.58,0,0,0,3.82-4.56,19.66,19.66,0,0,1,4.94-5.35c2.11-1.33,2.74-2.23,2.87-4.05.08-1.29.35-2.39.6-2.44,1-.19,6.21,6.27,7.57,9.33a12.75,12.75,0,0,0,2.17,3.65A14.65,14.65,0,0,1,279.1,191c1.31,2.64,1.53,3.6,1.16,5.13s-.15,2.48,1,4.85c2.44,5,3.22,13.2,1.71,17.93-.8,2.5-4.55,3.63-7.21,2.19a14.8,14.8,0,0,0-6.15-1.19c-4.69.08-9.78-2.12-11.64-5-1.07-1.69-1.5-2-3.42-2.21-2.77-.37-4.49-1.41-6.59-4Zm-14-11.71a3.73,3.73,0,0,1,1.64,1c.35.42-.09.31-1-.26s-1.19-.91-.65-.77Zm40.95,24.9a3.67,3.67,0,0,1,1.64,1c.36.42-.09.31-1-.26s-1.19-.91-.65-.77Zm4.5.93a5.32,5.32,0,0,0,3.39-1.86c1.32-1.8,1.63-1.26.41.69-1,1.57-1.71,2-3.62,1.92-2.47,0-2.59-.54-.18-.75ZM229.5,190.94c-1.22-2.23-1.85-4.08-1.78-5.18a5.45,5.45,0,0,0-.92-3.16c-1.47-2-1.24-3.89.31-2.5,5.25,4.75,7.08,6.14,9.6,7.26,2.88,1.28,2.88,1.29,2.1,2.54a9.61,9.61,0,0,0-.69,4.27c.09,2.67-.06,3-1.3,2.87-2.72-.27-5.31-2.43-7.32-6.1Zm9.71,7.76a2.44,2.44,0,0,1,1.37.83c.36.43,0,.41-.71-.05S238.82,198.68,239.21,198.7Zm-11.65-9.08a10.54,10.54,0,0,1-1-3.93,3.82,3.82,0,0,0-1-2.66,3.52,3.52,0,0,1-1-2.13c0-.68.47-.18,1.32,1.5a10.17,10.17,0,0,1,1.16,3.83,10.25,10.25,0,0,0,1,3.72c.59,1.32.95,2.33.8,2.23a13.47,13.47,0,0,1-1.35-2.56Zm57.38,24.88c.09-.83.23-.92.36-.23s.07,1.23-.13,1.36-.3-.38-.23-1.13Zm-63.09-39.11c-.54-1-.67-1.36-.29-.85a30.74,30.74,0,0,0,2.11,2.41c1.14,1.18,1.19,1.35.29.85A7.12,7.12,0,0,1,221.85,175.39Zm3,.45a22.33,22.33,0,0,1-3-3.51c-.43-1-.53-4.34-.19-6.83.16-1.25.24-1.16.75.84,1.08,4.24,2.85,5.88,12.95,12s11.86,6.65,14.07,3.89c1.59-2,1.74-6.55.31-9.15L248.54,171l3-.17c7.21-.41,11.71-3.54,12.74-8.85.44-2.25.82-2.84,1.56-2.39s.92.15.79-1c-.11-1,.08-1.46.47-1.22,1.55.94-3.69,14.48-7.1,18.38-.95,1.08-1,1-.47-1.36.33-1.62.29-2.59-.12-2.84s-.68.62-.76,1.84c-.16,2.36-2.55,4.39-4.16,3.53-.48-.27-.62-.17-.32.2s.24,1.92-.51,4.72c-2.61,9.78-3.51,9.88-17,2-6.63-3.86-10-6.16-11.86-8Zm-4.92-4c-.22-1.21-.16-1.25.34-.22.34.72.46,1.41.28,1.53s-.46-.47-.62-1.31Zm-.42-5c.1-1.39.25-1.89.34-1.11a7.67,7.67,0,0,1-.17,2.53C219.44,168.87,219.37,168.23,219.46,166.83Zm8.19,5.2c-1.31-1.15-1.42-1.65-.58-2.75s2.27.91,2.14,2.7c-.05.81-.15,1.39-.22,1.29s-.68-.65-1.34-1.24Zm2.57.53c.28-.68.69-1.12.9-1a9.15,9.15,0,0,0,.86.58,3.45,3.45,0,0,1,.67,1.92c.15,1.34-.08,1.45-1.38.66s-1.5-1.12-1.05-2.2Zm3.36,2.19c.15-2.26,1.67-2.48,2.25-.33.75,2.79.51,3.43-1,2.52a2.16,2.16,0,0,1-1.27-2.19Zm3.59,2.4c-.31-1.65.19-2.45,1.17-1.85.69.41,1.29,2.34,1.2,3.8C239.46,180.24,237.44,178.58,237.17,177.15Zm2.91,2.28c.1-1.44.9-2.53,1.57-2.13s1.38,2.91.86,3.61-2.49-.62-2.43-1.48Zm-15.92-10.57c-.51-.73-.76-1.55-.56-1.82.63-.85,1.8.33,2,2s-.1,1.77-1.44-.19Zm-2.92-5.72c1.53-1.19,1.84-1.26,1.76-.38,0,.29-.77.75-1.64,1l-1.57.49Zm60,34.1c.58-2.48-.79-6.29-3.61-10.09a13.78,13.78,0,0,1-2.22-4.16c-.23-1.35-.19-1.34.35.06a21,21,0,0,0,2.23,3.79c3.26,4.41,4.85,9.83,3.4,11.63-.44.55-.48.21-.15-1.23Zm-56.65-36.09c-.56-1.19-.26-1.9.59-1.38A1.53,1.53,0,0,1,226,161C225.92,161.86,225,162,224.62,161.15Zm4.16,2.51c-1-1.17-.68-2.14.52-1.4.6.36,1.07,1,1,1.34C230.28,164.53,229.58,164.55,228.78,163.66Zm-7.1-5.72c.08-.83.22-.93.36-.24s.06,1.23-.14,1.36-.3-.38-.22-1.12Zm11.39,7.44c0-.35.44-.61.94-.56,1.26.12,1.36.23,1.27,1.45,0,.6-.56.79-1.16.42s-1.07-.95-1.05-1.31Zm4.72,3c-.63-1.33-.25-1.91.83-1.26.73.45.95.94.68,1.55C238.89,169.67,238.33,169.56,237.79,168.42Zm3.52,1.18a.92.92,0,0,1,.62-.8c.32-.06.55.4.5,1s-.32,1-.62.8a1.23,1.23,0,0,1-.5-1ZM220.8,154.82c.06-1,.21-1.33.33-.74a3.5,3.5,0,0,1-.12,1.82c-.18.4-.28-.08-.21-1.08Zm2-.71c.47-1.6.42-1.67-1.53-2.36s-2-.78-1.87-2.92c.19-2.74,1.09-3,2.26-.72,1.41,2.77,3.46,3.55,5.81,2.23,2.68-1.5,2.76-2.6.48-7-1.6-3.08-2.15-3.67-4.61-5-2.62-1.4-2.82-1.64-3.33-4.05-.92-4.31-.58-6.24.83-4.79a51.72,51.72,0,0,0,4.45,3.66c3.55,2.65,5.29,5.44,5.52,8.88.09,1.41.2,1.21.39-.76.14-1.5.48-2.39.74-2s.75.34,1.07-.15c.48-.73,1.89-.16,8.06,3.27l7.47,4.15-.08,2.13c-.05,1.17-.18,3-.3,4-.33,2.78,1.62,6.91,4.2,8.89l2.17,1.67-1.86-1.95c-3.56-3.73-4.56-7.21-3-10.48,1.16-2.44,2.38-2.39,7.4.29l3.84,2.06.8,3.26c.74,3,.73,3.41-.26,5.5-1.3,2.78-5,5.4-9.55,6.84l-3.48,1.09L241,166.22c-4.09-2-9.95-5.18-13-7.06l-5.6-3.41Zm10,5a12.57,12.57,0,0,0-1.18-4.45c-1.39-3.43-1.41-3.46-2.93-3.08-2,.48-2.27,3.41-.59,5.43s4.43,3.28,4.7,2.1Zm11,2.43c1.12-.74,1.62-1.79,1.74-3.67.52-7.68-6.15-13.49-12.25-10.68l-1.95.9,2.75,5.61c2.56,5.2,3,5.73,5.45,7.24C241.69,162.24,242.5,162.36,243.77,161.52Zm-14.8-19c-1.29-4.79-6.19-10-7.93-8.46-1,.89-.43,1.6,2.23,2.8,2.07.94,2.61,1.52,4.09,4.41C229.23,145,229.72,145.34,229,142.57Zm4.25,3c3.87-1,4.41-.87,8.05,1.33,3.49,2.11,4.78,2.1,2.94,0-2.16-2.5-6.59-4.46-8.56-3.78-1.09.38-2.69.84-3.57,1-1.51.34-2.12,1.16-1.25,1.69a5.82,5.82,0,0,0,2.39-.25Zm-16,2.11c.08-.83.23-.92.36-.24s.06,1.24-.14,1.37-.29-.38-.22-1.13Zm.64-1.72c0-.15.48-.46,1-.68.93-.38.95-.34.19.4s-1.27.88-1.23.28Zm46.47,25.4a1.12,1.12,0,0,1,1.33.34c.39.43.12.61-.63.41-.93-.23-1.14-.46-.7-.75Zm3.29,1.63a2.44,2.44,0,0,1,1.37.83c.36.43,0,.41-.71-.05S267.27,173,267.65,173ZM219.53,140.1c.09-1.19.24-1.51.34-.72a5.21,5.21,0,0,1-.17,2.16C219.52,141.94,219.44,141.29,219.53,140.1Zm45.73,28.56a3.25,3.25,0,0,1,.66-1.49c.33-.42.58-.44.55,0a3.34,3.34,0,0,1-.65,1.49C265.49,169,265.24,169.06,265.26,168.66Zm-46.45-32.44c-.17-.55-.18-1.08,0-1.18s.4.4.53,1.13c.29,1.5,0,1.53-.5.05ZM268,162c.09-.83.23-.93.36-.24s.07,1.23-.13,1.36-.3-.38-.23-1.12Zm-50.14-32c.09-.83.23-.92.36-.24s.06,1.24-.13,1.37S217.8,130.73,217.87,130ZM269,157c.15-2.2.31-3,.36-1.86a20.59,20.59,0,0,1-.26,4C268.94,160.16,268.9,159.2,269,157ZM217.16,124.5a20.33,20.33,0,0,1-.15-5.28c.27-1.18.33-1,.27.9a17.21,17.21,0,0,0,.4,4.24,7.32,7.32,0,0,1,.23,2.83c-.13.57-.47-.64-.75-2.69Zm4.67,4.65c-3.14-3.39-3.64-4.49-3.44-7.52.17-2.53.31-2.74,1.11-1.65,2.39,3.27,7.74,7.37,19.46,14.9L251.63,143l-2,.82-2,.82-12.26-7c-6.74-3.86-12.86-7.69-13.61-8.49Zm40.93,24.73c-.73-1.1.92-.88,3.07.41,1.16.69,1.51.69,1.05,0s-.52-1,.2-1,.87.54.78,1.8c-.1,1.48-.42,1.57-2.34.65a8.88,8.88,0,0,1-2.76-1.87Zm6.72-3.77c.11-1.59.26-2.09.33-1.11a10.14,10.14,0,0,1-.2,2.89c-.19.61-.24-.19-.13-1.78Zm-42.8-25c-4.8-4-8.06-7.18-7.75-7.6.16-.21,2,1.28,4.16,3.32,5.51,5.29,12.36,9.92,22.47,15.21,8.79,4.61,10,5.43,8.4,5.77-1.06.24-23.26-13.36-27.28-16.7Zm1.76-.85c-8.43-7-10.79-10.42-8.23-12.11,2.13-1.4,1.26-7.27-1.58-10.69-2-2.43-2.25-4.44-1.32-11.27,1.34-9.86,1.61-10,3.42-2.07.87,3.79,1.82,8.17,2.12,9.74.62,3.27,1.62,5.63,2.67,6.27s3.19-3.46,5.12-9.07l1.48-4.26-1,14.3c-.77,11.51-.82,15-.27,17.93C231.63,127,231.73,127,228.44,124.28Zm3.25-1.43c-.68-4.92.19-21.24,1.14-21.43a2.51,2.51,0,0,1,1.56.92c.86.92.94,2.15.68,10.08-.22,6.83-.08,10.06.6,13.17l.89,4.13-2.14-1.31c-2.11-1.28-2.15-1.37-2.73-5.56Zm5.71,3.09c-.82-4.32-.86-6.66-.28-18.13l.67-13.17,1.8,7.13c1,3.92,2.57,9.23,3.52,11.79l1.71,4.67,4.25-3.68c2.34-2,5.12-4.63,6.19-5.79l1.94-2.12-.29,6.73c-.18,4.1-.07,6.68.27,6.61.84-.17-.86,3-2.19,4.12-.89.73-1.11,1.56-.93,3.58.12,1.44.22,4.55.22,6.91v4.28l-2.39-1.05c-1.32-.58-4.9-2.37-8-4l-5.57-2.93Zm9.42,4c3.66-2.41-1.24-13-5-10.87-1.32.73-1.65,4.36-.64,7.24s4,4.73,5.69,3.63Zm-29-13.3c.55-1.55.06-3.55-1-4.21-.94-.57-3.13-4.85-3.05-6,0-.33.49.57,1,2a7.93,7.93,0,0,0,2,3.22c1.43.87,2.23,4,1.32,5.15-.66.84-.68.83-.32-.2ZM270.23,146c.08-.83.22-.93.36-.24s.06,1.23-.14,1.36-.3-.38-.22-1.12Zm-9.6-7.07c-.17-.57-.07-.66.23-.2s.7.24.91-.46.16-1.41-.12-1.58,0-1,.51-1.76c.91-1.29.92-1.35,0-.58-1.11,1-1.18.61-.25-1.56.46-1.07.48-1.65.06-1.9s-.35-.59.15-1,.6-.77-.13-1.21a2,2,0,0,1-.81-1.67c0-.62-.15-1.08-.43-1-1.19.24-.77-3.78.44-4.22.67-.24.91-.43.51-.41-1.61,0-.4-1.7,2.85-4.14a57.33,57.33,0,0,0,5.27-4.45l1.82-1.85.17,3.06c.1,1.68.07,5.46-.05,8.39-.2,4.93-.34,5.39-1.79,6.23-1.71,1-2.47,5.34-1.35,7.73s.81,3.78-.46,2.47-1.14-1.16-.14.58c1.25,2.16.79,2.58-1.45,1.31-1-.57-1.72-.58-1.76,0s-.32,1-.63,1-.42-.24-.23-.68-.05-1-.73-1.46-.92-.28-.64.43.07.89-.62.54a3.13,3.13,0,0,1-1.38-1.55Zm5.23-.43a2.58,2.58,0,0,0-.84-1.26c-.3-.19-.42.08-.26.59a2.62,2.62,0,0,0,.84,1.27C265.9,139.26,266,139,265.86,138.48Zm-4.58-15c-.13-.68-.27-.59-.36.24s0,1.25.23,1.12.26-.74.13-1.36Zm9,17.3a4.77,4.77,0,0,1,1.73-2.72l1.27-.73-1,.92a9.89,9.89,0,0,0-1.73,2.72l-.77,1.8ZM213.43,102.5c.06-1,.33-1.81.59-1.87s.3.8.09,1.9c-.46,2.42-.85,2.4-.68,0Zm1.65.67c.06-.79.36-1.5.68-1.56s.53.53.48,1.33-.36,1.5-.68,1.57-.53-.54-.48-1.34ZM255,126.69a.92.92,0,0,1,.62-.85c.32-.06.56.22.53.61a.92.92,0,0,1-.63.84C255.21,127.36,255,127.08,255,126.69Zm18.35,7.67c.09-1.19.24-1.52.33-.73a5.08,5.08,0,0,1-.17,2.17c-.18.39-.25-.25-.16-1.44ZM216,92.7c.22-3.19.4-4.35.4-2.57a48,48,0,0,1-.39,5.79c-.22,1.41-.22,0,0-3.22Zm56.76,37.49a15.39,15.39,0,0,1,0-3.64c.18-1.88.25-1.66.41,1.25.2,3.73.05,4.66-.37,2.39ZM223.55,98.24c-.44-1.95.61-10.37,1.35-10.86.2-.13.16,2.76-.09,6.41a56.92,56.92,0,0,1-.63,6.53,8.76,8.76,0,0,1-.63-2.08Zm18.38,9a26.4,26.4,0,0,1-1.18-5.35c.07-1.1,6-8.21,7.85-9.38,1.42-.91.24,3.61-2.08,7.95a31.14,31.14,0,0,0-2.62,7.29l-.71,3.72Zm15.61,10.12a22,22,0,0,0,.61-4c.13-1.8,1-3.63,3.09-6.22,2.74-3.46,4.21-4.2,2.72-1.36-.37.71-1.38,3.23-2.24,5.61-1.47,4.09-3.68,7.94-4.33,7.55-.16-.1-.1-.82.15-1.61ZM232.88,99.06a1.39,1.39,0,0,1,1,.69c.16.35-.17.33-.74-.06s-.76-.67-.3-.63ZM221.12,86.5c-.65-2.82-1-5.54-.8-6,.47-1.07-1-4.42-1.83-4.25-.33.07-.53,1.34-.45,2.94.1,1.95,0,2.38-.31,1.41a9.33,9.33,0,0,1,.13-5.43c.4-.92,2.48.62,2.4,1.78,0,.35.58,1,1.34,1.48a3.7,3.7,0,0,1,1.61,2.06,1.53,1.53,0,0,0,1.11,1.31c.73.07.79.47.36,2.34-.28,1.24-.76,3.55-1.06,5.13s-.72,2.77-.93,2.64a27.86,27.86,0,0,1-1.57-5.37Zm11.57,8.43c.18-2.73.29-2.84,1.83-1.9s1.63,1.16,1.45,3.9-.29,2.84-1.84,1.9S232.51,97.67,232.69,94.93Zm29.36,19.87a2.29,2.29,0,0,1,.81-1.48c.6-.46.6-.54,0-.46s-.56-.17.16-1.11a5.19,5.19,0,0,0,.83-2.94c-.06-1,.18-1.78.52-1.85s.49.84.25,2.73a11,11,0,0,0,0,3.56,2,2,0,0,1-.26,1.67c-.75,1.21-2.35,1.12-2.26-.12Zm-9.25-6.13c0-.4.31-.57.62-.38a.61.61,0,0,1,.2.88c-.22.28-.5.45-.63.37A1.16,1.16,0,0,1,252.8,108.67ZM228.23,90.06c-1.59-6.23-1.37-6.76.3-.74a24.59,24.59,0,0,1,1.11,5.09c-.14.09-.78-1.87-1.41-4.35Zm44.62,27c.12-1.8.27-2.46.34-1.49a13.22,13.22,0,0,1-.21,3.26C272.78,119.68,272.73,118.88,272.85,117.09ZM239.81,99c0-.15.42-.46.91-.69.75-.34.82-.25.47.57s-1.44.93-1.38.12Zm14.2,8.63c0-.15.47-.46,1-.69.92-.37.94-.33.18.4s-1.26.89-1.22.29ZM217,83.46c.09-.83.23-.92.36-.24s.06,1.24-.13,1.37-.3-.38-.23-1.13ZM252.52,105c.08-.83.22-.92.36-.24s.06,1.24-.14,1.37-.3-.38-.22-1.13Zm5.42,3.27a3.93,3.93,0,0,1,2-2.53l1.87-1.08-1.47,2.13c-2,2.91-2.49,3.21-2.37,1.48Zm7.7,3.82a31.15,31.15,0,0,0-.24-4.81c-.29-2.19-.17-3,.52-3.51,1.19-.93,1.25-2.75.14-4.36-.49-.73-.64-1.17-.33-1,1.7,1,2.19,4.54.78,5.66-.71.56-.79,1.39-.46,4.88.38,4.08.43,4.19,1.5,3.56s1.07-.6-.06.68c-1.49,1.72-2,1.4-1.85-1.11ZM242.48,96c.41-.78,1.08-1.39,1.49-1.35s.17.71-.57,1.52c-1.59,1.78-1.93,1.72-.92-.17Zm13.78,7.43c.12-1.68.49-2.52,1-2.39s.7.24,0,.44c-.52.15-.72,1-.57,2.3.12,1.13,0,2.09-.23,2.14s-.37-1.07-.26-2.49Zm1.19.78c-.57-1.22-.28-1.93.57-1.41a1.85,1.85,0,0,1,.75,1.58C258.69,105.51,258,105.43,257.45,104.21Zm12,6.28c.6-.46,1.21-.77,1.36-.68s-.21.55-.81,1-1.21.78-1.36.69.21-.55.81-1ZM234.57,89.42,233,88.24l.75-6.3c.81-6.78.49-8.14-1.85-7.91-.86.09-1.28-.24-1.73-1.35-1-2.38,0-3.29,2.25-2.16,2.09,1,2.1,1,2.39-2.32.45-5.23,1.07-6.05,2.69-3.55.52.79.62,2.24.36,4.81l-.39,3.68,2.16,1c2.11,1,3.34,2.67,3.23,4.36-.1,1.52-1.54,1.75-3.45.55l-1.91-1.19-.71,6.36-.71,6.35ZM237,77.22a4.28,4.28,0,0,0,.47-3.86c-1-4.38-3-3.14-2.52,1.57C235.38,79.17,235.64,79.48,237,77.22Zm14.53,22c-.41-2.15-.22-2.52.32-.66.27.92.37,1.76.22,1.86s-.4-.44-.54-1.2Zm21,12.4c.06-.79.32-1.31.6-1.14s.32.87.11,1.57-.48,1.22-.59,1.15A3.35,3.35,0,0,1,272.49,111.59ZM218.44,78.68c0-.42.28-.41.56,0a2.83,2.83,0,0,1,.5,1.1c0,.18-.27.17-.57,0A1.28,1.28,0,0,1,218.44,78.68ZM259,102.93c-.35-.79-.4-1.3-.1-1.12.56.35,1.29,2.22.94,2.44-.11.06-.49-.53-.84-1.32Zm-33.38-21c0-.62.31-.78.59-.35a2.87,2.87,0,0,1,.47,1.46c0,.38-.29.54-.59.35A1.76,1.76,0,0,1,225.61,81.91Zm2.06,1c-.18-1.52-.51-2-1.63-2.4-.77-.27-1.26-.69-1.08-.93,1-1.28,3.86,2.75,3.22,4.47-.16.42-.39-.09-.51-1.14Zm9.8,4.38a7,7,0,0,1,.05-2.69c.15-.1.36,1,.47,2.35.25,3.29-.23,3.61-.52.34Zm7.58,6.12a7.79,7.79,0,0,1,1.53-1.71A5.08,5.08,0,0,0,248,89.53l.36-1.29,0,1.48a5.18,5.18,0,0,1-1.89,3c-1,.84-1.63,1.14-1.37.68ZM232.71,80.62c.2-3,.38-4.16.39-2.59a39.72,39.72,0,0,1-.36,5.43C232.52,84.89,232.51,83.6,232.71,80.62Zm38.11,27.25c-.35-1.85-.17-4,.35-4.12.24,0,.36,1.19.27,2.76-.18,3.15-.25,3.32-.62,1.36Zm1.44.42c-.89-1.9-.6-3.38.48-2.44a4.07,4.07,0,0,1,1,2.55C273.81,110.3,273.19,110.25,272.26,108.29Zm-9.1-7.85c.06-2.26.09-2.28.49-.32.23,1.14.2,2.22-.07,2.4s-.46-.76-.42-2.08Zm-12.93-7.26c-.13-.69,0-1.3.31-1.36.78-.16.89-3.11.18-4.63-.46-1-.44-1.17,0-.87.85.51,1.23,4.14.59,5.44a4.88,4.88,0,0,0-.46,2c.07,1.33-.37,1-.66-.57Zm14.22,8.49a3.84,3.84,0,0,1-.27-1.67c.09-1.28,1.52-.36,1.81,1.16C266.33,103,265.22,103.32,264.45,101.67Zm9.17,4c-.6-1.32-.9-2.28-.66-2.14.54.33,2.33,4.35,2,4.46A7.24,7.24,0,0,1,273.62,105.72ZM249.05,88.29c.06-.8.35-1.3.65-1.12a2.28,2.28,0,0,1,.44,1.78c0,.8-.34,1.3-.64,1.12A2.29,2.29,0,0,1,249.05,88.29ZM229.89,74.56c-.12-.38.35-.35,1,.07s1.13.94,1,1.16-.63.18-1-.07A2.38,2.38,0,0,1,229.89,74.56Zm9.48,5.58c-1.08-1.14-.9-1.13.93.08,1.24.82,2.13,1.66,2,1.87-.34.47-1.11,0-2.9-2Zm4.21,0a5.54,5.54,0,0,0-3.43-6.57c-1.86-.71-2-.9-1.87-2.63.07-1,.39-1.92.7-2,1.54-.31-.84-5.71-2.81-6.4-.91-.31-1.16-.6-.76-.86.94-.62,3.13,1.88,4,4.59.59,1.78.63,2.58.16,2.89-1,.69-.94,3,.16,3.64a1.7,1.7,0,0,0,1.62.17c.47-.3,1,.4,1.94,2.49,1.25,2.82,1.36,5.59.25,6.23-.27.16-.26-.55,0-1.57Zm-14.77-12c0-.16.48-.46,1-.69.92-.38.94-.34.19.4s-1.27.88-1.23.29Zm3.08.66c-.16-.53.07-.52.54,0,.91,1.06,1,1.69.26,1.21A2.58,2.58,0,0,1,231.89,68.82Zm2.14-.6c.09-1.19.24-1.51.33-.73a5.08,5.08,0,0,1-.17,2.17C234,70.06,233.94,69.41,234,68.22ZM234,63.28c.21-.28.49-.45.62-.37s.22.47.2.87-.31.57-.63.37A.58.58,0,0,1,234,63.28Z"/><path id="path866" class="cls-15" d="M248.6,211.2A2.44,2.44,0,0,1,250,212c.36.43,0,.41-.71-.05S248.21,211.17,248.6,211.2Zm4.41,2.66a1.4,1.4,0,0,1,1,.7c.16.35-.17.32-.74-.06s-.75-.67-.3-.64Zm5.46,3.32a1.39,1.39,0,0,1,1,.7c.17.35-.17.32-.74-.06s-.75-.67-.3-.64Zm5.46,3.32a1.37,1.37,0,0,1,1,.7c.17.35-.17.32-.74-.06s-.75-.67-.3-.64Zm-8.57-6.2a2.17,2.17,0,0,1,1.41.13c.3.18.16.42-.32.53a2.17,2.17,0,0,1-1.41-.12C254.74,214.65,254.88,214.41,255.36,214.3Zm-10.05-7.8-.93-2.27,1.14,2.13c1.07,2,1.35,2.78.91,2.51a15,15,0,0,1-1.12-2.37Zm3.11,2.75a12.41,12.41,0,0,1-2.71-5c-.79-2.65-1.26-3.37-2.84-4.33-3.85-2.34-4.89-6.16-2.68-9.85.82-1.36,1.33-1.37,4.12,0,7.05,3.38,11.3,2,15.26-4.87a14,14,0,0,1,4.34-4.21c2.33-1.36,2.93-2.16,3.06-4.08.15-2.32.21-2.34,2.06-.79,2.32,1.93,5.5,6.62,5.41,8a6,6,0,0,0,1.71,2.88c2.58,2.79,4.64,7.59,4.08,9.53a4.6,4.6,0,0,0,.61,3.63c3,5.78,3.79,15.56,1.6,19.35a5.11,5.11,0,0,1-7.34,1.31,4.43,4.43,0,0,0-3.43-1c-4.95.92-12.17-1.78-13.76-5.15-.64-1.36-1.1-1.72-2.33-1.83a12.07,12.07,0,0,1-7.16-3.56Zm31.07,13.91c.32-.15,1.31-.64,2.2-1.1s1.61-.66,1.6-.45c-.06.79-2.18,2.06-3.26,1.94-.62-.07-.87-.25-.54-.39Zm-52.78-35.38c-.17-.54-.18-1.08,0-1.18s.4.41.54,1.13c.28,1.5-.05,1.53-.51.05Zm2.94,2.4c-.28-1.75.31-1.36.82-.77.35.41.21-.68,0,0C230.15,190.48,229.76,190.85,229.65,190.18ZM228,186.33c-.16-.51,0-.77.29-.58s-.16.25-.18.65.55,1.09.42,1A2.55,2.55,0,0,1,228,186.33Zm57,28.17c.09-.82.23-.92.36-.23s.07,1.23-.13,1.36-.3-.38-.23-1.13ZM223.1,176.83a1.36,1.36,0,0,1,1,.69c.17.35-.17.32-.74-.06s-.75-.67-.3-.64Zm3.05.06c-4.44-3.81-4.91-4.69-4.62-8.64.25-3.38.26-3.38.91-1,.5,1.83,1.32,3,3.37,4.88,3.62,3.29,16.44,11,19.21,11.61,4.41.9,7.11-4.23,5.11-9.71a11.35,11.35,0,0,1-.87-3c.11,0,1.71-.15,3.56-.23,6.13-.27,11.39-4.51,11.77-9.47.07-1,.56-1.42,1.29-1.23,1.07.27,1.14.5.68,2.39-.51,2.14-4.65,10.44-6.1,12.25-.77.95-.8.9-.68-.93a5.69,5.69,0,0,0-.38-2.71c-.3-.45-.58.11-.66,1.34-.16,2.42-2.07,4.6-3.76,4.29-.69-.12-1,.28-.92,1a21.77,21.77,0,0,1-1,5.69c-1.34,5.06-2.59,6.2-6,5.45-3-.65-17.34-8.89-21-12Zm-6.84-9.08c.08-.83.22-.92.36-.24s.06,1.23-.14,1.36S219.23,168.56,219.31,167.81Zm10.81,4.94c.75-1.88,1-2,1.69-.61,1.13,2.08.73,3.4-.77,2.49C230,174,229.79,173.57,230.12,172.75Zm3.46,2c.15-2.26,1.67-2.48,2.25-.32.75,2.78.51,3.42-1,2.51a2.16,2.16,0,0,1-1.27-2.19Zm3.85,1.88c.14-2.16,1-1.87,1.65.57s.57,2.66-.68,1.9c-.8-.49-1.06-1.15-1-2.47Zm3.36,2.28c.15-.8.59-1.41,1-1.34,1,.17.67,3-.38,2.89-.66-.06-.81-.45-.6-1.55ZM227.08,170c.82-1.32,1.53-1,1.87.82.38,2,.34,2-1.17,1.11C226.57,171.15,226.48,170.92,227.08,170Zm-3.25-2.36c0-.6.44-.86.89-.59a1.88,1.88,0,0,1,.74,1.59c0,.59-.44.86-.89.59A1.88,1.88,0,0,1,223.83,167.6Zm-2.54-4.49c0-.14.41-.43.89-.66s.86-.09.83.34a.77.77,0,0,1-.89.65C221.65,163.4,221.28,163.25,221.29,163.11ZM281.35,197a7.93,7.93,0,0,0-.15-3.3c-.48-2-.47-2,.25-.16.83,2.13.86,4.4.06,4.56C281.22,198.16,281.15,197.66,281.35,197Zm-59.67-39.06c.08-.83.22-.93.36-.24s.06,1.23-.14,1.36-.3-.37-.22-1.12Zm2.66,2.05c0-.4.41-.5.87-.22A1.57,1.57,0,0,1,226,161c0,.4-.42.5-.87.23A1.57,1.57,0,0,1,224.34,160Zm4.09,2.49c-.16-.51.22-.62.84-.24s1.1,1,1.07,1.4-.4.51-.83.25a2.94,2.94,0,0,1-1.08-1.41Zm4.92,3c-.16-.51.23-.61.87-.23s1,.94.77,1.23a.7.7,0,0,1-.87.22A2.5,2.5,0,0,1,233.35,165.47Zm4.66,2.46c0-.6.32-.94.62-.75a1.69,1.69,0,0,1,.48,1.41c0,.6-.32.94-.62.76A1.7,1.7,0,0,1,238,167.93Zm3.92,1.57c.08-.83.23-.93.36-.24s.06,1.23-.14,1.36-.29-.37-.22-1.12ZM220.8,154.82c.06-1,.21-1.33.33-.74a3.5,3.5,0,0,1-.12,1.82c-.18.4-.28-.08-.21-1.08Zm2-1c.47-1.93.44-2-1-2.14-1.77-.18-2.51-1.06-2.39-2.85.13-2.06,1.31-2.41,2.15-.63,1.19,2.55,3.68,3.53,5.95,2.36,2.08-1.07,2.77-3,1.69-4.6-.41-.62-.38-.9.12-1,1-.21-2.09-7.17-4.12-9.19a5.5,5.5,0,0,0-3.48-1.8c-1.76-.13-1.81-.19-2-2.52-.27-3-.19-3.07,2.36-.69a32.47,32.47,0,0,0,4.19,3.26,4.6,4.6,0,0,1,2.29,2.51,5.62,5.62,0,0,0,1.25,2.32,3.93,3.93,0,0,1,.89,3c-.08,1.38,0,1.74.42,1.25a3.81,3.81,0,0,0,.36-2.23c-.12-1,.1-1.36.66-1s.95.21,1.09-.16c.37-1,4.59.68,10.31,4.11l5.09,3.07-.36,3.36c-.46,4.3-.11,6.48,1.43,8.9s6.94,6.67,7.53,5.88c.29-.4-.29-1-1.8-1.94-4.82-2.93-6.85-6.93-5.82-11.45.7-3.07,1.51-3.2,6.44-1,4,1.81,4.39,2.08,5.19,4,2,4.77.09,9.43-4.85,12.06-6.51,3.46-7,3.45-15-.39-4-1.91-9.88-5.05-13.11-7l-5.85-3.53Zm10,5.79c.56-.5.39-1.38-.84-4.28-1.74-4.1-2.25-4.61-3.79-3.77-1.37.75-1.58,3.52-.4,5.24C229.15,158.7,232,160.31,232.85,159.58Zm9.28,2.59c2.25.11,4.16-2.92,3.73-5.92-1-7.22-7-11.82-12.3-9.42l-2.24,1,2.39,5.15c2,4.35,4,7.16,6,8.74a6.93,6.93,0,0,0,2.4.43Zm-8-16.63c1.81-1,4-.52,7.6,1.64,3,1.84,4.09,1.75,2.78-.23-.8-1.21-6.07-4.21-7.67-4.36a6.72,6.72,0,0,0-3.29,1c-1,.65-2.17,1-2.47.85s-.57,0-.6.44c-.07,1.05,2.17,1.44,3.65.62Zm-16.87,2.16c.08-.83.23-.92.36-.23s.06,1.23-.14,1.36-.29-.38-.22-1.13Zm51,25.65a1.39,1.39,0,0,1,1,.69c.16.35-.17.33-.74,0s-.76-.68-.3-.64ZM219.53,140.1c.09-1.19.24-1.51.34-.72a5.19,5.19,0,0,1-.17,2.16C219.52,141.94,219.44,141.29,219.53,140.1Zm6.7.24c-1.55-2.19-2.89-3.1-4.35-3a1.21,1.21,0,0,1-1.34-.74c-.14-.47.68-.5,1.84-.06,2.15.81,4.61,3.18,5.17,4.95.36,1.18.34,1.16-1.32-1.19Zm40.89,18.07c.08-.82.22-.92.36-.23s.06,1.23-.14,1.36-.3-.38-.22-1.13ZM269,157c.15-2.19.31-3,.36-1.86a20.54,20.54,0,0,1-.26,4C268.94,160.16,268.9,159.2,269,157Zm-51.52-30.26c.09-.83.23-.92.36-.24s.06,1.24-.13,1.37S217.45,127.5,217.52,126.75Zm5.15,3.08c-3.4-3.39-4.47-5.37-4.3-8,.16-2.29.29-2.42,1.37-1.31,4.51,4.64,10.2,8.84,20.44,15.1l11.2,6.83-1.76.76a5.44,5.44,0,0,1-3.42.15c-2.47-.9-22.29-12.34-23.53-13.58Zm42.11,24.59c-.87-1.07-.74-1.11.76-.24,1.06.61,1.69.66,1.53.12s0-.77.28-.58a2.26,2.26,0,0,1,.49,1.8c-.11,1.55-1.22,1.15-3.06-1.1Zm-47.87-34c.11-1.59.26-2.09.33-1.11a10.14,10.14,0,0,1-.2,2.89c-.18.61-.24-.19-.13-1.78Zm52.57,29.7c.11-1.59.26-2.09.33-1.11a10.14,10.14,0,0,1-.2,2.89c-.19.61-.24-.19-.13-1.78Zm-30-17.15c5.13,2.8,10.5,5.62,11.94,6.28,2.68,1.22,3.55,2.66,1.28,2.1-.69-.17-6-3.27-11.9-6.89l-10.64-6.57ZM223,121.81a28.41,28.41,0,0,1-3.72-3.82c-.17-.38.54.06,1.57,1s3.57,3.17,5.64,5c2.44,2.13,3.09,2.88,1.84,2.13A47.35,47.35,0,0,1,223,121.81Zm4.38,1.5c-7.05-5.79-9.56-9.73-7-10.93,1.54-.71,1.43-5-.21-8.51a12.07,12.07,0,0,0-2.26-3.57c-1.13-.69-1.31-5.16-.45-11.07,1.08-7.35,1.51-8.11,2.49-4.35.43,1.65,1.24,5.46,1.79,8.46,2.46,13.29,4.22,14.09,8.28,3.76l1.56-4-.7,11.27c-.65,10.42-.63,13.92.08,19.85.15,1.23.06,2.07-.19,1.86Zm4.4-.89a70.58,70.58,0,0,1-.06-12.86l.54-8.1,1.64,1,1.64,1-.48,7.08a67,67,0,0,0,.86,17.09c.25,1.69.09,1.76-1.63.71s-1.92-1.28-2.51-5.91Zm5.78,2.79c-.74-4.62-.8-7.78-.34-18.09l.55-12.49,1.55,6.35a146.85,146.85,0,0,0,5.09,16.5c.41,1.12.92.75,8.27-6.1l4.79-4.48-.39,6.78c-.49,8.6-.48,8.57-2,10.22-1,1.07-1.21,2-1.06,4.25.11,1.58.13,4.51.05,6.51-.18,4.38-.33,4.37-9.56-.59l-6.07-3.26Zm9.39,5c1.42-.77,1.62-4.87.37-7.52-1.13-2.4-4.7-4.94-5.86-4.17-.78.51-1.3,5.72-.74,7.38,1.13,3.36,4.15,5.44,6.23,4.31ZM270.23,146c.08-.83.22-.93.36-.24s.06,1.23-.14,1.36-.3-.38-.22-1.12Zm-52.46-32.09a1.87,1.87,0,0,0-.94-1.45,9.43,9.43,0,0,1-2.18-3.4l-1.19-2.8,1.29,2.48a10.08,10.08,0,0,0,2.18,3c1,.59,1.71,2.38,1.14,2.75-.19.13-.33-.14-.3-.61Zm52.87,25.92A2.43,2.43,0,0,1,272,138c1.31-.62,1.31-.62.34.28a6.53,6.53,0,0,0-1.36,1.82C270.66,140.85,270.61,140.81,270.64,139.81Zm-57.11-37.29c.1-1.19.25-1.52.34-.73a5.19,5.19,0,0,1-.17,2.16C213.52,104.35,213.44,103.71,213.53,102.52Zm59.82,31.84c.09-1.19.24-1.52.33-.73a5.08,5.08,0,0,1-.17,2.17c-.18.39-.25-.25-.16-1.44ZM216,92.7c.22-3.19.4-4.35.4-2.57a48,48,0,0,1-.39,5.79c-.22,1.41-.22,0,0-3.22Zm56.67,36.78a11.45,11.45,0,0,1,.11-3.14c.27-1.58.35-1.34.4,1.3q.09,5-.51,1.84ZM223.73,99a29.23,29.23,0,0,1,0-5.63l.34-4.07L224.3,94C224.52,99.17,224.24,101.65,223.73,99Zm17.86,6.39-1-4,3.94-4.58c4.53-5.27,5.45-4.12,2.1,2.61a44,44,0,0,0-2.71,6.75c-1,3.84-1.24,3.76-2.36-.79Zm16.46,9.6c.22-3.22.65-4.32,2.74-7,1.36-1.75,2.45-2.8,2.43-2.34-.08,1.52-3,9.25-4.21,11.22l-1.21,1.94ZM232.89,97.57a9.71,9.71,0,0,1-.17-3.12c.15-2.2.31-2.33,1.8-1.42s1.63,1.16,1.45,3.9c-.17,2.55-.35,2.8-1.47,2.12A4.91,4.91,0,0,1,232.89,97.57ZM221.2,86.63a31.34,31.34,0,0,1-.85-6.14c.12-2.83-.83-4.66-2.13-4.09-.9.4-1,.33-.55-.65a8.58,8.58,0,0,0,.49-1.33c0-.13.49.23,1.08.8a3.14,3.14,0,0,1,1,1.69c0,.35.58,1,1.34,1.48a3.7,3.7,0,0,1,1.61,2.06,1.52,1.52,0,0,0,1.13,1.31c.74.07.79.44.32,2.32-.32,1.23-.79,3.37-1.06,4.76-.64,3.37-1.28,2.79-2.4-2.21ZM228.51,91a26.48,26.48,0,0,1-.95-4.15c0-.34.57,1.19,1.21,3.39a20.8,20.8,0,0,1,.95,4.16,13.33,13.33,0,0,1-1.21-3.4Zm11.3,8c0-.15.48-.46,1-.69.93-.37.94-.34.19.4s-1.27.88-1.23.29ZM217,83.46c.09-.83.23-.92.36-.24s.06,1.24-.13,1.37-.3-.38-.23-1.13Zm48.75,28c.22-2.21.28-2.3.36-.49s.21,2.13,1.07,1.8.66-.11-.17.6c-1.51,1.3-1.57,1.21-1.26-1.91Zm7.11,4.52c.09-1.19.24-1.52.33-.73a5,5,0,0,1-.17,2.16c-.18.4-.25-.25-.16-1.43ZM258,107.5c0-.3.87-1,1.87-1.69l1.83-1.15-1.39,2c-1.24,1.79-2.45,2.23-2.31.85Zm-1.87-3.41c0-1.7.11-1.75.51-.33.26.91.24,1.79,0,2s-.49-.55-.47-1.65Zm-38.58-24c-.4-2.14-.21-2.52.33-.66.27.92.37,1.76.21,1.86S217.71,80.81,217.56,80.05Zm25.35,15.06c0-.39.31-.56.63-.37a.6.6,0,0,1,.19.87c-.21.29-.5.46-.63.38A1.2,1.2,0,0,1,242.91,95.11Zm14.54,9.1c-.57-1.22-.28-1.93.57-1.41a1.85,1.85,0,0,1,.75,1.58C258.69,105.51,258,105.42,257.45,104.21Zm11.09,7c0-.15.48-.46,1-.69.93-.37.95-.33.19.4S268.5,111.77,268.54,111.17Zm-34.6-29.43.81-6.67-1.41-.85c-.77-.48-1.58-.63-1.79-.34-.55.73-2-2.51-1.58-3.5.19-.43,1.3-.24,2.52.43,2.08,1.16,2.19,1.34,2.37,3.93.25,3.69.94,4.48,2.14,2.48.92-1.54.94-1.93.26-4.54s-.82-2.79-1.52-2-.78.47-.79-2.18c0-3.29.86-4.82,2.27-4,1,.6,1,1,.57,5.44-.27,2.7-.16,3.12,1,3.91.7.48,1.63,1.17,2.08,1.52s1.11.88,1.48,1.17a2.12,2.12,0,0,1,.6,1.64c-.13,2-1.36,2.18-3.53.58l-2.09-1.55-.44,6.6-.44,6.6-1.65-1-1.64-1Zm31.53,25.14c.08-.83.22-.92.36-.24s.06,1.24-.14,1.37-.3-.38-.22-1.13Zm7,4.35c0-.6.31-.94.6-.76s.36.72.14,1.21-.48.84-.6.77A2.12,2.12,0,0,1,272.52,111.23ZM225.65,81.92c.09-.83.23-.92.36-.24s.06,1.23-.13,1.36-.3-.37-.23-1.12Zm1.78.2c-.51-2.2-.49-2.25.26-.66a4.61,4.61,0,0,1,.56,2.38c-.14.35-.51-.42-.82-1.72Zm17.85,10.79a4.33,4.33,0,0,1,1.65-1.45c.63-.28.46.15-.44,1.12C244.88,94.31,244.31,94.46,245.28,92.91ZM232.71,80.62c.2-3,.38-4.16.39-2.59a39.72,39.72,0,0,1-.36,5.43C232.52,84.89,232.51,83.6,232.71,80.62Zm4.8,7a9.84,9.84,0,0,1-.17-2.21c0-.46.28.09.5,1.22a5.36,5.36,0,0,1,.17,2.21c-.13.09-.35-.46-.5-1.22Zm33.31,20.21c-.35-1.85-.17-4,.35-4.12.24,0,.36,1.19.27,2.75-.18,3.16-.25,3.33-.62,1.37Zm-7.71-7.31c0-1.21.12-2.14.24-2.07.4.25.51,4.11.12,4.19-.21,0-.37-.91-.36-2.12Zm8.91,6.62c-.13-.69,0-1.29.26-1.35s.59.47.72,1.15,0,1.29-.25,1.35S272.15,107.86,272,107.18Zm-21.79-14c-.13-.69,0-1.31.38-1.38s.55-1.29.47-2.94c-.1-1.94,0-2.38.31-1.41.58,1.82.41,4.56-.3,4.7-.3.06-.44.67-.31,1.36s.11,1.18,0,1.09a3.27,3.27,0,0,1-.51-1.42Zm16.69,9.33a8.14,8.14,0,0,0-.45-2.73c-.27-.66-.12-.51.32.33a4.41,4.41,0,0,1,.45,2.73c-.32,1.08-.35,1-.32-.33Zm-2.48-1.79c-.15-.48,0-.92.32-1s.55.39.51,1C265.18,102,264.84,102,264.44,100.72ZM247.89,89.4c.08-.82.22-.92.35-.23s.07,1.23-.13,1.36-.3-.38-.22-1.13Zm1.25-1.06c.07-1,.22-1.33.33-.74a3.49,3.49,0,0,1-.12,1.82c-.18.4-.28-.08-.21-1.08ZM229.89,74.56c-.12-.38.35-.35,1,.07s1.13.94,1,1.16-.63.18-1-.07A2.38,2.38,0,0,1,229.89,74.56Zm10.54,6.69c0-.15.52-.15,1.14,0s1,.5.77.76C242,82.47,240.39,81.82,240.43,81.25Zm2.86-.23c0-.4.31-.57.63-.38a.6.6,0,0,1,.19.87c-.21.29-.5.46-.63.38A1.17,1.17,0,0,1,243.29,81Zm.76-2.24c.09-.83.23-.92.36-.24s.06,1.23-.13,1.36S244,79.53,244.05,78.78Zm-1.5-3.9c-.44-1.07-.82-1.42-1.25-1.14a2.14,2.14,0,0,1-1.87-.35c-1-.63-1.22-1.13-1.05-2.71s.22-1.7.33-.18c.13,1.81,1.83,3.49,2.54,2.52.48-.64,1.78.86,2.07,2.42s0,1.36-.77-.56ZM234,63.28c.21-.28.49-.45.62-.37s.22.47.2.87-.31.57-.63.37A.58.58,0,0,1,234,63.28Zm4.48,1.44c-.22-1.21-.16-1.26.34-.22.34.72.46,1.41.28,1.53s-.46-.47-.62-1.31Zm-3.06-3c.32-.21,1,0,1.57.52.74.67.59.77-.58.38-1-.34-1.36-.66-1-.9Z"/></g></g></g></g></svg>