<svg xmlns="http://www.w3.org/2000/svg" xmlns:xlink="http://www.w3.org/1999/xlink" viewBox="0 0 200.96 281.51">
    <defs>
        <style>
            .cls-1 {
                fill: #ccc;
            }
            .cls-2 {
                fill: #1e1e1e;
            }
            .cls-3 {
                fill: #d3d3d3;
            }
            .cls-4 {
                fill: url(#linear-gradient);
            }
            .cls-5 {
                fill: #fff;
                opacity: 1;
                isolation: isolate;
            }
            .cls-6 {
                fill: #cfcfcf;
            }
            .cls-7 {
                fill: #b0b0b0;
            }
            .cls-8 {
                fill: #8c8c8c;
            }
            .cls-9 {
                fill: #707070;
            }
            .cls-10 {
                fill: #4f4f4f;
            }
            .cls-11 {
                fill: #2f2f2f;
            }
            .cls-12 {
                fill: #0b0b0b;
            }
        </style>
        <linearGradient id="linear-gradient" x1="171.24" y1="2854.77" x2="104.86" y2="2543.28" gradientTransform="translate(0 -2553.49)" gradientUnits="userSpaceOnUse">
            <stop offset="0.06" stop-color="#666" stop-opacity="0.23" />
            <stop offset="0.88" stop-color="#fff" stop-opacity="0" />
        </linearGradient>
    </defs>
    <g id="Layer_2" data-name="Layer 2">
        <g id="Layer_1-2" data-name="Layer 1">
            <g id="Layer_2-2" data-name="Layer 2">
                <g id="Layer_1-2-2" data-name="Layer 1-2">
                    <g id="Layer_2-2-2" data-name="Layer 2-2">
                        <g id="Layer_2-2-2-2" data-name="Layer 2-2-2">
                            <path id="Path_6901" data-name="Path 6901" class="cls-1" d="M27.69,74.74c18-45.2,57.06-51.11,87.1-13.19s39.94,105.27,22,150.46S79.68,263.1,49.64,225.23,9.7,120,27.69,74.74Z" />
                            <path
                                id="Path_6902"
                                data-name="Path 6902"
                                class="cls-2"
                                d="M24.1,70.21C43.27,22,84.85,15.71,116.94,56.1s42.57,112.23,23.39,160.41S79.6,271.1,47.49,230.6,4.92,118.37,24.1,70.21ZM136.66,212c18-45.19,8.16-112.57-22-150.46s-69.1-32-87.1,13.19-8.16,112.56,22,150.49,69.18,32,87.09-13.22"
                            />
                            <path
                                id="Path_6904"
                                data-name="Path 6904"
                                class="cls-3"
                                d="M133.77,8.1a64.92,64.92,0,0,0-9-4.36,56.49,56.49,0,0,0-8.35-2.51A48.74,48.74,0,0,0,100.31.37L63.74,5.56a45.48,45.48,0,0,1,8-.25,50.09,50.09,0,0,1,8.09,1.08,55,55,0,0,1,8.35,2.53,63.7,63.7,0,0,1,9,4.34,78.59,78.59,0,0,1,10.43,7.2A106.84,106.84,0,0,1,122,34.75l2.38,2.82A156.47,156.47,0,0,1,142,65.81,198.42,198.42,0,0,1,152.3,90.92c1.6,4.76,3.8,11.61,5.23,17.12h-.21q1.86,7.5,3.23,15.12,1.29,7,2.13,14.1c.54,4.54,1,9.11,1.24,13.66s.44,9.09.46,13.6-.1,9.37-.38,14q-.45,7.6-1.43,14.87c-.8,6-1.9,11.83-3.2,17.54h0a153.05,153.05,0,0,1-6.63,21.26c-11.72,29.43-30.31,46-50.87,48.93l36.56-5.22C159,273,177.58,256.46,189.3,227a153.05,153.05,0,0,0,6.63-21.26q2-8.58,3.22-17.54,1-7.32,1.42-14.88c.27-4.62.4-9.3.39-14s-.18-9.06-.46-13.61-.7-9.11-1.26-13.65-1.27-9.42-2.13-14.1q-1.37-7.59-3.23-15.1c-1.47-5.84-3.12-11.58-5-17.21a202.6,202.6,0,0,0-10.29-25.15h0a158.28,158.28,0,0,0-17.67-28.25l-1.24-1.54h0a107.77,107.77,0,0,0-15.46-15.56A78.12,78.12,0,0,0,133.77,8.1Z"
                            />
                            <path
                                id="Path_6905"
                                data-name="Path 6905"
                                class="cls-1"
                                d="M11.67,54.55C35-3.9,85.4-11.54,124.36,37.46S176,173.65,152.76,232.1,79,298.27,40,249.24-11.61,113.1,11.67,54.55Zm128.66,162c19.18-48.17,8.7-120-23.39-160.45S43.27,22,24.1,70.21s-8.72,120,23.39,160.42,73.67,34.11,92.84-14.09"
                            />
                            <path
                                id="Path_6904-2"
                                data-name="Path 6904-2"
                                class="cls-4"
                                d="M133.78,8a63.81,63.81,0,0,0-9-4.36,56.49,56.49,0,0,0-8.35-2.51,48.9,48.9,0,0,0-16.14-.8L63.75,5.56a47.49,47.49,0,0,1,8-.24A50.09,50.09,0,0,1,79.84,6.4a56.21,56.21,0,0,1,8.35,2.53,63.7,63.7,0,0,1,9,4.34,78.66,78.66,0,0,1,10.43,7.21A107.36,107.36,0,0,1,122,34.76l2.38,2.82A155.37,155.37,0,0,1,142,65.82a198.42,198.42,0,0,1,10.29,25.11c1.6,4.76,3.8,11.6,5.23,17.12h-.21c1.24,5,2.32,10,3.23,15.12q1.29,7,2.13,14.1c.54,4.54,1,9.11,1.24,13.65s.44,9.1.46,13.6-.1,9.38-.38,14c-.3,5.08-.77,10-1.43,14.88-.8,6-1.9,11.83-3.2,17.54h0a153.05,153.05,0,0,1-6.63,21.26c-11.72,29.43-30.31,46-50.87,48.92l36.56-5.21c20.58-3,39.13-19.49,50.85-48.89a153.05,153.05,0,0,0,6.63-21.26q2-8.55,3.22-17.54,1-7.32,1.42-14.88c.27-4.62.4-9.3.39-14s-.18-9.05-.46-13.6-.7-9.11-1.26-13.65S198,122.67,197.12,118q-1.37-7.62-3.23-15.1c-1.47-5.84-3.12-11.59-5-17.22a203.46,203.46,0,0,0-10.29-25.1h0a158.28,158.28,0,0,0-17.67-28.25l-1.24-1.54h0a108.28,108.28,0,0,0-15.46-15.56A80,80,0,0,0,133.78,8Z"
                            />
                        </g>
                    </g>
                </g>
            </g>
            <g id="layer1">
                <polygon id="rect820" class="cls-5" points="48.8 94.19 92.55 120.8 88.66 178.61 44.91 152 48.8 94.19" />
                <polygon id="rect820-3" class="cls-5" points="42.28 124.5 84.13 141 91.37 183.19 49.52 166.69 42.28 124.5" />
                <ellipse id="path839" class="cls-5" cx="51.28" cy="149.81" rx="5.67" ry="8.41" transform="matrix(0.14, -0.99, 0.99, 0.14, -104.34, 178.99)" />
                <polygon id="rect841" class="cls-5" points="46.58 153.96 62.13 157.22 65.11 178.9 49.56 175.64 46.58 153.96" />
                <ellipse id="path839-6" class="cls-5" cx="53.42" cy="167.52" rx="8.84" ry="7.52" transform="translate(-81.83 55.16) rotate(-32.6)" />
                <ellipse id="path839-6-7" class="cls-5" cx="54.76" cy="174.63" rx="5.64" ry="11.78" transform="translate(-113.94 103.67) rotate(-49.78)" />
                <ellipse id="path839-6-7-5" class="cls-5" cx="60.99" cy="171.86" rx="8.99" ry="15.29" transform="translate(-64.44 39.48) rotate(-23.92)" />
                <ellipse id="path839-6-7-5-3" class="cls-5" cx="68.26" cy="178.7" rx="8.99" ry="15.29" transform="translate(-66.59 43.02) rotate(-23.92)" />
                <ellipse id="path839-6-7-5-3-5" class="cls-5" cx="81.14" cy="184.29" rx="8.99" ry="15.29" transform="translate(-67.75 48.72) rotate(-23.92)" />
                <g id="g864">
                    <path
                        id="path878"
                        class="cls-6"
                        d="M71.87,209.06a17.59,17.59,0,0,1-2.21-4.81c-.57-2.48-.67-2.55-10.23-6.85-2.87-1.29-3.19-1.6-5.33-5.31-1.51-2.63-2.28-4.63-2.31-6A5.1,5.1,0,0,0,50.72,183a3.8,3.8,0,0,1-.91-2.85,2.37,2.37,0,0,0-.75-2.29c-4.14-2.52-6-11.77-3-14.46,1.33-1.17,1.44-1.58,1-4a7.76,7.76,0,0,0-.92-2.93,1.81,1.81,0,0,1-.35-1.39c0-.62-.18-1.08-.5-1-.73.15-3.09-4.83-3-6.33a3.49,3.49,0,0,1,1.56-2.14,2,2,0,0,0,1-2.68,12.76,12.76,0,0,1-.35-3.41,6.83,6.83,0,0,0-.34-2.72c-.47-1-2-11.45-2.25-15.44a11,11,0,0,1,.59-4c.87-2.23.61-4.16-.68-4.94-1.68-1-3.14-5.21-3-8.7.06-2,.33-3.1.74-2.86a1.11,1.11,0,0,0,1.13,0c.29-.22.2-.34-.22-.28-.68.1-.94-1-.33-1.38.32-.21,2-14.54,2.22-19.27s.72-5.88,2-4.69a3.08,3.08,0,0,1,1,1.69c0,.35.56,1,1.3,1.45a4.8,4.8,0,0,1,1.79,2.41c.39,1.41.52,1.4,1.15-.06,1.19-2.78,4.57.83,3.52,3.76-.27.74,0,2.78.56,5.09l1,3.87L55.94,90c1.64-4.55,2.48-15,1.16-14.35-1.52.69-3.5-2.58-3.31-5.46s1.39-3.55,3.57-1.56l1.69,1.56-.12-3.36c-.25-6.43,3.57-6.8,5.62-.55.59,1.78.63,2.58.16,2.89-1,.69-.94,3,.16,3.64A1.72,1.72,0,0,0,66.5,73c.93-.62,3.31,5,3,6.94-.41,2.27-2.23,2.64-4.29.87l-1.75-1.49L63.16,83a40.44,40.44,0,0,0,.38,7.5c.34,2.09.42,4.07.18,4.4s-.18.54.19.46.74.69.9,1.72c.27,1.81.29,1.82,1.71.48A5.45,5.45,0,0,0,68,95.66a2.78,2.78,0,0,1,1.09-1.34,9.62,9.62,0,0,0,4-6.33c.4-2.36.67-2.64,2-2.06S76.56,87,76.76,88.8a5.42,5.42,0,0,1-.39,3c-.46.61-.31,2.42.58,6.83a52.42,52.42,0,0,1,1.11,7.64c-.22,3.81,3,.84,3.33-3,.17-2.24.38-2.46,1.71-1.86A2.91,2.91,0,0,1,85,104c.33,1.84.4,1.84,2,0,.89-1.06,1.5-2.3,1.36-2.75-.58-1.88.65-4,1.89-3.21,2.33,1.42,3.12,4.78,1.45,6.1-.71.56-.79,1.39-.45,5l.4,4.28,2.22-2c1.9-1.74,2.2-2.42,2.08-4.78s.06-2.77,1.11-2.87c2.41-.24,4.46,6.08,2.37,7.3-1,.57-1.09,1.34-1.14,8.85,0,4.53.14,9.91.37,12,.35,3.15.26,4-.59,5.33-1.74,2.75-2.49,4.43-2.49,5.6,0,1.49-.5,7.72-1.16,14.38-.58,5.78-3.72,14-4.76,12.45-.31-.48-.4-.38-.21.25A7.08,7.08,0,0,0,92,172.29c2.38,1.46,8.08,8.21,7.54,8.93a6.38,6.38,0,0,0,.69,2.88l1,2.47-.77-2.54c-.42-1.39-.52-2.39-.23-2.21a3.31,3.31,0,0,1,.9,1.58,15.6,15.6,0,0,0,2,3.45c2.6,3.51,4.35,8.32,3.83,10.51-.25,1-.23,2,0,2.15.82.5,2.55,6.8,2.13,7.77-.22.5-.16.86.13.8.75-.15,1.16,3.11.87,6.91-.25,3.34-1.75,7.29-3.11,8.19-1,.69-5.74.17-7-.78-1.65-1.24-2.27-1.42-3.12-.86-2.51,1.66-12.69-2.07-14.16-5.19-.41-.88-1-1.25-2.37-1.44-2.85-.4-6.63-3-8.53-5.85Zm1.53-18.25c2.56.13,4.79-1.43,4.89-3.4,0-.65-.36-.35-.86.67a3.8,3.8,0,0,1-2.7,2c-2.58.19-11-3.8-17.91-8.51-9.54-6.48-11.06-8.51-10.71-14.3.15-2.36.07-2.63-.51-1.78-.92,1.33-.16,6.86,1.19,8.72,3.41,4.72,22.1,16.39,26.61,16.62ZM55.18,174.26a5.2,5.2,0,0,0-1.91-1.16c-.54-.14-.12.27.93.91s1.49.75,1,.25Zm15.43,8.85c4.07.51,6.17-4.9,3.84-9.86-1.32-2.8-1.45-2.91-6.11-5.26-2.62-1.33-8.37-4.39-12.79-6.82l-8-4.4.41,2.59a22.92,22.92,0,0,1,.22,4.56c-.17,1.74,0,2,1.18,2.34s1.45.78,1.77,2.39c.26,1.33.44,1.62.52.85.16-1.7,1.94-1.31,2.62.58.41,1.11.7,1.38,1,.95s1.07,0,1.94.73,1.76,1.1,2.28.63c.7-.62.88-.46,1.66,1.5.68,1.72.89,1.94,1,1,.12-1.79,2.14-.17,2.46,2l.28,1.86.58-1.39c.79-1.89,2.45-.36,2.5,2.3,0,1.8-.17,1.94-1.79,1.23s-1.65-.69.36.59a12.22,12.22,0,0,0,4.12,1.63ZM49.23,160.88c-.78-1.66-.15-2.63,1.19-1.81,1,.63,1.33,1.15,1.13,2C51.27,162.27,49.83,162.16,49.23,160.88Zm4.37,2.66c-.79-1.66-.18-2.75,1-1.79a2.92,2.92,0,0,1,1.14,2.05c-.08,1.15-1.56,1-2.14-.26ZM58,166.16c-.84-1.78-.1-2.57,1.49-1.6,1.33.8,1.61,1.23,1.29,2a6.54,6.54,0,0,0-.43,1.25c0,.49-2-.86-2.35-1.62Zm4.64,1.49c.09-1.4.4-1.69,1.25-1.18s1.06,1.06.85,2.21C64.27,170.93,62.43,170,62.59,167.65Zm4,1.85c.42-2.17,1.72-1.64,1.56.63-.08,1.22-.42,1.69-1,1.35s-.76-1-.58-2ZM69,171.32c-.59-1.26-.19-2.61.64-2.11a1.82,1.82,0,0,1,.74,1.54C70.25,172,69.42,172.31,69,171.32Zm14.24,6.92a.6.6,0,0,0-.19-.87c-.32-.2-.6,0-.63.37a1.16,1.16,0,0,0,.19.87c.13.08.42-.09.63-.37ZM47.63,153.41c0-.3-.77-.95-1.75-1.44-1.67-.84-1.78-1.05-1.63-3.18.08-1.26,0-2.25-.28-2.2-.53.1-.83,3.84-.38,4.8s4,2.71,4,2Zm10.07,5.68c.59-.78-2.31-7.11-3.3-7.2-1.58-.15-2.37,1.85-1.48,3.74S57.15,159.84,57.7,159.09Zm30.16,14.67a8.66,8.66,0,0,0,1.11-3c-.11-.23-.93,1-1.82,2.68s-1.39,3-1.1,3A7.61,7.61,0,0,0,87.86,173.76Zm-9.13-3.66c8.18-1.23,12.22-7.09,9.59-13.9-1.21-3.15-2.38-4.13-1.33-1.13.92,2.66.7,6.49-.49,8.44-.91,1.48-4.93,4.18-8.58,5.74-2.36,1-2.1,1.29.81.85Zm-11.51-8.66c1.35.07,2.13-.52,2.7-2,2.46-6.62-4.14-14.25-10.45-12.07l-2.47.85,1.89,4.15C61.89,158.93,64,161.27,67.22,161.44ZM52.36,150c2.24-1.06,2.37-2.53.58-6.21s-4.38-6-6.2-5.57c-1.23.3-1.36.69-1.17,3.55.41,6.28,3.36,9.85,6.79,8.23Zm40.37,23.71a5.2,5.2,0,0,0-1.91-1.16c-.54-.13-.12.28.93.91s1.49.76,1,.25ZM52.8,140.18c-1.28-2.94-4.12-5.84-5.58-5.7-1.65.16-1.53.34,1.52,2.13a8.16,8.16,0,0,1,3.58,3.44C53.51,142.57,53.88,142.68,52.8,140.18Zm13.09,5.71c3.35,1.67,3.71,1.73,2.23.38-2.61-2.4-6.9-3.51-8.57-2.23l-1.42,1.1,1.89-.62C61.42,144.06,62.94,144.41,65.89,145.89ZM44.52,132.78c-.23-1.13-.45-1.69-.5-1.23-.12,1.1.37,3.63.67,3.43A5.31,5.31,0,0,0,44.52,132.78ZM93.05,160c-.14-.69-.28-.59-.36.23s0,1.26.22,1.13.26-.74.14-1.36ZM44.31,128.62a3.17,3.17,0,0,0-.23-2.33c-.41-.47-.59,0-.53,1.53.11,2.74.28,2.91.76.8Zm5.48,3.17a2.42,2.42,0,0,0-1.36-.83c-.39,0-.1.33.66.78S50.15,132.22,49.79,131.79Zm13.38,8.12a5.1,5.1,0,0,0-1.91-1.17c-.54-.13-.12.28.93.92S63.69,140.41,63.17,139.91ZM78,148.11a23.23,23.23,0,0,0-3.82-2.32c-1-.43-.06.26,2,1.54s2.91,1.62,1.78.78Zm15.93,7.78c-.12-.59-.27-.26-.34.74s0,1.48.22,1.07A3.57,3.57,0,0,0,93.88,155.89Zm-10.4-5.14a7,7,0,0,0-2.18-1.35c-.69-.24-.28.17.92.91s1.77.94,1.26.44Zm3.59,1.44a2.45,2.45,0,0,0-1.36-.83c-.39,0-.1.33.65.78S87.43,152.62,87.07,152.19Zm-23.5-18.08a7.16,7.16,0,0,0-2.18-1.34c-.7-.24-.28.17.92.91s1.77.93,1.26.43Zm3.8,2.38a1.4,1.4,0,0,0-1-.7c-.45,0-.34.22.3.64s.9.41.74.06Zm-12-8.09a5.2,5.2,0,0,0-1.91-1.16c-.54-.14-.12.28.93.91s1.49.76,1,.25Zm23.76,14.48a3.64,3.64,0,0,0-1.63-1c-.55-.13-.26.21.64.77s1.35.68,1,.26Zm-28.1-17.8a1.39,1.39,0,0,0-1-.7c-.45,0-.33.22.3.64s.91.41.74.06Zm17.33,9a3.8,3.8,0,0,0-1.64-1c-.54-.14-.25.21.65.77s1.34.68,1,.25Zm26.12,12.43c-.07-1-.22-.48-.33,1.11s0,2.39.13,1.78a10.11,10.11,0,0,0,.2-2.89ZM44.27,118.8a2.86,2.86,0,0,0-.49-1.1c-.29-.43-.54-.44-.57,0a1.27,1.27,0,0,0,.49,1.1C44,119,44.26,119,44.27,118.8ZM77.74,139a3.74,3.74,0,0,0-1.64-1c-.54-.14-.25.21.65.77s1.35.68,1,.25ZM43.43,112.13a1.41,1.41,0,0,0-1-.7c-.45,0-.34.22.3.64s.9.41.74.06Zm-3.93-9.62c-.13-.68-.27-.59-.36.24s0,1.26.23,1.13.26-.75.13-1.37Zm5.31,1a8.51,8.51,0,0,0-2.37-2.81c-.83-.46-.66-.12.58,1.14a8.17,8.17,0,0,1,2,3.06c.13.7.41,1.17.61,1S45.47,104.75,44.81,103.55ZM42,90.44c0-1.37-.2-.37-.38,2.22s-.14,3.71.07,2.49A30,30,0,0,0,42,90.44Zm55.72,40.1a2.91,2.91,0,0,0-1.21-1.44c-.76-.42-.73-.28.12.77C98.08,131.59,98.1,131.61,97.76,130.54ZM59.39,99.17a3.73,3.73,0,0,0-1.64-1c-.54-.14-.25.21.65.77s1.34.68,1,.26Zm-1.13-11.7c.09-2.23.07-2.28-.43-.82a5.37,5.37,0,0,0-.34,2.24c.38,1.42.67.89.77-1.42Zm-14.5-9.38c.21-.7.15-1.22-.14-1.17s-.55.58-.59,1.15c-.1,1.5.29,1.51.73,0ZM62.44,88.32A3.87,3.87,0,0,0,62,86.91c-.12-.07-.25.36-.29,1a1.7,1.7,0,0,0,.45,1.41C62.44,89.45,62.57,89,62.44,88.32ZM58.9,76.17c-.09-.78-.24-.28-.34,1.12s0,2,.17,1.42a7.73,7.73,0,0,0,.17-2.54Z"
                    />
                    <path
                        id="path876"
                        class="cls-7"
                        d="M71.91,209.13a19.1,19.1,0,0,1-2.13-4.26c-.63-2.33-.57-2.92.17-1.8.33.49.48.51.33,0-.25-.82-1.61-1.53-10.78-5.66-2.4-1.08-3.4-1.76-3.13-2.12s0-.75-.54-1a1.57,1.57,0,0,1-.9-1.32,4.29,4.29,0,0,0-.41-1.76c-.27-.52-.32-.42-.13.24.56,1.92-.57.71-1.71-1.84a10.54,10.54,0,0,1-1-3.93,3.82,3.82,0,0,0-1-2.66,3.78,3.78,0,0,1-.94-2.89,2.37,2.37,0,0,0-.75-2.29c-4.14-2.52-6-11.78-3-14.46,1.33-1.17,1.44-1.58,1-4a7.76,7.76,0,0,0-.92-2.93,1.81,1.81,0,0,1-.35-1.39c0-.62-.18-1.08-.5-1-.73.15-3.08-4.83-3-6.33a3.49,3.49,0,0,1,1.56-2.14,2,2,0,0,0,1-2.68,12.76,12.76,0,0,1-.35-3.41,6.83,6.83,0,0,0-.34-2.72c-.47-1-2-11.45-2.25-15.44a11,11,0,0,1,.59-4c.87-2.23.61-4.16-.68-4.94s-3-4.86-3.2-8.18c-.17-2.46.06-3.21,1.39-4.56s1.63-2.22,1.85-7l.26-5.36-.74,5.2c-.53,3.68-.51,3,0-2.23.44-4.09.85-8.76.92-10.37.21-4.71.7-5.91,1.93-4.71a3.08,3.08,0,0,1,1,1.69c0,.35.56,1,1.3,1.45a4.8,4.8,0,0,1,1.79,2.41c.39,1.41.52,1.4,1.15-.06,1.19-2.78,4.57.83,3.52,3.76-.27.74,0,2.78.56,5.09l1,3.87L55.94,90c1.64-4.55,2.48-15,1.16-14.35-1.52.69-3.5-2.58-3.31-5.46s1.39-3.55,3.57-1.56l1.69,1.56-.12-3.36c-.25-6.43,3.57-6.8,5.62-.55.59,1.78.63,2.58.16,2.89-1,.69-.94,3,.16,3.64A1.72,1.72,0,0,0,66.5,73c.93-.62,3.31,5,3,6.94-.41,2.27-2.23,2.64-4.29.87l-1.75-1.49L63.16,83a41.47,41.47,0,0,0,.52,8.13c1.35,7.68,1.38,7.93.62,5.44-.4-1.27-.74-2.11-.77-1.85-.09.8,2.52,12,2.85,12.17.17.1,0-1.1-.44-2.67-.62-2.38-.61-3,.06-3.93s.71-1-.18-.62c-.57.26-.95.13-.92-.33a1.31,1.31,0,0,1,1.86-.88.9.9,0,0,0,.87-.17c.29-.23.17-.33-.3-.26s-.69-.15-.47-.73.6-.69.93-.49a1.33,1.33,0,0,0,1.39-.25c.68-.53.64-.56-.24-.24s-1,.21-.94-.8c0-.64.33-1.06.63-.93l1.06.46a1.17,1.17,0,0,0,1-.17c.29-.23.2-.34-.22-.28a.53.53,0,0,1-.67-.56c.07-1,2.52-3.19,2.93-2.58.2.3,1,.25,1.81-.11L76,90.73,74.38,91l-1.61.29.38-3c.34-2.7.53-3,1.87-2.35s1.54,1.07,1.73,2.74a7.52,7.52,0,0,1-.26,3.1c-.66,1.37-1,4.09-.46,4,.72-.14,2.22,9.59,1.76,11.48-.56,2.34.15,3.32,1.57,2.15.62-.51.81-.88.41-.81-1.07.17-.78-1.18.37-1.68.85-.37.91-.32.45.37-.32.48-.32.69,0,.51s.64-1.83.76-3.69c.21-3.15.33-3.33,1.75-2.69A2.9,2.9,0,0,1,85,104c.23,1.27.49,1.69.8,1.28a.5.5,0,0,1,.88,0c.23.35.42,0,.43-.67s.28-1.07.61-.78.58-.41.55-1.89a12.94,12.94,0,0,1,.35-3.53c.49-1.35,2.68-.17,3.51,1.88.68,1.67.26,4-.58,3.3-.61-.54-.65.14-.33,5.83.19,3.47.28,3.7,1.22,3.19.55-.31,1.12-.31,1.27,0s.64.18,1.1-.27c.77-.75.76-.78-.17-.41-1.48.6-1.17-.86.35-1.65.81-.41,1.08-.36.74.15s-.2.64.65.2c1.17-.6,2.79-.15,2.22.62s-.45,16.4,0,20.55c.35,3.16.26,4-.59,5.34-1.73,2.72-2.49,4.43-2.5,5.59-.17,11.82-2.43,25-3.9,22.81-.35-.54-.44-.44-.22.26.53,1.69-1.18,5-1.74,3.4-.35-1-.41-1-.3,0,.1.81,1.14,2,3.08,3.45a33.46,33.46,0,0,1,8.42,10.28c.66,1.26,2,3.53,3,5.05,2.59,4.09,3.74,7.59,3.16,9.62-.32,1.08-.72,1.35-1.12.77s-.11.3.54,1.78,1.41,2.66,1.68,2.61c.88-.18,2.33,8.11,2.09,11.9-.23,3.64-1.68,7.64-3.11,8.54-1.21.77-4.31.34-5-.7-.4-.6-.5-.55-.29.13s-.18.76-1.2.13c-1.19-.73-1.34-1-.67-1.15s.61-.36.22-.61a.8.8,0,0,0-1.06.15c-.23.3-.76.16-1.18-.33s-.64-.5-.43.19.06.76-.44.18a2.76,2.76,0,0,0-2.17-.72c-.78.09-1.21.3-1,.47a3.17,3.17,0,0,0,1.55.19c.61-.06,1.08.17,1.06.5-.15,2.3-12.35-2.36-13.7-5.24-.41-.88-1-1.25-2.37-1.44-2.82-.4-6.63-3-8.49-5.78Zm6,3.81a11.49,11.49,0,0,0-2.73-1.67c-.84-.34-.3.14,1.2,1.06s2.19,1.19,1.53.61Zm11.72,7.2a1.39,1.39,0,0,0-1-.69c-.45,0-.33.21.3.63s.91.41.75.06ZM73.4,209.7a3.53,3.53,0,0,0-.8-1.23c-.47-.55-.7-.56-.53,0C72.34,209.32,73.36,210.28,73.4,209.7Zm7.67,4.21c.48-.12.62-.36.32-.54a2.23,2.23,0,0,0-1.41-.13c-.47.11-.62.36-.32.54A2.24,2.24,0,0,0,81.07,213.91ZM61,197.47a1.39,1.39,0,0,0-1-.69c-.45,0-.33.21.3.64s.91.4.75.05Zm3.12-.86c-.49-1-.56-1-.33.22.15.84.43,1.43.61,1.3S64.46,197.33,64.12,196.61Zm2.43,2.73a1.36,1.36,0,0,0-1-.69c-.45,0-.33.22.3.64s.91.4.74.05Zm42.54,17.88c-.13-.68-.28-.59-.36.24s0,1.26.22,1.13.26-.75.14-1.37ZM69.34,189.77c4.87,2,8.81.94,8.9-2.42,0-1.71,0-1.76-.3-.45-.46,2-3.36,3.24-6,2.6-3.28-.81-19-10.3-22.34-13.51-3-2.9-3.76-4.76-3.48-8.92.2-3,1.8-3.53,1.85-.66.06,3.24,2.71,5.77,12.19,11.63,11.11,6.86,14.12,7,15.16.5.42-2.65.32-3.32-.82-5.35a6.72,6.72,0,0,1-1.07-2.49c.13-.09-4-2.3-9.21-4.91a139.9,139.9,0,0,1-13.66-7.74l-4.2-3,.93,3c1.23,4,1.09,5.16-.76,6.09-1.33.68-1.53,1.21-1.44,4,.19,6,2.85,9,13.49,15.48,6.87,4.19,7.25,4.5,6.47,5.27s-.75.78.34.27c.64-.3,2.41,0,3.93.59Zm-9.28-12.6c-1.28-1-1.47-1.48-1.21-3,.42-2.6,2.13-1.83,2.46,1.11l.26,2.29.45-1.61c.56-2,1.9-1.31,2.46,1.24l.41,1.88.67-1.16c1-1.74,2-1.21,2.27,1.17a5.92,5.92,0,0,1,0,2.22c-.4.2-6.25-2.89-7.79-4.11ZM50,170c-1.24-1.25-1.69-2.13-1.51-2.91.39-1.66,2-.79,2.36,1.24l.26,1.72,1.07-1c1.15-1.07,2.31,0,2.2,2.05-.06,1.14,0,1.16.58.31,1.18-1.72,3.31.77,3.12,3.66C58.05,176,52.33,172.38,50,170Zm-.57-10c.07-1.09.38-1.31,1-.73a2.68,2.68,0,0,1,.87,1.89.76.76,0,0,1-1,.73C49.64,161.65,49.39,161.08,49.46,160Zm4.12,3.51c-.68-1.45-.16-2.61.89-2a2.11,2.11,0,0,1,1,2.11C55.37,165,54.27,165,53.58,163.5ZM58.27,166c-.94-2-.65-2.51.88-1.58,1,.62,1.34,1.16,1.15,2-.33,1.43-1.26,1.26-2-.37Zm4.6,3.21c-.76-1.63-.14-3.37,1-2.7a1.72,1.72,0,0,1,.85,2.16c-.29,1.52-1.22,1.8-1.82.54Zm3.56.45c.06-.89.46-1.29,1-1a1.49,1.49,0,0,1,.6,1.63C67.61,171.91,66.31,171.39,66.43,169.62Zm2.47,1.45c-.35-1.11.25-2.12,1-1.67s.54,2.37-.16,2.51c-.3.06-.67-.32-.83-.84Zm41,42.86c-.14-.68-.28-.59-.36.24s0,1.26.22,1.13.26-.75.14-1.37Zm-.61-5.29c-.5-1.58-.52-1.59-.31-.15a19.91,19.91,0,0,1,.21,2.76c0,1.13,0,1.14.31.16A5.69,5.69,0,0,0,109.27,208.64Zm-.79-3.92c-.5-1-.56-1-.34.22.16.84.44,1.43.62,1.31S108.82,205.44,108.48,204.72ZM79,183.08c-.14-.68-.28-.59-.36.24s0,1.26.22,1.13.26-.75.14-1.37Zm6.72-6.2c1.82-1.83,3.28-4.4,3.34-5.86,0-.49-.82.52-1.85,2.25-1.68,2.81-2.76,3.8-3.63,3.3-.63-.36-3.48,1.19-3.52,1.91-.09,1.33,3.86.21,5.66-1.6Zm20.12,16a12.82,12.82,0,0,0-1.66-3.46c-1-1.35-.93-1,.31,1.94,1.59,3.84,2.14,4.46,1.35,1.52ZM48.21,153.06c0-.27-.82-.83-1.89-1.24-2.21-.86-3-3-1.76-4.71.46-.62.52-1.09.16-1.31-1-.6-1.93,2.53-1.38,4.56a3.15,3.15,0,0,0,2.1,2.49c.93.38,1.59,1,1.57,1.45,0,.82,1.13-.39,1.2-1.24Zm35.91,15.43a9,9,0,0,0,5.07-7.83c.16-2.52-.93-6-2.32-7.52-.47-.49.14-.64,1.44-.34a8.33,8.33,0,0,0,3.11.21c.7-.24.65-.32-.25-.43-2.7-.3-8.3-2.45-14.42-5.54l-6.59-3.33,4.91,3A72.1,72.1,0,0,0,83,151c2.91,1.21,3,1.29,3.85,4.09,1.11,3.64,1,5.65-.6,8.31-1.3,2.2-5.93,5.12-9.67,6.08a5.32,5.32,0,0,0-2.19.87c-.06.87,7.35-.55,9.78-1.87ZM57.75,159c.2-.28-.29-2-1.1-3.88-1.19-2.74-1.65-3.34-2.46-3.18-3,.59-2.37,4.17,1.11,6.28,1.14.7,2.25,1.05,2.45.78Zm42.92,25.26c-.51-1.9-3.36-6.54-4.34-7.09-.3-.16.36.94,1.46,2.46A12.82,12.82,0,0,1,100,184a3.11,3.11,0,0,0,.68,1.86c.27.17.27-.53,0-1.55ZM67.46,161.57c4.93-.37,3.59-10.32-1.84-13.62-2.44-1.49-3.69-1.58-6.7-.5l-1.94.7,1.65,3.65c3.29,7.27,5.75,10,8.83,9.77ZM53,149.69c1.81-1.26,1.88-1.45,1.18-3.47-1.61-4.62-6.34-9.84-7.5-8.28-.77,1-1.26-.08-1.9-4.26-.92-6-.81-6.54,1-5,.81.71,1.12.85.69.32s-1.41-1.79-2.18-2.81c-1.57-2.11-1.58-2.43.14,7.71.47,2.77.89,6,.94,7.18.31,7.37,3.81,11.29,7.67,8.6Zm39.39,23.74c-1-.76-2-1.23-2.33-1s.55.8,1.83,1.37C94.16,174.78,94.17,174.77,92.39,173.43ZM59.25,144.87c2.37-1,5.9.07,9.07,2.72,1.3,1.08,1.78,1.27,1.45.56-1.58-3.34-7.89-6-10.27-4.37A6.85,6.85,0,0,1,57,144.86c-.63.07-.87.31-.54.52S58.06,145.36,59.25,144.87ZM53,140.57c-1.53-3.44-3.34-5.53-5.33-6.15-2.43-.75-1.94.58.77,2.08a9.09,9.09,0,0,1,3.86,3.88c1.92,3.38,2.14,3.44.7.19Zm39.26,22.68c-.14-.69-.28-.59-.36.24s0,1.25.22,1.12.26-.74.14-1.36ZM94.17,151c.33-5.47.26-7.69-.23-8.13s-.45-.29-.15.1c1.23,1.63.21,2.55-2.86,2.54-1.8,0-3,.19-2.56.44a7,7,0,0,0,2.94.29,8.58,8.58,0,0,1,2.6.08c.31.18-.11,3.59-.74,6-.09.35-.26,2.8-.37,5.43-.32,7.8.83,2.15,1.37-6.71Zm-32-11.13c2.63,1.19,1.11.12-5.7-4C51.1,132.55,48.1,131,49.35,132a63.21,63.21,0,0,0,12.83,7.83Zm7,3.71a5.06,5.06,0,0,0-1.91-1.16c-.54-.14-.12.27.93.91s1.49.75,1,.25Zm-.43-6.33c-2.17-1.47-5.73-3.63-7.92-4.82s-.41,0,4,2.66S70.92,138.69,68.75,137.23ZM52.59,126.11c-2.37-2-5.15-4.34-6.18-5.28s-1.74-1.41-1.57-1c.48,1,7.42,7.06,9.87,8.55,1.4.85.64,0-2.12-2.24ZM78.9,142.66a13.44,13.44,0,0,0-3-1.82c-.84-.34-.17.21,1.48,1.21S79.72,143.33,78.9,142.66Zm3.6,1.48a2.46,2.46,0,0,0-1.37-.84c-.39,0-.09.33.66.79S82.86,144.56,82.5,144.14Zm4,1.43c1.45.06,0-.82-1.91-1.16-1.13-.2-1.19-.11-.31.44A5.41,5.41,0,0,0,86.52,145.57ZM44,117.79c-.13-.69,0-1.08.38-.87s.41-.44,0-2.14c-.6-2.3-.56-2.54.46-2.75a1.65,1.65,0,0,0,1.16-1.51c0-1-.09-1-.55,0-1,2.15-3.41,1-4.76-2.24-.63-1.51-1.17-2.39-1.19-2-.09,1.26,1.86,4.94,3,5.62,1.3.79,1.66,2.62,1,5.27-.34,1.44-.3,2,.14,1.94s.54-.69.41-1.38Zm16,11.17a11.73,11.73,0,0,0-2.84-2.16,7.65,7.65,0,0,0-2.89-1.32c-.2.12,1.08,1.1,2.83,2.16S60.09,129.3,59.93,129Zm3.1,1.75A15.8,15.8,0,0,1,61.89,128c-.48-1.56-.54-1.61-.35-.34a15.41,15.41,0,0,1,.18,2.18,1.75,1.75,0,0,0,.91,1.24c.58.34.74.22.4-.33Zm6.74,4.13a26.27,26.27,0,0,0-4.1-2.49c-1.14-.53-.22.16,2,1.52S70.88,135.68,69.77,134.84Zm-18-11.6a1.4,1.4,0,0,0-1.05-.7c-.45,0-.33.22.3.64s.91.41.75.06Zm26,15.71A11.49,11.49,0,0,0,75,137.28c-.84-.34-.3.13,1.2,1.05s2.19,1.2,1.53.62Zm-28.1-17.76a1.34,1.34,0,0,0-1-.7c-.45,0-.33.22.3.64s.91.41.74.06Zm34,20.35c1,.14.51-.19-1.36-1a13.05,13.05,0,0,0-3-1.11c-.46.25,3,1.92,4.36,2.14Zm3.2.77a1.36,1.36,0,0,0-1-.69c-.45,0-.34.22.3.64s.91.4.74.05ZM91,143c.47-.11.62-.35.32-.54a2.18,2.18,0,0,0-1.41-.12c-.48.11-.62.35-.32.53A2.17,2.17,0,0,0,91,143Zm-19.48-13.4,1.39-.71-1.59.31A3.91,3.91,0,0,1,68,128c-1.24-1.08-1.52-1.17-1-.31C68.22,129.59,70,130.35,71.48,129.59ZM56.13,117.1c-.12-.59-.27-.26-.34.74s0,1.48.22,1.07a3.56,3.56,0,0,0,.12-1.81Zm28.36,18.33c.41-.09-.19-.69-1.41-1.41s-2-.94-1.91-.56a4.13,4.13,0,0,0,3.32,2ZM60.6,118.31c-.12-.59-.27-.26-.34.74s0,1.48.21,1.07A3.56,3.56,0,0,0,60.6,118.31Zm12.52,8.41c-.14-.68-.28-.59-.36.24s0,1.25.22,1.12.26-.74.14-1.36Zm13.45,5.43c.33-4.83-3.59-9.58-6.09-7.41-1.15,1-1.15,1,.07.42,2.94-1.39,6.13,3,5.31,7.24-.2,1-.15,1.87.11,1.82s.53-1,.6-2.07ZM41.65,101.08c1.31.46,3.48,3.9,4,6.27.31,1.53.4,1.65.5.6.18-1.84-2.08-6.32-3.68-7.29s-3.23.54-3.34,2.85c0,1,.23.73.75-.64C40.29,101.68,41.1,100.89,41.65,101.08Zm30.81,22.17c-.49-1-.56-1-.33.22.16.84.43,1.43.62,1.3S72.8,124,72.46,123.25Zm24.26,14.2c.66-.64.82-1,.36-.73-2.33,1.2-3.89-2.8-2.44-6.22.49-1.15.54-1.63.14-1.38-1.41.91-1.62,4.31-.44,7.06.63,1.47,1.16,2.61,1.17,2.55a11.21,11.21,0,0,1,1.21-1.28ZM69.38,120c.89.47,1,.41.29-.25-1.06-1-3.23-1-3.3.1,0,.41.37.47.88.13A2.32,2.32,0,0,1,69.38,120ZM98,131.47a4.33,4.33,0,0,0-1.44-2.36c-.76-.41-.79-.34-.15.4a6.5,6.5,0,0,1,1.45,4.86c0,1.7,0,1.73.3.41A8,8,0,0,0,98,131.47ZM71.19,116.83c.76-.73.74-.77-.19-.4-.56.23-1,.54-1,.69C69.92,117.72,70.4,117.6,71.19,116.83Zm3.24-2.74c.6-.47,1-.93.81-1s-.76.22-1.36.69-1,.92-.81,1,.76-.22,1.36-.68ZM62.77,91.78c.19,1.08.47,1.88.63,1.77a4.59,4.59,0,0,0-.3-2.31,33.14,33.14,0,0,1-.69-6.33l-.1-4.21-.41,5c-.23,2.77-.46,5.54-.52,6.16s-.63.81-1.71.15c-1.55-.94-1.59-1.08-1.41-4.69.16-3.11.11-3.4-.33-1.77a54.7,54.7,0,0,0-.62,8.67c-.05,3.71,0,6.19.09,5.52s.68-.94,1.68-.41l1.51.81L59.11,99c-1.33-1.09-1.47-1.51-1.29-4.06s.28-2.8,1.83-1.86l1.63,1-.22,5c-.19,4.29-.12,4,.57-2.1.56-5,.89-6.49,1.14-5.1Zm14.09,20c.59-.46,1-.92.81-1s-.76.21-1.36.68-1,.92-.81,1,.76-.21,1.36-.68Zm12.78,4.59c2-1.38,3-2.25,2.29-1.93-1.24.56-1.28.53-1.4-1.26-.11-1.54-.17-1.5-.35.26a5.1,5.1,0,0,1-2.43,3.62c-1.21.83-2.08,1.59-1.94,1.68A19.43,19.43,0,0,0,89.64,116.38ZM55.31,94.31c-.14-.3-.29-.15-.32.34s-.27.57-.53.18-.37.08-.26,1.06l.2,1.76L55,96.26a3.38,3.38,0,0,0,.32-2ZM43,84.28c-.13-.68-.27-.59-.36.24s0,1.25.23,1.12.25-.74.13-1.36Zm13.11,8c-.14-.69-.28-.59-.36.24s0,1.25.22,1.12.26-.74.14-1.36ZM97.65,116.7c-.12-.59-.27-.25-.34.74s0,1.48.22,1.08a3.61,3.61,0,0,0,.12-1.82ZM83.17,106.58a1.27,1.27,0,0,0-.52-1.07c-.32-.2-.45.06-.29.58a2.49,2.49,0,0,0,.53,1.07c.13.08.26-.18.28-.58Zm-39-29a2.18,2.18,0,0,1,.69,1.2c.13.5.19.45.15-.1-.11-1.42-1.58-2.17-1.74-.89-.08.6,0,.72.15.28s.5-.64.75-.49Zm28,15.71c.76-.73.74-.77-.18-.39-.57.22-1,.53-1,.68,0,.6.44.49,1.23-.29Zm17.35,6.18c.23-.53.16-.88-.17-.81a.87.87,0,0,0-.61.79c-.07,1,.34,1,.78,0ZM58.88,76.55c-.07-1-.22-.48-.33,1.11s-.06,2.39.13,1.78a10.14,10.14,0,0,0,.2-2.89Zm3.63-1.34c0-.65-.25-.52-.65.32-.65,1.39-.7,1.38-1-.26-.42-2-.67-.74-.27,1.39.26,1.37.34,1.41,1.1.58a3.65,3.65,0,0,0,.86-2ZM61.76,73c.18.38.35.33.38-.11.11-1.61-1-2.25-1.7-1s-.66,1.2.11.85a.9.9,0,0,1,1.21.3Zm3,.86a1.37,1.37,0,0,0-1-.7c-.45,0-.33.22.3.64s.91.41.74.06ZM60,68.22c-.14-.69-.28-.59-.36.23s0,1.26.22,1.13S60.12,68.84,60,68.22Zm47,132.42c-.39-.95-.4-1.39,0-1.17.66.4,1.34,2.25.93,2.52-.15.1-.55-.51-.89-1.35Zm-29.07-92c0-.4.31-.57.63-.38a.61.61,0,0,1,.19.88c-.21.28-.5.45-.63.37a1.16,1.16,0,0,1-.19-.87Zm18-1.59c-.16-2.36,0-3,.88-3.3a1.42,1.42,0,0,1,2,1.66c-.12.43.06.73.38.66.7-.14,1.47,3.45,1,4.57-.19.45-.74.32-1.35-.32a2,2,0,0,0-1.84-.71C96.24,110,96.05,109.48,95.88,107.08Zm1.22-1.5c.23-.53.16-.87-.17-.81a.88.88,0,0,0-.61.8C96.25,106.61,96.65,106.62,97.1,105.58Z"
                    />
                    <path
                        id="path874"
                        class="cls-8"
                        d="M71.91,209.13c-1.61-2.41-3-6.14-2.39-6.52.16-.11.4.59.55,1.55.27,1.83,2.55,5.86,3.11,5.49.18-.11-.18-.74-.78-1.38a10.77,10.77,0,0,1-1.8-3.83c-.38-1.46-.93-2.61-1.23-2.55a33.74,33.74,0,0,1-5.88-3c-3.36-2-4.75-2.58-3.75-1.64,1.4,1.31,1.28,1.31-1,0-3.17-1.81-6.93-7.81-7-11.14A5.1,5.1,0,0,0,50.72,183a3.81,3.81,0,0,1-.92-2.76,3.23,3.23,0,0,0-1.36-3c-1.58-1.41-3.76-5.36-3.67-6.66,0-.43.49.33,1,1.71,1.32,3.42,4.92,6.69,12.86,11.65,4.12,2.58,6.45,4.32,6.28,4.69-1.06,2.27-1.06,2.79,0,1.43s1.7-1.39,4.2-.31c3.38,1.46,7.55,1.57,8.37.23a19.83,19.83,0,0,0,1.13-4.7l.58-3.8-.91,3.34c-1.9,7-4.84,6.64-19.17-2.51-10.49-6.69-12.51-8.53-12.89-11.73-.35-2.84,0-5.41.73-5.91.52-.34.54-.57.1-.85-.84-.51-1.46.43-2.12,3.22l-.55,2.33L44.5,167a5,5,0,0,1,1.59-3.64c1.33-1.17,1.44-1.58,1-4a7.76,7.76,0,0,0-.92-2.93,1.81,1.81,0,0,1-.35-1.39c0-.62-.18-1.08-.5-1-.73.14-3.08-4.84-3-6.34a3.57,3.57,0,0,1,1.59-2.16l1.52-1,1.23,2.78c1.54,3.49,3.39,4.18,6.24,2.34,2.32-1.5,2.15-3.4-.71-7.69-3.52-5.27-7.23-5.61-7-.65.1,2,0,2.5-.3,1.54a10.75,10.75,0,0,1-.34-3.26,7.36,7.36,0,0,0-.34-2.85c-.47-1-2-11.45-2.25-15.44a11,11,0,0,1,.59-4c.87-2.23.61-4.16-.68-4.94-1.12-.68-3.12-4.94-3-6.41,0-.57.33,0,.64,1.2a10.23,10.23,0,0,0,2.28,4c2,2.09,2.36,3.6,1.39,6.55-.9,2.76-1,5-.11,2.83l.66-1.6,2.77,2.7c12.24,11.92,35.95,24.91,44.92,24.63a13.26,13.26,0,0,1,2.57.06c.49.29-1,5.83-1.62,6-4.8,1.29-42.06-18.49-47.32-25.12l-2.14-2.7.6,5c.56,4.61,1.6,9.46,1.74,8,0-.33-.22-2.62-.55-5.1-.68-5.09-.56-5.43,1.2-3.4,3.4,3.91,12.85,9.57,35.55,21.3l4.78,2.47.7,2.71c1.49,5.71-.46,9.39-6.53,12.31-6.65,3.2-5.54,3.51-25.33-7.11a51.26,51.26,0,0,1-5.56-3.55c-2.25-1.71-2.48-2-1.94-2.92.92-1.47.83-1.65-1.27-2.46s-2.89-2.64-1.71-4.52c.48-.78.52-1.25.13-1.49-1.1-.67-2,2.19-1.45,4.38a3.23,3.23,0,0,0,2.18,2.67c1.16.48,1.54.89,1.3,1.43a11.92,11.92,0,0,0,.48,4.12,27,27,0,0,1,.67,6.15,16.94,16.94,0,0,0,.14,3.65c1,3.32,19.4,15.58,22.84,15.24,4.06-.4,5.91-5.3,3.78-10-1.34-3-1.56-2.78,3-3,3.92-.21,8.95-2.7,10.41-5.14s1.5-7,.09-10L87,152.63l1.5.43a5.18,5.18,0,0,0,2.09.25c2.43-.75,2.7-.1,2.1,5.22-.47,4.11-1.13,6.21-3.37,10.63-3,6-6,9.65-5.31,6.53.2-.91.18-1.26-.06-.78-.68,1.41-2.81,2.81-3.58,2.34-.39-.23-.6.12-.47.81.66,3.48,8.88-2.12,9.16-6.23.21-3.15,8.3,4.38,11.77,11,.69,1.31,2,3.63,3,5.15,2.59,4.09,3.74,7.59,3.16,9.62-.31,1.05-.72,1.34-1.09.78s.08.84.9,3c2,5.06,3,11.36,2.34,14.89-.37,2.1-.34,2.4.11,1.24s.58-1.13.56-.2c0,1.66-1.72,5.28-2.73,5.89a7.27,7.27,0,0,1-4.29.19c-.2-.12.16-.43.78-.7,1.1-.46,1.09-.48-.11-.44a8.52,8.52,0,0,1-3.43-1.29c-1.2-.73-2.36-1.1-2.57-.82s0,.59.63.7c1,.18,1,.21,0,.43a1.44,1.44,0,0,1-1.41-.35,2.14,2.14,0,0,0-1.81-.42c-.79.09-1.23.3-1,.47a3.06,3.06,0,0,0,1.55.19c.61-.06,1.09.17,1.06.5s-1.65.4-3.61.14c-3.87-.53-10-4.06-9.94-5.7a4.11,4.11,0,0,0-.4-1.75c-.26-.51-.33-.47-.17.1.85,3-7.9-1.45-10.44-5.25Zm8.32,4.6c.94,0,1.21-.17.59-.28A29.66,29.66,0,0,1,76.66,212l-3-1.28,2.45,1.56a9.31,9.31,0,0,0,4.16,1.49Zm5.28,3.88a2.48,2.48,0,0,0-1.36-.83c-.39,0-.09.33.66.79S85.88,218,85.51,217.61ZM89.35,220a3.8,3.8,0,0,0-1.64-1c-.54-.14-.25.2.65.77s1.34.67,1,.25Zm3.19.93c1.06-.25.2-.77-1.36-.83-.75,0-.86.14-.32.49a2.49,2.49,0,0,0,1.68.34ZM56.76,195.06a13.5,13.5,0,0,0-1.4-2.4l-1.42-2.13,1.19,2.28C56.29,195,56.73,195.63,56.76,195.06Zm9,3.43a6.7,6.7,0,0,1-2.07-4.39c-.19-1.46-.41-2.11-.48-1.45-.3,2.74.83,5.63,2.58,6.63l1.69,1Zm-14.1-15.78c-.71-1.44-1.32-2.28-1.35-1.88a5,5,0,0,0,1,2.17,6,6,0,0,1,1,3.08c0,1.4,0,1.46.31.44.22-.76-.13-2.17-1-3.81ZM106,193.53a22.26,22.26,0,0,0-3-5.77,23.43,23.43,0,0,1-2.71-4.56C98.89,179.31,91,170.92,90,172.28c-.18.25.81,1.15,2.21,2,2.9,1.78,7.55,7.51,7.8,9.61a8.33,8.33,0,0,0,1.94,3.37c2.19,2.46,4.49,7.84,3.91,9.18-.32.74-.25.86.3.5s.51-1.13-.16-3.42ZM58.06,159c.12-1.86-2.88-7.2-3.92-7-3.08.67-2.29,4.2,1.46,6.48,1.61,1,2.41,1.14,2.46.5Zm10.64,2.54c1.5-.82,2.34-4.59,1.62-7.27-1.54-5.72-7.24-8.83-12.35-6.75-1.13.46-1.09.63,1.73,6.44s3,6,5.37,7.08c1.36.62,3,.85,3.63.5Zm-15-19.6c-1.62-4.41-4.36-7.61-6.7-7.83-1.78-.17-.93,1.24,1.72,2.85a9.47,9.47,0,0,1,4.11,4.36c1.78,3.43,2,3.55.87.62ZM59,145c2.61-.91,5.9,0,8.91,2.33,2.23,1.75,2.35,1.77,1.45.2-2.17-3.77-7.43-5.46-11-3.55-2.6,1.38-2.2,2,.66,1Zm41,76.84a3.64,3.64,0,0,1,1.63,1c.36.42-.09.31-1-.26s-1.19-.91-.64-.77Zm10-7.38c.08-.83.22-.92.36-.23s.06,1.23-.14,1.36-.3-.38-.22-1.13Zm-.35-2.91a21.6,21.6,0,0,0-.21-2.77c-.21-1.44-.2-1.43.31.15a5.69,5.69,0,0,1,.21,2.77C109.73,212.72,109.7,212.71,109.72,211.59Zm-58-41.36c.39-2.1,2.13-1.34,2.62,1.16.31,1.53.43,1.7.52.72.25-2.63,3.45,0,3.27,2.67-.05.74-.93.48-3.38-1C51.63,171.87,51.45,171.66,51.72,170.23Zm7,4.05c.14-2.09,1.72-2.33,2.35-.36.81,2.56.32,3.89-1.11,3C58.87,176.28,58.63,175.75,58.73,174.28ZM62,176.34c.15-2.18,1.08-2.47,2.06-.66,1.23,2.28.75,4.2-.81,3.25A2.24,2.24,0,0,1,62,176.34Zm3.25,2.45c.13-1.95,1.33-2.51,2.15-1,1.18,2.17.65,4-.88,3.13A2.18,2.18,0,0,1,65.25,178.79Zm43.63,27.32a16.14,16.14,0,0,0-1.21-3.88c-.69-1.7-1-2.94-.71-2.75.71.43,2.71,6.86,2.23,7.18C109,206.79,108.85,206.54,108.88,206.11ZM49,169c-.79-.94-.75-2.7.08-2.86s2.1,2.25,2,3.59C51,170.74,50.22,170.47,49,169Zm.47-9c.11-1.59.18-1.6,1.35-.24,1,1.1.4,2.82-.69,2.15A2.26,2.26,0,0,1,49.46,160Zm4.12,3.51c-.68-1.45-.16-2.61.89-2a2.11,2.11,0,0,1,1,2.11C55.37,165,54.27,165,53.58,163.5Zm4.93,3c-.71-1.49-.18-2.63.92-2a1.56,1.56,0,0,1,.87,1.79c-.28,1.22-1.26,1.32-1.79.18Zm4.23,1.92c-.16-.83.07-1.51.53-1.61,1.3-.29,1.72.24,1.42,1.81C64.34,170.47,63.1,170.34,62.74,168.43Zm4,2.29c-.59-1.26-.19-2.61.63-2.11a1.82,1.82,0,0,1,.75,1.54c-.08,1.21-.91,1.55-1.38.57Zm2.29.1c-.24-1.25.17-1.85.94-1.39.61.37.45,2.34-.2,2.47-.29.06-.62-.43-.74-1.08Zm20.75-1a6,6,0,0,1,1-2.06c.49-.73.88-1,.85-.61a6.11,6.11,0,0,1-.95,2.06C90.12,169.92,89.74,170.19,89.76,169.79ZM92,165.2c1.28-3.92,1.84-7.36,2.33-14.26.5-7.06.23-10-.79-8.64a.6.6,0,0,0,.18.88c1.55.94.15,2.34-2.25,2.25C80.92,145,57.61,132.09,45.75,120c-2-2-2.66-3.87-1-2.89.78.48.79.37.08-1.14-1-2.1-.93-3.06.3-4,2-1.58.81-8.52-1.86-10.7a4.08,4.08,0,0,1-1.36-2C41.62,97.74,42.64,75.91,43,75s2.44.79,2.36,1.87c0,.35.56,1,1.3,1.45a4.8,4.8,0,0,1,1.79,2.41c.39,1.41.52,1.4,1.15-.06,1.21-2.81,4.56.84,3.5,3.81-.3.83,0,2.76.72,5.47,1.17,4.16,1.44,6.08.7,5-.21-.32-.47.34-.58,1.46a15.23,15.23,0,0,1-1.79,4.83c-1.62,2.85-1.37,3.84.27,1.1,2.68-4.47,4.39-11.32,4.84-19.4l.46-8-1.51-1.08c-.87-.62-1.38-.69-1.22-.16a2.11,2.11,0,0,0,1.5,1.16c1,.2,1.07.34.48.77-1.3.93-3.39-2.61-3.2-5.42q.3-4.54,3.57-1.56l1.69,1.56-.12-3.36c-.25-6.43,3.57-6.8,5.62-.55.59,1.78.63,2.58.16,2.89-1,.69-.94,3,.16,3.64A1.72,1.72,0,0,0,66.5,73c.93-.62,3.31,5,3,6.94-.41,2.27-2.23,2.64-4.29.87l-1.75-1.49-.24,3.89a37.44,37.44,0,0,0,.36,7.28c.76,4.36.7,4.75-.23,1.37a37.92,37.92,0,0,1-.81-7.66l-.05-4.93L62,85.2l-.48,5.93-1.64-1-1.64-1L58.58,82,59,74.89l-.78,6.7c-.42,3.68-.88,9.52-1,13l-.23,6.3,1.83.82c1.57.7,1.86,1.09,2,2.67.07,1,.42-1.7.78-6l.66-7.9L64,97.91c1.69,7.24,5.37,19.1,6,19.51.18.11,2.19-1.47,4.47-3.5,6-5.37,6.1-5.47,5.31-5.34-1.07.17-.78-1.18.37-1.68.85-.37.91-.32.45.37-.32.48-.32.69,0,.51s.64-1.83.76-3.69c.21-3.15.33-3.33,1.75-2.69A2.91,2.91,0,0,1,85,104c.33,1.84.4,1.84,2,0,.89-1.06,1.5-2.3,1.36-2.75-.58-1.88.65-4,1.89-3.21,2.33,1.42,3.12,4.78,1.45,6.1-.71.56-.79,1.39-.45,5l.4,4.28,2.22-2c1.9-1.74,2.2-2.42,2.08-4.78s.06-2.77,1.11-2.87c2.41-.24,4.46,6.08,2.37,7.3-1,.58-1.09,1.33-1.14,9.45a98.26,98.26,0,0,0,.35,11,16.31,16.31,0,0,1,.24,3.74c-.17,1.69-.68-1.63-1.12-7.33-.24-3.08-.25-3.1-.47-.85-.14,1.45-.51,2.14-1,1.86-2.13-1.3-3.56,3.7-2,7a5.8,5.8,0,0,1,.63,4c-.39,1.72-.38,1.72.35,0,.86-2,2.48-3.6,2.86-2.79.14.29-.16.87-.66,1.29-1.35,1.13-2.42,4.37-2,5.88a9.61,9.61,0,0,1,0,3.66c-.24,1.31-.7,5.1-1,8.43-.36,3.82-1,6.79-1.66,8-.6,1.09-.91,1.43-.7.77Zm-9.21-23.76c4.19,1.36,10.1,2.12,9.68,1.25a4.5,4.5,0,0,0-2.34-.51c-4.06-.21-11.73-3.11-19.71-7.44l-8-4.33-.81-4.19A60.51,60.51,0,0,1,60.9,116l.07-6-.45,5.19a34,34,0,0,0,.39,9.66c.46,2.47.83,4.56.83,4.65a27.07,27.07,0,0,1-3.59-2.07c-2-1.24-3.76-2.11-4-1.94-.82.6,24,14.39,28.66,15.9Zm-30.2-17.73a3.74,3.74,0,0,0-1.64-1c-.54-.14-.25.21.65.77s1.35.67,1,.25ZM49.38,121a2.42,2.42,0,0,0-1.36-.83c-.39,0-.1.33.66.78S49.74,121.41,49.38,121Zm22.34,8.46c2.43-1.6,1.72-6.31-1.37-9.15s-5.22-.82-4.29,4.18C66.89,128.89,69.32,131,71.72,129.44Zm-4.39-2.59c-1.1-1.87-1-5.74.13-6.78s2.71.21,4.11,3.18c1.48,3.14,1.45,4.58-.12,5.61-1.39.92-2.79.24-4.12-2Zm-11.21-9.36c-.09-.79-.24-.46-.33.72s0,1.84.17,1.44a5.22,5.22,0,0,0,.16-2.16ZM85.24,135c2.46-1.62,1.37-8.22-1.66-10.06-1.86-1.13-3.83-1.15-3.91,0,0,.4.53.56,1.24.35,3.59-1.09,7,6.58,4,8.93-1.8,1.41-4.37-1.36-5.11-5.49-.18-1-.26-1-.36,0-.18,1.78,1.63,5.33,3.23,6.3a2.63,2.63,0,0,0,2.55,0ZM48.66,98.76c-.14-.72-.38-1.23-.53-1.13s-.15.64,0,1.18c.46,1.49.79,1.45.51,0Zm41.58,17.29a50.1,50.1,0,0,0,5.33-4.38c1-1,2.05-1.58,2.45-1.34s.85.26,1,0-.28-.74-1-1.16-1.24-.55-1.2-.28-1.31,1.8-3,3.38l-3,2.89-.18-2.66c-.17-2.63-.17-2.63-.44.33-.25,2.67-.63,3.17-3.67,4.86-1.87,1-2.62,1.66-1.66,1.39a25.37,25.37,0,0,0,5.35-3.08ZM47.67,93.51c-.51-1.59-.52-1.6-.31-.16a19.47,19.47,0,0,1,.21,2.4c0,.63.08.67.32.15a4.41,4.41,0,0,0-.22-2.39Zm1.22-3.79c-.09-.79-.24-.47-.33.72s0,1.84.17,1.44A5.07,5.07,0,0,0,48.89,89.72ZM97.7,116.37c0-1.18-.2-.51-.34,1.48s-.1,3,.09,2.14a16.53,16.53,0,0,0,.25-3.62ZM43,83.89c-.09-.79-.24-.46-.33.73s0,1.83.17,1.43A5.05,5.05,0,0,0,43,83.89Zm10.16,6.36a8.74,8.74,0,0,0-1-2.93c-.27.18,1.09,5.62,1.46,5.85A9.42,9.42,0,0,0,53.19,90.25Zm-7.25-4.66a9.77,9.77,0,0,0-.7-2.49c-.68-1.77-.69-1.74-.22.47C45.53,86,45.86,86.7,45.94,85.59Zm3.71,1.22c-.13-.68-.27-.59-.36.24s0,1.26.23,1.13S49.78,87.43,49.65,86.81Zm33.14,18.62c-.36-.76-.61-1-.64-.5-.07,1,.52,2.22.92,1.95.17-.11,0-.76-.28-1.45ZM45.19,79.51c.1-1.28-1.22-3.37-1.87-2.94a8,8,0,0,0-.14,3.1c.18,2.66.25,2.81,1,2A4.07,4.07,0,0,0,45.19,79.51Zm-1.61-1.15c0-.6.32-.94.62-.75A1.69,1.69,0,0,1,44.67,79c0,.59-.32.93-.62.75A1.69,1.69,0,0,1,43.58,78.36Zm44,26.92c1-1.18,1.36-2,.9-1.77-.88.4-3.27,3.54-2.87,3.78.12.08,1-.83,2-2Zm-3.8-1.8c.76.87.85.84.39-.13-.7-1.49-2.33-1.83-2.41-.5,0,.7.08.76.5.22s.92-.29,1.52.41Zm6.6,3.56c-.13-.69-.27-.59-.36.23s0,1.26.23,1.13.26-.74.13-1.36ZM52.81,83.2c-.16-.33-.49-.11-.74.48-.37.85-.31,1,.28.59a1,1,0,0,0,.46-1.07Zm39.12,19.06c0-1.11,0-1.12-.33-.1-.24.79-.69.85-1.37.18-1-1-1.4-.58-.78.74.55,1.16,2.45.52,2.48-.82Zm5.79,2.61c.59-.62.55-.66-.34-.3a1.92,1.92,0,0,0-1.06,1.61c0,1,0,1.06.34.31A6.21,6.21,0,0,1,97.72,104.87Zm1.46,1.44c-.49-1-.56-1-.33.22.15.84.43,1.43.61,1.31S99.52,107,99.18,106.31Zm-8.43-6.67c.88.2.83.12-.22-.41-.73-.37-1.46-.24-1.62.28s-.12.77.21.41a1.89,1.89,0,0,1,1.63-.28ZM62.55,75.19a9.39,9.39,0,0,0-.58-3c-1-2.9-2.24-.54-1.61,3.2.43,2.55.51,2.67,1.29,1.84A4,4,0,0,0,62.55,75.19ZM60.73,75c-.21-1.86.3-3.14.89-2.24s.45,3.41-.22,3.54c-.28.06-.58-.53-.67-1.3ZM67,80.92c.22-.3,0-.55-.49-.6-1-.09-1.19.32-.4.8A.7.7,0,0,0,67,80.92ZM55.52,68.25c-.16-.32-.49-.1-.74.49-.37.85-.31,1,.28.59a1,1,0,0,0,.46-1.08Zm2.78,2.56a4.05,4.05,0,0,0-1-1.32c-.59-.58-1-.67-.81-.21C56.7,70.09,58.26,71.38,58.3,70.81ZM68.05,76a4.11,4.11,0,0,0-2.88-2.18L63,73.09l2,1.11a7.25,7.25,0,0,1,2.39,1.88,2.84,2.84,0,0,0,.85,1.06c.27.17.18-.35-.19-1.15Zm-8.19-9.34c-.28-.58-.4,0-.32,1.6.12,2.16.19,2.31.46,1a5.05,5.05,0,0,0-.14-2.56Zm3.51,2.11c-.13-.68-.28-.59-.36.24s0,1.25.22,1.12S63.49,69.38,63.37,68.76Zm.24-3.62c-.13-.69-.27-.59-.35.23s0,1.26.22,1.13.26-.74.13-1.36ZM40.47,107.58c-1.15-3.74-1.07-5.16.31-5.92s2.19-.24,3.63,2.81c1.51,3.22,1.42,6.91-.18,7.07C42.37,111.72,41.44,110.73,40.47,107.58ZM38.59,103c0-1.91,1.73-4.39,2.62-3.85.32.19,0,.77-.67,1.29a5.06,5.06,0,0,0-1.62,2.6c-.35,1.56-.37,1.56-.33,0Zm55.62,31.34c-.27-2.27,1-5.36,2-4.78,1.28.78,1.91,4.6,1,6.29S94.48,136.69,94.21,134.36ZM68.13,111.09c-1-3.08-2.39-7.85-3-10.59-1.18-5.34-1.39-7.25-.4-3.72l.6,2.15,1.32-1.48A6.68,6.68,0,0,0,68,95.55a2.76,2.76,0,0,1,1-1.19c3-2.47,3.93-3.87,4.08-6.17.21-3.07.63-3.4,2-1.56.74,1,.94,1.15.71.41-.17-.56-.06-.87.25-.68.84.51,1.14,4.5.41,5.47-.46.61-.31,2.42.58,6.83A50.55,50.55,0,0,1,78,106.1l-.12,1.43-.39-1.74c-.26-1.19-.35-.72-.28,1.48.11,3-.08,3.39-3.41,6.41a37.49,37.49,0,0,1-3.66,3.1c-.08,0-1-2.61-2.05-5.69ZM70,95.91c2.28-2.56,4.26-4.42,4.4-4.12.37.78,1.85-.92,1.92-2.2,0-.61-.23-.47-.58.3-.55,1.22-.74,1.2-1.48-.15-.62-1.12-.76-1.22-.5-.37S73,91.77,71.1,93.8c-4.29,4.63-5.8,6.44-5.51,6.62A35.64,35.64,0,0,0,70,95.91Zm5.75-.38c-.38-1.41-.72-2.34-.75-2.07-.1.84,1,5,1.21,4.8a7.57,7.57,0,0,0-.46-2.73ZM41.11,92.7c.21-3.19.39-4.35.39-2.57a48,48,0,0,1-.39,5.79c-.22,1.41-.22,0,0-3.22Zm16.41,6.58c0-.4.79-.27,1.69.27s1.61,1.32,1.59,1.72-.79.28-1.69-.27S57.49,99.68,57.52,99.28Zm.29-4.35c.19-2.73.29-2.84,1.84-1.9s1.62,1.16,1.44,3.9-.29,2.84-1.83,1.9S57.63,97.67,57.81,94.93Zm20.11,13.74c0-.4.31-.57.63-.38a.61.61,0,0,1,.19.88c-.21.28-.5.45-.63.37A1.16,1.16,0,0,1,77.92,108.67ZM55.21,92.6a7.37,7.37,0,0,1,.64-2.25c.35-.74.54-.77.49-.08a7.37,7.37,0,0,1-.64,2.25C55.34,93.25,55.16,93.28,55.21,92.6Zm3.61-2.1a5.2,5.2,0,0,1,1.91,1.16c.52.51.08.39-1-.25s-1.47-1-.93-.91Z"
                    />
                    <path
                        id="path872"
                        class="cls-9"
                        d="M71.91,209.13c-1.61-2.41-3-6.14-2.39-6.52.16-.11.41.61.55,1.59.63,4.18,6.45,9.79,10.16,9.8a2.55,2.55,0,0,1,2.48,1.51c1.65,2.52,6.94,5.27,10.53,5.49,1.79.1,3.24.42,3.23.7s-1.62.29-3.56,0c-3.78-.53-9.21-3.4-10.14-5.38-.41-.88-1-1.25-2.37-1.44-2.82-.4-6.63-3-8.49-5.78Zm1.51.34c-1.2-1.35-3.06-5.24-3-6.24s-1.14-2.53-3.43-3.92a6,6,0,0,1-3-6.63c.78-3.21,2.17-4.44,3.88-3.4,2.25,1.37,7,2.2,8.65,1.51,1.09-.44,1.62-1.5,2.08-4.2.78-4.48,1.92-7.72,2.58-7.32,1.79,1.09,7.66-4.61,7.86-7.63.1-1.48,4.64,1.29,6.83,4.16.86,1.14,1.09,1.56.5.93-2.08-2.22-6.74-5.35-6.8-4.56,0,.46.68,1.05,1.75,1.48a14.65,14.65,0,0,1,4.11,3.3c2.79,3.12,2.89,3.19,2.43,1.72s2.46,2.93,3.18,4.73a21.53,21.53,0,0,0,2.12,3.44c3.28,4.45,4.86,9.91,3.35,11.6-.51.58-.56.38-.23-.92.59-2.34-1-7.1-3.37-10.14a23.89,23.89,0,0,1-2.86-4.74,6.93,6.93,0,0,0-1.53-2.6c-.35-.2-.13.58.5,1.74a9.08,9.08,0,0,1,1.09,2.82,3.73,3.73,0,0,0,1.24,2c2.76,2.65,5.66,9.88,4.09,10.2-.32.06,0,1.31.68,2.86,2.82,6.2,3.76,16.78,1.81,20.3-.66,1.19-.65,1.2.26.34,1.11-1.05,1.19-.29.14,1.39a3.37,3.37,0,0,1-3.62,1.92c-2.35,0-2.61-.45-.55-.84a4.72,4.72,0,0,0,2.23-.92c.24-.31-.54-.3-1.72,0a5.45,5.45,0,0,1-4.18-.64,10.46,10.46,0,0,0-5.58-1c-4.05.3-9.78-2.18-11.92-5.14a3.89,3.89,0,0,0-3-1.93,13.89,13.89,0,0,1-6.53-3.66Zm24.09,11.32c.41-.27.86-.22,1,.1s-.17.55-.73.49c-.8-.08-.86-.2-.28-.59ZM54,192c-1.45-2.52-2.21-4.51-2.24-5.85A5.1,5.1,0,0,0,50.72,183a3.81,3.81,0,0,1-.92-2.76,3.23,3.23,0,0,0-1.36-3c-1.58-1.41-3.76-5.36-3.67-6.66,0-.43.48.32,1,1.67,1.41,3.65,5.09,7,12.74,11.7,5.73,3.5,6.63,4.22,6.29,5-1.59,3.44-1.78,4.4-1.31,6.44s.33,2.13-1,2a9.35,9.35,0,0,1-2.91-.95l-1.47-.81,1.6,1.55c1.44,1.39,1.34,1.4-1,.08-2.1-1.2-2.95-2.14-4.76-5.29Zm2,1.75c-2.55-4.41-3.27-6.21-3.16-7.9.07-1-.11-2-.39-2.13a6.46,6.46,0,0,1-1.28-2c-.43-.92-.81-1.33-.84-.91a5,5,0,0,0,1,2.19,5.41,5.41,0,0,1,.92,3.22c-.08,1.25.51,2.83,2,5.33,2.12,3.56,3.68,5.47,1.76,2.16Zm44,28.17a3.64,3.64,0,0,1,1.63,1c.36.42-.09.31-1-.26s-1.19-.91-.64-.77Zm-35.41-23A5.2,5.2,0,0,1,66.52,200c.51.5.07.39-1-.25s-1.47-1-.93-.91Zm44.67,18.94c.08-.82.22-.92.36-.23s.06,1.23-.14,1.36-.3-.38-.22-1.13Zm.79-3.29c.08-.83.22-.92.36-.23s.06,1.23-.14,1.36-.3-.38-.22-1.13ZM49.56,175.64c-3.23-3.15-4.73-9.55-2.58-11,.52-.34.54-.57.1-.85-.84-.51-1.46.43-2.12,3.22l-.55,2.33L44.5,167a5,5,0,0,1,1.59-3.64c1.33-1.17,1.44-1.58,1-4a7.76,7.76,0,0,0-.92-2.93,1.81,1.81,0,0,1-.35-1.39c0-.62-.16-1.08-.44-1s-.94-.74-1.46-1.78-.71-1.5-.44-1a5.37,5.37,0,0,0,1.62,1.55c1.4.85,2.79,6.6,2.77,11.49a15.11,15.11,0,0,0,.61,4.7c1.79,3.83,18.78,14.6,22.88,14.51,3.66-.08,5.52-5.85,3.37-10.42-1.28-2.74-1.4-2.58,1.89-2.55,9.58.07,15.27-7.46,11.57-15.32L87,152.63l1.5.43a11,11,0,0,0,3.16.33l1.64-.09-.62,5.2c-.5,4.21-1.16,6.25-3.43,10.62-2.92,5.61-4.89,8.37-5.53,7.74s-4.17.33-3.91.88c.5,1.07-2.64,10.69-3.73,11.41-2,1.28-7-.65-15.91-6.15a87.33,87.33,0,0,1-10.57-7.36Zm34.89-3.3c-.34-1.16-.49-.83-.62,1.39-.16,2.54-.1,2.73.45,1.52a4.27,4.27,0,0,0,.17-2.91Zm25.27,38.87a19.34,19.34,0,0,0-.21-2.39c-.22-1.44-.2-1.44.31.16a4.39,4.39,0,0,1,.21,2.39C109.8,211.88,109.71,211.84,109.72,211.21ZM51.79,170.87a2.72,2.72,0,0,1,.17-1.78c.69-.94,2,.35,2.35,2.33l.35,1.89.49-1.38c.61-1.71,1.86-1.06,2.49,1.29.72,2.66.63,2.69-2.6.72-2.14-1.3-3.09-2.19-3.25-3.07Zm6.94,3.47c.14-2.17,1.07-2.46,2.05-.65,1.23,2.28.75,4.2-.81,3.25A2.25,2.25,0,0,1,58.73,174.34Zm3.27,2c.16-2.35,1.29-2.48,2.09-.26,1,2.72.68,3.78-.84,2.85A2.24,2.24,0,0,1,62,176.34Zm3.25,2.45c.13-1.95,1.33-2.51,2.15-1,1.18,2.17.65,4-.88,3.13A2.18,2.18,0,0,1,65.25,178.79Zm43.63,27.32a16.14,16.14,0,0,0-1.21-3.88c-.69-1.7-1-2.94-.71-2.75.71.43,2.71,6.86,2.23,7.18C109,206.79,108.85,206.54,108.88,206.11Zm-60-37.83c-.46-1.13-.45-1.66,0-2,.79-.52,2.27,1.84,2.16,3.44-.09,1.34-1.42.46-2.2-1.46Zm.57-8.2c.07-1.05.35-1.21.92-.55.9,1,.69,2.31-.35,2.14-.37-.06-.62-.77-.57-1.59Zm4.14,3.45c-.65-1.38-.26-1.94.88-1.25.63.39,1,1,.86,1.42C55,164.6,54.05,164.5,53.59,163.53Zm4.92,3c-.71-1.49-.18-2.63.92-2a1.56,1.56,0,0,1,.87,1.79c-.28,1.22-1.26,1.32-1.79.18Zm4.35,2.63c-.68-1.45-.15-2.6.89-2,.61.36,1.08.95,1,1.3-.06,1-1.56,1.46-1.94.66Zm3.88,1.62c-.61-1.3-.22-2.66.61-2.15s1,1.25.23,2.22A.45.45,0,0,1,66.74,170.76Zm2.48-.26c0-.4.29-.58.59-.4a1.28,1.28,0,0,1,.5,1.06c0,.4-.3.58-.6.39A1.23,1.23,0,0,1,69.22,170.5ZM47.8,154.16c.48-1.69.44-1.76-1.4-2.41-2.35-.83-2.79-2.05-1.71-4.71l.81-2,1.16,2.45c1.6,3.4,3,4,5.74,2.51,2.92-1.59,3-2.28.6-6.71-1.73-3.22-2.15-3.65-4.78-4.91L45.33,137l-.61-4.52a26.57,26.57,0,0,1-.4-4.65,18.51,18.51,0,0,1,3.14,2.77c2.92,2.9,4.18,3.66,27,16.29,2.41,1.34,6,3.2,8,4.14l3.64,1.72.76,3.2c1.36,5.7-.28,8.54-6.81,11.85-4.17,2.12-7.33,2.6-9.2,1.39-.69-.45-6.29-3.62-12.43-7.06L47.29,155.9ZM58,159c.05-1.25-2.18-6.41-3-6.91s-2.81.55-2.88,1.61c-.11,1.62,1.17,3.39,3.48,4.79C57.17,159.4,58,159.58,58,159Zm10.71,2.24c2.27-1.5,2.63-5.24.87-9-2.39-5.08-7.34-6.85-12.44-4.44-.38.17,3.32,8.69,4.51,10.37,2.13,3,5.14,4.32,7.06,3.06Zm-15-19.4c-1.52-4.64-5.18-8.34-7.42-7.52-1,.39-.88.58,2,2.32,2.56,1.58,3.28,2.34,4.25,4.48,1.52,3.36,2.22,3.78,1.22.72Zm6.1,3.21c2.36-.73,3-.57,6.45,1.51,3.81,2.31,4.94,2.38,2.68.15-3.72-3.67-7.21-4.57-10.58-2.73C55.56,145.51,56.36,146.1,59.84,145Zm-17.5,3a3.06,3.06,0,0,1,1.1-2c.57-.44.85-.55.6-.24a13.28,13.28,0,0,0-1.09,2C42.54,148.7,42.31,148.78,42.34,148Zm47.42,21.77a6,6,0,0,1,1-2.06c.49-.73.88-1,.85-.61a6.11,6.11,0,0,1-.95,2.06C90.12,169.92,89.74,170.19,89.76,169.79ZM44.63,140.05a9.57,9.57,0,0,0-.39-3.26c-.47-1-2-11.45-2.25-15.44a11,11,0,0,1,.59-4c.87-2.23.61-4.16-.68-4.94S38.6,107,39.06,106c.25-.56.34-.44.32.4a8.23,8.23,0,0,0,2.92,5.48c1.42.86,1.72,3.27.76,6-.77,2.22.06,12.17,1.55,18.5a12.42,12.42,0,0,1,.3,4.33c-.29,1.24-.34,1.11-.28-.72ZM91.73,166a8.91,8.91,0,0,1,.73-2.2A38.48,38.48,0,0,0,94,157.64l.79-4.42-.5,4.6c-.39,3.64-2.48,10.36-2.53,8.13ZM46.18,128.47c-2.45-2.8-2.87-3.85-2.67-6.8l.18-2.74,2.32,2.4C56.77,132.46,83.44,147.11,92,146.55l2.35-.16-.46,1.49a17.39,17.39,0,0,0-.57,3.06c-.27,3.77-11.19-.68-33.47-13.65-8.08-4.71-12.56-7.6-13.62-8.82Zm11.56,1.39c-7.53-5.51-14-11.39-13.93-12.64,0-.46.53-.29,1.25.44,4.85,4.94,10,8.9,18.11,13.8,14.15,8.6,21.54,11.5,30.18,11.88a.83.83,0,0,1,.92,1c-.11,1.36-5.35,1-10.85-.67-4.58-1.42-20.27-9.87-25.68-13.83Zm37,18.67a22.88,22.88,0,0,0,.06-5.11c-.51-1.07,1-5,2.24-5.83s1.52-.15.27.91-2.29,4.3-1.87,5.78a16.25,16.25,0,0,1-.34,5l-.71,3.7ZM51.4,122.65c-7.18-6.28-8.41-8.55-6-11.1,2-2.06.57-8.06-2.48-10.72-1-.88-1-1.49-.45-9.59.35-4.75.4-7.77.13-6.69q-.49,2-.2-3.13c.39-6.6.66-7.46,2-6.18a3.08,3.08,0,0,1,1,1.67c0,.35.56,1,1.3,1.45a4.8,4.8,0,0,1,1.79,2.41c.39,1.41.52,1.4,1.15-.06,1.19-2.78,4.57.83,3.52,3.76-.27.73,0,2.79.54,5.08.87,3.39,1.06,3.71,1.52,2.66.31-.72.49-.76.45-.1-.26,3.9-1.12,3.3-2.34-1.64-.68-2.77-1.06-5.45-.85-5.94A3.45,3.45,0,0,0,51.2,80.4c-1.16-.66-1.16-.65,0,.74a4.58,4.58,0,0,1,1.14,2.11c-.08,1.17-1.31,1-1.69-.19-.22-.71-.56-.16-.88,1.44-.67,3.31-1.58,9.35-1.08,7.16.84-3.7,2-7.07,2.4-6.84a31.87,31.87,0,0,1,1.8,5.88c1.37,5.54,1.38,5.69.35,8.32-2.27,5.8-3.86,5.09-4.88-2.19-.56-3.93-3.16-14.84-3.6-15.11a26.65,26.65,0,0,0,.89,4.88c.63,2.77,1.52,7,2,9.31.83,4.29,2,7.62,2.82,8.13s2.69-2.54,4.87-8.31l2.22-5.86-1,14.45c-.8,11.28-.89,15.32-.41,18.41l.61,4-1.44-1a49,49,0,0,1-3.86-3.08ZM45.19,79.51c.1-1.28-1.22-3.37-1.87-2.94a8,8,0,0,0-.14,3.1c.18,2.66.25,2.81,1,2A4.07,4.07,0,0,0,45.19,79.51Zm-1.61-1.19c0-.62.31-.78.6-.35a3,3,0,0,1,.47,1.46c0,.38-.3.53-.6.35a1.76,1.76,0,0,1-.47-1.46ZM56.9,124.77c-.74-4-.75-12.87,0-18.52.69-5.32.73-5.4,2.18-4.52s1.48,1,1.46,6.65c0,3.17-.12,7.19-.23,8.93a41.21,41.21,0,0,0,.57,7.78l.78,4.6-2.15-1.31c-1.85-1.12-2.22-1.65-2.59-3.61Zm4.81,1.49c-.91-4.57-.91-6.26-.05-23.71l.59-12.08L64,97.93c1.8,7.82,5.24,19,6,19.47.46.27,4.74-3.27,8.67-7.17a21.81,21.81,0,0,1,3.55-3c.9-.48,1-.92.61-1.85-1-2-.57-3.41.63-2.24.58.58.94.67.8.2a3.53,3.53,0,0,0-1.39-1.53c-1-.59-1.1-.34-.94,1.78.15,1.92-.14,2.74-1.32,3.78-.83.72-1.49,1.07-1.47.78a2.83,2.83,0,0,1,1.07-1.35,5.84,5.84,0,0,0,1.22-3.46c.18-2.36.37-2.58,1.72-2A2.91,2.91,0,0,1,85,104c.33,1.84.4,1.84,2,0,.89-1.06,1.5-2.3,1.36-2.75-.58-1.88.65-4,1.89-3.21,2.33,1.42,3.12,4.78,1.45,6.1-.71.56-.79,1.39-.45,5l.4,4.28,2.22-2c1.9-1.74,2.2-2.42,2.08-4.78s.06-2.77,1.11-2.87c2.05-.2,4.28,5.31,2.89,7.12-.29.39-.52.37-.5,0s-.54-1.13-1.26-1.62c-1.16-.8-1.29-.64-1.18,1.54.14,3.14.48,3.85.64,1.38.08-1.07.39-1.78.71-1.58s.45.53.28.75c-.36.48-.5,16.93-.17,19.28.14.92.06,1.3-.16.85a17.4,17.4,0,0,1-.57-4.12L97.5,124l-.26,2.68c-.17,1.81-.5,2.52-1,2.2-2.21-1.35-3.73,4.39-1.94,7.33a4.17,4.17,0,0,1,.51,3.84c-.43,1.81-1,2.14-3.45,2.09-4.58-.09-12.73-3-21.11-7.55l-7.68-4.15Zm10.07,3.43c1.77-1,1.91-3.58.38-6.84-2.59-5.5-6.66-5.44-6.37.1.25,4.9,3.3,8.33,6,6.74Zm-4.9-3.35c-.56-1.19,0-5.94.74-6.44a1.5,1.5,0,0,1,1.48,0c.64.39.6.68-.21,1.7A8,8,0,0,0,67.62,125c-.31,2.38-.28,2.34-.74,1.36Zm18.44,9c1.52-.84,1.65-4.75.27-8.07-2.19-5.25-6.78-4.53-6.36,1C79.57,132.6,83,136.58,85.32,135.3Zm-2.06-2.23c.21-.71.12-1.35-.21-1.46s-.74-1.13-.91-2.28c-.27-1.72-.33-1.59-.36.73,0,1.54-.2,2.71-.4,2.58-.63-.38-1.37-2.64-1.39-4.23,0-2.67.2-3.21,1.43-3.32,2.85-.28,5.41,5,3.86,8-.93,1.8-2.57,1.78-2,0ZM87,118.2c3.49-1.86,9.51-6.86,9.54-7.92,0-.46-.48-.08-4,3.17l-2,1.79.1-2.58a31.19,31.19,0,0,0-.22-4.66c-.18-1.23-.32-.08-.34,2.84l0,4.91-3.45,1.72a15.78,15.78,0,0,1-4.31,1.63c-.71-.07-.7,0,0,.51.49.33,2.57-.31,4.64-1.41Zm10.69-1.84c0-1.17-.21-.34-.36,1.85s-.1,3.15.09,2.13a20.42,20.42,0,0,0,.27-4Zm-8.09-11.83c.34,1.09.43,1.11.51.13,0-.65.48-1.14,1-1.1,1.49.15,1-3.24-.61-4.22-1.11-.68-1.37-.49-1.41,1-.07,2.26-4.23,8.15-5,7-.31-.46-.39-.34-.2.27a2.2,2.2,0,0,1-.09,1.65c-.3.4-.55.19-.83-.69s-.42-1-.49-.13c-.21,2.71.79,2.35,3.65-1.34,2.29-3,3.15-3.61,3.47-2.62Zm-.17-3.6c-.14-.72-.1-1.42.09-1.54.6-.4,2,1.61,1.9,2.76-.1,1.45-1.67.48-2-1.22Zm10.27,7.44c-.42-3.59-3.26-5.75-3.35-2.55,0,1.26,0,1.36.3.48.46-1.53,2.27-.29,2.5,1.71a4.27,4.27,0,0,0,.46,1.79c.15.09.19-.56.09-1.43Zm-58.38,1.24c-1.51-2.61-1.86-6.18-.74-7.57s2.21-.61,2.31,1.76c.05,1.13.36,1.69,1,1.82s.72.23-.13.42-.94.45-.37,1.33.52,1,0,.68-.71-.06-.73.36.18.72.47.67.35.46.14,1.17c-.45,1.48-.83,1.36-2-.64Zm-2.78-7.11c.06-1,.33-1.81.59-1.87s.3.8.09,1.9c-.46,2.42-.85,2.4-.68,0Zm56,32.56c-.49-2.58.37-5.11,1.57-4.61,1.55.64,1.94,3.76.68,5.34C95.76,137.1,94.89,136.82,94.56,135.06Zm3.91-.7c.09-1.19.24-1.52.33-.73a5.27,5.27,0,0,1-.16,2.17c-.19.39-.26-.25-.17-1.44ZM40.18,99.3c.22-.29.5-.45.63-.37a1.16,1.16,0,0,1,.19.87c0,.4-.31.56-.62.37A.6.6,0,0,1,40.18,99.3Zm28.51,13.44c-.78-2.27-1.84-5.8-2.36-7.83l-.94-3.71,4.4-5,4.4-5,.64,2.45c.9,3.4,2.59,13.94,2.49,15.49-.07,1-3.16,4.38-6.77,7.36-.25.2-1.08-1.5-1.86-3.77Zm-27.58-20c.21-3.19.39-4.35.39-2.57a48,48,0,0,1-.39,5.79c-.22,1.41-.22,0,0-3.22ZM58,99.05a2.44,2.44,0,0,1,1.37.83c.36.43,0,.41-.71,0S57.57,99,58,99.05Zm-.15-4.12c.19-2.73.29-2.84,1.84-1.9s1.62,1.16,1.44,3.9-.29,2.84-1.83,1.9S57.63,97.67,57.81,94.93Zm20.11,13.74c0-.4.31-.57.63-.38a.61.61,0,0,1,.19.88c-.21.28-.5.45-.63.37A1.16,1.16,0,0,1,77.92,108.67Zm-13.2-10c-.15-.79-.13-1.53,0-1.64s.29.26.26.83c0,1,2.9-1.16,3-2.21a2.66,2.66,0,0,1,1-1.3c3-2.5,3.93-3.86,4.09-6.25.09-1.42.43-2.62.74-2.69s.41.27.2.76,0,1,.62,1.36,1,1,.85,2.12,0,1.5.44,1.23.43-1.12.09-2.61c-.3-1.29-.29-2.08,0-1.89.8.49,1.07,4.5.36,5.44-.46.61-.31,2.42.58,6.83a53.06,53.06,0,0,1,1.11,7.46c0,.79-.52-1-1-4-1.08-6.2-2.83-13.79-3.24-14-.15-.09-.16.41,0,1.11.18,1-6.53,9.43-8.59,10.84-.09.07-.29-.53-.44-1.32Zm-1.29-6c-.4-2.15-.21-2.52.33-.66.27.92.37,1.76.21,1.86S63.58,93.43,63.43,92.67Zm-6.79-4.92c.08-.83.22-.93.35-.24s.07,1.23-.13,1.36S56.56,88.49,56.64,87.75Zm1.89.84a43.36,43.36,0,0,1,.23-7c.59-6.93.55-7.13-1.37-7.32S54.62,72.55,55,70.51c.25-1.35.57-1.41,1.92-.4s1.45.92.86,0c-1.37-2.21-2.63-2.5-3.15-.71-.64,2.21.14,4.55,1.77,5.28,1,.44,1.14.67.57,1-1.29.86-3.36-2.71-3.18-5.47q.3-4.54,3.57-1.56l1.69,1.56-.12-3.36c-.25-6.43,3.57-6.8,5.62-.55.59,1.78.63,2.58.16,2.89-1,.69-.94,3,.16,3.64A1.72,1.72,0,0,0,66.5,73c.93-.62,3.31,5,3,6.94-.41,2.31-2.23,2.65-4.37.81l-1.83-1.57-.06,5.37c0,3-.21,5.07-.38,4.71a32.23,32.23,0,0,1-.31-5.68v-5L62,84.84c-.5,6.16-.54,6.27-1.84,5.48A4,4,0,0,1,58.53,88.59Zm3.84-15.07c-.24-2.68-.9-3.37-1.81-1.91-.42.68-.5,2.06-.24,4.17l.4,3.15.93-1.53a6.78,6.78,0,0,0,.72-3.88ZM61,73.8c.09-.83.23-.92.36-.24s.06,1.23-.13,1.36S60.91,74.55,61,73.8Zm6.28,7.46c0-.3-1-1.23-2.28-2.07-2.07-1.36-2.15-1.36-.71,0,2.2,2.16,3,2.66,3,2Zm.73-5.4c-.59-1.26-1.2-1.71-2.88-2.16L63,73.14l2.06,1c1.14.58,2,1.31,2,1.63s.34.81.81,1.1c.77.46.78.34.12-1.06Zm-8.12-9.18c-.25-.53-.39.31-.33,2,.09,2.66.12,2.74.43.93a6.16,6.16,0,0,0-.1-2.89Zm3.48,2.41c-.09-.78-.24-.46-.33.73s0,1.84.17,1.44A5.1,5.1,0,0,0,63.35,69.09Zm.72-2.9c-.42-1.21-.79-1.78-.83-1.27-.06,1,1,3.8,1.38,3.58A6.13,6.13,0,0,0,64.07,66.19Zm-3.62-2.08c.38-.6.56-1.17.41-1.26s-.58.33-1,.93S59.35,65,59.5,65s.58-.33,1-.93ZM57.81,81c.22-3.19.39-4.34.39-2.57a46.18,46.18,0,0,1-.39,5.8c-.22,1.41-.22,0,0-3.23Z"
                    />
                    <path
                        id="path870"
                        class="cls-10"
                        d="M71.91,209.13a19.1,19.1,0,0,1-2.13-4.26c-.82-3.05-.45-3.14.48-.12a16.5,16.5,0,0,0,2.52,4.83,19.22,19.22,0,0,0,8.54,4.94c.62.11.35.23-.59.26C78.24,214.88,73.89,212.1,71.91,209.13ZM83.07,217c0-.22-.06-.67-.09-1-.14-2.17-.81-2.81-3.31-3.19a10.85,10.85,0,0,1-4.73-2.12c-2.17-1.72-4.63-5.79-4.52-7.47.08-1.13-1.13-2.52-3.39-3.89a6.17,6.17,0,0,1-2.74-7.62c1-3.1,1.66-3.3,5.14-1.72,2.88,1.31,6.73,1.51,7.95.41a8.43,8.43,0,0,0,1.21-3.28c1.36-6.68,2-7.78,4.58-8.29a6.8,6.8,0,0,0,4.3-3.22c1.82-2.83,2.4-2.85,6-.29a24.44,24.44,0,0,1,6.19,8.33,17,17,0,0,0,2.56,4.14c2.38,2.88,3.68,6.6,3.06,8.76a3,3,0,0,0,.54,3,26.14,26.14,0,0,1,2.21,6.28c2.88,11.67-1.14,19.29-8,15.14a6.63,6.63,0,0,0-3.81-.94c-2.8.53-5.43,0-9.53-1.91l-3.86-1.8,3.55,2.25A13.15,13.15,0,0,0,93.24,221c1.79.1,3.24.42,3.23.7-.13,1.82-13.19-2.76-13.4-4.7Zm14.44,3.79c.41-.27.86-.22,1,.1s-.17.55-.73.49c-.8-.08-.86-.2-.28-.59ZM59.06,197a3.73,3.73,0,0,1,1.64,1c.35.42-.09.31-1-.26s-1.19-.91-.65-.77Zm41,24.9a3.64,3.64,0,0,1,1.63,1c.36.42-.09.31-1-.26s-1.19-.91-.64-.77ZM53.47,191c-1.21-2.21-1.84-4.08-1.77-5.17a3.78,3.78,0,0,0-1-2.83,3.61,3.61,0,0,1-.92-2.69l.14-1.56.37,1.81a7.22,7.22,0,0,0,1.19,2.78,4.26,4.26,0,0,1,.72,2.69c-.11,1.66,1.59,5.89,2.2,5.49.16-.11-.16-1.09-.71-2.18a8.8,8.8,0,0,1-.89-3.75,3.47,3.47,0,0,0-1-2.81,3.49,3.49,0,0,1-1-2.43c.09-1.26.35-1.18,2.92.92a74.92,74.92,0,0,0,6.8,4.73c3.3,2,3.9,2.55,3.56,3.3-.93,2.08-1.27,5.3-.7,6.71.5,1.24.35,1.47-.91,1.34-1.94-.19-6.2-2.78-6.58-4a2.63,2.63,0,0,0-.87-1.29c-.36-.22-.35.2,0,1.15.94,2.33.35,1.56-1.71-2.23Zm51,31.78a5.35,5.35,0,0,0,3.4-1.86c1.31-1.8,1.63-1.26.41.69a3.37,3.37,0,0,1-3.62,1.92c-2.48,0-2.6-.54-.19-.75Zm-39.89-24a3.73,3.73,0,0,1,1.64,1c.35.42-.09.31-1-.26s-1.19-.91-.65-.77Zm44.66,18.94c.08-.82.22-.92.36-.23s.06,1.23-.14,1.36-.3-.38-.22-1.13Zm.79-3.29c.08-.83.22-.92.36-.23s.06,1.23-.14,1.36-.3-.38-.22-1.13ZM46.72,175.15c-1.38-2.23-2-3.71-1.93-4.71,0-.36.48.51,1,1.94a15.16,15.16,0,0,0,2.69,4.31c1.13,1.14,1.32,1.52.59,1.12A9.16,9.16,0,0,1,46.72,175.15Zm3,.73c-2.62-2.43-3.14-3.53-3.38-7.23-.13-2,.1-3,.81-3.65s.91-.69.62.15c-1.15,3.23,3.32,7.89,13.51,14.09,7.4,4.5,11.14,5.4,12.85,3.07s2-7.19.57-9.48c-1-1.66-.86-1.76,3.31-2.26,5.19-.61,9.91-3.46,10.72-6.46,1.08-4,1-6.31-.23-8.58-1.37-2.49-.65-3.09,1.9-1.56.84.51,1.41.55,1.27.09a.53.53,0,0,1,.59-.75c1.14.11.76,5.88-.68,10.16-1.09,3.21-6.65,13.57-7.13,13.27a4,4,0,0,1,.18-2.06,4.21,4.21,0,0,0-.11-2.75c-.37-.55-.62-.06-.72,1.39-.14,2.12-2.38,4.6-3.52,3.9-.25-.15-.52.28-.59,1-.38,3.55-2.62,10.28-3.65,11-2,1.29-7-.65-15.91-6.17a102.38,102.38,0,0,1-10.41-7.1Zm60,34.67c.09-.83.23-.92.36-.24s.06,1.23-.13,1.36-.3-.37-.23-1.12ZM44.58,166.83c.1-1.39.25-1.89.34-1.11a7.67,7.67,0,0,1-.17,2.53C44.56,168.87,44.49,168.23,44.58,166.83Zm7.88,5a1.71,1.71,0,0,1-.59-1.84,5.94,5.94,0,0,0,.41-1.19c.07-1.08,1.76,1.07,2.08,2.65l.39,1.93.48-1.41c.58-1.72,1.78-1.11,2.41,1.24a13.29,13.29,0,0,1,.45,2.15C58.06,175.85,53.89,173.24,52.46,171.84Zm6.27,2.5c.15-2.34,1.28-2.48,2.09-.25,1,2.72.67,3.77-.85,2.85a2.25,2.25,0,0,1-1.24-2.6Zm3.27,2c.16-2.35,1.29-2.48,2.09-.26,1,2.72.68,3.78-.84,2.85A2.24,2.24,0,0,1,62,176.34Zm3.2,3.09c.1-1.44.9-2.53,1.57-2.13s1.38,2.91.86,3.61-2.48-.62-2.43-1.48Zm43,24.23a14.5,14.5,0,0,0-1.55-3.9,3,3,0,0,1-.27-2.7c.56-2.33-1.29-7.24-3.81-10.1A20.27,20.27,0,0,1,99.72,182l-1.19-3,1.39,2.18a9.52,9.52,0,0,1,1.36,2.74,7.12,7.12,0,0,0,1.54,2.45c2.56,3.09,4.7,8.7,4.16,10.94-.25,1-.23,2,0,2.17.56.34,2.66,6.82,2.3,7.07-.14.09-.62-1.23-1.08-2.92Zm-59-35c-.81-1.37-.81-1.58,0-1.95s1-.1,1.38,1.4C51.42,171.23,50.87,171.45,49.22,168.67Zm-3-5.45c1.2-.93,1.29-1.34.84-3.76a8.06,8.06,0,0,0-.93-3,1.81,1.81,0,0,1-.35-1.39c0-.69-.2-1.09-.64-1s-.57,0,0-.46c.88-.66.82-.79,2,4.46s1.19,5.13-.73,5.72l-1.58.49Zm3.49-2.07c-.56-1.19-.26-1.9.59-1.38A1.51,1.51,0,0,1,51.1,161C51,161.86,50.14,162,49.74,161.15Zm4.16,2.51c-1-1.17-.68-2.14.52-1.4.6.36,1.07,1,1,1.34C55.41,164.53,54.7,164.55,53.9,163.66Zm4.61,2.85c-.71-1.49-.18-2.63.92-2a1.56,1.56,0,0,1,.87,1.79c-.28,1.22-1.26,1.32-1.79.18Zm4.35,2.63c-.68-1.45-.15-2.6.89-2,.61.36,1.08.95,1,1.29-.06,1-1.56,1.47-1.94.67Zm3.81,1.09c-.34-1.66,0-2.32.84-1.41a2,2,0,0,1,0,1.76c-.48,1.11-.53,1.09-.82-.35Zm2.55.27c0-.4.3-.57.62-.38A.59.59,0,0,1,70,171c-.21.29-.49.46-.62.38s-.22-.48-.19-.87ZM47.88,154.26c.47-1.62.41-1.73-1.6-2.79-2.37-1.24-2.89-2.87-1.42-4.46.84-.9.93-.85,1.85,1,1.66,3.26,4.17,3.9,6.69,1.7,1.82-1.58,1.78-2.24-.35-6.35-1.68-3.22-2.1-3.67-4.72-5l-2.88-1.43L45,133.58c-.25-1.83-.53-4-.63-4.77-.17-1.23,0-1.22,1.11.07A43,43,0,0,0,50.23,133a23.46,23.46,0,0,1,4.33,4.09c.95,1.53,3.82,2.95,3.43,1.69-.25-.79,4.64,1.47,11.57,5.37l4.37,2.45.15,2.35c.13,1.94.24,2.16.64,1.26a3.18,3.18,0,0,0,.27-1.78c-.12-.38.08-.56.45-.41,10.28,4.27,11.51,5.31,11.94,10.17C88,164.5,76.5,171.92,70.85,168.9c-1.26-.68-7.06-3.87-12.88-7.09L47.39,156Zm10.18,4.62a18.23,18.23,0,0,0-1.31-4.21c-1.19-2.93-1.52-3.34-2.58-3.24-1.52.15-2.32,2.21-1.57,4,1,2.44,5.34,5.15,5.46,3.4Zm10.69,2.34c1.28-.85,1.78-1.84,1.91-3.77.43-6.33-5.41-12.08-10.83-10.69-3.26.83-3.33,1.29-.94,6.23,3.61,7.46,6.88,10.19,9.86,8.23Zm6.8-2.38a11.63,11.63,0,0,1-1.77-4.62c-.28-2.12-.38-2.32-.51-1-.17,1.75,1.82,6.56,3,7.22.39.22.07-.49-.71-1.58ZM53.76,141.9c-1.54-4.71-5.19-8.43-7.44-7.6-1,.39-.9.56,1.73,2.18a10,10,0,0,1,4.49,5C54.47,145.2,54.9,145.36,53.76,141.9Zm6.07,3.21c2.22-.72,2.94-.55,6.38,1.51,3.9,2.34,5.14,2.24,2.6-.2-2.1-2-6.6-3.93-8.09-3.43l-3.31,1.12c-1.37.45-1.69.84-1,1.23s2.07.21,3.45-.23Zm-16.66,6c-.61-1.56-.59-1.57.22-.14s1.1,2.27.65,2A7.93,7.93,0,0,1,43.17,151.07Zm-.8-3.37c.09-.83.23-.92.36-.24s.06,1.24-.13,1.37-.3-.38-.23-1.13ZM43,146c0-.15.48-.46,1-.68.93-.38,1-.34.19.4S43,146.58,43,146Zm52,29.55a13.37,13.37,0,0,0-3.6-2.71c-1.25-.63-2.15-1.32-2-1.54.47-.64,4.74,2.32,6.43,4.45,1.81,2.3,1.13,2.13-.84-.2Zm-5.26-5.74a6,6,0,0,1,1-2.06c.49-.73.88-1,.85-.61a6.11,6.11,0,0,1-.95,2.06C90.12,169.92,89.74,170.19,89.76,169.79ZM44.66,140.1c.09-1.19.24-1.51.33-.72a5.19,5.19,0,0,1-.17,2.16C44.64,141.94,44.56,141.29,44.66,140.1Zm-.93-5.19a6.24,6.24,0,0,1-.18-2.41c.14-.09.44,1,.68,2.4C44.76,138,44.31,138,43.73,134.91Zm50,23.73a37.5,37.5,0,0,1,.85-5.08c.42-.35-.38,6.89-.93,8.42-.32.9-.29-.5.08-3.34ZM43,130.31a52.64,52.64,0,0,0-.62-5.55c-.54-3.49-.52-4.83.12-6.92.92-3,.75-4.63-.57-5.43-.94-.57-3.13-4.85-3-6,0-.33.49.57,1,2a7.89,7.89,0,0,0,2.27,3.36c1.59,1,1.87,3.07.85,6.4-.62,2-.64,3.43-.08,7.17a21.14,21.14,0,0,1,.35,5.39c-.22.48-.33.32-.31-.46Zm2.57-2.85c-2.07-2.6-2.22-3-2-5.61l.19-2.81,3.86,3.84c3.23,3.22,6,5.2,17.1,12.15,14.23,8.94,19.7,11.37,25.86,11.49,3.29.07,3.06-.15,2.86,2.88-.16,2.34-.4,2.57-2.59,2.53-2.94-.07-8.83-2.6-21.24-9.15C54.67,134.94,48.18,130.8,45.54,127.46ZM56.8,128.9c-5.86-4.14-13.38-10.9-12.65-11.37.28-.17,1.83,1,3.45,2.55,6,5.85,12.29,10.23,22.39,15.52,10.79,5.64,15.88,7.52,20.67,7.62,3.74.07,3.69.06,3.62,1.08-.09,1.27-5.86.86-11.1-.8-5.47-1.73-17.93-8.63-26.38-14.6Zm38,20.13a19.45,19.45,0,0,0,.11-5.11c-.48-1.54.91-5.52,2.25-6.4s1.35,0,.16,1-2.29,4.3-1.87,5.78a15.84,15.84,0,0,1-.38,5L94.32,153Zm-43.12-26.2c-5.08-4.28-7.11-6.61-7.32-8.43-.11-1,.12-1.76.58-1.82,2.42-.31,1.54-7.69-1.35-11.28C42,99.32,41.9,99,42,94.83c.15-5.63,1.59-12.88,2.73-13.77s.5-3.57-.87-4.4c-.7-.43-.85.1-.77,2.74.09,3.09.07,3.12-.32.6-.59-3.74.19-6.13,1.57-4.78a3.08,3.08,0,0,1,1,1.69c0,.35.56,1,1.3,1.45a4.8,4.8,0,0,1,1.79,2.41c.39,1.41.52,1.4,1.15-.06,1.19-2.78,4.57.83,3.52,3.76-.27.73,0,2.79.54,5.08.87,3.39,1.06,3.71,1.52,2.66.33-.76.51-.79.48-.08a3.68,3.68,0,0,1-.6,1.83c-.77,1-2.93-7.58-2.6-10.28.21-1.61,0-2.21-1-3-.66-.54-1.23-.64-1.26-.23a.8.8,0,0,0,.74.83c1,.09,1.66,2.09.86,2.61-.39.27-.72,0-1-.8-.42-1.38-2.16,4.39-2.51,8.36-.22,2.44-.26,2.35-1.81-3.63-.87-3.37-1.72-6-1.88-5.93s.22,2.24.86,4.73,1.53,6.59,2,9.11a32.13,32.13,0,0,0,1.83,6.52c1,1.88,1,1.93,2.18,1.31.65-.36,2.26-3.59,3.59-7.18l2.4-6.52-1.07,14.8c-.89,12.16-1,15.45-.4,18.43.79,4.16.88,4.16-4.4-.27Zm5.25,1.92c-.4-1.62-.44-6.14-.1-13.32l.51-10.87,1.54,1.18,1.53,1.18-.2,9c-.14,6.26.06,10.36.65,13.41l.86,4.38-2.09-1.27A4.78,4.78,0,0,1,56.92,124.75Zm4.93,1.55c-.87-3.81-.89-5.71-.2-18.85.46-8.82.94-14.22,1.21-13.6a66.45,66.45,0,0,1,1.61,6.55c1.18,5.62,4.73,16.54,5.53,17,.24.15,2.35-1.41,4.69-3.45,4-3.49,5.12-4.88,3.75-4.61-.32.06-.55-.26-.52-.73s.39-.46.8,0a1.25,1.25,0,0,0,1.7.12c1.43-1.12,1.23-2-.29-1.32l-1.32.64,1.19-1a5.85,5.85,0,0,0,1.38-3.62c.12-1.68.49-2.52,1-2.39s.62.27.17.41c-.75.24-1.19,5.68-.46,5.53.54-.11.52,3.27-.06,8.54-.3,2.8-.21,3.83.36,4.18,1,.63,7.94-2.59,10-4.68s2.22-3,.44-2.11c-.72.36-.3-.31.93-1.48,1.9-1.8,2.22-2.52,2.1-4.85-.09-1.61.12-2.78.49-2.85s.49.21.24.77a24.23,24.23,0,0,0,.13,6c.28,2.78.48,8,.44,11.61-.08,6.44-.1,6.55-1.48,6.55-2.23,0-3.13,4.53-1.54,7.8a4.4,4.4,0,0,1,.3,3.9c-.51,1.67-1.11,1.92-3.86,1.61-5.27-.59-12.77-3.33-20.52-7.49l-7.27-3.9Zm10.09,3.62c2.63-1.73.93-8.48-2.68-10.68-3-1.83-4.71,3-2.77,7.81C67.34,129.15,70.55,130.84,71.94,129.92Zm-5.07-9a.9.9,0,0,1,.62-.84c.32-.06.56.21.53.61a.93.93,0,0,1-.63.84C67.08,121.56,66.84,121.29,66.87,120.89ZM86,134.56c1.31-1.36,1.2-4.15-.29-7.51-2.13-4.78-6.95-4.32-6.57.62.46,6.07,4.13,9.75,6.86,6.89Zm-5.78-4.83c-.15-.48,0-.91.22-1s.46.38.42,1c-.08,1.22-.26,1.22-.64,0Zm-.07-3.45c.08-1.22.39-1.31,2.44-.72l1.51.43-1.49,1C80.93,128.08,80,127.83,80.15,126.28ZM96.54,110.7c0-.39-.48-.43-1.13-.07A2.33,2.33,0,0,0,94.18,112c0,.4.48.43,1.13.08A2.37,2.37,0,0,0,96.54,110.7Zm-55.76-2.91c-1-2.75-.73-6.22.4-6.11s1.17.18,1.25,4.83c.08,4.29-.46,4.7-1.65,1.28Zm-2.23-5.29c.06-1,.33-1.82.59-1.87s.3.8.09,1.9c-.46,2.41-.85,2.4-.68,0Zm59.92,31.86c.09-1.19.24-1.52.33-.73a5.22,5.22,0,0,1-.16,2.16c-.19.4-.26-.24-.17-1.43Zm-3.91-2.53c.1-1.26,1.16-1.92,1.93-1.2s.51.88-.58,1.27C95.14,132.17,94.53,132.14,94.56,131.83ZM41.11,92.7c.21-3.19.39-4.35.39-2.57a48,48,0,0,1-.39,5.79c-.22,1.41-.22,0,0-3.22Zm27.18,18.6c-.8-2.46-1.78-5.74-2.18-7.28l-.73-2.82,4.43-4.88c3.3-3.63,4.53-4.54,4.81-3.54.57,2,2.76,15.43,2.69,16.48s-6.57,7.11-7.18,6.74a24.82,24.82,0,0,1-1.84-4.7ZM48.83,99.08c-.7-2.92-.22-7.52,1.33-12.76.73-2.5,1-2,2.62,4.34l1.4,5.64-1.43,3.18C51,103.3,49.8,103.18,48.83,99.08Zm49,31.11a15.94,15.94,0,0,1,0-3.64c.18-1.88.25-1.66.41,1.25.2,3.73.06,4.66-.37,2.39ZM83,115c.59-3.77,2.59-7.81,4.74-9.61.5-.43.79-1,.63-1.38s-1,.49-2,1.83-1.9,2.11-2.15,1.73-.36-.15-.23.53,0,1.3-.38,1.36c-1,.21-.52-2.64.55-3.12,1.65-.75,4.44-4.14,4.16-5-.59-1.91.63-4,1.88-3.25,2.33,1.42,3.13,4.78,1.44,6.1-.73.58-.79,1.34-.39,5.42.26,2.61.28,5,.06,5.29s-.54-2.06-.72-5.24c-.28-5-.2-5.81.58-6.08,1.38-.46.94-3.2-.67-4.18-1.2-.72-1.39-.5-1.6,1.84-.13,1.46,0,2.62.19,2.57.53-.1.81,2.27.92,7.78l.09,4.16L87.28,117c-5.24,2.46-5,2.55-4.33-2ZM58,99.05a2.44,2.44,0,0,1,1.37.83c.36.43,0,.41-.71,0S57.57,99,58,99.05Zm-.15-4.12c.19-2.73.29-2.84,1.84-1.9s1.62,1.16,1.44,3.9-.29,2.84-1.83,1.9S57.63,97.67,57.81,94.93Zm6.92,3.77c-.16-.8-.14-1.55,0-1.66s.29.26.26.83c0,1,2.9-1.16,3-2.21a2.78,2.78,0,0,1,1.09-1.34,13.57,13.57,0,0,0,4-4.82c.4-1.1.45-1.09.42.11,0,.75-1.75,3.27-3.84,5.59-4.87,5.41-4.57,5.2-4.89,3.5Zm33,19.2c.07-1.1.06-3.31,0-4.92s.06-2.79.32-2.63.41,2.46.33,5.11-.29,4.72-.45,4.62a4.48,4.48,0,0,1-.18-2.18Zm-55.59-34c.07-1,.22-1.33.34-.74A3.55,3.55,0,0,1,42.37,85c-.18.41-.28-.07-.21-1.07ZM77.6,105.58c0-.54-.55-3.86-1.24-7.38-1.06-5.35-1.14-6.56-.5-7.41s.64-1.4.18-2.87c-.34-1.07-.36-1.73-.05-1.54.82.5,1.1,4.5.38,5.44-.46.62-.29,2.5.61,7.1.68,3.45,1.1,6.58.92,7s-.31.38-.3-.3Zm4.91-.67c-.59-1.27-.19-2.61.64-2.11a1.8,1.8,0,0,1,.74,1.54C83.81,105.55,83,105.89,82.51,104.91ZM56.64,87.75c.08-.83.22-.93.35-.24s.07,1.23-.13,1.36S56.56,88.49,56.64,87.75Zm2.78,1.59c-1.21-1.06-1.23-1.28-.65-7.59.63-6.78.39-7.9-1.65-7.75-1.49.11-2.37-1.14-2.23-3.16.09-1.45.39-1.58,1.71-.78,2.65,1.62,3.36,1.35,3.54-1.32.1-1.47-.1-2.63-.51-2.88s-.48-.49-.06-.6a2.28,2.28,0,0,0,1-1.23c.57-1.36,1.93-.53,2.51,1.51.24.87.61,1.48.82,1.34.57-.38-1.12-3.59-2.26-4.28a1,1,0,0,0-1.46.62c-.25.68-.68,1.1-1,.92s-.06-.89.5-1.58c1.31-1.64,2.82-.68,4.33,2.74,1.32,3,1.44,3.83.56,4-.32.07-.62.75-.67,1.52-.1,1.55,1.44,2.89,2.52,2.18s3.31,5,3,6.94c-.41,2.31-2.23,2.65-4.37.81l-1.83-1.57-.07,5.53c0,3.81-.2,4.87-.46,3.43a24.61,24.61,0,0,1,0-5.64L63.15,79l2,1.22c1.11.68,2.37,1,2.8.65.66-.48.64-.55-.07-.45a7.31,7.31,0,0,1-3-1.18l-2.19-1.3-.6,6.61c-.34,3.63-.78,6.45-1,6.27s-1-.83-1.64-1.43Zm2.61-12c1-1.69.64-5.88-.62-6.64-1.11-.68-1.67,1.72-1.16,5C60.8,79.18,60.88,79.26,62,77.37Zm6.27-.92a5,5,0,0,0-3-2.87c-1.85-.71-2-.9-1.87-2.63.07-1,.39-1.92.71-2a1,1,0,0,0,.62-.89c0-.48-.27-.62-.82-.36s-1,1.54-1,2.93c-.17,2.48-.14,2.53,1.93,3.52a6,6,0,0,1,3,2.89c.51,1,1.06,1.8,1.23,1.69s-.17-1.14-.75-2.3ZM43.58,78.32c0-.62.31-.78.6-.35a3,3,0,0,1,.47,1.46c0,.38-.3.53-.6.35a1.76,1.76,0,0,1-.47-1.46Zm40.53,24.61c-.35-.8-.4-1.3-.1-1.12.57.35,1.29,2.22.94,2.44-.11.06-.49-.53-.84-1.32ZM57.81,81c.22-3.19.39-4.34.39-2.57a46.18,46.18,0,0,1-.39,5.8c-.22,1.41-.22,0,0-3.23Zm41.8,28.37a8,8,0,0,0-1-4.08c-.63-1.13-.9-1.91-.61-1.73,1.32.8,2.76,6.1,2,7.18C99.66,111.13,99.53,110.63,99.61,109.35Zm-2.23-1.06c-.89-1.9-.6-3.38.48-2.44a4.07,4.07,0,0,1,1,2.55C98.94,110.3,98.31,110.25,97.38,108.29Zm-7.8-6.6c-.68-1.45-.19-2.75.73-1.93a2.59,2.59,0,0,1,.87,1.84c-.07,1.14-1.08,1.2-1.6.09ZM74.17,88.29c.07-.93.38-1.28.77-.85a2.58,2.58,0,0,1,.6,1.68c0,.53-.38.92-.77.85S74.11,89.22,74.17,88.29Zm-1-2.07a.89.89,0,0,1,.61-.8c.33-.06.4.28.17.82C73.51,87.27,73.11,87.26,73.18,86.22ZM55,74.56c-.12-.38.35-.35,1,.07s1.13.94,1,1.16-.63.18-1-.07a2.44,2.44,0,0,1-1-1.16Zm-1-4.14c.35-3.35,1.62-3.94,3.43-1.57,1.12,1.47,1.08,1.48-.5.13s-1.78-1.26-2.12.07c-1,3.79-1.07,4-.81,1.37Zm5.19-2.2c.09-1.19.24-1.51.33-.73a5.27,5.27,0,0,1-.16,2.17C59.13,70.06,59.06,69.41,59.15,68.22Z"
                    />
                    <path
                        id="path868"
                        class="cls-11"
                        d="M74.83,211.83a16.53,16.53,0,0,1,3.28,2c.81.66,0,.3-1.81-.8s-2.46-1.64-1.47-1.2Zm8.1,4.82c-.14-.44.35-.27,1.08.37a5.22,5.22,0,0,1,1.31,1.44C85.28,219,83.17,217.42,82.93,216.65Zm5.54,3.52a2.37,2.37,0,0,1,1.36.83c.37.42,0,.4-.7-.05S88.08,220.14,88.47,220.17Zm-8-5.87a2.17,2.17,0,0,1,1.41.13c.3.18.16.42-.32.53a2.18,2.18,0,0,1-1.41-.12C79.86,214.65,80,214.41,80.48,214.3Zm-10-7.8-.94-2.27,1.14,2.13c1.07,2,1.35,2.78.91,2.51a15.46,15.46,0,0,1-1.11-2.37Zm2.64,2.19a15.06,15.06,0,0,1-2.39-4.81c-.62-2.38-1-2.94-2.89-4.08-3.89-2.36-4.9-6.92-2.27-10.24.69-.87,1.43-.83,3.07.17,2.72,1.66,9.2,2.24,11.3,1a16.75,16.75,0,0,0,3.83-4.56,19.49,19.49,0,0,1,4.93-5.35c2.11-1.33,2.74-2.23,2.87-4.05.08-1.29.36-2.39.6-2.44,1-.19,6.21,6.27,7.57,9.33a12.75,12.75,0,0,0,2.17,3.65,14.65,14.65,0,0,1,2.35,3.71c1.31,2.64,1.53,3.6,1.17,5.13s-.16,2.48,1,4.85c2.43,5,3.21,13.2,1.7,17.93-.8,2.5-4.55,3.63-7.21,2.19A14.8,14.8,0,0,0,94.73,220c-4.69.08-9.77-2.12-11.64-5-1.07-1.69-1.5-2-3.42-2.21-2.77-.37-4.48-1.41-6.59-4ZM59.06,197a3.73,3.73,0,0,1,1.64,1c.35.42-.09.31-1-.26s-1.19-.91-.65-.77Zm41,24.9a3.64,3.64,0,0,1,1.63,1c.36.42-.09.31-1-.26s-1.19-.91-.64-.77Zm4.49.93a5.35,5.35,0,0,0,3.4-1.86c1.31-1.8,1.63-1.26.41.69a3.37,3.37,0,0,1-3.62,1.92c-2.48,0-2.6-.54-.19-.75ZM54.63,190.94c-1.23-2.23-1.86-4.08-1.79-5.18a5.45,5.45,0,0,0-.92-3.16c-1.47-2-1.24-3.89.31-2.5,5.25,4.75,7.08,6.14,9.6,7.26,2.88,1.28,2.89,1.29,2.1,2.54a9.49,9.49,0,0,0-.68,4.27c.08,2.67-.06,3-1.31,2.87-2.71-.27-5.3-2.43-7.31-6.1Zm9.7,7.76a2.44,2.44,0,0,1,1.37.83c.36.43,0,.41-.71-.05S64,198.68,64.33,198.7Zm-11.65-9.08a10.54,10.54,0,0,1-1-3.93,3.82,3.82,0,0,0-1-2.66,3.52,3.52,0,0,1-1-2.13q.06-1,1.32,1.5a10.17,10.17,0,0,1,1.16,3.83,10.46,10.46,0,0,0,1,3.72c.59,1.32,1,2.33.8,2.23a13.47,13.47,0,0,1-1.35-2.56Zm57.39,24.88c.08-.83.22-.92.36-.23s.06,1.23-.14,1.36-.3-.38-.22-1.13ZM47,175.39c-.54-1-.67-1.36-.29-.85A30.74,30.74,0,0,0,48.79,177c1.14,1.18,1.2,1.35.29.85A7.12,7.12,0,0,1,47,175.39Zm3,.45a21.54,21.54,0,0,1-3-3.51c-.44-1-.54-4.34-.2-6.83.17-1.25.24-1.16.75.84,1.09,4.24,2.85,5.88,12.95,12S72.3,185,74.52,182.25c1.58-2,1.73-6.55.3-9.15L73.66,171l3-.17c7.22-.41,11.71-3.54,12.74-8.85.44-2.25.82-2.84,1.56-2.39s.93.15.79-1c-.11-1,.08-1.46.47-1.22,1.55.94-3.68,14.48-7.1,18.38-1,1.08-1,1-.47-1.36.33-1.62.29-2.59-.11-2.84s-.69.62-.77,1.84c-.16,2.36-2.55,4.39-4.16,3.53-.48-.27-.62-.17-.31.2s.23,1.92-.52,4.72c-2.61,9.78-3.51,9.88-17,2-6.63-3.86-10-6.16-11.86-8Zm-4.91-4c-.23-1.21-.16-1.25.33-.22.34.72.47,1.41.28,1.53s-.46-.47-.61-1.31Zm-.43-5c.1-1.39.25-1.89.34-1.11a7.67,7.67,0,0,1-.17,2.53C44.56,168.87,44.49,168.23,44.58,166.83Zm8.19,5.2c-1.31-1.15-1.42-1.65-.57-2.75s2.26.91,2.14,2.7c-.06.81-.16,1.39-.23,1.29s-.68-.65-1.34-1.24Zm2.57.53c.29-.68.69-1.12.9-1s.59.42.86.58a3.38,3.38,0,0,1,.67,1.92c.16,1.34-.08,1.45-1.38.66s-1.5-1.12-1-2.2Zm3.36,2.19c.15-2.26,1.67-2.48,2.25-.33.76,2.79.51,3.43-1,2.52a2.16,2.16,0,0,1-1.27-2.19Zm3.59,2.4c-.31-1.65.2-2.45,1.18-1.85.68.41,1.29,2.34,1.19,3.8C64.58,180.24,62.56,178.58,62.29,177.15Zm2.91,2.28c.1-1.44.9-2.53,1.57-2.13s1.38,2.91.86,3.61-2.48-.62-2.43-1.48ZM49.28,168.86c-.51-.73-.76-1.55-.56-1.82.63-.85,1.8.33,2,2s-.1,1.77-1.44-.19Zm-2.92-5.72c1.53-1.19,1.85-1.26,1.76-.38,0,.29-.77.75-1.63,1l-1.58.49Zm60,34.1c.57-2.48-.79-6.29-3.62-10.09a13.78,13.78,0,0,1-2.22-4.16c-.23-1.35-.19-1.34.35.06a20.52,20.52,0,0,0,2.24,3.79c3.25,4.41,4.84,9.83,3.39,11.63-.44.55-.48.21-.14-1.23ZM49.74,161.15c-.56-1.19-.26-1.9.59-1.38A1.51,1.51,0,0,1,51.1,161C51,161.86,50.14,162,49.74,161.15Zm4.16,2.51c-1-1.17-.68-2.14.52-1.4.6.36,1.07,1,1,1.34C55.41,164.53,54.7,164.55,53.9,163.66Zm-7.1-5.72c.08-.83.22-.93.36-.24s.06,1.23-.14,1.36-.29-.38-.22-1.12Zm11.39,7.44c0-.35.45-.61.94-.56,1.26.12,1.36.23,1.28,1.45,0,.6-.56.79-1.17.42s-1.07-.95-1.05-1.31Zm4.72,3c-.62-1.33-.25-1.91.83-1.26.73.45.95.94.68,1.55C64,169.67,63.45,169.56,62.91,168.42Zm3.52,1.18a.91.91,0,0,1,.63-.8c.31-.06.54.4.5,1s-.33,1-.63.8a1.23,1.23,0,0,1-.5-1ZM45.92,154.82c.07-1,.22-1.33.33-.74a3.5,3.5,0,0,1-.12,1.82c-.18.4-.28-.08-.21-1.08Zm2-.71c.46-1.6.41-1.67-1.54-2.36s-2-.78-1.86-2.92c.18-2.74,1.09-3,2.26-.72,1.4,2.77,3.45,3.55,5.8,2.23,2.68-1.5,2.76-2.6.48-7-1.6-3.08-2.15-3.67-4.61-5-2.62-1.4-2.82-1.64-3.33-4.05-.91-4.31-.58-6.24.84-4.79a49.71,49.71,0,0,0,4.44,3.66c3.56,2.65,5.29,5.44,5.52,8.88.1,1.41.2,1.21.39-.76.15-1.5.48-2.39.75-2s.74.34,1.06-.15c.48-.73,1.89-.16,8.06,3.27l7.47,4.15-.08,2.13c0,1.17-.18,3-.3,4-.33,2.78,1.62,6.91,4.21,8.89l2.16,1.67-1.86-1.95c-3.55-3.73-4.56-7.21-3-10.48,1.15-2.44,2.37-2.39,7.39.29L86,153.18l.8,3.26c.75,3,.73,3.41-.25,5.5-1.31,2.78-5,5.4-9.56,6.84l-3.48,1.09-7.43-3.65c-4.08-2-10-5.18-13-7.06l-5.61-3.41Zm10,5a12.71,12.71,0,0,0-1.17-4.45c-1.4-3.43-1.42-3.46-2.94-3.08-1.95.48-2.27,3.41-.59,5.43s4.43,3.28,4.7,2.1Zm11,2.43c1.12-.74,1.62-1.79,1.74-3.67.52-7.68-6.15-13.49-12.25-10.68l-2,.9,2.76,5.61c2.55,5.2,3,5.73,5.44,7.24C66.81,162.24,67.62,162.36,68.89,161.52Zm-14.8-19c-1.29-4.79-6.19-10-7.93-8.46-1,.89-.43,1.6,2.23,2.8,2.07.94,2.61,1.52,4.09,4.41C54.35,145,54.84,145.34,54.09,142.57Zm4.25,3c3.87-1,4.41-.87,8.06,1.33,3.49,2.11,4.77,2.1,2.93,0-2.16-2.5-6.59-4.46-8.56-3.78-1.09.38-2.69.84-3.56,1-1.52.34-2.13,1.16-1.26,1.69a5.82,5.82,0,0,0,2.39-.25Zm-16,2.11c.09-.83.23-.92.36-.24s.06,1.24-.13,1.37-.3-.38-.23-1.13ZM43,146c0-.15.48-.46,1-.68.93-.38,1-.34.19.4S43,146.58,43,146Zm46.48,25.4a1.11,1.11,0,0,1,1.32.34c.4.43.13.61-.63.41-.93-.23-1.14-.46-.69-.75ZM92.78,173a2.42,2.42,0,0,1,1.36.83c.36.43,0,.41-.71-.05S92.39,173,92.78,173ZM44.66,140.1c.09-1.19.24-1.51.33-.72a5.21,5.21,0,0,1-.17,2.16C44.64,141.94,44.56,141.29,44.66,140.1Zm45.73,28.56a3.23,3.23,0,0,1,.65-1.49c.33-.42.58-.44.55,0a3.34,3.34,0,0,1-.65,1.49C90.61,169,90.36,169.06,90.39,168.66ZM43.93,136.22c-.17-.55-.18-1.08,0-1.18s.39.4.53,1.13c.28,1.5,0,1.53-.51.05ZM93.14,162c.08-.83.22-.93.36-.24s.06,1.23-.14,1.36-.3-.38-.22-1.12ZM43,130c.08-.83.22-.92.36-.24s.06,1.24-.14,1.37S42.92,130.73,43,130Zm51.16,27c.15-2.2.31-3,.37-1.86a20.57,20.57,0,0,1-.27,4C94.06,160.16,94,159.2,94.16,157ZM42.28,124.5a20.33,20.33,0,0,1-.15-5.28c.27-1.18.34-1,.27.9a17.21,17.21,0,0,0,.4,4.24,7.32,7.32,0,0,1,.23,2.83c-.13.57-.47-.64-.75-2.69ZM47,129.15c-3.14-3.39-3.64-4.49-3.44-7.52.17-2.53.31-2.74,1.11-1.65,2.39,3.27,7.74,7.37,19.46,14.9L76.75,143l-2,.82-2,.82-12.25-7C53.82,133.78,47.7,130,47,129.15Zm40.93,24.73c-.73-1.1.92-.88,3.08.41,1.15.69,1.5.69,1,0s-.51-1,.21-1,.86.54.78,1.8c-.1,1.48-.43,1.57-2.35.65a8.88,8.88,0,0,1-2.76-1.87Zm6.72-3.77c.11-1.59.26-2.09.33-1.11a10.14,10.14,0,0,1-.2,2.89c-.18.61-.24-.19-.13-1.78Zm-42.8-25c-4.8-4-8.06-7.18-7.75-7.6.16-.21,2,1.28,4.16,3.32,5.51,5.29,12.36,9.92,22.47,15.21,8.79,4.61,10,5.43,8.4,5.77-1.06.24-23.26-13.36-27.28-16.7Zm1.77-.85c-8.44-7-10.8-10.42-8.24-12.11,2.13-1.4,1.27-7.27-1.58-10.69-2-2.43-2.25-4.44-1.32-11.27,1.34-9.86,1.61-10,3.43-2.07.86,3.79,1.81,8.17,2.11,9.74.62,3.27,1.63,5.63,2.68,6.27s3.18-3.46,5.11-9.07l1.48-4.26-1,14.3c-.78,11.51-.83,15-.28,17.93C56.75,127,56.85,127,53.57,124.28Zm3.24-1.43c-.68-4.92.19-21.24,1.14-21.43a2.51,2.51,0,0,1,1.56.92c.86.92.94,2.15.68,10.08-.22,6.83-.07,10.06.6,13.17l.9,4.13-2.15-1.31c-2.11-1.28-2.15-1.37-2.73-5.56Zm5.71,3.09c-.82-4.32-.86-6.66-.28-18.13l.67-13.17,1.8,7.13c1,3.92,2.57,9.23,3.52,11.79l1.71,4.67,4.25-3.68c2.34-2,5.12-4.63,6.19-5.79l1.94-2.12L82,113.37c-.18,4.1-.07,6.68.27,6.61.84-.17-.86,3-2.19,4.12-.89.73-1.1,1.56-.93,3.58.12,1.44.22,4.55.22,6.91v4.28L77,137.82c-1.31-.58-4.9-2.37-8-4l-5.58-2.93Zm9.42,4c3.66-2.41-1.24-13-5-10.87-1.32.73-1.64,4.36-.64,7.24s4,4.73,5.69,3.63Zm-29-13.3c.54-1.55.05-3.55-1-4.21-.94-.57-3.13-4.85-3-6,0-.33.49.57,1,2a8,8,0,0,0,2,3.22c1.43.87,2.23,4,1.32,5.15-.66.84-.68.83-.31-.2ZM95.35,146c.08-.83.22-.93.36-.24s.06,1.23-.14,1.36-.3-.38-.22-1.12Zm-9.59-7.07c-.18-.57-.08-.66.22-.2s.71.24.92-.46.15-1.41-.13-1.58,0-1,.52-1.76c.91-1.29.91-1.35,0-.58-1.12,1-1.19.61-.26-1.56.46-1.07.48-1.65.06-1.9s-.35-.59.16-1,.59-.77-.14-1.21a2,2,0,0,1-.81-1.67c0-.62-.15-1.08-.43-1-1.19.24-.76-3.78.44-4.22.68-.24.91-.43.52-.41-1.61,0-.41-1.7,2.84-4.14A57.65,57.65,0,0,0,95,112.7l1.81-1.85.17,3.06c.1,1.68.08,5.46,0,8.39-.2,4.93-.33,5.39-1.79,6.23-1.71,1-2.47,5.34-1.35,7.73s.81,3.78-.46,2.47-1.14-1.16-.14.58c1.25,2.16.79,2.58-1.45,1.31-1-.57-1.72-.58-1.76,0s-.32,1-.63,1-.41-.24-.22-.68-.06-1-.73-1.46-.93-.28-.64.43.06.89-.63.54a3.06,3.06,0,0,1-1.37-1.55Zm5.22-.43a2.58,2.58,0,0,0-.84-1.26c-.3-.19-.41.08-.25.59a2.54,2.54,0,0,0,.83,1.27C91,139.26,91.14,139,91,138.48Zm-4.57-15c-.14-.68-.28-.59-.36.24s0,1.25.22,1.12.26-.74.14-1.36Zm9,17.3a4.77,4.77,0,0,1,1.73-2.72l1.27-.73-1,.92A9.89,9.89,0,0,0,95.71,141l-.77,1.8ZM38.55,102.5c.06-1,.33-1.81.59-1.87s.3.8.09,1.9c-.46,2.42-.85,2.4-.68,0Zm1.66.67c0-.79.35-1.5.67-1.56s.53.53.48,1.33-.36,1.5-.67,1.57-.54-.54-.48-1.34Zm39.91,23.52a1,1,0,0,1,.62-.85c.32-.06.56.22.53.61a.93.93,0,0,1-.62.84C80.33,127.36,80.09,127.08,80.12,126.69Zm18.35,7.67c.09-1.19.24-1.52.33-.73a5.27,5.27,0,0,1-.16,2.17c-.19.39-.26-.25-.17-1.44ZM41.11,92.7c.21-3.19.39-4.35.39-2.57a48,48,0,0,1-.39,5.79c-.22,1.41-.22,0,0-3.22Zm56.75,37.49a15.94,15.94,0,0,1,0-3.64c.18-1.88.25-1.66.41,1.25.2,3.73.06,4.66-.37,2.39ZM48.67,98.24c-.44-1.95.61-10.37,1.35-10.86.2-.13.16,2.76-.09,6.41a54.32,54.32,0,0,1-.63,6.53,8.76,8.76,0,0,1-.63-2.08Zm18.38,9a27.14,27.14,0,0,1-1.18-5.35c.07-1.1,6-8.21,7.85-9.38,1.42-.91.24,3.61-2.08,7.95A31.14,31.14,0,0,0,69,107.78l-.71,3.72Zm15.61,10.12a22.77,22.77,0,0,0,.62-4c.12-1.8,1-3.63,3.08-6.22,2.75-3.46,4.21-4.2,2.72-1.36-.37.71-1.38,3.23-2.24,5.61-1.47,4.09-3.68,7.94-4.33,7.55-.16-.1-.09-.82.15-1.61ZM58,99.06a1.37,1.37,0,0,1,1,.69c.17.35-.17.33-.74-.06s-.75-.67-.3-.63ZM46.24,86.5c-.65-2.82-1-5.54-.79-6,.46-1.07-1-4.42-1.83-4.25-.34.07-.54,1.34-.46,2.94.1,1.95,0,2.38-.3,1.41A9.25,9.25,0,0,1,43,75.13c.4-.92,2.48.62,2.4,1.78,0,.35.58,1,1.34,1.48a3.77,3.77,0,0,1,1.62,2.06,1.52,1.52,0,0,0,1.1,1.31c.73.07.79.47.36,2.34-.28,1.24-.76,3.55-1.06,5.13S48,92,47.81,91.87a27.86,27.86,0,0,1-1.57-5.37Zm11.57,8.43c.19-2.73.29-2.84,1.84-1.9s1.62,1.16,1.44,3.9-.29,2.84-1.83,1.9S57.63,97.67,57.81,94.93ZM87.17,114.8a2.29,2.29,0,0,1,.81-1.48c.6-.46.6-.54,0-.46s-.56-.17.16-1.11a5.19,5.19,0,0,0,.83-2.94c0-1,.18-1.78.52-1.85s.49.84.26,2.73a10.79,10.79,0,0,0,0,3.56,2,2,0,0,1-.26,1.67c-.75,1.21-2.34,1.12-2.26-.12Zm-9.25-6.13c0-.4.31-.57.63-.38a.61.61,0,0,1,.19.88c-.21.28-.5.45-.63.37A1.16,1.16,0,0,1,77.92,108.67ZM53.35,90.06c-1.59-6.23-1.37-6.76.3-.74a23.84,23.84,0,0,1,1.11,5.09c-.14.09-.78-1.87-1.41-4.35Zm44.62,27c.12-1.8.28-2.46.35-1.49a13.21,13.21,0,0,1-.22,3.26C97.91,119.68,97.85,118.88,98,117.09ZM64.93,99c0-.15.42-.46.91-.69.75-.34.82-.25.47.57s-1.43.93-1.38.12Zm14.2,8.63c0-.15.48-.46,1-.69.92-.37.94-.33.19.4s-1.27.89-1.23.29Zm-37-24.15c.08-.83.22-.92.35-.24s.07,1.24-.13,1.37-.3-.38-.22-1.13ZM77.64,105c.08-.83.22-.92.36-.24s.06,1.24-.14,1.37-.3-.38-.22-1.13Zm5.42,3.27a3.93,3.93,0,0,1,2-2.53l1.87-1.08-1.46,2.13c-2,2.91-2.5,3.21-2.38,1.48Zm7.7,3.82a30,30,0,0,0-.24-4.81c-.29-2.19-.17-3,.52-3.51,1.19-.93,1.25-2.75.15-4.36-.5-.73-.65-1.17-.34-1,1.7,1,2.19,4.54.78,5.66-.71.56-.79,1.39-.46,4.88.38,4.08.43,4.19,1.5,3.56s1.07-.6,0,.68c-1.5,1.72-2,1.4-1.86-1.11ZM67.6,96c.41-.78,1.09-1.39,1.49-1.35s.17.71-.56,1.52c-1.6,1.78-1.94,1.72-.93-.17Zm13.78,7.43c.12-1.68.49-2.52,1-2.39.69.16.7.24,0,.44s-.73,1-.58,2.3c.12,1.13,0,2.09-.23,2.14s-.37-1.07-.26-2.49Zm1.2.78c-.58-1.22-.29-1.93.57-1.41a1.85,1.85,0,0,1,.74,1.58C83.82,105.51,83.15,105.43,82.58,104.21Zm12,6.28c.6-.46,1.21-.77,1.36-.68s-.21.55-.81,1-1.21.78-1.36.69.22-.55.81-1ZM59.69,89.42l-1.54-1.18.75-6.3c.81-6.78.49-8.14-1.85-7.91-.86.09-1.27-.24-1.72-1.35-1-2.38,0-3.29,2.25-2.16,2.09,1,2.09,1,2.38-2.32.45-5.23,1.07-6.05,2.69-3.55.52.79.62,2.24.36,4.81l-.38,3.68,2.15,1c2.11,1,3.34,2.67,3.23,4.36-.1,1.52-1.54,1.75-3.45.55l-1.91-1.19-.71,6.36-.71,6.35Zm2.43-12.2a4.28,4.28,0,0,0,.46-3.86c-1-4.38-3-3.14-2.51,1.57C60.5,79.17,60.77,79.48,62.12,77.22Zm14.52,22c-.41-2.15-.22-2.52.33-.66.27.92.36,1.76.21,1.86s-.4-.44-.54-1.2Zm21,12.4c0-.79.32-1.31.59-1.14s.32.87.11,1.57-.48,1.22-.59,1.15A3.27,3.27,0,0,1,97.62,111.59ZM43.56,78.68c0-.42.28-.41.57,0a2.92,2.92,0,0,1,.49,1.1c0,.18-.27.17-.57,0A1.28,1.28,0,0,1,43.56,78.68Zm40.55,24.25c-.35-.79-.4-1.3-.1-1.12.57.35,1.29,2.22.94,2.44-.11.06-.49-.53-.84-1.32Zm-33.38-21c0-.62.31-.78.59-.35A2.78,2.78,0,0,1,51.79,83c0,.38-.29.54-.59.35A1.76,1.76,0,0,1,50.73,81.91Zm2.06,1c-.18-1.52-.51-2-1.63-2.4-.77-.27-1.26-.69-1.07-.93C51,78.29,53.94,82.32,53.3,84c-.16.42-.39-.09-.51-1.14Zm9.8,4.38a7.25,7.25,0,0,1,0-2.69c.15-.1.36,1,.47,2.35.25,3.29-.23,3.61-.52.34Zm7.58,6.12a7.79,7.79,0,0,1,1.53-1.71,5.1,5.1,0,0,0,1.42-2.16l.36-1.29,0,1.48a5.18,5.18,0,0,1-1.89,3c-1,.84-1.63,1.14-1.37.68ZM57.83,80.62c.2-3,.38-4.16.4-2.59a41.35,41.35,0,0,1-.37,5.43C57.64,84.89,57.63,83.6,57.83,80.62Zm38.11,27.25c-.35-1.85-.16-4,.36-4.12.23,0,.35,1.19.27,2.76-.19,3.15-.26,3.32-.63,1.36Zm1.44.42c-.89-1.9-.6-3.38.48-2.44a4.07,4.07,0,0,1,1,2.55C98.94,110.3,98.31,110.25,97.38,108.29Zm-9.1-7.85c.06-2.26.09-2.28.49-.32.23,1.14.2,2.22-.07,2.4s-.46-.76-.42-2.08ZM75.35,93.18c-.13-.69,0-1.3.32-1.36.77-.16.88-3.11.17-4.63-.45-1-.44-1.17,0-.87.84.51,1.23,4.14.58,5.44a4.71,4.71,0,0,0-.45,2c.06,1.33-.38,1-.67-.57Zm14.22,8.49A4.16,4.16,0,0,1,89.3,100c.09-1.28,1.53-.36,1.81,1.16C91.45,103,90.34,103.32,89.57,101.67Zm9.17,4c-.6-1.32-.9-2.28-.65-2.14.53.33,2.33,4.35,2,4.46A7.69,7.69,0,0,1,98.74,105.72ZM74.17,88.29c.06-.8.35-1.3.65-1.12A2.31,2.31,0,0,1,75.27,89c-.06.8-.35,1.3-.65,1.12A2.29,2.29,0,0,1,74.17,88.29ZM55,74.56c-.12-.38.35-.35,1,.07s1.13.94,1,1.16-.63.18-1-.07A2.44,2.44,0,0,1,55,74.56Zm9.48,5.58c-1.08-1.14-.9-1.13.93.08,1.24.82,2.13,1.66,2,1.87-.34.47-1.11,0-2.9-2Zm4.21,0a5.54,5.54,0,0,0-3.43-6.57c-1.85-.71-2-.9-1.87-2.63.07-1,.39-1.92.71-2,1.53-.31-.85-5.71-2.82-6.4-.9-.31-1.16-.6-.76-.86.94-.62,3.13,1.88,4,4.59.59,1.78.63,2.58.16,2.89-1,.69-.94,3,.16,3.64A1.72,1.72,0,0,0,66.5,73c.46-.3,1,.4,1.93,2.49,1.25,2.82,1.36,5.59.25,6.23-.27.16-.26-.55,0-1.57Zm-14.77-12c0-.16.48-.46,1-.69.93-.38.94-.34.19.4s-1.27.88-1.23.29Zm3.08.66c-.16-.53.07-.52.54,0,.91,1.06,1.05,1.69.26,1.21A2.58,2.58,0,0,1,57,68.82Zm2.14-.6c.09-1.19.24-1.51.33-.73a5.27,5.27,0,0,1-.16,2.17C59.13,70.06,59.06,69.41,59.15,68.22Zm-.06-4.94c.21-.28.49-.45.63-.37s.21.47.19.87-.31.57-.63.37A.59.59,0,0,1,59.09,63.28Z"
                    />
                    <path
                        id="path866"
                        class="cls-12"
                        d="M73.73,211.2a2.45,2.45,0,0,1,1.36.83c.36.43,0,.41-.71-.05S73.34,211.17,73.73,211.2Zm4.4,2.66a1.37,1.37,0,0,1,1,.7c.17.35-.17.32-.74-.06s-.75-.67-.3-.64Zm5.46,3.32a1.37,1.37,0,0,1,1,.7c.17.35-.17.32-.74-.06s-.75-.67-.3-.64Zm5.46,3.32a1.37,1.37,0,0,1,1,.7c.17.35-.17.32-.74-.06s-.75-.67-.3-.64Zm-8.57-6.2a2.17,2.17,0,0,1,1.41.13c.3.18.16.42-.32.53a2.18,2.18,0,0,1-1.41-.12C79.86,214.65,80,214.41,80.48,214.3Zm-10-7.8-.94-2.27,1.14,2.13c1.07,2,1.35,2.78.91,2.51a15.46,15.46,0,0,1-1.11-2.37Zm3.1,2.75a12.41,12.41,0,0,1-2.71-5c-.78-2.65-1.25-3.37-2.83-4.33-3.86-2.34-4.9-6.16-2.69-9.85.82-1.36,1.33-1.37,4.13,0,7,3.38,11.29,2,15.25-4.87A14,14,0,0,1,89,181c2.33-1.36,2.93-2.16,3.06-4.08.16-2.32.21-2.34,2.07-.79,2.31,1.93,5.49,6.62,5.4,8a6.08,6.08,0,0,0,1.71,2.88c2.59,2.79,4.64,7.59,4.08,9.53a4.57,4.57,0,0,0,.62,3.63c3,5.78,3.78,15.56,1.59,19.35a5.11,5.11,0,0,1-7.34,1.31,4.42,4.42,0,0,0-3.43-1c-5,.92-12.17-1.78-13.76-5.15-.63-1.36-1.1-1.72-2.33-1.83a12.07,12.07,0,0,1-7.16-3.56Zm31.07,13.91c.32-.15,1.31-.64,2.2-1.1s1.61-.66,1.6-.45c-.06.79-2.18,2.06-3.26,1.94-.62-.07-.86-.25-.54-.39ZM51.83,187.78c-.17-.54-.18-1.08,0-1.18s.39.41.53,1.13c.28,1.5-.05,1.53-.51.05Zm2.94,2.4c-.28-1.75.31-1.36.82-.77.36.41.21-.68,0,0C55.27,190.48,54.88,190.85,54.77,190.18Zm-1.68-3.85c-.16-.51,0-.77.29-.58s-.16.25-.18.65.55,1.09.42,1A2.82,2.82,0,0,1,53.09,186.33Zm57,28.17c.08-.82.22-.92.36-.23s.06,1.23-.14,1.36-.3-.38-.22-1.13ZM48.22,176.83a1.36,1.36,0,0,1,1,.69c.17.35-.16.32-.74-.06s-.75-.67-.3-.64Zm3.05.06c-4.44-3.81-4.91-4.69-4.62-8.64.25-3.38.26-3.38.92-1,.5,1.83,1.31,3,3.37,4.88,3.61,3.29,16.43,11,19.2,11.61,4.41.9,7.11-4.23,5.11-9.71a12.35,12.35,0,0,1-.87-3c.11,0,1.71-.15,3.56-.23,6.13-.27,11.4-4.51,11.77-9.47.07-1,.57-1.42,1.3-1.23,1.06.27,1.13.5.67,2.39a62.76,62.76,0,0,1-6.1,12.25c-.76.95-.8.9-.67-.93a5.67,5.67,0,0,0-.39-2.71c-.3-.45-.58.11-.66,1.34-.16,2.42-2.07,4.6-3.75,4.29-.7-.12-1.06.28-.93,1a21.77,21.77,0,0,1-1,5.69c-1.33,5.06-2.58,6.2-6,5.45-2.95-.65-17.34-8.89-21-12Zm-6.84-9.08c.08-.83.23-.92.36-.24s.06,1.23-.14,1.36S44.36,168.56,44.43,167.81Zm10.81,4.94c.76-1.88,1-2,1.7-.61,1.13,2.08.72,3.4-.77,2.49C55.12,174,54.91,173.57,55.24,172.75Zm3.46,2c.15-2.26,1.67-2.48,2.25-.32.76,2.78.51,3.42-1,2.51a2.16,2.16,0,0,1-1.27-2.19Zm3.85,1.88c.15-2.16,1-1.87,1.65.57s.57,2.66-.68,1.9c-.8-.49-1.06-1.15-1-2.47Zm3.36,2.28c.15-.8.6-1.41,1-1.34,1,.17.67,3-.37,2.89-.67-.06-.82-.45-.61-1.55ZM52.2,170c.82-1.32,1.53-1,1.87.82.38,2,.34,2-1.17,1.11C51.69,171.15,51.6,170.92,52.2,170ZM49,167.6c0-.6.44-.86.89-.59a1.88,1.88,0,0,1,.75,1.59c0,.59-.45.86-.9.59A1.88,1.88,0,0,1,49,167.6Zm-2.54-4.49c0-.14.41-.43.89-.66s.86-.09.83.34a.77.77,0,0,1-.89.65C46.77,163.4,46.4,163.25,46.41,163.11ZM106.47,197a7.77,7.77,0,0,0-.15-3.3c-.48-2-.47-2,.25-.16.84,2.13.87,4.4.06,4.56C106.34,198.16,106.27,197.66,106.47,197ZM46.8,157.94c.08-.83.22-.93.36-.24s.06,1.23-.14,1.36-.29-.37-.22-1.12ZM49.46,160c0-.4.42-.5.87-.22A1.57,1.57,0,0,1,51.1,161c0,.4-.42.5-.87.23A1.57,1.57,0,0,1,49.46,160Zm4.09,2.49c-.15-.51.22-.62.84-.24a2.06,2.06,0,0,1,1.08,1.4c0,.4-.41.51-.84.25a2.94,2.94,0,0,1-1.08-1.41Zm4.92,3c-.16-.51.23-.61.87-.23s1,.94.77,1.23a.69.69,0,0,1-.87.22A2.5,2.5,0,0,1,58.47,165.47Zm4.67,2.46c0-.6.31-.94.61-.75a1.69,1.69,0,0,1,.48,1.41c0,.6-.32.94-.62.76A1.69,1.69,0,0,1,63.14,167.93Zm3.91,1.57c.09-.83.23-.93.36-.24s.06,1.23-.13,1.36-.3-.37-.23-1.12ZM45.92,154.82c.07-1,.22-1.33.33-.74a3.5,3.5,0,0,1-.12,1.82c-.18.4-.28-.08-.21-1.08Zm2-1c.47-1.93.44-2-1-2.14-1.77-.18-2.51-1.06-2.39-2.85.14-2.06,1.31-2.41,2.15-.63,1.2,2.55,3.69,3.53,6,2.36,2.08-1.07,2.77-3,1.69-4.6-.41-.62-.37-.9.12-1,1-.21-2.08-7.17-4.12-9.19a5.5,5.5,0,0,0-3.48-1.8c-1.76-.13-1.81-.19-2-2.52-.28-3-.19-3.07,2.35-.69A32.47,32.47,0,0,0,51.37,134a4.62,4.62,0,0,1,2.3,2.51,5.6,5.6,0,0,0,1.24,2.32,3.9,3.9,0,0,1,.89,3c-.08,1.38,0,1.74.42,1.25a3.74,3.74,0,0,0,.36-2.23c-.12-1,.11-1.36.66-1s.95.21,1.09-.16c.38-1,4.6.68,10.31,4.11l5.09,3.07-.36,3.36c-.46,4.3-.11,6.48,1.43,8.9s6.94,6.67,7.53,5.88c.29-.4-.29-1-1.8-1.94-4.82-2.93-6.85-6.93-5.82-11.45.7-3.07,1.51-3.2,6.44-1,4,1.81,4.39,2.08,5.19,4,2,4.77.09,9.43-4.84,12.06-6.51,3.46-7,3.45-15-.39-4-1.91-9.88-5.05-13.1-7l-5.86-3.53Zm10,5.79c.56-.5.39-1.38-.84-4.28-1.74-4.1-2.25-4.61-3.79-3.77-1.37.75-1.58,3.52-.4,5.24C54.27,158.7,57.15,160.31,58,159.58Zm9.29,2.59c2.24.11,4.15-2.92,3.73-5.92-1-7.22-7-11.82-12.31-9.42l-2.24,1,2.4,5.15c2,4.35,3.95,7.16,6,8.74a7,7,0,0,0,2.41.43Zm-8-16.63c1.81-1,4-.52,7.6,1.64,3,1.84,4.09,1.75,2.78-.23-.8-1.21-6.07-4.21-7.67-4.36a6.72,6.72,0,0,0-3.29,1c-1,.65-2.17,1-2.47.85s-.57,0-.6.44c-.07,1.05,2.18,1.44,3.65.62ZM42.37,147.7c.09-.83.23-.92.36-.23s.06,1.23-.13,1.36-.3-.38-.23-1.13Zm51,25.65a1.37,1.37,0,0,1,1,.69c.17.35-.17.33-.74,0s-.75-.68-.3-.64ZM44.66,140.1c.09-1.19.24-1.51.33-.72a5.19,5.19,0,0,1-.17,2.16C44.64,141.94,44.56,141.29,44.66,140.1Zm6.69.24c-1.55-2.19-2.89-3.1-4.35-3a1.21,1.21,0,0,1-1.34-.74c-.14-.47.69-.5,1.84-.06,2.15.81,4.62,3.18,5.17,4.95.36,1.18.34,1.16-1.32-1.19Zm40.89,18.07c.08-.82.22-.92.36-.23s.06,1.23-.14,1.36-.3-.38-.22-1.13Zm1.92-1.4c.15-2.19.31-3,.37-1.86a20.52,20.52,0,0,1-.27,4C94.06,160.16,94,159.2,94.16,157ZM42.65,126.75c.08-.83.22-.92.35-.24s.07,1.24-.13,1.37S42.57,127.5,42.65,126.75Zm5.14,3.08c-3.39-3.39-4.47-5.37-4.29-8,.15-2.29.28-2.42,1.36-1.31,4.51,4.64,10.21,8.84,20.44,15.1l11.2,6.83-1.76.76a5.43,5.43,0,0,1-3.42.15c-2.46-.9-22.29-12.34-23.53-13.58Zm42.12,24.59c-.88-1.07-.75-1.11.76-.24,1.06.61,1.69.66,1.52.12s0-.77.29-.58a2.3,2.3,0,0,1,.48,1.8c-.11,1.55-1.22,1.15-3-1.1ZM42,120.41c.12-1.59.27-2.09.34-1.11a10.1,10.1,0,0,1-.21,2.89c-.18.61-.24-.19-.13-1.78Zm52.57,29.7c.11-1.59.26-2.09.33-1.11a10.14,10.14,0,0,1-.2,2.89c-.18.61-.24-.19-.13-1.78ZM64.63,133c5.13,2.8,10.5,5.62,11.94,6.28,2.68,1.22,3.56,2.66,1.28,2.1-.69-.17-6-3.27-11.9-6.89l-10.64-6.57ZM48.12,121.81A28.76,28.76,0,0,1,44.39,118c-.16-.38.54.06,1.57,1s3.57,3.17,5.64,5c2.44,2.13,3.09,2.88,1.84,2.13A46.53,46.53,0,0,1,48.12,121.81Zm4.37,1.5c-7-5.79-9.56-9.73-7-10.93,1.54-.71,1.44-5-.21-8.51a12.11,12.11,0,0,0-2.25-3.57c-1.14-.69-1.32-5.16-.46-11.07,1.08-7.35,1.51-8.11,2.49-4.35.44,1.65,1.24,5.46,1.8,8.46,2.45,13.29,4.21,14.09,8.27,3.76l1.56-4L56,104.41c-.65,10.42-.63,13.92.08,19.85.15,1.23.06,2.07-.19,1.86Zm4.4-.89a71.5,71.5,0,0,1-.06-12.86l.54-8.1,1.64,1,1.64,1-.48,7.08A67,67,0,0,0,61,127.62c.25,1.69.1,1.76-1.63.71s-1.92-1.28-2.51-5.91Zm5.78,2.79c-.74-4.62-.8-7.78-.34-18.09l.56-12.49L64.43,101a145,145,0,0,0,5.1,16.5c.41,1.12.92.75,8.26-6.1l4.8-4.48-.39,6.78c-.5,8.6-.49,8.57-2,10.22-1,1.07-1.21,2-1.07,4.25.11,1.58.13,4.51,0,6.51-.18,4.38-.33,4.37-9.56-.59l-6.07-3.26Zm9.4,5c1.41-.77,1.61-4.87.36-7.52-1.13-2.4-4.7-4.94-5.86-4.17-.78.51-1.3,5.72-.74,7.38,1.13,3.36,4.15,5.44,6.24,4.31ZM95.35,146c.08-.83.22-.93.36-.24s.06,1.23-.14,1.36-.3-.38-.22-1.12ZM42.9,113.89a1.92,1.92,0,0,0-.94-1.45,9.28,9.28,0,0,1-2.19-3.4l-1.19-2.8,1.29,2.48a10.08,10.08,0,0,0,2.18,3c1,.59,1.72,2.38,1.15,2.75-.2.13-.33-.14-.3-.61Zm52.86,25.92A2.43,2.43,0,0,1,97.12,138c1.31-.62,1.31-.62.34.28a6.53,6.53,0,0,0-1.36,1.82C95.79,140.85,95.73,140.81,95.76,139.81Zm-57.1-37.29c.09-1.19.24-1.52.33-.73a5.19,5.19,0,0,1-.17,2.16C38.64,104.35,38.57,103.71,38.66,102.52Zm59.81,31.84c.09-1.19.24-1.52.33-.73a5.27,5.27,0,0,1-.16,2.17c-.19.39-.26-.25-.17-1.44ZM41.11,92.7c.21-3.19.39-4.35.39-2.57a48,48,0,0,1-.39,5.79c-.22,1.41-.22,0,0-3.22Zm56.66,36.78a11.45,11.45,0,0,1,.11-3.14c.27-1.58.35-1.34.4,1.3q.09,5-.51,1.84ZM48.85,99a29.23,29.23,0,0,1,0-5.63l.34-4.07.2,4.64C49.64,99.17,49.36,101.65,48.85,99Zm17.87,6.39-1-4,3.94-4.58c4.53-5.27,5.45-4.12,2.1,2.61a44,44,0,0,0-2.71,6.75c-1,3.84-1.24,3.76-2.35-.79ZM83.18,115c.21-3.22.64-4.32,2.73-7,1.36-1.75,2.45-2.8,2.43-2.34-.08,1.52-3,9.25-4.21,11.22l-1.21,1.94ZM58,97.57a10,10,0,0,1-.17-3.12c.15-2.2.31-2.33,1.81-1.42s1.62,1.16,1.44,3.9c-.17,2.55-.35,2.8-1.47,2.12A5,5,0,0,1,58,97.57ZM46.32,86.63a33,33,0,0,1-.85-6.14c.13-2.83-.83-4.66-2.12-4.09-.91.4-1,.33-.55-.65a9.31,9.31,0,0,0,.48-1.33c0-.13.49.23,1.08.8a3.08,3.08,0,0,1,1,1.69c0,.35.58,1,1.34,1.48a3.77,3.77,0,0,1,1.62,2.06,1.51,1.51,0,0,0,1.12,1.31c.74.07.8.44.32,2.32-.31,1.23-.79,3.37-1.06,4.76-.64,3.37-1.28,2.79-2.4-2.21ZM53.63,91a26.48,26.48,0,0,1-1-4.15c0-.34.57,1.19,1.21,3.39a20.8,20.8,0,0,1,1,4.16A13.8,13.8,0,0,1,53.63,91Zm11.3,8c0-.15.48-.46,1-.69.93-.37.94-.34.19.4s-1.27.88-1.23.29ZM42.15,83.46c.08-.83.22-.92.35-.24s.07,1.24-.13,1.37-.3-.38-.22-1.13Zm48.74,28c.22-2.21.28-2.3.36-.49s.21,2.13,1.07,1.8.66-.11-.17.6c-1.51,1.3-1.57,1.21-1.26-1.91ZM98,116c.09-1.19.24-1.52.33-.73a5.22,5.22,0,0,1-.16,2.16c-.19.4-.26-.25-.17-1.43ZM83.13,107.5c0-.3.87-1,1.88-1.69l1.82-1.15-1.38,2c-1.25,1.79-2.45,2.23-2.32.85Zm-1.87-3.41c0-1.7.11-1.75.51-.33.26.91.24,1.79,0,2s-.49-.55-.47-1.65Zm-38.58-24c-.4-2.14-.21-2.52.33-.66.27.92.37,1.76.21,1.86S42.83,80.81,42.68,80.05ZM68,95.11c0-.39.31-.56.63-.37a.59.59,0,0,1,.19.87c-.21.29-.49.46-.63.38A1.2,1.2,0,0,1,68,95.11Zm14.55,9.1c-.58-1.22-.29-1.93.57-1.41a1.85,1.85,0,0,1,.74,1.58C83.82,105.51,83.15,105.42,82.58,104.21Zm11.09,7c0-.15.47-.46,1-.69.92-.37.94-.33.18.4S93.63,111.77,93.67,111.17ZM59.06,81.74l.82-6.67-1.41-.85c-.78-.48-1.59-.63-1.8-.34-.55.73-2-2.51-1.58-3.5.19-.43,1.3-.24,2.52.43,2.08,1.16,2.2,1.34,2.37,3.93.25,3.69.94,4.48,2.14,2.48.92-1.54.94-1.93.26-4.54s-.82-2.79-1.52-2-.78.47-.79-2.18c0-3.29.86-4.82,2.27-4,1,.6,1,1,.57,5.44-.26,2.7-.16,3.12,1,3.91.69.48,1.62,1.17,2.07,1.52s1.11.88,1.48,1.17a2.12,2.12,0,0,1,.6,1.64c-.13,2-1.36,2.18-3.53.58l-2.09-1.55L62,83.81l-.44,6.6-1.65-1-1.64-1Zm31.53,25.14c.08-.83.22-.92.36-.24s.06,1.24-.14,1.37-.3-.38-.22-1.13Zm7,4.35c0-.6.31-.94.6-.76s.36.72.14,1.21-.48.84-.6.77A2.12,2.12,0,0,1,97.64,111.23ZM50.78,81.92c.08-.83.22-.92.35-.24S51.2,82.91,51,83s-.3-.37-.22-1.12Zm1.78.2c-.52-2.2-.5-2.25.25-.66a4.51,4.51,0,0,1,.56,2.38c-.14.35-.51-.42-.81-1.72ZM70.4,92.91a4.49,4.49,0,0,1,1.65-1.45c.63-.28.47.15-.44,1.12C70,94.31,69.43,94.46,70.4,92.91ZM57.83,80.62c.2-3,.38-4.16.4-2.59a41.35,41.35,0,0,1-.37,5.43C57.64,84.89,57.63,83.6,57.83,80.62Zm4.8,7a9.19,9.19,0,0,1-.16-2.21c.05-.46.27.09.49,1.22a5.17,5.17,0,0,1,.17,2.21c-.13.09-.35-.46-.49-1.22Zm33.31,20.21c-.35-1.85-.16-4,.36-4.12.23,0,.36,1.19.27,2.75-.19,3.16-.26,3.33-.63,1.37Zm-7.7-7.31c0-1.21.12-2.14.23-2.07.4.25.51,4.11.12,4.19-.2,0-.37-.91-.35-2.12Zm8.9,6.62c-.12-.69,0-1.29.26-1.35s.6.47.73,1.15,0,1.29-.26,1.35S97.27,107.86,97.14,107.18Zm-21.79-14c-.13-.69,0-1.31.38-1.38s.56-1.29.47-2.94c-.09-1.94,0-2.38.31-1.41.58,1.82.41,4.56-.3,4.7-.3.06-.44.67-.31,1.36s.11,1.18,0,1.09a3.27,3.27,0,0,1-.51-1.42ZM92,102.51a8.14,8.14,0,0,0-.45-2.73c-.27-.66-.12-.51.32.33a4.41,4.41,0,0,1,.45,2.73c-.32,1.08-.35,1-.32-.33Zm-2.48-1.79c-.15-.48,0-.92.32-1s.55.39.51,1C90.3,102,90,102,89.56,100.72ZM73,89.4c.08-.82.22-.92.36-.23s.06,1.23-.14,1.36-.3-.38-.22-1.13Zm1.25-1.06c.07-1,.22-1.33.34-.74a3.59,3.59,0,0,1-.13,1.82c-.18.4-.28-.08-.21-1.08ZM55,74.56c-.12-.38.35-.35,1,.07s1.13.94,1,1.16-.63.18-1-.07A2.44,2.44,0,0,1,55,74.56Zm10.54,6.69c0-.15.53-.15,1.14,0s1,.5.77.76C67.12,82.47,65.51,81.82,65.55,81.25ZM68.41,81c0-.4.31-.57.63-.38a.59.59,0,0,1,.19.87c-.21.29-.49.46-.63.38A1.17,1.17,0,0,1,68.41,81Zm.76-2.24c.09-.83.23-.92.36-.24s.07,1.23-.13,1.36S69.1,79.53,69.17,78.78Zm-1.5-3.9c-.44-1.07-.82-1.42-1.25-1.14a2.14,2.14,0,0,1-1.87-.35c-1-.63-1.22-1.13-1-2.71s.23-1.7.34-.18C64,72.31,65.66,74,66.38,73c.48-.64,1.77.86,2.06,2.42s0,1.36-.77-.56Zm-8.58-11.6c.21-.28.49-.45.63-.37s.21.47.19.87-.31.57-.63.37A.59.59,0,0,1,59.09,63.28Zm4.48,1.44c-.22-1.21-.15-1.26.34-.22.34.72.47,1.41.28,1.53s-.46-.47-.62-1.31Zm-3.06-3c.32-.21,1,0,1.57.52.74.67.59.77-.57.38s-1.37-.66-1-.9Z"
                    />
                </g>
            </g>
        </g>
    </g>
</svg>
