<svg xmlns="http://www.w3.org/2000/svg" xmlns:xlink="http://www.w3.org/1999/xlink" viewBox="0 0 375.84 333.63"><defs><style>.cls-1{fill:#4c68ef;}.cls-2{fill:#fff;}.cls-3{fill:url(#linear-gradient);}.cls-4{fill:#ffbf00;}.cls-5{fill:url(#linear-gradient-2);}</style><linearGradient id="linear-gradient" x1="171.23" y1="2906.3" x2="104.85" y2="2594.81" gradientTransform="translate(0 -2552.73)" gradientUnits="userSpaceOnUse"><stop offset="0.06" stop-color="#666" stop-opacity="0.23"/><stop offset="0.88" stop-color="#fff" stop-opacity="0"/></linearGradient><linearGradient id="linear-gradient-2" x1="346.12" y1="1813.29" x2="279.74" y2="2124.78" gradientTransform="matrix(1, 0, 0, -1, 0, 2114.98)" xlink:href="#linear-gradient"/></defs><g id="Layer_2" data-name="Layer 2"><g id="Layer_1-2" data-name="Layer 1"><g id="Layer_2-2" data-name="Layer 2"><g id="Layer_1-2-2" data-name="Layer 1-2"><g id="Layer_2-2-2" data-name="Layer 2-2"><g id="Layer_2-2-2-2" data-name="Layer 2-2-2"><path id="Path_6901" data-name="Path 6901" class="cls-1" d="M27.69,126.83c18-45.19,57.06-51.11,87.1-13.18s39.94,105.27,22,150.46-57.06,51.11-87.1,13.22S9.7,172.09,27.69,126.83Z"/><path id="Path_6902" data-name="Path 6902" class="cls-2" d="M24.1,122.31c19.17-48.22,60.75-54.5,92.84-14.08s42.57,112.23,23.39,160.41S79.6,323.09,47.49,282.69,4.92,170.47,24.1,122.31ZM136.66,264.09c18-45.19,8.16-112.57-22-150.46s-69.1-32-87.1,13.18-8.16,112.57,22,150.5,69.18,32,87.09-13.22"/><path id="Path_6904" data-name="Path 6904" class="cls-1" d="M133.77,60.09a62.73,62.73,0,0,0-9-4.36,54.19,54.19,0,0,0-8.35-2.51,48.37,48.37,0,0,0-16.14-.8L63.74,57.65a46.47,46.47,0,0,1,8-.24,49,49,0,0,1,8.09,1.08A53.93,53.93,0,0,1,88.18,61a62.62,62.62,0,0,1,9,4.34,76.81,76.81,0,0,1,10.43,7.21A106.19,106.19,0,0,1,122,86.85l2.38,2.82A154.68,154.68,0,0,1,142,117.91,197.22,197.22,0,0,1,152.3,143c1.6,4.76,3.8,11.6,5.23,17.12h-.21c1.24,5,2.32,10,3.23,15.12q1.29,7,2.13,14.1c.54,4.54,1,9.11,1.24,13.65s.44,9.1.46,13.6-.1,9.38-.38,14c-.3,5.08-.77,10-1.43,14.88-.8,6-1.9,11.83-3.2,17.54h0a153.9,153.9,0,0,1-6.63,21.26c-11.72,29.43-30.31,46-50.87,48.92L138.43,328c20.58-3,39.13-19.49,50.85-48.89a153.9,153.9,0,0,0,6.63-21.26q2-8.57,3.22-17.54,1-7.32,1.42-14.88c.27-4.62.4-9.3.39-14s-.18-9.05-.46-13.6-.7-9.11-1.26-13.65-1.21-9.42-2.11-14.09q-1.37-7.62-3.23-15.1c-1.47-5.84-3.12-11.59-5-17.22a202.19,202.19,0,0,0-10.29-25.1h0a157.57,157.57,0,0,0-17.67-28.25l-1.24-1.54h0a107.26,107.26,0,0,0-15.46-15.56A78.06,78.06,0,0,0,133.77,60.09Z"/><path id="Path_6905" data-name="Path 6905" class="cls-1" d="M11.67,106.65C35,48.16,85.4,40.52,124.36,89.53S176,225.74,152.76,284.22,79,350.37,40,301.33-11.61,165.16,11.67,106.65Zm128.66,162c19.18-48.16,8.72-120-23.39-160.41S43.27,74.09,24.1,122.31s-8.72,120,23.39,160.42,73.67,34.11,92.84-14.09"/><path class="cls-2" d="M96.31,222.55c1.07-13.21-3.51-21.26-13.23-30.17-6.93-6.53-8.1-10.56-7.68-15.84s3-7,7.75-3.66c4.23,3,6.4,7,7.12,13.45a4.74,4.74,0,0,0,1.5,3.06l3.76,2.7c.94.67,1.74,0,1.86-1.47v-.38c-.28-9-4-18.4-9.34-23l.73-9.06a5.83,5.83,0,0,0-1.64-4.36l-3.53-2.49c-.94-.67-1.73,0-2.12,1.68l-.7,8.68c-7.17-3.51-12.24.86-13,10.3-1,12.46,3.31,20.71,13,29.63,6.43,6.57,8.37,10.34,7.88,16.38s-4.11,7.85-8.58,4.67c-6.11-4.35-7.89-10-8.14-16.17a4.66,4.66,0,0,0-1.47-3.41l-4-2.85c-.94-.66-1.74,0-1.86,1.48v.37c.18,10.11,3.4,19.58,11,27l-.68,9a5.94,5.94,0,0,0,1.64,4.36L80.1,245c.94.67,1.74,0,2.13-1.68l.72-9.06c7.21,3.13,12.55-1.45,13.36-11.64Z"/><path class="cls-2" d="M65.63,242.61C48.14,219,41.37,179.45,50.52,155.23c4.8-13.34,13.49-19.9,23.62-18.7,1-.09,1.56-.88,1.71-2.77l.43-5.29a5.39,5.39,0,0,0-1.17-4c-.24-.17-.71-.5-1-.29-23.22-4.6-38.5,24.83-34.33,65.71,2.54,24.16,11.35,47.59,24,63.75.88,1.43,1.88,1.34,2.23,0,.27-.21.3-.59.36-1.34l.42-5.29A9.91,9.91,0,0,0,65.63,242.61Zm34.4-100c-.88-1.43-1.88-1.34-2.24,0-.26.21-.29.59-.35,1.34L97,149.2A10.3,10.3,0,0,0,98.12,154c17.49,23.62,24.26,63.16,15.11,87.37-4.8,13.35-13.53,19.91-23.62,18.71-1,.08-1.56.88-1.72,2.77l-.45,5.26a5.51,5.51,0,0,0,1.17,4c.23.16.7.5,1,.29,23.24,4.57,38.53-24.85,34.35-65.74-2.5-24.55-11.55-48.1-23.95-64.1Z"/><path id="Path_6904-2" data-name="Path 6904-2" class="cls-3" d="M133.77,60.32a63.81,63.81,0,0,0-9-4.36,56.86,56.86,0,0,0-8.35-2.51,48.91,48.91,0,0,0-16.14-.82L63.74,57.86a48.6,48.6,0,0,1,8-.24,50.09,50.09,0,0,1,8.09,1.08,56.94,56.94,0,0,1,8.35,2.53,63.7,63.7,0,0,1,9,4.34,79.32,79.32,0,0,1,10.43,7.21A107,107,0,0,1,122,87.09l2.38,2.82A155.31,155.31,0,0,1,142,118.09,197.22,197.22,0,0,1,152.3,143.2c1.6,4.76,3.8,11.6,5.23,17.12h-.21c1.24,5,2.32,10,3.23,15.12q1.29,7,2.13,14.1c.54,4.54,1,9.11,1.24,13.65s.44,9.1.46,13.6-.1,9.38-.38,14c-.3,5.08-.77,10-1.43,14.88-.8,6-1.9,11.83-3.2,17.54h0a152.13,152.13,0,0,1-6.63,21.26c-11.72,29.43-30.31,46-50.87,48.92l36.56-5.21c20.58-2.95,39.13-19.49,50.85-48.89a152.77,152.77,0,0,0,6.65-21.2q2-8.55,3.22-17.54,1-7.32,1.42-14.88c.27-4.62.4-9.3.39-14s-.18-9-.46-13.6-.7-9.11-1.26-13.65-1.27-9.42-2.13-14.1q-1.37-7.62-3.23-15.1c-1.47-5.84-3.12-11.59-5-17.22a203.74,203.74,0,0,0-10.29-25.1h0a157.57,157.57,0,0,0-17.67-28.25l-1.24-1.56h0a108.8,108.8,0,0,0-15.46-15.56A79.52,79.52,0,0,0,133.77,60.32Z"/></g></g></g></g><g id="Layer_2-3" data-name="Layer 2"><g id="Layer_2-2-3" data-name="Layer 2-2"><path id="Path_6901-2" data-name="Path 6901" class="cls-4" d="M202.57,74.74c18-45.19,57.06-51.11,87.1-13.18s39.94,105.27,22,150.46-57.06,51.11-87.1,13.22S184.58,120,202.57,74.74Z"/><path id="Path_6902-2" data-name="Path 6902" class="cls-2" d="M199,70.22c19.17-48.2,60.75-54.5,92.84-14.08s42.57,112.23,23.39,160.41-60.73,54.47-92.84,14S179.8,118.38,199,70.22ZM311.54,212c18-45.19,8.16-112.57-22-150.46s-69.1-32-87.1,13.18-8.16,112.57,22,150.5,69.18,32,87.09-13.22"/><path id="Path_6904-2-2" data-name="Path 6904" class="cls-4" d="M308.65,8a63.77,63.77,0,0,0-9-4.36,56.86,56.86,0,0,0-8.35-2.51A48.66,48.66,0,0,0,275.16.33L238.62,5.56a46.47,46.47,0,0,1,8-.24,50.24,50.24,0,0,1,8.09,1.08,55.74,55.74,0,0,1,8.35,2.53,64.77,64.77,0,0,1,9,4.34,79.32,79.32,0,0,1,10.43,7.21,107.5,107.5,0,0,1,14.42,14.28l2.38,2.82a155.78,155.78,0,0,1,17.62,28.24A200.18,200.18,0,0,1,327.2,90.93c1.6,4.76,3.8,11.6,5.23,17.12h-.21c1.24,5,2.32,10,3.23,15.12q1.28,7,2.13,14.1c.54,4.54,1,9.11,1.24,13.65s.44,9.1.46,13.6-.1,9.38-.38,14c-.3,5.08-.77,10-1.43,14.88-.8,6-1.9,11.83-3.2,17.54h0a155.27,155.27,0,0,1-6.63,21.26c-11.72,29.43-30.31,46-50.87,48.92l36.56-5.21c20.58-3,39.13-19.49,50.85-48.89a155.27,155.27,0,0,0,6.63-21.26q2-8.56,3.22-17.54,1-7.32,1.42-14.88c.27-4.62.4-9.3.39-14s-.18-9.05-.46-13.6-.7-9.11-1.26-13.65-1.27-9.42-2.13-14.1q-1.38-7.62-3.23-15.1c-1.47-5.84-3.12-11.59-5-17.22a204.38,204.38,0,0,0-10.29-25.1h0A159.43,159.43,0,0,0,335.8,32.32l-1.24-1.54h0A108.8,108.8,0,0,0,319.1,15.22,80.12,80.12,0,0,0,308.65,8Z"/><path id="Path_6905-2" data-name="Path 6905" class="cls-4" d="M186.55,54.56c23.29-58.49,73.73-66.13,112.69-17.12s51.67,136.21,28.4,194.69-73.73,66.15-112.73,17.11S163.27,113.07,186.55,54.56Zm128.66,162c19.18-48.16,8.72-120-23.39-160.41S218.15,22,199,70.22s-8.72,120,23.39,160.42,73.67,34.11,92.84-14.09"/><path id="Path_6904-2-3" data-name="Path 6904-2" class="cls-5" d="M308.65,8.47a66,66,0,0,0-9-4.36A56.86,56.86,0,0,0,291.3,1.6,48.39,48.39,0,0,0,275.16.74L238.62,6a45.48,45.48,0,0,1,8-.25,50.24,50.24,0,0,1,8.09,1.08,55.74,55.74,0,0,1,8.35,2.53,64.77,64.77,0,0,1,9,4.34,79.32,79.32,0,0,1,10.43,7.21,107.8,107.8,0,0,1,14.42,14.24L299.24,38a156.34,156.34,0,0,1,17.67,28.21A200.18,200.18,0,0,1,327.2,91.34c1.6,4.76,3.8,11.61,5.23,17.12h-.21q1.86,7.49,3.23,15.12,1.28,7,2.13,14.1c.54,4.54,1,9.11,1.24,13.66s.44,9.09.46,13.6-.1,9.37-.38,14q-.45,7.6-1.43,14.87c-.8,6-1.9,11.83-3.2,17.54h0a155.27,155.27,0,0,1-6.63,21.26c-11.72,29.43-30.31,46-50.87,48.93l36.56-5.22c20.54-2.94,39.13-19.49,50.85-48.94a155.27,155.27,0,0,0,6.63-21.26q2-8.58,3.22-17.54,1-7.32,1.42-14.88c.27-4.62.4-9.3.39-14s-.18-9.06-.46-13.61-.7-9.11-1.26-13.65-1.27-9.42-2.13-14.1q-1.38-7.61-3.23-15.1c-1.47-5.84-3.12-11.58-5-17.21a204.52,204.52,0,0,0-10.29-25.11h0A159.43,159.43,0,0,0,335.8,32.67l-1.24-1.54h0A108.8,108.8,0,0,0,319.1,15.57a79.47,79.47,0,0,0-10.45-7.11Z"/><polygon class="cls-2" points="234.72 151.32 253.85 196.83 240.59 208.21 209.56 134.42 243.74 105.1 255.63 133.39 234.72 151.32"/><polygon class="cls-2" points="300.02 157.23 265.85 186.54 253.96 158.26 274.87 140.33 255.74 94.82 269 83.44 300.02 157.23"/></g></g></g></g></svg>