<svg xmlns="http://www.w3.org/2000/svg" xmlns:xlink="http://www.w3.org/1999/xlink" viewBox="0 0 200.95 281.54">
    <defs>
        <style>
            .cls-1 {
                fill: #4c68ef;
            }
            .cls-2 {
                fill: #fff;
            }
            .cls-3 {
                fill: url(#linear-gradient);
            }
        </style>
        <linearGradient id="linear-gradient" x1="171.23" y1="-19.57" x2="104.85" y2="291.92" gradientTransform="matrix(1, 0, 0, -1, 0, 281.92)" gradientUnits="userSpaceOnUse">
            <stop offset="0.06" stop-color="#666" stop-opacity="0.23" />
            <stop offset="0.88" stop-color="#fff" stop-opacity="0" />
        </linearGradient>
    </defs>
    <g id="Layer_2" data-name="Layer 2">
        <g id="Layer_1-2" data-name="Layer 1">
            <g id="Layer_2-2" data-name="Layer 2">
                <g id="Layer_2-2-2" data-name="Layer 2-2">
                    <path id="Path_6901" data-name="Path 6901" class="cls-1" d="M27.68,74.74c18-45.19,57.06-51.11,87.1-13.18s39.94,105.27,22,150.46-57.06,51.11-87.1,13.22S9.69,120,27.68,74.74Z" />
                    <path
                        id="Path_6902"
                        data-name="Path 6902"
                        class="cls-2"
                        d="M24.09,70.22C43.26,22,84.84,15.72,116.93,56.14s42.57,112.23,23.39,160.41S79.59,271,47.48,230.6,4.91,118.38,24.09,70.22ZM136.65,212c18-45.19,8.16-112.57-22-150.46s-69.1-32-87.1,13.18-8.16,112.57,22,150.5,69.18,32,87.09-13.22"
                    />
                    <path
                        id="Path_6904"
                        data-name="Path 6904"
                        class="cls-1"
                        d="M133.76,8a62.73,62.73,0,0,0-9-4.36,56.14,56.14,0,0,0-8.35-2.51A48.63,48.63,0,0,0,100.27.33L63.73,5.56a46.53,46.53,0,0,1,8-.24A49.94,49.94,0,0,1,79.82,6.4a55,55,0,0,1,8.35,2.53,63.7,63.7,0,0,1,9,4.34,78,78,0,0,1,10.43,7.21A106.33,106.33,0,0,1,122,34.76l2.38,2.82A155.23,155.23,0,0,1,142,65.82a197.22,197.22,0,0,1,10.29,25.11c1.6,4.76,3.8,11.6,5.23,17.12h-.21c1.24,5,2.32,10,3.23,15.12q1.29,7,2.13,14.1c.54,4.54,1,9.11,1.24,13.65s.44,9.1.46,13.6-.1,9.38-.38,14c-.3,5.08-.77,10-1.43,14.88-.8,6-1.9,11.83-3.2,17.54h0a152.55,152.55,0,0,1-6.63,21.26c-11.72,29.43-30.31,46-50.87,48.92l36.56-5.21c20.58-3,39.13-19.49,50.85-48.89a152.55,152.55,0,0,0,6.63-21.26q2-8.56,3.22-17.54,1-7.32,1.42-14.88c.27-4.62.4-9.3.39-14s-.18-9.05-.46-13.6-.7-9.11-1.26-13.65S198,122.67,197.1,118q-1.36-7.62-3.23-15.1c-1.47-5.84-3.12-11.59-5-17.22a202.82,202.82,0,0,0-10.29-25.1h0a158.28,158.28,0,0,0-17.67-28.25l-1.24-1.54h0a107.77,107.77,0,0,0-15.46-15.56A78.79,78.79,0,0,0,133.76,8Z"
                    />
                    <path
                        id="Path_6905"
                        data-name="Path 6905"
                        class="cls-1"
                        d="M11.66,54.56C35-3.93,85.39-11.57,124.35,37.44S176,173.65,152.75,232.13,79,298.28,40,249.24-11.62,113.07,11.66,54.56Zm128.66,162c19.18-48.16,8.72-120-23.39-160.41S43.26,22,24.09,70.22s-8.72,120,23.39,160.42,73.67,34.11,92.84-14.09"
                    />
                    <path
                        class="cls-2"
                        d="M96.3,170.46c1.07-13.21-3.51-21.26-13.23-30.17-6.93-6.53-8.1-10.56-7.68-15.84s3-7,7.75-3.66c4.23,3,6.4,7,7.12,13.45a4.74,4.74,0,0,0,1.5,3.06L95.52,140c.94.67,1.74,0,1.86-1.47v-.38c-.28-9-4-18.4-9.34-23l.73-9.06a5.83,5.83,0,0,0-1.64-4.36L83.6,99.24c-.94-.67-1.73,0-2.12,1.68l-.7,8.68c-7.17-3.51-12.24.86-13,10.3-1,12.46,3.31,20.71,13,29.63,6.43,6.57,8.37,10.34,7.88,16.38s-4.11,7.85-8.58,4.67c-6.11-4.35-7.89-10-8.14-16.17A4.66,4.66,0,0,0,70.47,151l-4-2.85c-.94-.66-1.74,0-1.86,1.48V150c.18,10.11,3.4,19.58,11,27L74.93,186a5.9,5.9,0,0,0,1.64,4.36l3.52,2.51c.94.67,1.74,0,2.13-1.68l.72-9.06c7.21,3.13,12.55-1.45,13.36-11.64Z"
                    />
                    <path
                        class="cls-2"
                        d="M65.62,190.52c-17.49-23.62-24.26-63.16-15.11-87.38C55.31,89.8,64,83.24,74.13,84.44c1-.09,1.56-.88,1.71-2.77l.43-5.29a5.39,5.39,0,0,0-1.17-4c-.24-.17-.71-.5-1-.29-23.22-4.6-38.5,24.83-34.33,65.71,2.54,24.16,11.35,47.59,24,63.75.88,1.43,1.88,1.34,2.23,0,.27-.21.3-.59.36-1.34l.42-5.29A9.94,9.94,0,0,0,65.62,190.52Zm34.4-100c-.88-1.43-1.88-1.34-2.24,0-.26.21-.29.59-.35,1.34L97,97.11a10.3,10.3,0,0,0,1.11,4.78c17.49,23.62,24.26,63.16,15.11,87.37-4.8,13.35-13.53,19.91-23.62,18.71-1,.08-1.56.88-1.72,2.77L87.43,216a5.51,5.51,0,0,0,1.17,4c.23.16.7.5,1,.29,23.24,4.57,38.53-24.85,34.35-65.74C121.45,130,112.4,106.45,100,90.45Z"
                    />
                    <path
                        id="Path_6904-2"
                        data-name="Path 6904-2"
                        class="cls-3"
                        d="M133.76,8.23a64.92,64.92,0,0,0-9-4.36,58.61,58.61,0,0,0-8.35-2.51A49.17,49.17,0,0,0,100.27.54L63.73,5.77a48.63,48.63,0,0,1,8-.24,51.07,51.07,0,0,1,8.09,1.08,57.42,57.42,0,0,1,8.35,2.53,64.81,64.81,0,0,1,9,4.34,79.91,79.91,0,0,1,10.43,7.21A107.51,107.51,0,0,1,122,35l2.38,2.82A155.92,155.92,0,0,1,142,66a198.42,198.42,0,0,1,10.29,25.11c1.6,4.76,3.8,11.6,5.23,17.12h-.21c1.24,5,2.32,10,3.23,15.12q1.29,7,2.13,14.1c.54,4.54,1,9.11,1.24,13.65s.44,9.1.46,13.6-.1,9.38-.38,14c-.3,5.08-.77,10-1.43,14.88-.8,6-1.9,11.83-3.2,17.54h0a151.72,151.72,0,0,1-6.63,21.26c-11.72,29.43-30.31,46-50.87,48.92l36.56-5.21c20.58-2.95,39.13-19.49,50.85-48.89A151.72,151.72,0,0,0,195.92,206q2-8.55,3.22-17.54,1-7.32,1.42-14.88c.27-4.62.4-9.3.39-14s-.18-9.05-.46-13.6-.7-9.11-1.26-13.65-1.27-9.42-2.13-14.1q-1.36-7.61-3.23-15.1c-1.47-5.84-3.12-11.59-5-17.22a203.46,203.46,0,0,0-10.29-25.1h0a158.28,158.28,0,0,0-17.67-28.25L159.67,31h0a108.79,108.79,0,0,0-15.46-15.56A79.75,79.75,0,0,0,133.76,8.23Z"
                    />
                </g>
            </g>
        </g>
    </g>
</svg>
