<svg xmlns="http://www.w3.org/2000/svg" xmlns:xlink="http://www.w3.org/1999/xlink" viewBox="0 0 375.83 333.62"><defs><style>.cls-1{fill:#26a17b;}.cls-2,.cls-3{fill:#fff;}.cls-3{fill-rule:evenodd;}.cls-4{fill:url(#linear-gradient);}.cls-5{fill:#ffbf00;}.cls-6{fill:url(#linear-gradient-2);}</style><linearGradient id="linear-gradient" x1="171.23" y1="2370.28" x2="104.85" y2="2681.77" gradientTransform="matrix(1, 0, 0, -1, 0, 2723.65)" gradientUnits="userSpaceOnUse"><stop offset="0.06" stop-color="#666" stop-opacity="0.23"/><stop offset="0.88" stop-color="#fff" stop-opacity="0"/></linearGradient><linearGradient id="linear-gradient-2" x1="346.11" y1="2422.37" x2="279.73" y2="2733.86" xlink:href="#linear-gradient"/></defs><g id="Layer_2" data-name="Layer 2"><g id="Layer_1-2" data-name="Layer 1"><g id="Layer_2-2" data-name="Layer 2"><g id="Layer_2-2-2" data-name="Layer 2-2"><path id="Path_6901" data-name="Path 6901" class="cls-1" d="M27.68,126.82c18-45.19,57.06-51.11,87.1-13.18s39.94,105.27,22,150.46-57.06,51.11-87.1,13.22S9.69,172,27.68,126.82Z"/><path id="Path_6902" data-name="Path 6902" class="cls-2" d="M24.09,122.3c19.17-48.2,60.75-54.5,92.84-14.08s42.57,112.23,23.39,160.41S79.59,323.1,47.48,282.68,4.91,170.46,24.09,122.3ZM136.65,264.1c18-45.19,8.16-112.57-22-150.46s-69.1-32-87.1,13.18-8.16,112.57,22,150.5,69.18,32,87.09-13.22"/><path id="Path_6904" data-name="Path 6904" class="cls-1" d="M133.76,60.1a64.92,64.92,0,0,0-9-4.36,56.14,56.14,0,0,0-8.35-2.51,48.63,48.63,0,0,0-16.14-.82L63.73,57.64a46.53,46.53,0,0,1,8-.24,49.94,49.94,0,0,1,8.09,1.08A57.42,57.42,0,0,1,88.17,61a63.7,63.7,0,0,1,9,4.34,78,78,0,0,1,10.43,7.21A106.33,106.33,0,0,1,122,86.84l2.38,2.82A155.92,155.92,0,0,1,142,117.9,198.42,198.42,0,0,1,152.31,143c1.6,4.76,3.8,11.6,5.23,17.12h-.21c1.24,5,2.32,10,3.23,15.12q1.29,7,2.13,14.1c.54,4.54,1,9.11,1.24,13.65s.44,9.1.46,13.6-.1,9.38-.38,14c-.3,5.08-.77,10-1.43,14.88-.8,6-1.9,11.83-3.2,17.54h0a152.13,152.13,0,0,1-6.63,21.26c-11.72,29.43-30.31,46-50.87,48.92L138.44,328C159,325,177.57,308.5,189.29,279.1a152.13,152.13,0,0,0,6.63-21.26q2-8.56,3.22-17.54,1-7.32,1.42-14.88c.27-4.62.4-9.3.39-14s-.18-9-.46-13.6-.7-9.11-1.26-13.65-1.27-9.42-2.13-14.1q-1.36-7.6-3.23-15.1c-1.47-5.84-3.12-11.59-5-17.22a203.46,203.46,0,0,0-10.29-25.1h0A158.28,158.28,0,0,0,160.91,84.4l-1.24-1.54h0A108.28,108.28,0,0,0,144.21,67.3,79.75,79.75,0,0,0,133.76,60.1Z"/><path id="Path_6905" data-name="Path 6905" class="cls-1" d="M11.66,106.64C35,48.15,85.39,40.51,124.35,89.52S176,225.73,152.75,284.21,79,350.36,40,301.32-11.62,165.15,11.66,106.64Zm128.66,162c19.18-48.16,8.72-120-23.39-160.41S43.26,74.1,24.09,122.3s-8.72,120,23.39,160.42,73.67,34.11,92.84-14.09"/><path class="cls-3" d="M91.65,216.54h0c-.54-.22-3.34-1.42-9.58-4.55-5-2.49-8.48-4.44-9.71-5.13h0C53.21,196.21,39,185,39.07,180.1s14.48-1.72,33.67,6.87l-.3,15.84c1.25.74,4.83,2.8,9.79,5.29,6,3,8.94,4.18,9.48,4.39l.3-15.83c19.11,10.64,33.3,21.86,33.21,26.7s-14.44,1.73-33.59-6.84h0Zm.41-21.5.27-14.18L119,194.27l.41-21.62L46.75,136.16l-.41,21.61L73,171.17l-.27,14.17C51,175.66,34.64,172.69,34.52,179s16.09,19.66,37.76,31.77l-.86,45.38,19.29,9.69.86-45.44c21.67,9.66,38.05,12.62,38.17,6.37S113.69,207.1,92,195h0Z"/><path id="Path_6904-2" data-name="Path 6904-2" class="cls-4" d="M133.76,60.1a64.92,64.92,0,0,0-9-4.36,56.14,56.14,0,0,0-8.35-2.51,48.63,48.63,0,0,0-16.14-.82L63.73,57.64a46.53,46.53,0,0,1,8-.24,49.94,49.94,0,0,1,8.09,1.08A57.42,57.42,0,0,1,88.17,61a63.7,63.7,0,0,1,9,4.34,78,78,0,0,1,10.43,7.21A106.33,106.33,0,0,1,122,86.84l2.38,2.82A155.92,155.92,0,0,1,142,117.9,198.42,198.42,0,0,1,152.31,143c1.6,4.76,3.8,11.6,5.23,17.12h-.21c1.24,5,2.32,10,3.23,15.12q1.29,7,2.13,14.1c.54,4.54,1,9.11,1.24,13.65s.44,9.1.46,13.6-.1,9.38-.38,14c-.3,5.08-.77,10-1.43,14.88-.8,6-1.9,11.83-3.2,17.54h0a152.13,152.13,0,0,1-6.63,21.26c-11.72,29.43-30.31,46-50.87,48.92L138.44,328C159,325,177.57,308.5,189.29,279.1a152.13,152.13,0,0,0,6.63-21.26q2-8.56,3.22-17.54,1-7.32,1.42-14.88c.27-4.62.4-9.3.39-14s-.18-9-.46-13.6-.7-9.11-1.26-13.65-1.27-9.42-2.13-14.1q-1.36-7.6-3.23-15.1c-1.47-5.84-3.12-11.59-5-17.22a203.46,203.46,0,0,0-10.29-25.1h0A158.28,158.28,0,0,0,160.91,84.4l-1.24-1.54h0A108.28,108.28,0,0,0,144.21,67.3,79.75,79.75,0,0,0,133.76,60.1Z"/></g></g><g id="Layer_2-3" data-name="Layer 2"><g id="Layer_2-2-3" data-name="Layer 2-2"><path id="Path_6901-2" data-name="Path 6901" class="cls-5" d="M202.56,74.74c18-45.19,57.06-51.11,87.1-13.18s39.94,105.27,22,150.46-57.06,51.11-87.1,13.22S184.57,120,202.56,74.74Z"/><path id="Path_6902-2" data-name="Path 6902" class="cls-2" d="M199,70.22c19.17-48.2,60.75-54.5,92.84-14.08s42.57,112.23,23.39,160.41-60.73,54.47-92.84,14S179.79,118.38,199,70.22ZM311.53,212c18-45.19,8.16-112.57-21.95-150.46s-69.1-32-87.1,13.18-8.16,112.57,22,150.5,69.18,32,87.09-13.22"/><path id="Path_6904-2-2" data-name="Path 6904" class="cls-5" d="M308.64,8a62.73,62.73,0,0,0-9-4.36,56.14,56.14,0,0,0-8.35-2.51A48.63,48.63,0,0,0,275.15.33L238.61,5.56a46.5,46.5,0,0,1,8-.24A50.09,50.09,0,0,1,254.7,6.4a55,55,0,0,1,8.35,2.53,63.7,63.7,0,0,1,9,4.34,78.66,78.66,0,0,1,10.43,7.21A106.33,106.33,0,0,1,296.9,34.76l2.38,2.82A155.23,155.23,0,0,1,316.9,65.82a197.22,197.22,0,0,1,10.29,25.11c1.6,4.76,3.8,11.6,5.23,17.12h-.21c1.24,5,2.32,10,3.23,15.12q1.29,7,2.13,14.1c.54,4.54,1,9.11,1.24,13.65s.44,9.1.46,13.6-.1,9.38-.38,14c-.3,5.08-.77,10-1.43,14.88-.8,6-1.9,11.83-3.2,17.54h0a153.9,153.9,0,0,1-6.63,21.26c-11.72,29.43-30.31,46-50.87,48.92l36.56-5.21c20.58-3,39.13-19.49,50.85-48.89a153.9,153.9,0,0,0,6.63-21.26q2-8.56,3.22-17.54,1-7.32,1.42-14.88c.27-4.62.4-9.3.39-14s-.18-9.05-.46-13.6-.7-9.11-1.26-13.65-1.27-9.42-2.13-14.1q-1.37-7.62-3.23-15.1c-1.47-5.84-3.12-11.59-5-17.22a204.38,204.38,0,0,0-10.29-25.1h0a158.28,158.28,0,0,0-17.67-28.25l-1.24-1.54h0a107.77,107.77,0,0,0-15.46-15.56A78.79,78.79,0,0,0,308.64,8Z"/><path id="Path_6905-2" data-name="Path 6905" class="cls-5" d="M186.54,54.56c23.29-58.49,73.73-66.13,112.69-17.12s51.67,136.21,28.4,194.69S253.9,298.28,214.9,249.24,163.26,113.07,186.54,54.56Zm128.66,162c19.18-48.16,8.72-120-23.39-160.41S218.14,22,199,70.22s-8.72,120,23.39,160.42S296,264.75,315.2,216.55"/><g id="Layer_2-3-2" data-name="Layer 2-3"><g id="Layer_1-2-2" data-name="Layer 1-2"><path id="Path_7062" data-name="Path 7062" class="cls-2" d="M259.57,73.15,268,97l-26.57,28.35L233,101.94Z"/><path id="Path_7063" data-name="Path 7063" class="cls-2" d="M272.38,108.7l8.45,23.88-42.64,45.53-8.42-23.44Z"/><path id="Path_7064" data-name="Path 7064" class="cls-2" d="M227.57,107.37l8.4,23.82-10.54,11.32L217,119Z"/><path id="Path_7065" data-name="Path 7065" class="cls-2" d="M285.19,144.25l8.44,23.88L251,213.66l-8.42-23.44Z"/></g></g><path id="Path_6904-2-3" data-name="Path 6904-2" class="cls-6" d="M308.64,8a62.73,62.73,0,0,0-9-4.36,56.14,56.14,0,0,0-8.35-2.51A48.63,48.63,0,0,0,275.15.33L238.61,5.56a46.5,46.5,0,0,1,8-.24A50.09,50.09,0,0,1,254.7,6.4a55,55,0,0,1,8.35,2.53,63.7,63.7,0,0,1,9,4.34,78.66,78.66,0,0,1,10.43,7.21A106.33,106.33,0,0,1,296.9,34.76l2.38,2.82A155.23,155.23,0,0,1,316.9,65.82a197.22,197.22,0,0,1,10.29,25.11c1.6,4.76,3.8,11.6,5.23,17.12h-.21c1.24,5,2.32,10,3.23,15.12q1.29,7,2.13,14.1c.54,4.54,1,9.11,1.24,13.65s.44,9.1.46,13.6-.1,9.38-.38,14c-.3,5.08-.77,10-1.43,14.88-.8,6-1.9,11.83-3.2,17.54h0a153.9,153.9,0,0,1-6.63,21.26c-11.72,29.43-30.31,46-50.87,48.92l36.56-5.21c20.58-3,39.13-19.49,50.85-48.89a153.9,153.9,0,0,0,6.63-21.26q2-8.56,3.22-17.54,1-7.32,1.42-14.88c.27-4.62.4-9.3.39-14s-.18-9.05-.46-13.6-.7-9.11-1.26-13.65-1.27-9.42-2.13-14.1q-1.37-7.62-3.23-15.1c-1.47-5.84-3.12-11.59-5-17.22a204.38,204.38,0,0,0-10.29-25.1h0a158.28,158.28,0,0,0-17.67-28.25l-1.24-1.54h0a107.77,107.77,0,0,0-15.46-15.56A78.79,78.79,0,0,0,308.64,8Z"/></g></g></g></g></svg>